<svg width="169" height="78" viewBox="0 0 169 78" fill="none" xmlns="http://www.w3.org/2000/svg">
<path d="M38.6159 51.8517C38.9568 52.0243 39.3226 52.2234 39.7102 52.483C40.8589 53.2735 41.8333 54.1403 42.9336 54.8944C43.0336 54.9637 43.1373 55.0299 43.2449 55.0927C43.9013 55.4796 44.6009 55.6989 45.5483 56.0446C46.048 56.266 46.4517 56.4862 46.1959 56.3492C45.926 56.1702 44.8447 56.4342 44.6493 56.8184C44.3994 57.1409 44.4111 57.247 44.3831 57.3065C44.3534 57.4144 44.3622 57.3624 44.3569 57.3119C44.3514 57.1954 44.3382 57.0002 44.3253 56.7948C44.3078 56.3647 44.2485 55.9283 44.3803 55.1802C44.4231 54.956 44.4545 54.7251 44.4818 54.468C44.5273 54.0408 44.5444 53.5529 44.5544 53.052C44.5591 52.1043 44.7431 51.1702 44.7889 50.5754C44.8532 49.5931 44.9224 48.6306 44.91 47.7408C44.9063 47.4826 44.8953 47.2277 44.8763 46.9704C44.7862 45.8623 44.7464 44.6519 44.8972 43.4926C45.0143 42.5413 45.1324 41.6133 45.172 40.7265C45.1787 40.5704 45.1825 40.4166 45.1824 40.2679C45.2964 37.9445 45.683 36.0492 46.0937 33.9721C46.1145 33.874 46.1353 33.7785 46.1567 33.6812C46.3173 32.9242 46.5395 32.1561 46.6786 31.463C46.8406 30.5904 47.1488 29.824 47.427 29.0669C47.5462 28.7393 47.6772 28.3977 47.7286 28.112C47.776 27.7759 47.8287 27.4457 47.87 27.1164C47.9024 26.8553 47.9294 26.5946 47.9316 26.3382C47.9365 26.1578 47.9621 26.0034 47.9639 25.8523C47.9653 25.7705 47.9599 25.697 47.9356 25.6318C47.9165 25.5789 47.8971 25.5239 47.8835 25.4676C47.8704 25.4118 47.8681 25.3604 47.893 25.3247C47.9178 25.2897 47.9697 25.2718 48.043 25.2934C48.1153 25.3142 48.2046 25.3838 48.2564 25.4841C48.3205 25.6056 48.3419 25.7315 48.3538 25.8319C48.3756 26.0169 48.3716 26.1888 48.3881 26.3186C48.4249 26.604 48.4332 26.886 48.4368 27.165C48.4405 27.5051 48.4336 27.8398 48.4329 28.1665C48.4209 28.4869 48.3652 28.7299 48.3153 28.9827C48.118 29.0241 47.9532 29.1071 47.8297 29.3141C47.7667 29.4201 47.7053 29.5826 47.7016 29.7146C47.6983 29.8332 47.7258 29.9309 47.7526 30.0235C47.7807 30.12 47.8078 30.2112 47.7984 30.3153C47.7824 30.4921 47.8158 30.6713 47.8563 30.8543C47.8711 30.9208 47.8868 30.9882 47.9016 31.0557C47.8768 31.243 47.859 31.4275 47.8521 31.6048C47.8313 31.9864 47.7865 32.3448 47.7483 32.6903C47.6921 32.8955 47.6436 33.0819 47.6235 33.2445C47.6056 33.3897 47.6213 33.5282 47.6468 33.6672C47.6391 33.7509 47.6316 33.8347 47.6245 33.9174C47.6163 34.0121 47.6087 34.1051 47.601 34.2006C47.566 34.6433 47.5372 35.0922 47.5128 35.54C47.4159 35.9547 47.3209 36.3919 47.2447 36.9661C47.212 37.2136 47.1639 37.4563 47.1192 37.6893C47.053 38.0343 46.9938 38.3593 47.0006 38.6468C47.0051 38.84 46.968 39.0385 46.9334 39.2358C46.887 39.5005 46.8446 39.7686 46.9166 39.9912C46.9375 40.0558 46.9616 40.1157 46.9873 40.1593C47.0194 40.2418 47.0512 40.3215 47.0809 40.3975C47.1685 40.6218 47.239 40.8188 47.244 40.9958C47.253 41.328 47.3015 41.6124 47.3421 41.8634C47.3908 42.1649 47.4276 42.4172 47.3608 42.6305C47.3507 42.6626 47.3375 42.6999 47.3225 42.7411C47.2515 42.9377 47.1403 43.2387 47.1352 43.6633C47.1348 43.7082 47.1359 43.7544 47.1387 43.8018C47.1487 43.9717 47.1952 44.1276 47.2439 44.2785C47.315 44.4978 47.3903 44.7039 47.3651 44.9313C47.3613 44.9647 47.3421 45.002 47.3246 45.0344C47.3024 45.0762 47.2832 45.114 47.3025 45.1343C47.3589 45.1956 47.4233 45.2915 47.4948 45.3968C47.5472 45.4728 47.6035 45.5545 47.6622 45.6284C47.7056 45.9565 47.7578 46.2896 47.8157 46.6263C47.8678 46.9413 47.91 47.2608 47.942 47.5777C47.9749 47.9032 47.9973 48.2254 48.0131 48.5414C47.9348 48.7036 47.8629 48.8662 47.8074 49.0358C47.7348 49.258 47.7093 49.5425 47.6726 49.9048C47.6496 50.1318 47.6222 50.3878 47.5768 50.6797C47.5686 50.7393 47.5592 50.7992 47.5486 50.8595C47.4084 51.6124 47.3442 52.2162 47.3864 52.6063C47.3938 52.6884 47.4029 52.7702 47.4142 52.8569C47.4218 52.9155 47.4303 52.9759 47.44 53.0411C47.482 53.3983 47.5474 53.8453 47.5479 54.6691C47.5453 55.0686 47.5107 55.4687 47.4469 55.8349C47.4339 55.9686 47.4365 56.3423 47.4491 56.6266C47.459 56.8894 47.4699 57.1349 47.4733 57.3614C47.4736 57.5024 47.4788 57.6515 47.4392 57.9203C47.4096 58.0617 47.4059 58.2221 47.212 58.5817C47.1719 58.9544 45.8531 59.6319 45.358 59.3301C45.0538 59.2443 44.8779 59.1473 44.7388 59.0767C44.4734 58.9335 44.343 58.8631 44.3084 58.8602C44.0419 58.7592 43.7308 58.6532 43.5243 58.587C43.4068 58.5496 43.2804 58.5106 43.1421 58.4658C42.7595 58.3398 42.2792 58.179 41.6367 57.838C41.4715 57.7496 41.3236 57.6625 41.189 57.5769C40.841 57.3564 40.5956 57.1726 40.3508 56.9739C40.219 56.8668 40.1319 56.7283 40.0424 56.5857C39.9156 56.3834 39.7835 56.1723 39.5114 56.0311C39.4477 55.998 39.3756 55.9701 39.2998 55.9408C39.1609 55.8872 39.0109 55.8297 38.8845 55.7301C38.8405 55.6955 38.8091 55.6532 38.7785 55.6119C38.7453 55.5668 38.7116 55.5219 38.6631 55.4895C38.4809 55.3674 38.2998 55.2576 38.1416 55.1636C38.1178 55.1495 38.095 55.136 38.073 55.1231C37.9246 55.0361 37.786 54.9605 37.702 54.8976C37.5323 54.7706 37.3057 54.6807 37.063 54.582C36.8775 54.5064 36.6819 54.4253 36.4936 54.3139C36.3119 54.2052 36.0962 54.0842 35.8292 53.9016C35.5756 53.7366 35.1591 53.5434 34.698 53.3564C34.4319 53.2471 34.2313 53.0949 33.9464 52.8714C33.9141 52.8459 33.8799 52.819 33.845 52.7912C33.6935 52.6694 33.5287 52.5335 33.3357 52.3829C33.2018 52.2785 33.0643 52.2332 32.9375 52.191C32.8208 52.1523 32.7137 52.1164 32.6311 52.0411C32.5582 51.9746 32.5427 51.8882 32.5279 51.8061C32.5118 51.7149 32.4966 51.629 32.4064 51.5834C32.3585 51.5591 32.2871 51.5493 32.2028 51.538C32.1694 51.5336 32.1338 51.5287 32.097 51.5229C32.1055 51.5132 32.1122 51.5039 32.1171 51.4967C32.1511 51.4458 32.0849 51.363 32.0202 51.2825C31.9944 51.2503 31.9686 51.2184 31.9496 51.189C31.8797 51.0804 31.6978 50.9522 31.5545 50.8647C31.5147 50.8403 31.4822 50.8107 31.4497 50.7766C31.4311 50.7577 31.4126 50.7375 31.3932 50.7163C31.3434 50.6619 31.2874 50.6006 31.2079 50.5352C31.1626 50.498 31.1342 50.459 31.1109 50.4267C31.094 50.4033 31.0797 50.3834 31.0632 50.37C31.0489 50.3585 31.0269 50.3653 31.0023 50.3731C30.9846 50.3786 30.9653 50.3847 30.9465 50.3846C30.9013 50.3843 30.856 50.3639 30.8311 50.3388C30.8196 50.3272 30.8127 50.3147 30.8059 50.3022C30.7979 50.2877 30.7901 50.2732 30.7748 50.26C30.7047 50.1998 30.619 50.1681 30.5299 50.135C30.4321 50.0985 30.3296 50.0598 30.2402 49.9793C30.212 49.954 30.1858 49.9213 30.1605 49.8895C30.1339 49.8561 30.1084 49.824 30.0823 49.8024C29.9769 49.7154 29.8466 49.6797 29.7255 49.645C29.645 49.6221 29.5687 49.5996 29.5081 49.564C29.3969 49.4985 29.3089 49.4998 29.244 49.5007C29.2101 49.5009 29.1829 49.5016 29.1608 49.4916C29.1442 49.4777 29.1279 49.4636 29.1118 49.4493C29.0981 49.4344 29.0842 49.4191 29.0682 49.4088C29.067 49.408 29.0657 49.4073 29.0645 49.4065C29.0641 49.4062 29.0637 49.4058 29.0634 49.4055C29.0003 49.3426 28.9363 49.275 28.8697 49.2073C28.7193 49.0548 28.5557 48.9019 28.3437 48.7973C28.2978 48.7747 28.2423 48.7662 28.1857 48.7575C28.1163 48.747 28.0451 48.7363 27.9878 48.6998C27.8511 48.6126 27.7267 48.4983 27.6023 48.3855C27.4151 48.216 27.2281 48.0503 27.0032 47.9885C26.9415 47.9715 26.8765 47.9626 26.811 47.9552C26.7992 47.9546 26.7874 47.9541 26.7755 47.9536C26.7366 47.952 26.6973 47.9506 26.6587 47.9474C26.679 47.9257 26.6953 47.9038 26.7106 47.8835C26.7422 47.8416 26.7692 47.8057 26.818 47.7894C26.8533 47.7776 26.8911 47.7638 26.9277 47.748C27.0167 47.7159 27.0977 47.672 27.1209 47.6139C27.13 47.5912 27.1456 47.5689 27.1614 47.5465C27.2011 47.4905 27.2419 47.4334 27.1811 47.3628C27.175 47.3557 27.1675 47.3472 27.1588 47.3377C27.1123 47.2853 27.0239 47.2043 26.9338 47.2076C26.9109 47.2084 26.8897 47.2228 26.8662 47.2389C26.8239 47.2678 26.7744 47.3021 26.6917 47.2744C26.6777 47.2697 26.6627 47.2643 26.6472 47.2586C26.5855 47.2357 26.5154 47.2103 26.4747 47.2309C26.4279 47.2546 26.4134 47.3007 26.3964 47.3544C26.3743 47.4243 26.3477 47.5071 26.242 47.5717C26.2211 47.5844 26.1948 47.5797 26.175 47.5762C26.161 47.5737 26.1502 47.5719 26.1466 47.577C26.1425 47.583 26.1402 47.5982 26.1372 47.6175C26.1266 47.6855 26.1088 47.8044 25.9774 47.7477C25.9416 47.7323 25.9034 47.7083 25.8685 47.6865C25.8173 47.6545 25.7737 47.6276 25.7597 47.6418C25.7544 47.6472 25.7495 47.6535 25.7447 47.6601C25.7014 47.6374 25.658 47.6147 25.614 47.5916C25.5657 47.5442 25.4836 47.5079 25.3788 47.4609C25.3535 47.4496 25.3263 47.4372 25.2987 47.4244C25.2089 47.3762 25.1186 47.3272 25.0277 47.2769C24.9579 47.2316 24.8866 47.1784 24.8145 47.1135C24.6709 46.984 24.5649 46.8345 24.4652 46.6876C24.4366 46.6457 24.4092 46.6044 24.3805 46.5631C24.3698 46.545 24.359 46.5271 24.3479 46.5096C24.3678 46.5167 24.3863 46.5224 24.4022 46.525C24.4031 46.5252 24.404 46.5254 24.405 46.5256C24.5332 46.5507 24.6161 46.5027 24.6913 46.4582C24.7417 46.4287 24.789 46.4007 24.8438 46.3957C24.945 46.3868 24.9676 46.3246 24.9851 46.2792C24.9941 46.2556 25.0016 46.2364 25.0171 46.2308C25.0295 46.2264 25.0496 46.2319 25.0708 46.2377C25.0891 46.2427 25.108 46.2478 25.1224 46.2465C25.2977 46.2301 25.283 46.1597 25.2637 46.0586C25.2531 46.0029 25.2414 45.9376 25.258 45.866C25.2788 45.792 25.2943 45.7755 25.3742 45.7837C25.3397 45.7238 25.3061 45.6639 25.2726 45.6036C25.2517 45.595 25.2256 45.6073 25.1859 45.6295C25.1264 45.6623 25.0224 45.6359 24.9274 45.6032C24.9082 45.5966 24.8894 45.5898 24.8715 45.5835C24.8224 45.5662 24.7784 45.551 24.7513 45.5482C24.6057 45.5325 24.6039 45.6208 24.6008 45.6973C24.5993 45.7395 24.5976 45.7785 24.5729 45.7958C24.5624 45.8032 24.5641 45.8171 24.5657 45.8313C24.567 45.8423 24.5682 45.8534 24.5639 45.8618C24.5324 45.9226 24.4409 45.9303 24.356 45.9387C24.3077 45.9436 24.2612 45.9486 24.2299 45.9631C24.2203 45.9675 24.2118 45.9727 24.2038 45.9778C24.192 45.9852 24.1808 45.9923 24.1666 45.9961C24.1345 46.0047 24.0832 45.9953 24.0263 45.9851C23.9974 45.98 23.9669 45.9746 23.9372 45.9715C23.8988 45.9674 23.8751 45.986 23.8502 46.0053C23.8327 46.019 23.8145 46.033 23.7903 46.0401C23.7464 46.0528 23.6799 46.0329 23.6173 46.0146C23.5902 46.0066 23.5636 45.9989 23.5404 45.9943C23.531 45.9924 23.5249 45.9947 23.5213 46.0001C23.416 45.9741 23.3133 45.9505 23.212 45.9271C22.7053 45.8099 22.223 45.6929 21.6307 45.2862C21.6231 45.281 21.6155 45.2758 21.6077 45.2707C21.5157 45.2076 21.4093 45.1524 21.2977 45.103C20.9431 44.881 20.5763 44.6614 20.2074 44.4446C20.1594 44.3515 20.0896 44.2588 19.9974 44.1678C19.8241 43.9969 19.6175 43.8776 19.3723 43.7382C19.2841 43.688 19.1908 43.6352 19.0922 43.5765C18.9824 43.5118 18.8675 43.4391 18.7479 43.3544C18.3544 43.0771 17.9693 42.7878 17.5312 42.5326C17.307 42.4024 17.0643 42.2767 16.8245 42.1695C16.564 42.0543 16.329 41.9336 16.1365 41.8323C15.9209 41.7187 15.7257 41.55 15.5487 41.392C15.2997 41.1697 15.0835 40.9684 14.884 40.9616C14.8202 40.9593 14.7474 40.9773 14.6764 40.9947C14.6259 41.0072 14.5763 41.0191 14.5319 41.0238C14.4527 40.9686 14.3734 40.9137 14.2944 40.8591C14.1925 40.738 14.029 40.5786 13.8182 40.5012C13.7865 40.4893 13.754 40.4791 13.7208 40.4709C13.6362 40.4147 13.5517 40.3578 13.47 40.302C13.2925 40.1813 13.1207 40.061 12.9491 39.9388C12.8923 39.8983 12.8368 39.8584 12.7798 39.8174C12.7793 39.817 12.7788 39.8166 12.7783 39.8162C12.6645 39.7342 12.5514 39.6518 12.4396 39.5698C12.3917 39.5346 12.3448 39.5 12.2967 39.4647C12.1759 39.3759 12.0547 39.2867 11.9359 39.1997C11.8731 39.1536 11.8099 39.1077 11.7458 39.0615C11.6425 38.9871 11.5383 38.9133 11.4339 38.8419C11.2653 38.7265 11.0953 38.6164 10.9202 38.5174C10.8916 38.5012 10.8667 38.4793 10.8513 38.4558C10.836 38.4323 10.8313 38.409 10.8389 38.3901C10.8466 38.3711 10.8663 38.3576 10.8944 38.3523C10.9225 38.3469 10.9565 38.3503 10.9887 38.361C11.1866 38.4267 11.3813 38.5055 11.5736 38.5895C11.6926 38.6416 11.8112 38.696 11.9283 38.751C12.001 38.7852 12.0723 38.8193 12.1433 38.8533C12.2775 38.9177 12.4135 38.9842 12.5481 39.0499C12.6015 39.076 12.6539 39.1015 12.707 39.1274C12.8314 39.1879 12.9564 39.2487 13.0815 39.3089C13.0823 39.3092 13.083 39.3096 13.0838 39.31C13.1458 39.3398 13.2062 39.3686 13.2677 39.3978C13.455 39.4868 13.6412 39.5735 13.8317 39.6604C13.9311 39.7053 14.0335 39.7514 14.1354 39.7965C14.1529 39.8042 14.1705 39.812 14.1882 39.8198C14.2286 39.8376 14.2686 39.8554 14.3081 39.8731C14.3393 39.8871 14.3708 39.9014 14.4024 39.9159C15.1292 40.2448 15.8294 40.606 16.5284 40.897C16.7631 40.9941 16.9967 41.0818 17.2269 41.1524C17.7554 41.319 18.2717 41.5462 18.7436 41.7582C19.0865 41.9118 19.4159 42.0548 19.7504 42.1854C20.1358 42.338 20.5204 42.4947 20.9037 42.6557C21.481 42.8989 22.055 43.1481 22.6373 43.4296C23.4852 43.8473 24.4362 44.125 25.4713 44.6488C26.2285 45.0326 27.0515 45.2798 28.041 45.7713C28.896 46.2046 29.752 46.6134 30.6827 47.239C31.3388 47.675 32.0975 48.1175 32.8412 48.5436C33.3933 48.861 33.9165 49.1923 34.412 49.4996C34.7602 49.7153 35.1002 49.9222 35.4199 50.0948C35.6324 50.2089 35.8954 50.339 36.163 50.4745C36.635 50.7168 37.1241 50.957 37.6957 51.354C37.7761 51.4074 37.9096 51.4856 38.0617 51.5669C38.2227 51.6532 38.4103 51.7478 38.6159 51.8517Z" fill="#FF3C3C"/>
<path d="M37.966 38.7325C37.8323 38.3139 37.6579 37.8731 37.524 37.629C37.3678 37.2726 36.6889 36.8629 35.5434 36.5973C35.1099 36.4452 33.4724 36.6844 32.1968 36.8803C29.6485 37.2983 26.9536 37.9276 24.3147 38.5407C21.9302 39.0737 20.0091 39.7112 17.1511 40.3419C16.6458 40.4067 16.1422 40.4663 15.6142 40.5146C14.8917 40.4941 15.1987 40.8268 13.2305 40.3692C13.0076 40.2304 12.5368 40.0841 12.2296 39.2007C11.9984 38.2034 12.4485 37.7513 12.5669 37.5632C12.9002 37.166 13.0712 37.0913 13.2322 36.9745C13.5495 36.7697 13.7934 36.6497 14.0419 36.5266C16.0352 35.5841 18.0573 34.8972 19.439 34.0098C19.8447 33.7811 20.484 33.1109 20.1971 33.4871C20.1894 33.6376 19.8514 33.7783 20.2294 34.8309C20.8662 35.8645 21.4623 35.687 21.5691 35.7398C21.8627 35.7435 21.8085 35.7229 21.8073 35.7314C21.7663 35.7425 21.6339 35.7875 21.5079 35.8383C21.2465 35.9427 20.9511 36.079 20.6586 36.2225C20.073 36.511 19.4725 36.8376 18.9219 37.1707C17.8076 37.833 16.3834 38.6975 16.2144 39.0081C16.5972 38.782 16.4468 37.1979 16.143 37.1043C15.9272 36.8608 15.9074 36.8901 15.9114 36.8821C15.935 36.895 16.0857 36.967 16.2376 37.0294C16.5516 37.1601 16.9287 37.3029 17.3048 37.4493C18.8852 38.0556 20.5412 38.6387 22.2065 39.2812C23.2341 39.6738 24.2306 40.1178 25.1522 40.4644C26.5315 40.9833 28.0116 41.5028 29.4847 42.1304C31.1894 42.8835 32.7378 43.5499 34.5432 44.8881C34.6648 44.9873 34.789 45.0874 34.9151 45.1886C35.8869 45.9623 36.9308 46.8001 37.9095 47.6712C37.9957 47.7477 38.0825 47.8244 38.1952 47.9311C38.2547 47.9889 38.31 48.0382 38.4298 48.1724C38.5083 48.3073 38.5258 48.1309 38.8627 48.9159C38.8957 49.0552 39.2801 50.0399 38.3017 50.9727C37.4239 51.6095 37.1509 51.4069 36.9586 51.4473C36.6142 51.4272 36.553 51.3902 36.4571 51.3686C34.0356 50.7 32.6292 48.9796 31.392 48.211C29.5043 46.9473 27.3877 45.7293 25.3064 44.4498C24.0505 43.6682 22.8932 43.0308 21.5206 42.3436C20.6031 41.8722 19.712 41.3772 18.916 41.0172C18.8313 40.9794 18.7562 40.9448 18.6714 40.9044C18.6498 40.8941 18.6283 40.8837 18.6 40.8699C18.5847 40.8623 18.5717 40.856 18.5426 40.8411C18.524 40.8311 18.519 40.8301 18.4448 40.7877C18.3889 40.7495 18.4677 40.8195 18.2053 40.6219C18.1274 40.4674 17.8893 40.6708 17.5611 39.4692C17.4544 39.0609 17.7425 38.1631 18.2015 37.8604C18.6359 37.5279 18.9305 37.5087 19.1082 37.4787C19.4607 37.4464 19.5499 37.4844 19.6402 37.4948C19.7836 37.5229 19.7859 37.5281 19.8287 37.5395C19.9492 37.5767 19.9297 37.5729 19.9599 37.5834C20.1069 37.6412 20.0969 37.6402 20.1485 37.6623C21.2737 38.1808 22.1771 38.6891 23.1473 39.2202C25.3678 40.4522 27.5471 41.7179 29.7151 42.9126C30.1468 43.1493 30.5748 43.3782 31.0068 43.6018C31.9633 44.104 32.986 44.5583 34.0564 45.1562C35.3794 45.8851 36.8202 46.6014 38.2229 47.2764C40.1992 48.2397 42.0636 48.998 44.2354 50.0619C45.4997 50.6664 46.6162 51.9479 47.261 52.7076C47.3242 52.9956 47.3061 52.0269 47.9753 54.1253C47.6574 55.72 47.1201 55.4981 46.7297 55.7644C44.2896 56.0845 44.1868 55.092 43.7591 55.1318C42.2401 54.5976 41.1567 54.0228 39.9206 52.9098C39.3283 52.3551 38.8347 51.5288 38.5969 50.8371C38.5795 50.7895 38.5681 50.7609 38.5423 50.6739C38.527 50.6159 38.5148 50.5893 38.4924 50.4385C38.4865 50.3248 38.4364 50.1823 38.5574 49.7888C38.5122 49.5718 39.4002 48.6998 39.9713 48.864C40.5667 48.9625 40.431 48.9951 40.5682 49.0458C41.2402 49.5539 40.9626 49.4149 41.0778 49.5164C41.158 49.6264 41.2061 49.7012 41.2569 49.7794C41.3557 49.9329 41.4425 50.0754 41.5284 50.2183C41.6996 50.5038 41.861 50.7835 42.0208 51.0655C42.3398 51.6303 42.6473 52.1929 42.9478 52.7856C42.9936 53.0681 43.6788 53.5077 42.9077 53.1227C42.6396 52.9072 41.7304 53.6658 41.9136 53.6054C41.9179 53.6144 41.9656 53.4209 41.994 53.2242C42.0627 52.8103 42.1026 52.2898 42.3183 51.6493C42.4873 51.2202 42.3927 50.8663 42.3307 49.7524C42.3287 49.5637 42.3385 49.3578 42.3698 49.146C42.4029 49.0852 42.3216 48.9335 42.3735 48.1946C42.3752 48.1845 42.3784 48.1569 42.3837 48.1086C42.3867 48.0832 42.3895 48.0547 42.3978 47.9993C42.4028 47.9683 42.4065 47.9386 42.4242 47.8631C42.4349 47.823 42.4416 47.7837 42.4859 47.6716C42.6291 47.6345 42.2495 47.154 43.7135 46.8949C45.4339 47.6116 44.5825 47.573 44.8168 47.6737C44.8473 47.7454 44.8567 47.7769 44.8666 47.8062C44.8855 47.8649 44.8941 47.8986 44.9027 47.9314C44.9188 47.9942 44.929 48.0411 44.939 48.0875C45.2773 50.5757 44.8299 52.4776 43.8659 54.5677C43.7992 54.6887 43.5019 55.2876 42.6503 55.2293C41.9628 55.0862 41.9444 54.8675 41.8352 54.786C41.6825 54.5963 41.657 54.5191 41.6136 54.4356C41.5417 54.2814 41.5088 54.1799 41.4746 54.0745C41.4106 53.8706 41.3685 53.6906 41.3313 53.5122C41.2587 53.1579 41.2119 52.8147 41.18 52.472C41.1178 51.786 41.1162 51.1003 41.1916 50.4029C41.447 48.2279 42.1021 46.2698 42.6315 44.3614C43.0074 42.9898 43.3832 41.4266 43.3987 40.2878C43.4188 39.0296 43.5589 38.298 43.5853 37.332C43.6541 35.3822 43.9382 33.3636 44.1514 31.5701C44.2117 30.3337 44.5884 29.0547 44.9736 27.9608C45.1557 27.445 45.2461 26.936 45.3298 26.3188C45.407 25.8033 45.5677 25.3961 45.7118 25.0158C45.758 24.896 45.8036 24.7802 45.8428 24.6743C45.8473 24.6618 45.8513 24.6495 45.8657 24.616C45.8696 24.6073 45.8742 24.597 45.8813 24.5828C45.8848 24.5756 45.8889 24.5675 45.8942 24.5578C45.8945 24.5635 45.896 24.5309 45.9996 24.4092C46.0629 24.3589 46.1394 24.1996 46.5387 24.1602C46.9937 24.1371 47.2605 24.544 47.2843 24.6507C47.3914 25.3644 47.3143 24.916 47.3296 25.0373C47.322 25.0882 47.3195 25.0938 47.3177 25.1031C47.3136 25.1216 47.3107 25.1332 47.3082 25.1431C47.3023 25.1667 47.2988 25.1796 47.2936 25.199C47.2849 25.2309 47.2759 25.263 47.2669 25.2947C47.2489 25.3579 47.232 25.4155 47.2137 25.477C47.178 25.5962 47.1414 25.715 47.1043 25.8329C47.0298 26.0692 46.9532 26.302 46.8735 26.536C46.715 27.0012 46.5469 27.4635 46.368 27.923C46.1013 28.6071 45.867 29.3055 45.6657 30.0133C45.5654 30.3667 45.4732 30.7231 45.3933 31.078C45.3535 31.2553 45.3167 31.4324 45.2859 31.605C45.2704 31.6917 45.2564 31.7778 45.246 31.856C45.1224 31.7675 45.6063 32.5657 44.8943 31.478C44.8505 31.9677 45.1732 30.8966 45.0769 29.9341C45.038 28.9408 44.8746 28.0213 44.7766 26.8771C44.7909 26.4154 44.707 25.6999 44.7193 25.7817C45.1464 26.0835 43.508 26.8349 42.9111 27.4689C42.121 28.1273 41.3358 28.8008 40.5401 29.4669C40.218 29.6009 39.7467 30.5914 39.6527 29.8672C39.5509 29.9964 40.5016 29.7781 41.016 29.4383C41.9132 28.925 42.7978 28.2682 43.5507 27.5771C43.8791 27.2568 44.2404 26.9835 44.4561 26.7125C44.4653 26.7006 44.4616 26.7037 44.4868 26.674C44.4837 26.81 44.5325 26.1315 45.0758 26.901C45.0452 27.0965 45.0565 26.9908 45.0492 27.0264C45.0422 27.0427 45.0388 27.0487 45.0357 27.0547C45.0295 27.0663 45.0262 27.0717 45.0247 27.0743C45.0167 27.0878 45.0078 27.1022 45.0019 27.1116C44.9863 27.1365 44.9757 27.153 44.9604 27.1772C44.935 27.217 44.9083 27.2587 44.8809 27.3018C44.828 27.3845 44.7767 27.465 44.723 27.5498C44.6189 27.714 44.5148 27.88 44.4117 28.0464C44.2048 28.3802 44.0029 28.7132 43.8037 29.0503C43.4058 29.7238 43.0224 30.4058 42.6596 31.0988C42.3923 31.6074 42.1553 32.1253 41.9191 32.6594C41.8637 32.7795 41.8168 32.8936 41.7341 33.0327C40.5691 32.8601 41.524 32.2658 41.4445 31.9116C41.5596 31.5131 41.6795 31.1178 41.7989 30.7235C42.0375 29.934 42.2808 29.1457 42.4945 28.3553C42.6333 28.2287 42.2213 28.0331 42.8692 27.9811C43.0296 28.7899 42.8178 29.6065 42.357 30.275C42.2917 30.3581 42.1852 30.3354 42.1553 30.2335C42.1495 30.0775 42.1768 30.0917 42.1903 30.0305C42.2469 29.8708 42.3158 29.7256 42.3898 29.591C42.492 29.4084 42.5978 29.2564 42.6835 29.127C42.8331 28.904 42.9244 28.7729 42.9724 28.7901C43.0184 28.8064 43.0167 28.9762 42.9269 29.2487C42.8765 29.4039 42.7966 29.58 42.725 29.7536C42.6723 29.883 42.6163 30.0285 42.5737 30.1633C42.5595 30.1642 42.5625 30.3544 42.5488 30.1248L42.0364 30.0194C42.3781 29.4906 42.5634 28.7161 42.4033 28.0803C42.4011 28.0708 42.3968 28.0518 42.3984 28.0593C42.3994 28.0628 42.3983 28.0618 42.4058 28.0846C42.4823 28.0902 42.1619 28.1148 42.7669 28.302C43.2811 27.9277 42.96 28.0927 43.0366 28.0385C43.0416 28.0046 43.0395 28.015 43.04 28.0124C43.04 28.0132 43.0398 28.0187 43.0395 28.0241C43.0386 28.0454 43.037 28.0702 43.0351 28.0928C43.0312 28.1387 43.0258 28.1829 43.0194 28.2263C43.0066 28.3127 42.9898 28.3958 42.9704 28.4776C42.7766 29.2888 42.5562 30.0851 42.3411 30.8815C42.2336 31.2788 42.1258 31.6764 42.024 32.0723C41.9733 32.2702 41.9237 32.4687 41.8813 32.6606C41.8597 32.759 41.8406 32.8519 41.8294 32.9331C41.7668 32.8934 42.0137 33.2731 41.6562 32.688C40.6575 32.755 41.314 32.7406 41.1878 32.7021C41.2298 32.6265 41.295 32.4682 41.3508 32.333C41.56 31.8184 41.7846 31.2918 42.0336 30.782C42.3819 30.0657 42.7506 29.3621 43.1338 28.6672C43.3257 28.3195 43.5202 27.9759 43.7199 27.6314C43.8195 27.4598 43.92 27.2883 44.0204 27.1191C44.0723 27.0316 44.1218 26.9486 44.1724 26.8639C44.1987 26.8199 44.2243 26.7773 44.2477 26.7379C44.2618 26.7142 44.2717 26.6975 44.2841 26.6764C44.2885 26.6688 44.2958 26.6562 44.2965 26.6547C44.2964 26.6548 44.2974 26.6526 44.2921 26.6623C44.2894 26.6678 44.2857 26.674 44.2759 26.6965C44.2655 26.7489 44.2825 26.5898 44.2369 26.8823C44.1991 26.929 44.3592 27.4053 44.7216 27.3953C44.9869 27.3849 45.0035 27.3136 45.0455 27.2961C45.1058 27.2485 45.1085 27.2387 45.1196 27.2278C45.1482 27.1938 45.1359 27.2078 45.1363 27.208C44.789 27.659 44.4499 27.9049 44.1777 28.1943C43.7855 28.5883 43.3993 28.909 42.9914 29.2358C42.4632 29.3662 41.8622 29.6947 40.6912 30.194C40.3257 30.304 39.6581 30.6813 39.2151 30.1411C39.303 29.681 39.5584 29.6545 39.7111 29.448C39.8678 29.2897 40.0089 29.1458 40.1406 29.0083C40.3707 28.7677 40.5637 28.5493 40.7492 28.3385C41.0543 27.9923 41.3429 27.663 41.7519 27.2805C42.4519 26.6314 43.0596 25.9743 43.8096 25.3063C43.9503 25.1844 44.0944 25.0633 44.2727 24.9404C44.5445 24.9183 44.3407 24.3555 45.5954 24.8904C45.5956 24.8906 45.5958 24.8908 45.5961 24.891C46.3119 25.9652 45.9786 26.3136 46.0765 26.8502C46.1771 27.6854 46.3917 28.818 46.4629 29.8638C46.4969 30.4066 46.5278 30.9429 46.4182 31.5853C46.3397 31.9006 46.3133 32.3 45.7951 32.7407C45.1753 33.2016 44.4854 32.9247 44.2034 32.7724C43.3438 31.7572 43.8791 32.1574 43.7546 31.989C43.7538 31.9345 43.7555 31.8939 43.7574 31.8568C43.7613 31.7838 43.7668 31.7255 43.7731 31.6646C43.7855 31.5488 43.8 31.4431 43.8162 31.3357C43.848 31.1264 43.885 30.9219 43.9248 30.72C44.1941 29.5663 44.526 28.552 44.8248 27.6883C44.861 27.5841 44.896 27.4836 44.9317 27.3816C45.1469 26.7626 45.307 26.1679 45.4422 25.5731C45.4863 25.4226 45.5289 25.2733 45.5699 25.1238C45.59 25.0505 45.6104 24.9745 45.6292 24.902C45.6387 24.8657 45.648 24.829 45.6562 24.7956C45.6605 24.7784 45.6645 24.7615 45.6673 24.7491C45.6689 24.7423 45.6701 24.7364 45.6699 24.7365C45.6694 24.739 45.6702 24.7335 45.6655 24.7574C45.6641 24.765 45.6622 24.775 45.6595 24.7942C45.6581 24.804 45.6565 24.8161 45.6548 24.8342C45.6711 24.906 45.5966 24.6281 45.6983 25.2084C45.637 25.344 46.3715 26.0733 46.8947 25.7837C47.2873 25.6038 47.2766 25.4945 47.3331 25.4407C47.4162 25.3066 47.3696 25.3798 47.3848 25.3545C47.4334 25.2568 47.4279 25.2564 47.4347 25.2409C47.3872 25.3808 47.3416 25.5062 47.299 25.627C47.1739 25.9787 47.0712 26.3096 47.0458 26.5528C46.9835 27.1466 46.8806 27.871 46.6665 28.5262C46.3141 29.6419 46.055 30.6035 46.0262 31.699C45.9674 32.5563 45.8726 33.2594 45.8074 34.0166C45.6675 35.0978 45.5549 36.1997 45.4987 37.3988C45.469 38.2828 45.3285 39.4308 45.3046 40.1604C45.3277 40.8158 45.2519 41.2785 45.1745 41.8228C45.008 42.8861 44.7547 43.8881 44.4803 44.856C44.3936 45.16 44.3046 45.4597 44.2174 45.7527C43.6873 47.5182 43.2134 49.1651 43.1001 50.6021C43.0981 50.6272 43.0963 50.6523 43.0947 50.6773C43.0356 51.5946 43.083 52.7004 43.3198 53.5432C43.3316 53.5825 43.3481 53.6226 43.3449 53.6192C43.3371 53.6136 43.3519 53.6103 43.2518 53.5092C43.3423 53.2443 41.9634 53.4971 42.1511 53.6972C42.7054 52.6583 43.0047 51.3839 43.0342 50.2621C43.049 49.6044 42.9896 48.9694 42.8447 48.5381C42.832 48.499 42.8155 48.4519 42.8131 48.4591C42.8141 48.4647 42.8125 48.4683 42.8316 48.5165C42.8461 48.5435 42.8418 48.568 42.946 48.7083C43.022 48.7519 43.1084 49.0879 43.8272 49.0365C44.4654 48.833 44.3953 48.6192 44.4669 48.5585C44.6056 48.1944 44.53 48.3574 44.5484 48.3311C44.5493 48.354 44.5485 48.4077 44.5437 48.4758C44.5442 48.4944 44.6697 48.9591 44.6213 49.4733C44.6034 49.8231 44.8172 50.4623 44.799 51.2551C44.7893 51.6534 44.7169 52.0657 44.5966 52.4316C44.5072 52.7172 44.4735 53.1547 44.4181 53.6508C44.3821 53.9091 44.3679 54.1707 44.2056 54.5932C44.2159 54.9929 42.9713 55.876 42.3833 55.5807C41.3456 55.2329 41.3263 54.8832 41.0597 54.6148C40.8876 54.3854 40.7565 54.1724 40.6384 53.9644C40.0257 52.9196 39.4236 51.9539 38.9953 51.195C38.9712 51.1528 38.9418 51.1043 38.9373 51.0918C39.1259 51.1649 38.3118 50.8376 39.678 51.4991C40.0379 51.6406 40.9142 51.2235 41.0255 50.7989C41.1338 50.5507 41.1279 50.467 41.1409 50.3622C41.1529 50.1806 41.1286 50.0833 41.125 50.0573C41.1129 49.9945 41.1029 49.9638 41.0962 49.943C41.0855 49.9119 41.0828 49.9101 41.0821 49.9112C41.0957 49.9569 41.1095 50.0022 41.1239 50.0472C41.2335 50.3852 41.3604 50.6989 41.6978 51.0644C42.1819 51.5884 43.2952 52.314 44.4656 52.6664C44.5952 52.7023 44.7158 52.7433 44.8291 52.7859C45.5372 53.1321 46.3865 53.2856 45.785 53.2386C45.6843 53.364 45.4906 53.0202 45.2457 54.0875C45.5987 55.3624 45.4817 54.6657 45.3434 54.6779C45.3043 54.6423 45.2628 54.6029 45.2213 54.5616C44.2886 53.6334 43.7757 53.1263 42.887 52.6559C42.8326 52.6259 42.7754 52.595 42.7163 52.5635C42.5622 52.4811 42.3958 52.3779 42.2399 52.2837C42.0428 52.1645 41.8628 52.0595 41.7418 52.029C41.3896 51.9405 40.8303 51.7724 40.2205 51.5853C39.7705 51.4471 39.297 51.2999 38.8534 51.1666C38.1785 50.872 37.5105 50.5744 36.8381 50.2692C35.3542 49.5897 33.925 48.9162 32.4357 48.1328C31.5336 47.6479 30.4853 47.2009 29.4301 46.6727C28.9738 46.4467 28.5247 46.2166 28.0755 45.9807C27.0913 45.4628 26.132 44.9411 25.1712 44.4192C24.5061 43.946 23.822 43.4713 23.0895 42.9951C22.6585 42.7151 22.1607 42.4115 21.5984 42.0841C20.9106 41.6854 20.1087 41.234 19.227 40.7883C19.1058 40.7277 18.9828 40.6676 18.8727 40.6169C18.8522 40.6069 18.7893 40.5806 18.8375 40.599C18.8429 40.601 18.8584 40.607 18.8896 40.6174C18.9972 40.6333 18.6985 40.6192 19.3277 40.6903C19.4486 40.6337 20.0227 40.8979 20.6588 39.8369C20.9701 38.5837 20.5585 38.6343 20.5059 38.411C20.292 38.1377 20.2353 38.1336 20.1816 38.0855C20.1124 38.0363 20.1142 38.0397 20.0919 38.0253C19.9929 37.9665 20.0173 37.9833 20.003 37.9751C19.993 37.9701 19.9963 37.9721 19.9989 37.9735C20.0056 37.9771 20.0179 37.9833 20.0303 37.9895C20.0817 38.015 20.1425 38.044 20.1965 38.0691C21.1206 38.4945 21.9953 38.9967 22.9489 39.5098C23.2382 39.6661 23.5429 39.8275 23.8625 40.001C24.91 40.5644 25.9509 41.1871 26.9204 41.7886C28.8726 42.9876 30.7644 44.0622 32.1326 44.878C32.4804 45.085 32.829 45.295 33.1983 45.5302C33.2931 45.5908 33.3852 45.651 33.4801 45.7143C34.7072 46.4744 35.7797 47.7082 37.359 48.0954C37.3112 48.085 37.2822 48.064 37.0646 48.0481C36.9246 48.0699 36.7986 47.9477 36.1823 48.2975C35.4233 48.7892 35.532 49.7748 35.5982 49.8857C35.8522 50.5329 35.8361 50.3254 35.8678 50.4056C35.9011 50.444 35.8768 50.4182 35.8557 50.4004C35.8075 50.3575 35.7337 50.2945 35.6575 50.2305C34.8934 49.5848 34.0188 48.8962 32.942 48.0776C32.7409 47.9235 32.5387 47.7679 32.3365 47.6091C31.1453 46.764 29.4754 45.9957 28.0848 45.4067C26.5872 44.7799 25.1627 44.2837 23.868 43.7882C23.66 43.7082 23.4575 43.6283 23.26 43.5484C22.3161 43.1617 21.5803 42.8439 20.8984 42.5803C20.5537 42.4454 20.2302 42.3227 19.9363 42.2127C18.7886 41.7818 17.4378 41.2945 15.9933 40.7328C15.5828 40.5701 15.1762 40.4191 14.6864 40.2044C14.4885 40.1138 14.287 40.0293 13.9733 39.8293C13.8136 39.7124 13.6112 39.6193 13.2871 39.1716C12.8601 38.7857 12.917 37.2869 13.3029 36.9721C14.8942 35.1186 16.0671 34.8557 17.1073 34.1381C18.1319 33.5264 19.0162 33.0747 19.7704 32.7314C20.016 32.6216 20.2684 32.5113 20.5949 32.3986C20.7685 32.3424 20.9274 32.2823 21.2691 32.2275C21.4699 32.234 21.5773 32.0696 22.4528 32.3705C22.9136 32.46 23.7076 33.5169 23.6165 34.0951C23.6098 34.6507 23.4952 34.8191 23.4223 35.0051C23.1612 35.5364 22.9389 35.7326 22.7459 35.9386C22.2685 36.4059 21.8699 36.6826 21.4432 36.9841C19.6909 38.1439 17.726 38.8103 15.6424 39.8157C15.4684 39.903 15.2968 40.002 15.2593 40.0313C15.2534 40.0206 15.2439 40.1023 15.5173 39.7532C15.6059 39.6276 16.0485 38.9622 15.6942 38.0384C15.3345 37.266 14.9769 37.1885 14.8374 37.0923C13.5773 36.7281 14.62 36.9815 14.639 36.9096C14.852 36.897 15.0808 36.8768 15.3046 36.8544C15.7541 36.809 16.1937 36.7544 16.6193 36.6987C17.3234 36.5718 18.6141 36.182 19.6244 35.9287C20.5013 35.7016 21.2931 35.5664 22.108 35.4346C22.5393 35.3648 22.9781 35.2958 23.4416 35.2149C24.2145 35.0807 25.0567 34.909 26.0494 34.6445C26.4189 34.5461 26.8113 34.4326 27.223 34.3152C27.9798 34.0996 28.7993 33.8709 29.6656 33.7029C29.9674 33.6444 30.2379 33.61 30.5041 33.5778C30.7983 33.5423 31.0864 33.5094 31.418 33.4522C31.4736 33.4426 31.5284 33.4333 31.5824 33.4244C32.7245 33.2432 33.7859 33.0346 35.006 32.9976C35.4217 32.9896 35.8957 33.0218 36.3416 33.1277C37.3109 33.3457 38.2118 33.6851 38.812 34.0628C39.4839 34.4692 40.2017 35.1071 40.6566 35.9385C41.099 36.7611 41.3422 37.4819 41.5762 38.2468C41.9022 39.344 42.1179 40.4503 42.2384 41.5237C42.265 41.7621 42.2892 42.0033 42.3114 42.2554C42.4523 43.747 42.3636 45.4213 42.5043 46.8541C42.5606 47.3705 42.6314 47.8977 42.7198 48.4204C42.7643 48.683 42.813 48.9433 42.8673 49.2006C42.8945 49.3291 42.9226 49.4546 42.9525 49.5781C42.967 49.6379 42.9826 49.6999 42.9973 49.7552C43.0044 49.7816 43.0121 49.8097 43.0187 49.8323C43.0219 49.8432 43.025 49.8534 43.0269 49.8589C43.0276 49.8611 43.0284 49.8629 43.0268 49.8567C43.0258 49.8531 43.0253 49.8509 43.0192 49.8313C43.0145 49.8171 43.0176 49.8242 42.9992 49.7722C42.9658 49.711 43.0324 49.76 42.79 49.3705C42.5315 49.3077 43.1957 48.9088 41.1403 48.6344C38.9607 49.5172 39.8222 50.2257 39.6268 50.2932C39.6277 50.5864 39.6466 50.5817 39.6511 50.6342C39.4968 49.6496 39.4605 48.9845 39.3957 48.1782C39.3209 47.1476 39.3074 46.2217 39.3243 45.23C39.3347 44.7609 39.3251 44.2452 39.3066 43.6619C39.281 42.8544 39.2403 41.9212 39.2226 40.819C39.2175 40.5102 39.216 40.1934 39.2168 39.8639C39.2198 38.9979 39.1821 38.2707 39.1581 37.5886C39.1464 37.2468 39.1386 36.917 39.1445 36.5866C39.1499 36.3032 39.1666 36.0245 39.1982 35.7481C39.2603 35.2126 39.3683 34.9002 39.4644 34.6133C39.5683 34.3024 39.6687 34.0171 39.6687 33.5739C39.6687 33.563 39.6687 33.5521 39.6686 33.5411C39.667 33.2497 39.6392 32.8951 39.6125 32.4686C39.602 32.3006 39.5918 32.1189 39.584 31.9259C39.5981 31.9365 39.6112 31.9396 39.6211 31.9404C39.6932 31.9406 39.75 31.3951 39.8528 30.7885C39.874 30.6664 39.8966 30.5428 39.9304 30.3961C39.9492 30.3162 39.9653 30.2465 40.0065 30.1168C40.0303 30.0489 40.0482 29.9784 40.1344 29.8125C40.2083 29.7079 40.1846 29.6253 40.5686 29.3204C40.8871 28.9175 42.2049 29.1736 42.3039 29.4713C42.3078 29.4756 42.3118 29.4799 42.3157 29.4842C42.971 30.2137 43.4109 31.2977 43.6526 32.274C43.6848 32.4028 43.7165 32.5277 43.7475 32.6488C43.8452 33.0307 43.9133 33.3853 43.9893 33.8084C44.0554 34.1867 44.1342 34.6078 44.2171 35.2054C44.2626 35.5492 44.2697 35.8398 44.2521 36.114C44.2411 36.2794 44.2215 36.439 44.1875 36.6079C44.1835 36.626 44.1796 36.6441 44.176 36.6621C44.1573 36.7544 44.1645 36.8309 44.1732 36.9159C44.1795 36.9771 44.1866 37.043 44.186 37.121C44.1843 37.308 44.1619 37.5371 44.1364 37.6947C44.1245 37.7675 44.1111 37.8244 44.0984 37.8806C44.0835 37.9463 44.0692 38.0114 44.0604 38.1018C44.0284 38.4354 44.0421 38.7571 44.0871 39.0695C44.0989 39.1546 44.1126 39.2545 44.1252 39.3541C44.1972 39.9196 44.2418 40.5221 44.1971 41.1834C44.183 41.3922 44.156 41.6107 44.1255 41.8229C44.0938 42.0452 44.0584 42.259 44.0339 42.4413C43.9349 43.1815 43.8588 43.8788 43.7582 44.5179C43.7568 44.527 43.7554 44.5361 43.7539 44.5452C43.7362 44.7602 43.7215 45.1735 43.6903 45.5048C43.6307 46.1546 43.6371 46.5392 43.6371 46.8202C43.6369 46.9673 43.635 47.0883 43.6172 47.2144C43.594 47.3285 43.5684 47.4449 43.541 47.5601C43.5135 47.6651 43.4832 47.7744 43.4581 47.8794C43.4562 47.8873 43.4545 47.8952 43.4526 47.9031C43.2631 48.5557 43.0292 49.2412 42.469 49.9449C41.906 50.7658 40.4373 51.2899 39.4973 51.0307C38.2664 50.7326 37.7777 50.19 37.1652 49.7304C36.9188 49.5281 36.6696 49.3341 36.4233 49.135C36.1218 48.8912 35.8243 48.6393 35.5527 48.3591C34.9067 47.692 34.3147 46.9966 33.7309 46.3307C33.5863 46.1657 33.4423 46.0023 33.2986 45.8418C32.5747 45.033 31.8237 44.2739 31.0531 43.6343C30.7491 43.382 30.4389 43.1464 30.1268 42.9106C29.953 42.7793 29.7771 42.6467 29.6014 42.5106C29.6584 42.518 29.6982 42.5126 29.7346 42.5068C29.8097 42.4949 29.8752 42.4859 30.0608 42.5966C30.5009 42.8591 31.011 43.1371 31.0344 43.0198C31.0407 42.9879 31.0718 42.9745 31.104 42.9618C31.1847 42.93 31.2684 42.8979 30.95 42.5574C30.7352 42.3273 30.1765 41.7448 29.7554 41.4404C29.6627 41.3732 29.5967 41.3476 29.5199 41.316C29.3844 41.2608 29.2219 41.1964 28.8516 40.8672C28.7888 40.811 28.7219 40.7504 28.6521 40.686C28.5064 40.552 28.3522 40.4068 28.2183 40.284C28.1008 40.1767 28.0002 40.0921 27.9347 40.0534C27.7761 39.9601 27.7629 40.0246 27.7488 40.1012C27.7307 40.2011 27.7074 40.3187 27.3523 40.1256C27.2824 40.0877 27.1736 39.9875 27.0916 39.9113C27.0332 39.8571 26.99 39.817 26.9803 39.8171C26.9698 39.8179 26.975 39.8477 26.9815 39.8853C27.0042 40.0156 27.0518 40.2631 26.4679 39.6529C26.3093 39.4848 26.1316 39.28 25.9663 39.0744C25.7253 38.7809 25.5018 38.4386 25.4513 38.393C25.4324 38.3783 25.4163 38.3691 25.4015 38.3624C25.2823 38.066 24.5229 37.2172 25.3843 35.8417C25.3992 35.8225 25.4143 35.8036 25.4297 35.785C25.595 35.6174 25.9835 35.0888 26.4779 34.623C26.5998 34.5057 26.7313 34.3861 26.8657 34.2702C27.3188 33.8889 27.7724 33.5631 28.2298 33.2566C28.5787 33.0309 28.9552 32.8086 29.3573 32.5928C29.3733 32.5844 29.3894 32.5759 29.4056 32.5673C30.208 32.1413 30.9348 31.8045 31.6442 31.4794C31.9434 31.3421 32.2405 31.2065 32.54 31.0662C32.4328 31.1361 32.3365 31.2003 32.2642 31.2524C31.7691 31.6089 31.6109 31.8163 31.4653 32.0068C31.3685 32.1335 31.2775 32.2529 31.0972 32.4045C30.7676 32.6819 30.8444 32.7231 30.9005 32.7538C30.9295 32.7698 30.9529 32.7832 30.9115 32.8251C30.8775 32.8591 30.7924 32.9175 30.7011 32.98C30.6227 33.0337 30.542 33.0891 30.4931 33.1298C29.9027 33.6214 30.1316 33.5558 30.4642 33.4606C30.6485 33.4075 30.8617 33.3472 30.9896 33.3645C31.1081 33.3931 31.0957 33.4304 30.7746 33.6679C31.0618 33.5417 31.3492 33.4153 31.6366 33.2892C31.7397 33.2228 31.8032 33.1526 31.8914 33.0467C32.0476 32.8582 32.6764 32.4401 33.1699 32.1154C33.3982 31.9651 33.5975 31.8345 33.7061 31.7551C34.2856 31.3326 34.0609 31.363 33.8626 31.389C33.753 31.4038 33.653 31.4168 33.6989 31.3532C33.7184 31.3261 33.6738 31.3374 33.6287 31.3488C33.5938 31.3576 33.5581 31.3668 33.5512 31.3583C33.5022 31.2958 33.835 31.0278 34.146 30.7805C34.3237 30.639 34.4951 30.5037 34.581 30.417C34.6073 30.3905 34.6277 30.3672 34.6463 30.3454C34.6735 30.3135 34.7001 30.2827 34.746 30.2428C34.853 30.1508 35.0884 29.9939 35.3513 29.8229C35.4849 29.7359 35.627 29.6444 35.761 29.5567C35.8464 29.5007 35.9043 29.456 35.9439 29.4189C35.9856 29.3804 36.0112 29.3483 36.0372 29.3155C36.0728 29.27 36.1136 29.2209 36.1957 29.1542C36.3464 29.0325 36.6788 28.8381 36.9956 28.6583C37.1337 28.58 37.2671 28.5052 37.384 28.4388C37.4305 28.4123 37.4528 28.3952 37.4543 28.3862C38.0138 28.2628 37.5969 27.6979 39.5695 28.0142C40.8068 28.9802 40.0847 29.7858 39.8886 30.0722C39.8 30.1739 39.7361 30.2333 39.6742 30.2907C38.4668 31.2837 37.5172 31.7218 36.4035 32.3015C35.0292 32.9823 33.5586 33.6402 31.6772 34.3259C31.4555 34.4061 31.2276 34.4893 30.9948 34.5741C30.5577 34.7334 30.1054 34.8972 29.6492 35.0582C28.8742 35.3078 28.0684 35.5394 27.3084 35.7451C27.2556 35.754 27.0012 35.8499 27.207 35.7605C27.221 35.7512 27.26 35.7432 27.4044 35.6387C27.2609 35.5523 28.1265 35.811 27.7607 34.0555C26.899 33.0255 26.8645 33.4806 26.697 33.3647C26.4452 33.3605 26.4877 33.3737 26.4424 33.3758C26.3295 33.3944 26.3421 33.3956 26.3166 33.4012C26.2905 33.4081 26.2827 33.4109 26.2756 33.4131C26.2641 33.4169 26.2625 33.4178 26.2616 33.4183C26.2606 33.4191 26.2656 33.4176 26.2698 33.4162C26.2788 33.4132 26.2878 33.4092 26.2861 33.411C27.1978 32.9399 27.7671 32.8265 28.3163 32.5297C28.84 32.2614 29.3624 32.0088 29.8779 31.7607C30.3187 31.6202 30.8435 31.4265 31.4482 31.1728C32.2606 30.8319 33.0665 30.4448 33.9464 29.9965C34.2953 29.8188 34.6584 29.6289 35.038 29.4291C36.0185 28.9128 37.1103 28.3286 38.4017 27.6776C39.8231 26.9635 41.2672 26.228 42.8356 25.4875C43.6584 25.1019 44.5106 24.7071 45.3988 24.3052C45.7367 24.1522 46.0839 23.997 46.4309 23.8438C46.606 23.7664 46.7803 23.6899 46.9569 23.6121C47.0419 23.5747 47.1326 23.5347 47.2147 23.4976C47.2532 23.4803 47.2981 23.4596 47.3265 23.4457C47.3313 23.4464 47.3868 23.4058 47.2891 23.475C47.2488 23.5253 47.3043 23.4038 47.1261 23.6809C46.8991 24.515 47.6672 24.5446 47.609 24.5398C47.7632 24.5471 47.7102 24.5388 47.738 24.5386C47.7563 24.5358 47.7502 24.5362 47.7455 24.5372C46.5468 24.7755 45.3445 24.9983 44.2744 25.2653C43.429 25.4807 42.6416 25.6908 41.9531 25.8934C41.1097 26.1406 40.2435 26.3957 39.4114 26.6885C39.0807 26.8048 38.757 26.919 38.4411 27.0323C36.8342 27.6006 35.4651 28.1856 34.6229 28.6746C34.5065 28.7384 34.386 28.8048 34.2565 28.8659C34.1068 28.9417 33.962 29.0228 33.8207 29.1037C33.6471 29.2028 33.4775 29.3019 33.3085 29.3915C32.8293 29.5455 32.3505 29.7111 31.8732 29.8835C31.1323 30.1002 30.0565 30.466 28.9997 30.9554C28.8115 31.0423 28.623 31.1302 28.436 31.2188C27.9325 31.4126 27.426 31.5904 26.9418 31.7578C26.3171 31.9741 25.7054 32.1857 25.0971 32.4055C24.6779 32.5567 24.2602 32.7135 23.8421 32.8746C23.5081 33.0031 23.1713 33.1354 22.8342 33.2695C22.8311 33.2707 22.8279 33.272 22.8247 33.2733C22.1449 33.5435 21.4628 33.8219 20.7858 34.0927C20.4964 34.2083 20.2047 34.3238 19.9122 34.4361C19.6795 34.5254 19.4446 34.6134 19.2078 34.6969C18.6959 34.8768 18.1803 35.058 17.6728 35.2369C17.2786 35.3758 16.8891 35.5134 16.4929 35.6536C15.8514 35.8805 15.2076 36.1088 14.564 36.3376C13.5238 36.7074 12.4924 37.0749 11.4583 37.4443C11.2866 37.5057 11.1242 37.5548 10.9983 37.5834C10.8728 37.6118 10.7964 37.6166 10.7881 37.5947C10.7798 37.5727 10.8401 37.5252 10.9528 37.4629C11.0659 37.4005 11.2196 37.3293 11.3885 37.261C12.4068 36.8489 13.4235 36.4388 14.4484 36.0271C15.0823 35.7725 15.716 35.5184 16.3481 35.2659C16.7385 35.11 17.1222 34.9569 17.5106 34.8023C18.0088 34.604 18.5164 34.4028 19.0187 34.2038C19.2471 34.113 19.4762 34.0168 19.7039 33.9191C19.9876 33.7972 20.2728 33.6711 20.5557 33.545C21.2201 33.2485 21.8938 32.9428 22.5675 32.6446C22.5715 32.6428 22.5756 32.641 22.5796 32.6392C22.9106 32.4926 23.2422 32.3474 23.5715 32.2059C23.9845 32.0284 24.3984 31.8548 24.8154 31.6862C25.4222 31.4404 26.0349 31.2024 26.6517 30.963C27.1888 30.7539 27.7429 30.5354 28.2828 30.2997C28.403 30.2474 28.5227 30.1942 28.6423 30.1403C28.8252 30.0577 29.0044 29.9774 29.1844 29.8974C29.3463 29.8255 29.5135 29.7519 29.6803 29.6791C31.0889 29.0661 32.5095 28.4776 33.9898 28.0021C35.541 27.3171 37.308 26.4216 39.0133 25.7226C39.743 25.4136 40.4901 25.1411 41.2412 24.8959C42.1439 24.6011 43.0492 24.3406 43.9546 24.0866C45.139 23.7633 46.3111 23.5197 47.4621 23.2582C47.4931 23.2519 47.4954 23.2493 47.5677 23.2396C47.6509 23.277 47.4634 23.091 48.0951 23.377C48.5454 23.653 48.3098 24.3878 48.2251 24.3903C48.1729 24.4523 48.1629 24.4575 48.1397 24.4791C48.1003 24.5133 48.0755 24.5298 48.0559 24.5431C47.9651 24.601 47.9455 24.6069 47.9137 24.6243C47.8512 24.6562 47.8057 24.6782 47.7521 24.704C47.652 24.7522 47.5583 24.7965 47.4609 24.8425C47.2698 24.9328 47.0784 25.0232 46.8888 25.1135C46.5091 25.2943 46.1308 25.4773 45.7527 25.6628C44.9958 26.0341 44.2475 26.4117 43.4969 26.7983C43.201 26.9508 42.9056 27.107 42.6101 27.2655C40.0072 28.6667 37.4534 30.1771 34.8339 31.6328C33.7948 32.2068 32.7466 32.7665 31.6934 33.311C30.9125 33.7161 30.1342 34.1095 29.3869 34.5189C28.6806 34.916 27.8558 35.1733 27.4481 35.4188C27.3617 35.4687 27.2813 35.5084 27.1989 35.5446C27.1575 35.5626 27.1163 35.5795 27.0693 35.597C27.0463 35.6054 27.0206 35.6146 26.9885 35.6249C26.9703 35.6306 26.9519 35.6364 26.9192 35.6451C26.8909 35.6516 26.8971 35.6537 26.7963 35.6703C26.7572 35.6723 26.7915 35.6833 26.5809 35.68C26.4414 35.5861 26.4128 35.9543 25.6997 35.1168C25.3755 33.6521 26.1113 33.8574 25.9908 33.7862C26.1124 33.698 26.1498 33.6887 26.1629 33.6802C26.5152 33.5325 26.4917 33.5599 26.6369 33.5105C27.8424 33.1506 28.9911 32.7655 30.1417 32.3213C31.8887 31.6419 33.6414 30.869 35.3405 30.0577C36.3499 29.5778 37.6946 28.8552 38.1043 28.4847C38.0384 28.6292 37.3532 29.1833 38.4689 30.1002C39.5942 30.3469 38.9174 30.1592 38.8557 30.2987C38.6745 30.3832 38.4691 30.4902 38.2599 30.6018C37.8445 30.8242 37.4144 31.0648 36.9862 31.3045C34.9627 32.4604 32.9219 33.7725 30.8869 35.0514C29.6345 35.86 28.5749 36.567 27.8032 37.6868C28.3206 36.6832 27.8336 36.6857 28.0478 36.8561C28.1539 37.0051 28.3395 37.219 28.5309 37.4245C28.9222 37.8443 29.3672 38.2829 29.8117 38.7248C31.5091 40.349 33.537 42.0136 35.3519 43.8496C36.9765 45.4887 39.1986 47.8964 39.973 48.1243C39.8589 48.7681 40.7236 46.5255 40.9057 43.865C41.2412 42.3467 41.3575 40.8355 41.1889 39.2989C41.0787 38.146 41.2235 37.0325 41.386 36.0974C41.4251 35.8812 41.005 34.1632 40.6894 32.993C40.5571 32.4149 40.1994 31.7543 40.1103 31.698C40.311 31.9313 41.1079 32.4201 41.9534 32.1126C42.5835 31.8689 42.7275 31.5649 42.8108 31.4726C42.9909 31.2004 42.9795 31.1627 43.0088 31.1002C43.0464 30.9941 43.0441 30.9864 43.0478 30.9753C43.0509 30.9626 43.0441 31 43.0392 31.0393C43.0282 31.1224 43.0169 31.2354 43.0074 31.351C42.9881 31.5852 42.9738 31.8378 42.9622 32.0944C42.9393 32.6064 42.9272 33.1326 42.921 33.6602C42.9017 34.7264 42.7698 35.5879 42.7274 36.3975C42.7195 36.5278 42.7128 36.6574 42.7075 36.7871C42.6584 38.0585 42.664 39.411 42.7232 40.698C42.7837 42.1382 42.9647 43.5517 43.0064 45.2168C43.0204 46.0237 43.0467 46.8267 43.0868 47.6223C43.1295 48.4547 43.1935 49.456 43.2792 50.0375C43.285 50.0948 43.3036 50.1014 43.3076 50.3951C43.1299 50.5504 43.9104 50.8608 42.1269 52.1413C40.9917 52.5781 40.2322 51.9294 40.0853 51.8011C39.9333 51.6652 39.8625 51.5714 39.8072 51.4987C39.4944 51.0193 39.5852 51.0839 39.5414 51.0066C39.5146 50.9319 39.5202 50.9455 39.5126 50.9229C39.5025 50.8913 39.4986 50.8778 39.4951 50.8662C39.4876 50.8409 39.4829 50.824 39.4786 50.8088C39.469 50.7743 39.4634 50.7532 39.4566 50.7275C39.444 50.6799 39.4325 50.6341 39.4224 50.5931C39.4014 50.5081 39.3821 50.4251 39.3645 50.3468C39.3282 50.1856 39.2963 50.0319 39.2659 49.8775C39.2052 49.5685 39.153 49.2674 39.1056 48.9656C39.011 48.3629 38.937 47.7649 38.8775 47.1683C38.7252 45.3739 38.8305 43.9092 38.6948 42.5474C38.6735 42.3204 38.6497 42.0989 38.6222 41.8737C38.4916 40.8122 38.2861 39.732 37.966 38.7325Z" fill="#FF3C3C"/>
<path d="M40.1215 33.5797C40.0197 34.2606 40.0788 33.4954 39.9969 33.0285C39.9517 32.4672 39.8431 31.8197 40.0178 30.7714C40.0577 30.737 39.9923 30.4688 40.0874 31.2084C40.1431 31.4149 40.2137 31.8819 40.8048 32.4295C41.4291 32.9853 42.1827 33.0191 42.4597 32.9887C43.0488 32.9132 43.0673 32.8237 43.1419 32.7983C43.276 32.698 43.0211 32.8321 42.8669 32.9334C41.9863 33.5101 40.9831 34.2854 40.0547 35.0866C39.464 35.5983 38.8807 36.1302 38.2797 36.6725C36.4464 38.2995 34.5303 39.9925 31.8854 41.0463C31.4419 41.2174 31.0066 41.3583 30.5711 41.4788C29.2802 41.8228 28.0978 42.0829 26.5781 42.1815C26.3475 42.1902 26.1653 42.2052 25.7584 42.1696C25.4572 42.0289 25.488 42.5066 24.0371 41.3495C23.08 40.565 23.5459 38.5301 23.7526 38.4872C24.0141 38.0808 24.1303 38.0105 24.2505 37.8923C24.9991 37.2961 25.1758 37.3028 25.5248 37.1172C26.146 36.8306 26.7029 36.6137 27.2653 36.3964C28.3461 35.9795 29.604 35.5408 30.3792 35.2261C30.38 35.2258 30.3809 35.2255 30.3817 35.2253C30.1904 35.33 29.7144 35.6244 29.5036 36.3295C29.3083 37.0379 29.556 37.5652 29.7062 37.7994C30.4039 38.6298 30.5775 38.3121 30.4976 38.3553C30.2673 38.3389 30.0337 38.3386 29.849 38.3514C29.7785 38.2224 29.1523 38.8706 30.273 37.8177C30.5158 37.6608 30.5044 36.4428 30.2647 36.314C30.1052 36.1119 30.1511 36.2197 30.2438 36.2907C30.4428 36.4644 30.8149 36.7092 31.1885 36.9595C31.949 37.4722 32.8246 38.0565 33.6106 38.9487C33.9487 39.3507 34.3359 39.7692 34.7273 40.1829C35.6506 41.1579 36.6159 42.1111 37.5993 43.1211C37.7704 43.2983 37.9391 43.4748 38.1003 43.6421C38.1393 43.6826 38.1786 43.7231 38.2091 43.7548C38.2236 43.77 38.2381 43.7846 38.2336 43.7831C38.2288 43.7808 38.2279 43.779 38.1755 43.744C38.1367 43.7241 38.1306 43.696 37.8897 43.604C37.7837 43.5717 37.6266 43.5126 37.3193 43.5431C36.9976 43.459 36.1646 44.2459 36.2241 44.5272C36.1444 45.05 36.2428 45.0926 36.2466 45.1689C36.4444 45.6203 36.2326 45.1598 36.2012 45.109C35.3674 43.3476 35.0667 41.7138 34.7419 40.0449C34.712 39.8807 34.6829 39.7159 34.6549 39.5518C34.5752 39.0898 34.5152 38.7913 34.3144 38.2553C34.347 38.3016 34.2067 38.0916 34.439 38.4576C34.4822 38.5023 34.4832 38.5308 34.6569 38.6453C34.9382 39.0214 36.0149 38.3779 35.8848 38.1885C35.9631 37.8308 35.9096 37.8965 35.9203 37.8705C35.9179 37.8452 35.9157 37.8328 35.9141 37.8239C35.9109 37.8064 35.9105 37.8079 35.9099 37.8073C35.909 37.8112 35.9119 37.8322 35.916 37.856C35.9224 37.8972 35.932 37.9481 35.9417 37.9988C35.9615 38.1008 35.981 38.1987 36.0032 38.3047C36.0456 38.5093 36.0906 38.7174 36.1364 38.9251C36.2285 39.342 36.3235 39.7562 36.4216 40.1716C36.6181 41.0023 36.825 41.8314 37.0454 42.6562C37.0471 42.6605 37.0508 42.6739 37.0523 42.6782C37.0559 42.6943 37.0594 42.7103 37.0629 42.7262C37.2871 43.7435 37.5248 44.7527 37.7992 45.7535C38.008 46.4871 38.2187 47.2839 38.5328 47.9069C38.5343 47.9104 38.5387 47.913 38.5219 47.9027L38.3746 47.9011C38.3217 47.9835 38.4197 47.8127 38.4555 47.7703C38.5102 47.7007 38.5738 47.6628 38.6359 47.6693C38.6978 47.676 38.7547 47.723 38.7928 47.8098C38.7759 47.9303 39.0125 47.8525 38.6382 48.3272C38.5338 48.3845 38.3534 48.3918 38.2552 48.3231C38.1833 48.2761 38.1668 48.2508 38.1473 48.231C37.5837 47.4063 37.3581 46.7457 37.0253 45.9937C36.6821 45.1735 36.3679 44.3536 36.0645 43.525C36.2414 43.3476 36.3656 43.1538 36.3848 42.8656C36.3885 42.8282 36.387 42.7807 36.3826 42.7308C36.3662 42.5463 36.3002 42.2905 36.1948 42.1212C36.0997 41.9682 35.987 41.8668 35.8795 41.7695C35.7674 41.6686 35.6608 41.5713 35.5881 41.4264C35.465 41.1813 35.2843 40.9665 35.0953 40.7397C35.0271 40.6589 34.9563 40.572 34.8882 40.4859C34.7439 40.0993 34.6023 39.7125 34.464 39.3244C34.3949 39.1302 34.3264 38.9352 34.2584 38.7357C34.2248 38.6374 34.1905 38.5352 34.1575 38.4337C34.14 38.3787 34.1234 38.3269 34.106 38.2682C34.0963 38.234 34.0881 38.2074 34.0754 38.152C34.0733 38.1428 34.0674 38.1159 34.0614 38.076C34.058 38.0462 34.056 38.0587 34.0507 37.9591C34.0537 37.901 34.0327 37.8474 34.0985 37.6122C33.9714 37.4166 35.0992 36.5862 35.5534 37.0132C35.9807 37.2873 35.8849 37.3071 35.956 37.3766C36.1227 37.6794 36.0421 37.5475 36.0758 37.6155C36.0753 37.6108 36.0793 37.6179 36.0851 37.6286C36.1834 37.9124 36.3034 38.2982 36.3889 38.5555C36.4568 38.755 36.5415 38.9304 36.6342 39.103C36.6529 39.135 36.6721 39.1668 36.6917 39.1984C36.7285 39.3192 36.7656 39.4394 36.8033 39.5594C37.0463 40.3336 37.3079 41.0981 37.6001 41.8308C37.7284 42.429 37.8807 43.0703 38.2016 43.7607C38.2309 43.8223 38.2598 43.8833 38.2877 43.9415C38.315 43.9983 38.3425 44.0543 38.3794 44.1276C38.3998 44.169 38.4133 44.1927 38.4646 44.2996C38.4784 44.333 38.4929 44.3493 38.5389 44.4903C38.499 44.6103 38.8031 44.4979 38.3983 45.4432C37.104 46.4513 37.1191 45.6967 37.0149 45.8165C36.7487 45.6749 36.7941 45.6744 36.7445 45.6408C36.5545 45.4667 36.4921 45.382 36.3866 45.2675C36.2533 45.1184 36.1278 44.9765 36.0009 44.84C35.7878 44.6096 35.5689 44.3965 35.3453 44.2256C35.1112 44.047 34.9037 43.8116 34.6969 43.5763C34.4202 43.2613 34.1435 42.9451 33.7976 42.7603C33.5801 42.6441 33.3676 42.5495 33.1707 42.4608C32.8572 42.3196 32.5824 42.1927 32.3894 42.0167C32.027 41.6859 31.6658 41.4407 31.3408 41.203C31.3148 41.1839 31.2892 41.1652 31.2641 41.1466C31.018 40.9994 30.7873 40.8822 30.6389 40.678C30.6148 40.6449 30.5876 40.6051 30.556 40.56C30.3904 40.3215 30.0882 39.9401 29.3971 39.6246C29.1499 39.51 28.8836 39.4397 28.6001 39.3455C28.1864 39.1667 27.7423 39.1646 27.1272 38.1875C27.0427 38.0319 26.9723 37.8113 26.94 37.5876C26.8944 37.2982 26.9195 37.0209 26.9072 36.8595C26.8691 36.5152 26.9744 36.0316 27.1449 35.6839C27.3632 35.3312 27.5595 35.1672 27.7103 35.0334C28.1108 34.7039 28.3376 34.5806 28.5512 34.4371C29.339 34.2135 29.8973 34.179 30.5078 34.158C31.1469 34.2216 32.182 34.0165 33.3539 35.5526C33.5946 35.9306 33.9064 36.6534 33.6537 37.5573C33.3859 38.4583 32.7524 38.8794 32.4149 39.0597C32.4071 39.064 32.3993 39.0683 32.3916 39.0725C31.8123 39.3791 31.4515 39.535 31.0248 39.7341C30.7612 39.7194 30.508 39.7119 30.2491 39.7342C29.9126 39.7626 29.516 39.8916 29.0154 40.0587C28.6477 40.182 28.221 40.3255 27.7358 40.4707C27.3894 40.5713 27.005 40.7352 26.869 40.8172C26.8569 40.8055 26.8057 40.9185 27.0706 40.5871C27.1397 40.4579 27.2678 40.3741 27.3233 39.828C27.3702 39.2875 27.0009 38.7258 26.7324 38.5463C26.2681 38.2308 26.1906 38.3022 26.1405 38.274C25.9815 38.253 26.1628 38.2605 26.2671 38.2381C26.3837 38.2199 26.5017 38.195 26.6083 38.1679C26.7226 38.1389 26.8406 38.1062 26.968 38.0687C27.447 37.9228 28.0802 37.7327 29.2211 37.3083C29.6035 37.1634 29.9568 37.0212 30.269 36.8843C30.8118 36.6449 31.2937 36.3895 31.6894 36.1622C32.004 35.9811 32.2632 35.8178 32.4573 35.6825C32.7898 35.4509 33.197 35.1581 33.6022 34.8451C34.2351 34.3582 34.8567 33.8245 35.19 33.4963C35.2649 33.4226 35.3406 33.3459 35.4212 33.2633C35.4673 33.2161 35.5152 33.1667 35.5643 33.116C35.9359 32.7322 36.3859 32.2587 37.048 31.6327C37.7441 30.9745 38.2159 30.5998 38.7386 30.2319C38.9513 30.0822 39.1907 30.0069 39.4408 29.9291C39.6957 29.8498 39.9578 29.769 40.2378 29.595C40.3525 29.5236 40.468 29.4391 40.6042 29.3268C40.7196 29.2335 40.834 29.1231 41.0494 28.9748C41.1546 28.9062 41.2715 28.8258 41.5267 28.727C41.7569 28.7142 42.3053 28.1976 43.6564 29.0602C45.256 31.2076 44.3076 30.9667 44.4795 31.2947C44.4663 31.3698 44.4493 31.4233 44.4308 31.4709C44.4199 31.4717 44.4066 31.475 44.3933 31.4809C44.3632 31.4941 44.3332 31.5196 44.3308 31.5591C44.3207 31.7092 44.3498 31.9625 44.3886 32.2116C44.4387 32.5351 44.497 32.8732 44.5004 33.1096C44.4459 33.5781 44.8066 33.8894 44.2513 35.3613C43.9891 36.0127 43.017 36.648 42.4221 36.6924C41.3532 36.948 40.2534 35.8234 40.2089 35.4559C40.0398 35.0258 40.0598 34.8652 40.0465 34.7353C40.0419 34.4771 40.0536 34.4858 40.0541 34.4497C40.0596 34.3903 40.065 34.3519 40.0697 34.3196C40.0799 34.2527 40.085 34.2269 40.0887 34.2053C40.0966 34.1616 40.105 34.1204 40.1091 34.0992C40.1196 34.0464 40.1288 34.0034 40.1377 33.9639C40.1559 33.8833 40.1736 33.8133 40.1925 33.7465C40.4269 32.9262 40.6548 31.8484 40.8268 30.7164C40.8914 30.2901 41.0391 29.9553 41.2226 29.5287C41.3286 29.2818 41.4473 29.0025 41.5609 28.6658C41.5682 28.6458 41.5753 28.6255 41.5824 28.6049C41.6415 28.4313 41.6126 28.2684 41.5784 28.1379C41.547 28.0203 41.5103 27.9152 41.5337 27.8986C41.5846 27.9317 41.5405 27.8319 41.9115 28.4887C42.0322 28.6506 42.179 28.9534 42.7763 29.2494C43.3978 29.5496 44.1053 29.3663 44.3413 29.2183C44.5356 29.0692 44.5712 28.9781 44.6089 28.9604C44.638 28.9446 44.6604 28.9841 44.6762 29.0532C44.6823 29.0806 44.6868 29.1129 44.6891 29.1489C44.6748 29.1372 44.6614 29.1275 44.6512 29.1204C44.5797 29.0686 44.4888 29.1177 44.3894 29.1933C44.3502 29.2226 44.3104 29.2544 44.2726 29.2785C44.2048 29.3218 44.1331 29.4044 44.0651 29.5048C43.9856 29.6257 43.8971 29.7835 43.8176 29.9235C43.7519 30.0394 43.664 30.1313 43.559 30.2353C43.4655 30.3278 43.3585 30.43 43.2353 30.5673C43.1648 30.6458 43.096 30.6934 43.0386 30.7324C42.997 30.7606 42.962 30.7833 42.9356 30.8106C42.913 30.8339 42.9165 30.8695 42.9197 30.9104C42.9221 30.9398 42.9242 30.972 42.9174 31.0027C42.9004 31.077 42.8516 31.1496 42.8023 31.1885C42.78 31.206 42.758 31.2159 42.736 31.2257C42.7106 31.237 42.6843 31.2489 42.6584 31.2714C42.5367 31.377 42.4513 31.507 42.3591 31.6402C42.2579 31.7864 42.1481 31.9365 41.9815 32.0506C41.929 32.0865 41.8665 32.1165 41.8062 32.1448C41.7869 32.1539 41.7676 32.1629 41.7489 32.172C41.7098 32.1895 41.6735 32.2075 41.6445 32.2276C41.4756 32.3448 41.368 32.5161 41.2679 32.6732C41.2011 32.7778 41.1374 32.8762 41.0621 32.9476C40.9236 33.0787 40.891 33.2009 40.8666 33.2914C40.854 33.3383 40.8436 33.3767 40.8217 33.4031C40.7962 33.4205 40.7701 33.4378 40.7444 33.4545C40.7189 33.4673 40.6925 33.4807 40.6722 33.4988C40.6706 33.5002 40.6692 33.5017 40.6677 33.5031C40.5214 33.5937 40.3721 33.6755 40.2232 33.7558C39.8885 33.936 39.556 34.1086 39.2532 34.362C39.1877 34.4167 39.1349 34.4918 39.0803 34.5682C39.0135 34.6617 38.9441 34.7574 38.8484 34.8186C38.62 34.9647 38.3613 35.0725 38.1039 35.1747C37.716 35.3289 37.3343 35.4684 37.0433 35.7213C36.962 35.7919 36.8868 35.8728 36.8121 35.9546C36.7987 35.9694 36.7853 35.9842 36.7719 35.999C36.7226 36.053 36.6718 36.1077 36.6128 36.1619C36.6086 36.1178 36.5987 36.0794 36.5893 36.0436C36.5703 35.9697 36.5531 35.9071 36.5889 35.8279C36.613 35.7733 36.6354 35.7146 36.6533 35.6561C36.697 35.5151 36.7147 35.375 36.6591 35.3018C36.6378 35.2737 36.6229 35.2375 36.6081 35.201C36.5711 35.1092 36.5325 35.0166 36.3891 35.0413C36.3735 35.044 36.354 35.0475 36.3319 35.052C36.2172 35.0755 36.0352 35.1254 35.9303 35.2424C35.9039 35.2724 35.8938 35.3123 35.8826 35.3563C35.8705 35.3965 35.8593 35.4399 35.8169 35.4875C35.5826 35.455 36.3385 35.8566 34.7768 35.4243C33.9462 34.0442 34.6756 34.2579 34.5807 34.0998C34.762 33.8318 34.8231 33.7878 34.8322 33.6991C34.8351 33.6126 34.7787 33.5716 34.7109 33.5254C34.6218 33.4664 34.5208 33.3901 34.5155 33.1896C34.5168 33.1478 34.5437 33.1092 34.5667 33.0779C34.583 33.0557 34.5941 33.0399 34.5895 33.0321C34.5841 33.0231 34.564 33.0126 34.5385 32.9994C34.4444 32.9572 34.2889 32.872 34.4806 32.6922C34.5327 32.6438 34.5949 32.6002 34.6537 32.5591C34.7061 32.5229 34.7532 32.4907 34.7793 32.4639C34.7927 32.4499 34.7993 32.4375 34.7959 32.4276C34.7923 32.4171 34.7873 32.4068 34.7816 32.3964C34.8437 32.3482 34.905 32.3012 34.9667 32.2541C35.0639 32.2153 35.1664 32.1269 35.2971 32.0154C35.3278 31.9892 35.3606 31.9613 35.3956 31.9323C35.5151 31.8435 35.6333 31.7565 35.7536 31.6685C35.8521 31.6069 35.9639 31.5459 36.088 31.4922C36.337 31.3845 36.5883 31.3349 36.8335 31.2876C36.9364 31.2679 37.0389 31.2482 37.1396 31.2248C37.1146 31.2512 37.0924 31.2768 37.0779 31.2993C36.9792 31.4531 36.9978 31.5885 37.0154 31.7127C37.0271 31.7954 37.0387 31.8729 37.0136 31.9487C36.9686 32.087 37.0373 32.1525 37.0876 32.2013C37.1137 32.2266 37.1349 32.2475 37.1333 32.2711C37.1319 32.2902 37.1132 32.3134 37.0928 32.3384C37.0752 32.36 37.0572 32.3823 37.0503 32.4022C36.968 32.6436 37.0693 32.6651 37.2152 32.6975C37.2959 32.7152 37.3908 32.7359 37.4767 32.798C37.5634 32.8672 37.5763 32.8973 37.5149 33.0011C37.6175 32.9877 37.719 32.9753 37.8213 32.9624C37.8461 32.9383 37.8462 32.8957 37.84 32.8299C37.8292 32.7122 37.9743 32.5515 38.0883 32.4261C38.1407 32.3684 38.1867 32.3178 38.2073 32.2823C38.316 32.0947 38.2003 32.0425 38.0981 31.9968C38.0419 31.9716 37.99 31.9482 37.9821 31.9052C37.9787 31.8869 37.9586 31.8816 37.9384 31.8762C37.9227 31.872 37.9067 31.8678 37.8979 31.8574C37.8347 31.7818 37.8834 31.6507 37.9296 31.5286C37.9557 31.4589 37.9806 31.3922 37.9829 31.3406C37.9835 31.3248 37.9824 31.3102 37.9811 31.2962C37.9793 31.2757 37.9777 31.256 37.9824 31.2344C37.9932 31.1852 38.0427 31.1192 38.0975 31.0468C38.1255 31.0096 38.1548 30.9709 38.1807 30.932C38.2142 30.8815 38.2066 30.8382 38.1989 30.7927C38.1934 30.7606 38.188 30.7273 38.1966 30.6898C38.2121 30.622 38.2885 30.5429 38.3597 30.4694C38.3907 30.4374 38.4206 30.4064 38.444 30.378C38.4535 30.3664 38.455 30.3569 38.4505 30.3487C38.5635 30.223 38.6704 30.1014 38.7743 29.9833C39.2384 29.4572 39.6482 28.994 40.3576 28.53C40.4498 28.4697 40.5451 28.411 40.6455 28.3529C40.8177 28.253 40.9889 28.1288 41.1627 27.9933C41.372 27.8678 41.5832 27.745 41.812 27.6205C41.927 27.558 42.0432 27.4968 42.1781 27.4302C42.2457 27.3971 42.3149 27.364 42.4039 27.3245C42.4496 27.3045 42.4967 27.284 42.5692 27.2559C42.6089 27.2407 42.6509 27.2244 42.7291 27.2001C42.783 27.1848 42.8146 27.171 42.9664 27.144C43.0567 27.152 43.042 27.0545 43.6669 27.1855C43.8687 27.2488 44.174 27.3594 44.474 27.7359C44.8422 28.1909 44.8349 28.8273 44.7402 29.1027C44.6148 29.494 44.5113 29.5741 44.4344 29.679C44.1047 30.0407 43.8313 30.1952 43.5869 30.3388C43.3864 30.3594 43.1755 30.3922 42.9504 30.4397C42.7603 30.4799 42.5836 30.526 42.4032 30.5793C42.2009 30.6362 41.9934 30.7095 41.7666 30.7879C41.4626 30.893 41.1234 31.0078 40.7133 31.1044C40.0241 31.2661 39.3223 31.4386 38.5372 31.6584C37.7561 31.8782 36.8512 32.1127 36.1849 32.2445C36.0174 32.2783 35.8404 32.2949 35.6621 32.2987C35.5209 32.2961 35.5125 32.3234 35.1484 32.2669C35.0938 32.2127 34.9193 32.3557 34.6618 31.8179C34.6084 31.2478 34.8153 31.2874 34.8336 31.2181C34.9281 31.1359 34.9659 31.1257 35.0089 31.1038C35.089 31.0682 35.1489 31.0519 35.2095 31.0359C35.2294 31.0309 35.2491 31.0262 35.2686 31.0218C35.6744 30.9535 36.1059 30.8193 36.2647 30.5926C36.3225 30.5144 36.3537 30.4141 36.393 30.3118C36.4175 30.2408 36.4421 30.171 36.4733 30.1123C36.6059 30.0566 36.7393 29.9999 36.8729 29.9431C37.1416 29.9037 37.5412 29.8016 37.8345 29.5317C37.9713 29.4729 38.1119 29.4118 38.2426 29.3561C38.5351 29.2293 38.8155 29.1088 39.1039 28.9837C39.1962 28.944 39.2931 28.9018 39.3872 28.8611C39.3881 28.8608 39.389 28.8604 39.3899 28.86C39.5792 28.7782 39.7716 28.6946 39.9617 28.6122C40.0447 28.576 40.1224 28.5427 40.204 28.5072C40.4126 28.4164 40.617 28.3277 40.8211 28.2393C40.9278 28.1933 41.039 28.1447 41.1475 28.0977C41.3221 28.0223 41.504 27.9428 41.6793 27.867C41.9687 27.7412 42.2536 27.6179 42.5384 27.4947C42.5854 27.4744 42.6358 27.4639 42.6786 27.4663C42.7214 27.4687 42.7533 27.4838 42.7675 27.5095C42.7818 27.5352 42.7775 27.5701 42.7567 27.6073C42.7358 27.6445 42.6998 27.6809 42.6575 27.7094C42.4001 27.8825 42.1422 28.0552 41.8795 28.2301C41.7208 28.3362 41.5555 28.4459 41.3972 28.5513C41.2988 28.6168 41.1977 28.6834 41.1009 28.7478C40.9155 28.8707 40.7294 28.9938 40.5392 29.1187C40.4648 29.1676 40.3945 29.2143 40.3186 29.2639C40.1451 29.378 39.9688 29.4932 39.7957 29.6065C39.7946 29.6071 39.7936 29.6078 39.7926 29.6085C39.7071 29.6643 39.6191 29.7215 39.5355 29.7762C39.2716 29.9479 39.0153 30.1147 38.7462 30.2874C38.6097 30.3759 38.467 30.4673 38.3219 30.5598C38.2421 30.6108 38.1646 30.6606 38.085 30.7113C38.0422 30.7385 37.9993 30.7657 37.9568 30.7927C37.2238 31.2515 36.5652 31.6926 35.732 32.1386C35.7037 32.1542 35.6754 32.1717 35.6654 32.1817C35.6618 32.1854 35.6591 32.1913 35.6879 32.1728C35.7046 32.1591 35.7244 32.1556 35.7982 32.0655C35.9228 32.1561 35.9507 31.0839 35.5763 31.0613C34.9811 30.8932 35.4255 30.9938 35.421 30.9455C35.5329 30.9169 35.6483 30.8852 35.7626 30.8516C36.8245 30.5345 37.8925 30.0839 38.9405 29.6125C39.7841 29.2307 40.6195 28.825 41.445 28.4039C41.6281 28.3089 41.8027 28.2101 41.9533 28.1113C42.1335 27.9985 42.3074 27.8339 42.2555 27.8518C42.2049 27.9145 42.1352 27.9958 42.0567 28.1782C41.9134 28.2064 41.9525 29.4788 42.4869 29.7016C43.3818 30.1539 43.2236 29.899 43.384 29.9453C43.5186 29.9291 43.5528 29.9147 43.5818 29.908C43.6396 29.8918 43.6501 29.8872 43.6619 29.8837C43.6824 29.8771 43.6797 29.8793 43.6757 29.8829C43.6657 29.8907 43.6413 29.9062 43.6152 29.9234C43.5617 29.9585 43.4971 30.0021 43.432 30.0478C43.3015 30.1392 43.1629 30.2412 43.0233 30.3471C42.7458 30.558 42.4641 30.7838 42.1825 31.0156C40.5167 32.4026 38.7961 33.8863 37.2319 35.3327C37.0531 35.5008 36.8011 35.7513 36.8106 35.7666C36.8259 35.746 36.8356 35.7644 36.9673 35.5506C36.8443 35.367 37.8048 35.4928 36.7018 33.4461C35.1013 32.3541 35.271 33.0052 35.0608 32.8881C34.7098 32.9684 34.847 32.945 34.8419 32.9343C34.8975 32.9018 35.01 32.8374 35.1192 32.7722C36.5781 31.8897 38.0442 30.679 39.3992 29.432C40.0055 28.8523 40.3172 28.4388 40.6751 27.6734C41.1155 27.0743 40.6438 26.8545 42.5381 25.49C42.8764 25.2472 44.2398 25.1021 44.9526 25.7152C45.6134 26.2407 45.6749 26.5766 45.7833 26.7935C45.9366 27.2057 45.9372 27.36 45.9616 27.5154C45.9932 27.7988 45.9895 27.9593 45.988 28.117C45.9708 28.7223 45.9047 29.1422 45.8178 29.612C45.6756 30.3645 45.5152 31.0869 45.3525 31.7918C45.1043 32.8662 44.8344 33.927 44.5856 34.9383C44.5725 34.993 44.5589 35.0503 44.5482 35.0981C44.5435 35.1197 44.5386 35.1425 44.538 35.1479C44.5377 35.1504 44.5385 35.1491 44.5433 35.1274C44.5453 35.1171 44.5491 35.1023 44.5587 35.0421C44.5633 35.0123 44.5691 34.9737 44.5753 34.9089C44.5751 34.8743 44.5917 34.8674 44.5826 34.5575C44.5645 34.399 44.5872 34.197 44.3677 33.67C44.2933 33.2054 42.9452 31.9162 41.7055 32.2185C41.1564 32.1542 40.0737 33.2567 40.1215 33.5797Z" fill="#FF3C3C"/>
<path d="M26.5844 31.8633C27.418 31.4828 28.3524 31.3971 29.235 31.0816C29.2933 31.0608 29.3508 31.0392 29.4073 31.0167C30.5595 30.5599 31.6326 29.8233 32.8657 29.4744C33.2546 29.3647 33.6532 29.2611 34.0476 29.1685C34.8465 28.983 35.6422 28.8 36.4251 28.6072C37.4017 28.3667 38.357 28.1094 39.2991 27.797C39.494 27.7292 39.6881 27.6678 39.8804 27.6116C40.9684 27.2943 41.9745 27.1431 42.8684 26.8178C43.0578 26.7429 43.2421 26.6834 43.4232 26.6309C44.2841 26.3874 45.1108 26.2618 45.9274 26.1066C46.0337 26.0866 46.1394 26.0663 46.2443 26.0453L46.2295 26.0507C46.4595 25.9939 46.7062 25.9063 46.965 25.8342C46.9769 25.8309 46.9891 25.8276 47.0011 25.8244C47.2694 25.7654 47.466 25.6955 47.693 25.5583C47.7247 25.5398 47.7655 25.5335 47.807 25.5421C47.8481 25.551 47.8874 25.5732 47.9155 25.6067C47.9436 25.6402 47.9586 25.6828 47.9586 25.7254C47.9581 25.7682 47.9414 25.8082 47.9135 25.8364C47.7381 26.0289 47.4271 26.2348 47.2153 26.3398C47.2043 26.3462 47.1932 26.3528 47.1819 26.3594C46.9781 26.4804 46.7719 26.623 46.5216 26.7603C46.5171 26.7617 46.5044 26.7673 46.4998 26.7684C46.4535 26.7912 46.4059 26.8143 46.3593 26.8367C46.2544 26.6833 46.1481 26.576 46.0119 26.5576C45.9424 26.5483 45.8514 26.5645 45.7974 26.6169C45.7495 26.6638 45.7223 26.7285 45.6972 26.7898C45.6707 26.8541 45.6455 26.9151 45.5985 26.949C45.5186 27.0064 45.4577 27.1057 45.3942 27.2101C45.3711 27.2481 45.3476 27.2868 45.3228 27.3243C45.0613 27.4476 44.8033 27.5714 44.5539 27.6988C44.4462 27.7172 44.3485 27.737 44.2742 27.7732C44.2072 27.8058 44.1585 27.8656 44.1157 27.9336C44.0791 27.9543 44.0439 27.9747 44.0082 27.9957C43.8723 28.0758 43.7421 28.1584 43.6299 28.2409C43.5215 28.3137 43.412 28.3836 43.302 28.4508C43.056 28.514 42.8028 28.5728 42.4944 28.672C42.3615 28.7146 42.2251 28.7385 42.0953 28.7602C41.9036 28.7923 41.7258 28.8197 41.5905 28.8959C41.5001 28.9468 41.3906 28.9595 41.2823 28.9723C41.1369 28.9894 40.9924 29.0071 40.8991 29.1164C40.8406 29.1851 40.7925 29.2603 40.749 29.33C40.6798 29.441 40.622 29.538 40.5488 29.5738C40.4194 29.6369 40.3264 29.733 40.2481 29.8211C40.2418 29.8275 40.2355 29.8339 40.2293 29.8402C40.1111 29.9605 40.0101 30.0608 39.8811 30.0582C39.8616 30.0578 39.8385 30.056 39.8127 30.0537C39.6759 30.0419 39.4596 30.0215 39.2294 30.1786C39.1475 30.2345 39.0829 30.3183 39.0195 30.4C38.9268 30.5191 38.8358 30.6343 38.6964 30.6528C38.6754 30.6555 38.6483 30.6439 38.6234 30.6332C38.5918 30.6196 38.5642 30.6078 38.5589 30.6292C38.5434 30.6923 38.5095 30.7682 38.4723 30.8507C38.4449 30.9114 38.4155 30.9757 38.3908 31.0408C38.0689 31.1917 37.7458 31.3358 37.4222 31.4742C37.2731 31.5379 37.1257 31.5998 36.9764 31.6612C36.8732 31.6106 36.7701 31.5681 36.6693 31.5432C36.5374 31.5106 36.3882 31.5356 36.1974 31.566C36.0558 31.5887 35.8931 31.6139 35.6952 31.6223C35.3731 31.6357 35.0714 31.7333 34.8622 31.834C34.8368 31.8466 34.8114 31.8597 34.7886 31.8726C34.7474 31.8959 34.7058 31.9201 34.6608 31.9465C34.4934 32.046 34.2835 32.1703 33.8769 32.3718C33.4906 32.5633 33.1535 32.6983 32.898 32.8019C32.7686 32.8544 32.6607 32.8986 32.5793 32.9382C32.4425 33.0051 32.2684 33.0845 32.0981 33.1634C31.8286 33.2878 31.5588 33.4151 31.4122 33.5038C31.3607 33.5351 31.3043 33.5711 31.2475 33.6082C31.0852 33.7132 30.8917 33.8395 30.609 33.9813C30.5538 34.009 30.5014 34.0339 30.4513 34.0562C30.2393 34.1511 30.0763 34.1964 29.9028 34.23C29.8159 34.2468 29.7184 34.213 29.6182 34.178C29.4755 34.1284 29.3264 34.0769 29.1914 34.1664C29.1598 34.1873 29.1295 34.2174 29.0978 34.249C29.0395 34.307 28.9765 34.3698 28.8926 34.3885C28.8633 34.395 28.8321 34.388 28.8014 34.381C28.7677 34.3734 28.7348 34.3659 28.7055 34.3769C28.5964 34.4178 28.4934 34.4656 28.4019 34.5081C28.2839 34.563 28.1846 34.6091 28.1157 34.6202C27.9925 34.6402 27.8808 34.7145 27.7665 34.7904C27.6799 34.8481 27.5919 34.9066 27.4969 34.9417C27.2264 35.0415 26.8801 35.2376 26.5207 35.4686C26.3845 35.5559 26.2425 35.5661 26.0559 35.5787C26.0302 35.5805 26.004 35.5822 25.9773 35.5839C25.8858 35.5889 25.7858 35.596 25.6709 35.6154C25.5878 35.6294 25.5352 35.6894 25.4869 35.7447C25.4416 35.796 25.4015 35.8427 25.3414 35.8472C25.2887 35.8511 25.2364 35.8029 25.1868 35.757C25.1314 35.7061 25.0787 35.6585 25.0338 35.6884C25.0101 35.7042 24.9891 35.746 24.9642 35.7955C24.9544 35.815 24.944 35.8358 24.9326 35.8567C24.9289 35.8444 24.925 35.8335 24.9219 35.8254C24.9001 35.7678 24.8379 35.7564 24.7767 35.7453C24.7524 35.7409 24.7283 35.7365 24.7071 35.7291C24.6283 35.7024 24.5122 35.7365 24.4271 35.7708C24.391 35.7853 24.3505 35.78 24.3043 35.7734C24.2636 35.7675 24.2158 35.7614 24.1623 35.7675C24.1319 35.7709 24.1036 35.7623 24.0804 35.7551C24.0636 35.7498 24.0493 35.7453 24.0382 35.7468C24.0287 35.7481 24.0278 35.7673 24.0269 35.7888C24.0263 35.8043 24.0256 35.8211 24.0215 35.8334C24.0117 35.8628 23.9903 35.8786 23.9709 35.8775C23.962 35.877 23.9535 35.8728 23.9451 35.8686C23.9352 35.8638 23.9254 35.8589 23.9149 35.8598C23.8665 35.864 23.83 35.899 23.7934 35.9349C23.7518 35.9748 23.7105 36.0155 23.6464 36.0203C23.6264 36.0217 23.6028 36.0167 23.5801 36.0118C23.5564 36.0066 23.5326 36.002 23.5155 36.0047C23.4461 36.0158 23.4002 36.0797 23.3587 36.1382C23.3304 36.1773 23.3047 36.2138 23.2738 36.2313C23.2171 36.2635 23.2043 36.3246 23.1939 36.37C23.1886 36.3934 23.1844 36.4127 23.1757 36.4212C23.1655 36.4234 23.1552 36.4253 23.145 36.4271C23.135 36.4266 23.1242 36.4263 23.1161 36.4306C23.1155 36.431 23.115 36.4314 23.1144 36.4317C23.0561 36.4395 22.9967 36.442 22.9382 36.4441C22.806 36.4492 22.6754 36.4541 22.5602 36.5203C22.5354 36.5345 22.5156 36.565 22.496 36.5957C22.4719 36.6334 22.4468 36.6721 22.4111 36.6829C22.3579 36.6991 22.3003 36.7041 22.2418 36.7047C22.2033 36.7061 22.1634 36.7059 22.1249 36.7052C21.9718 36.7028 21.8265 36.697 21.7277 36.7902C21.695 36.821 21.6674 36.8632 21.6399 36.9056C21.6245 36.9292 21.6089 36.9531 21.5928 36.9747C21.5881 36.9459 21.5818 36.9194 21.576 36.8947C21.564 36.8437 21.5535 36.8002 21.5619 36.7575C21.5817 36.6568 21.5961 36.5221 21.5612 36.4389C21.5517 36.4163 21.5443 36.3901 21.5369 36.3637C21.5185 36.2975 21.4992 36.23 21.4451 36.2145C21.4085 36.2041 21.3167 36.1826 21.2849 36.2482C21.2779 36.2625 21.2787 36.2861 21.2796 36.3123C21.2811 36.3594 21.2829 36.4153 21.2407 36.442C21.2336 36.4465 21.2259 36.451 21.2177 36.4555C21.1855 36.4734 21.1489 36.4933 21.146 36.5325C21.1426 36.5777 21.1613 36.6221 21.183 36.674C21.2113 36.7415 21.245 36.8216 21.2419 36.9323C21.2412 36.9542 21.2299 36.9653 21.2213 36.9737C21.2152 36.9796 21.2106 36.9843 21.212 36.9904C21.2137 36.9974 21.2206 37.0107 21.2295 37.0276C21.2607 37.0871 21.3148 37.1914 21.2414 37.2201C21.2216 37.2279 21.1966 37.2301 21.1744 37.232C21.1416 37.2349 21.1144 37.2373 21.1169 37.2563C21.1179 37.2636 21.1195 37.2712 21.1212 37.2792C21.0962 37.2848 21.0714 37.2904 21.0466 37.296C21.0086 37.2845 20.9658 37.3003 20.9128 37.32C20.9 37.3248 20.8864 37.3298 20.8723 37.3347C20.8237 37.3455 20.7753 37.3563 20.7272 37.367C20.6871 37.37 20.6429 37.368 20.5938 37.3581C20.4952 37.3383 20.3975 37.2846 20.3017 37.2324C20.2614 37.2104 20.2214 37.1886 20.1819 37.1697C20.1921 37.1623 20.201 37.1546 20.207 37.1461C20.2478 37.0881 20.2431 37.003 20.2389 36.9245C20.2361 36.8723 20.2335 36.8231 20.2449 36.787C20.2659 36.7209 20.2409 36.66 20.2223 36.6151C20.2127 36.5917 20.2049 36.5726 20.2062 36.5592C20.2072 36.5485 20.2156 36.5409 20.2241 36.5331C20.2315 36.5262 20.2392 36.5191 20.2425 36.5097C20.2824 36.3953 20.2434 36.3494 20.1862 36.2828C20.1547 36.2461 20.1177 36.2029 20.0856 36.1385C20.0533 36.0697 20.0488 36.0479 20.0767 36.007C20.0355 35.9814 19.9941 35.9558 19.9527 35.9303C19.942 35.9365 19.9408 35.9614 19.9412 36.0021C19.9417 36.0749 19.8791 36.1225 19.8302 36.1601C19.8075 36.1775 19.788 36.1926 19.779 36.207C19.7308 36.2832 19.7768 36.3505 19.8167 36.4098C19.8388 36.4424 19.8591 36.4726 19.8614 36.5005C19.8624 36.5124 19.8703 36.5218 19.8783 36.5314C19.8845 36.5389 19.8908 36.5465 19.8941 36.5554C19.9179 36.62 19.8959 36.6815 19.8764 36.7386C19.8651 36.7713 19.8544 36.8026 19.853 36.8322C19.8526 36.8412 19.8529 36.8502 19.8533 36.8588C19.8538 36.8715 19.8543 36.8835 19.8523 36.8947C19.8477 36.9202 19.8276 36.9434 19.8057 36.9687C19.7946 36.9817 19.783 36.9953 19.7728 37.01C19.7595 37.0292 19.7625 37.0571 19.7656 37.0862C19.7678 37.1068 19.77 37.128 19.7668 37.1473C19.7611 37.1822 19.7317 37.2048 19.7046 37.2259C19.6929 37.2351 19.6817 37.244 19.673 37.2534C19.6694 37.2573 19.669 37.2624 19.6708 37.2686C19.6284 37.3076 19.5895 37.3461 19.5527 37.3837C19.4882 37.4494 19.4296 37.5121 19.3705 37.5679C19.2273 37.6863 19.0635 37.7815 18.8264 37.8285C18.7578 37.842 18.6899 37.8716 18.6247 37.908C18.3931 37.9692 18.1625 38.0256 17.9329 38.0787C17.868 38.0363 17.7968 38.0067 17.72 37.9909C17.5761 37.961 17.4501 37.9884 17.3016 38.02C17.192 38.0433 17.069 38.0692 16.9193 38.0753C16.6674 38.0857 16.4132 38.1077 16.1393 38.1668C16.1274 38.1694 16.1153 38.1721 16.1031 38.1747C15.8447 38.2309 15.5574 38.3093 15.3528 38.3729C15.2362 38.4091 15.0961 38.3996 14.9654 38.3906C14.7815 38.3779 14.6171 38.3655 14.56 38.4846C14.5423 38.5225 14.5324 38.5812 14.5225 38.6382C14.5154 38.6789 14.5083 38.7186 14.4988 38.7496C14.4478 38.7582 14.3958 38.767 14.3448 38.7753C14.2372 38.7448 14.0824 38.7248 13.974 38.8334C13.9209 38.8413 13.8675 38.8494 13.8164 38.8564C13.7037 38.873 13.595 38.8876 13.4839 38.9024C13.447 38.9074 13.4118 38.9117 13.375 38.9165C13.3746 38.9165 13.3743 38.9165 13.3739 38.9166C13.2991 38.9264 13.2271 38.935 13.1527 38.9441C13.1217 38.9478 13.0908 38.9514 13.0595 38.9551C12.9787 38.9648 12.9012 38.9733 12.8209 38.9823C12.7799 38.9866 12.7381 38.9911 12.6957 38.9957C12.6259 39.0033 12.5598 39.0097 12.49 39.0168C12.3802 39.0276 12.2689 39.0382 12.1591 39.0479C12.141 39.0495 12.1214 39.0441 12.1048 39.0322C12.0882 39.0204 12.0757 39.0032 12.0701 38.9834C12.0645 38.9637 12.066 38.9425 12.0739 38.9239C12.0818 38.9053 12.0956 38.8909 12.1118 38.883C12.2104 38.8351 12.3104 38.7868 12.4087 38.7387C12.4713 38.7085 12.5301 38.6791 12.5927 38.6488C12.6306 38.6302 12.6678 38.612 12.7044 38.5938C12.7761 38.5588 12.8451 38.5243 12.9171 38.489C12.945 38.4752 12.9724 38.4615 12.9999 38.4477C13.0663 38.4149 13.1302 38.3828 13.1968 38.3497C13.1972 38.3495 13.1976 38.3493 13.198 38.3491C13.2305 38.3329 13.2612 38.3172 13.2938 38.301C13.3922 38.2516 13.488 38.2028 13.5875 38.1526C13.638 38.1265 13.6919 38.0995 13.7441 38.0727C13.7727 38.0579 13.803 38.0425 13.8314 38.0278C13.8471 38.0197 13.8629 38.0117 13.8787 38.0036C14.246 37.8146 14.6045 37.6232 14.9721 37.4293C15.2149 37.3012 15.4608 37.1728 15.7117 37.0478C15.8363 36.9852 15.9601 36.9231 16.0832 36.8612C16.4523 36.6762 16.8177 36.4933 17.1785 36.3086C17.6337 36.0756 18.0741 35.8396 18.503 35.59C19.5099 35.0419 20.4927 34.6776 21.3385 34.2715C22.3054 33.8151 23.2788 33.3616 24.2603 32.9217C24.4562 32.8337 24.6556 32.7452 24.8549 32.6574C24.9874 32.5982 25.1255 32.5352 25.2635 32.4718C25.593 32.3205 25.9239 32.1663 26.2647 32.0097C26.3687 31.9618 26.4747 31.9133 26.5844 31.8633Z" fill="#FF3C3C"/>
<path d="M168.997 38.7226C169.036 51.021 168.667 62.8568 168.666 75.1971C168.666 75.4647 168.666 75.7323 168.667 76L168.68 77.6527L167 77.6667C151.938 77.6777 136.647 78.017 121.558 77.9525C106.29 77.8868 90.9473 77.7925 75.6536 77.6761C60.343 77.5598 45.0549 77.4216 29.7364 77.2684C20.1661 77.1725 10.5829 77.0708 1 76.9649L0.0431761 76.9729L0.0350685 76C0.0983196 70.2769 0.163073 64.5539 0.228986 58.8339C0.348725 48.4431 0.472334 38.0408 0.597469 27.6511C0.652316 23.0902 0.707409 18.5428 0.762702 13.9842C0.80405 10.5833 0.845399 7.18248 0.886748 3.78161C0.892577 3.30884 0.916227 2.8558 0.953767 2.52185C0.99137 2.18792 1.03951 1.99954 1.08927 2C1.13905 2.00064 1.1873 2.19041 1.22477 2.52551C1.26213 2.86048 1.28545 3.31429 1.29106 3.7871C1.3311 7.21667 1.37115 10.6462 1.4112 14.0758C1.45562 17.8851 1.50013 21.6877 1.54427 25.496C1.34008 26.0955 1.1852 26.9186 1.11681 28.4605C1.08192 29.2475 1.06741 30.3949 1.10535 31.24C1.13944 31.9988 1.20023 32.5704 1.25816 33.1132C1.31874 33.6808 1.37627 34.2196 1.39658 34.9131C1.43108 36.0899 1.51777 37.2084 1.60885 38.3829C1.642 38.8104 1.67578 39.2457 1.70779 39.694C1.74931 43.3291 1.79051 46.9647 1.83135 50.5997C1.80961 52.0038 1.79203 53.2947 1.8004 54.3899C1.80792 55.3723 1.85105 56.272 1.90471 57.1676C1.91096 57.7304 1.91722 58.2931 1.92347 58.8559C1.96366 62.4877 2.00321 66.1209 2.0424 69.7543C2.00516 71.692 1.96866 73.6935 1.94186 76L1 75.0581C2.06797 75.0705 3.20133 75.0809 4.42403 75.0882C6.08901 75.0982 7.73187 75.1277 9.31108 75.156C11.6437 75.1977 13.838 75.237 15.7619 75.2076C17.0478 75.188 18.4005 75.2169 19.7499 75.2457C21.5595 75.2843 23.3658 75.3228 25.0032 75.2442C26.0327 75.1948 26.9783 75.1347 27.8541 75.079C29.2475 74.9903 30.4649 74.9127 31.5675 74.9074C33.6385 74.8974 35.4322 74.8328 37.013 74.7758C38.9143 74.7073 40.5089 74.6498 41.9092 74.7117C42.1215 74.7211 42.3645 74.7336 42.638 74.7478C44.0796 74.8226 46.3852 74.9422 49.6949 74.8764C50.8732 74.853 51.98 74.7921 53.064 74.7324C54.642 74.6455 56.1744 74.5611 57.8155 74.5986C58.0607 74.6042 58.3167 74.6278 58.5498 74.6493C58.8461 74.6767 59.1051 74.7005 59.2584 74.6798C59.7081 74.6189 60.4221 74.5515 61.1975 74.4782C61.7671 74.4244 62.371 74.3673 62.9278 74.3074C67.1798 74.2735 71.4325 74.2411 75.6866 74.2104C77.6354 74.1963 79.5849 74.1826 81.5349 74.1692C82.5322 74.2609 83.5523 74.3436 84.6294 74.4061C86.0376 74.4878 87.863 74.5128 90.2159 74.5452C91.9472 74.5691 93.9653 74.597 96.3133 74.6542C100.66 74.76 105.125 74.7363 107.986 74.6795C108.591 74.6675 109.2 74.6547 109.85 74.6408C112.318 74.5879 115.397 74.5217 121.247 74.4487C126.78 74.3797 131.485 74.3618 135.02 74.3483C136.824 74.3415 138.324 74.3359 139.473 74.3252C141.439 74.3068 143.854 74.2904 146.277 74.274C150.07 74.2484 153.887 74.2227 156.048 74.1885C156.817 74.1763 157.624 74.1612 158.496 74.1451C160.737 74.1036 163.412 74.0543 167 74.0225L165.022 76C165.02 75.722 165.018 75.4386 165.015 75.1495C164.983 70.928 165.005 68.3113 165.053 65.5932C165.073 64.4885 165.151 63.5138 165.231 62.5098C165.345 61.085 165.465 59.5987 165.429 57.5879C165.421 57.1185 165.402 56.6176 165.383 56.0938C165.347 55.1315 165.308 54.0907 165.325 53.0249C165.331 52.6533 165.352 52.326 165.373 52.005C165.396 51.652 165.418 51.3059 165.419 50.9137C165.424 49.4491 165.419 48.0238 165.414 46.7573C165.408 45.124 165.403 43.7545 165.421 42.9047C165.454 41.3899 165.425 39.7335 165.395 38.0561C165.372 36.7748 165.348 35.4806 165.353 34.2274C165.365 30.6467 165.309 25.7224 165.215 20.6483C165.18 18.7286 165.228 17.102 165.29 15.0179C165.329 13.7216 165.373 12.2481 165.405 10.4164C165.424 9.37812 165.381 8.4987 165.341 7.68453C165.304 6.93441 165.27 6.2391 165.289 5.52572C165.306 4.89591 165.379 4.49766 165.448 4.11948C165.524 3.69863 165.596 3.30256 165.582 2.63999C165.578 2.44921 165.566 2.23615 165.548 2L167 3.45188C166.8 3.46664 166.583 3.48496 166.349 3.50471C166.148 3.52173 165.932 3.53975 165.705 3.55759C165.716 3.5429 165.719 3.52976 165.719 3.51982C165.72 3.44954 165.044 3.41253 164.381 3.37628C164.116 3.3618 163.852 3.3475 163.635 3.33119C162.838 3.27115 161.328 3.26138 160.175 3.26417C159.687 3.26533 159.244 3.24354 158.728 3.21811C158.27 3.19553 157.754 3.17005 157.095 3.15524C156.719 3.14679 156.431 3.12642 156.192 3.10942C156.02 3.09711 155.873 3.08659 155.736 3.08383C155.618 3.08145 155.523 3.1016 155.416 3.12429C155.339 3.14062 155.255 3.15831 155.152 3.16986C154.906 3.19745 154.59 3.20577 154.369 3.19691C154.266 3.19281 154.185 3.18497 154.105 3.17717C154.011 3.16808 153.918 3.15893 153.79 3.15572C153.201 3.14105 152.629 3.16403 152.034 3.18789C151.38 3.21412 150.698 3.24137 149.939 3.22104C149.7 3.21463 149.446 3.19995 149.2 3.1857C148.942 3.17079 148.691 3.15639 148.478 3.15255C147.613 3.13699 146.8 3.18724 146.052 3.23347C145.554 3.2642 145.085 3.29312 144.649 3.29975C143.851 3.31187 143.422 3.37219 143.106 3.41673C142.942 3.43981 142.808 3.45876 142.668 3.4645C142.54 3.46282 142.409 3.46082 142.282 3.45865C142.165 3.45421 142.044 3.44963 141.93 3.45109C141.922 3.45121 141.913 3.45147 141.905 3.45158C141.19 3.43696 140.489 3.41622 139.792 3.39553C138.226 3.34906 136.679 3.30307 135.044 3.329C134.691 3.33459 134.332 3.3595 133.967 3.38481C133.52 3.41581 133.062 3.44753 132.596 3.44525C131.484 3.43981 130.362 3.39872 129.258 3.35824C127.596 3.29736 125.972 3.2379 124.479 3.30317C123.986 3.32471 123.505 3.36058 123.023 3.39675C122.754 3.4169 122.484 3.43723 122.212 3.45499C122.269 3.422 122.3 3.39103 122.329 3.36214C122.388 3.30261 122.439 3.25165 122.701 3.20836C123.319 3.10607 124.02 2.96525 123.942 2.86255C123.921 2.83467 123.938 2.80363 123.957 2.77237C124.004 2.69396 124.051 2.61387 123.477 2.57765C123.09 2.55325 122.095 2.49721 121.463 2.55718C121.325 2.57025 121.241 2.59615 121.148 2.62493C120.98 2.67665 120.78 2.73789 120.181 2.75215C120.08 2.75454 119.97 2.75671 119.857 2.75873C119.405 2.76677 118.898 2.77564 118.709 2.81722C118.491 2.86511 118.537 2.91996 118.592 2.98391C118.662 3.0672 118.746 3.16614 118.277 3.28537C118.184 3.30895 118.006 3.31702 117.872 3.32315C117.778 3.32746 117.705 3.33092 117.698 3.33802C117.69 3.34616 117.72 3.36311 117.759 3.38456C117.894 3.46023 118.129 3.59244 117.147 3.59805C116.881 3.59955 116.577 3.59326 116.305 3.58757C115.903 3.57919 115.569 3.57227 115.525 3.59391C115.508 3.60211 115.496 3.61101 115.486 3.62023C115.166 3.61763 114.847 3.61503 114.527 3.61243C114.117 3.58664 113.541 3.58885 112.822 3.59171C112.648 3.59241 112.464 3.59305 112.273 3.59342C111.642 3.58808 111.01 3.58277 110.379 3.57733C109.879 3.5664 109.347 3.54858 108.785 3.52031C107.658 3.46364 106.679 3.37018 105.721 3.27879C105.318 3.24029 104.918 3.20206 104.513 3.16718C104.671 3.16289 104.813 3.15783 104.923 3.15085C105.674 3.10311 105.975 3.00919 106.252 2.92274C106.437 2.86524 106.611 2.81102 106.899 2.77603C107.426 2.71194 107.373 2.63698 107.334 2.58155C107.314 2.5528 107.299 2.52925 107.369 2.51526C107.426 2.50406 107.557 2.49879 107.691 2.49333C107.809 2.48857 107.931 2.4836 108.008 2.47457C108.951 2.36483 108.668 2.30114 108.255 2.20844C108.028 2.15731 107.762 2.09732 107.64 2.01591C107.535 1.92972 107.571 1.90451 108.065 1.87018C107.68 1.82761 107.295 1.78504 106.91 1.74247C106.759 1.74524 106.644 1.77185 106.483 1.81607C106.195 1.89504 105.259 1.9239 104.527 1.94646C104.189 1.9569 103.894 1.96603 103.727 1.97814C102.842 2.04253 103.1 2.13221 103.326 2.21112C103.451 2.25455 103.566 2.29475 103.476 2.32566C103.438 2.33888 103.493 2.352 103.548 2.36539C103.59 2.37573 103.634 2.38625 103.636 2.39707C103.647 2.47565 103.124 2.53397 102.638 2.58813C102.36 2.61915 102.094 2.64891 101.948 2.68025C101.903 2.68981 101.867 2.69955 101.834 2.70901C101.785 2.72282 101.738 2.73599 101.664 2.74727C101.495 2.77297 101.146 2.79029 100.765 2.80917C100.569 2.81885 100.365 2.82896 100.171 2.84086C99.921 2.85627 99.8308 2.88735 99.7356 2.91982C99.6683 2.94276 99.5978 2.96639 99.4683 2.98586C99.2337 3.02107 98.7599 3.03377 98.3202 3.04557C98.1287 3.0507 97.9435 3.05581 97.7874 3.06238C97.7238 3.06506 97.6933 3.07041 97.6866 3.07774C96.9648 3.10233 96.2756 3.12746 95.6047 3.15207C92.2415 3.27544 89.3302 3.38241 84.9828 3.30487C84.161 3.29021 83.2782 3.29314 82.3864 3.30487C79.5332 3.27405 76.6785 3.24222 73.8263 3.20958C73.2617 3.13878 72.5711 3.07931 71.7535 3.03265C70.2181 2.94504 68.6386 2.92632 66.7749 2.90422C65.397 2.88788 63.8635 2.86963 62.0764 2.82038C59.074 2.73764 55.9913 2.66764 52.5129 2.63127C49.0495 2.59505 45.0844 2.56836 42.2791 2.55889C40.7499 2.55372 39.1436 2.49038 37.6466 2.43143C35.5408 2.34851 33.6513 2.27419 32.4977 2.38196C32.1293 2.4164 31.7731 2.47619 31.4265 2.53427C31.1797 2.57564 30.9362 2.61604 30.6978 2.64613C30.0628 2.63679 29.4271 2.62755 28.7916 2.61811C27.6626 2.54629 25.9082 2.4693 24.2122 2.54938C23.5567 2.53949 22.9008 2.52964 22.2676 2.51965C20.8858 2.49876 19.5339 2.4776 18.1697 2.45629C17.7244 2.44924 17.2747 2.44218 16.8239 2.43509C16.8196 2.435 16.8154 2.43492 16.8111 2.43484C15.9036 2.42056 14.9893 2.40618 14.0902 2.39171C13.705 2.38553 13.3199 2.37936 12.9348 2.37318C11.956 2.35752 10.9703 2.34179 10.0014 2.32591C9.48865 2.31746 8.97095 2.30907 8.45236 2.30056C7.61105 2.28675 6.76337 2.27286 5.92003 2.25889C4.55616 2.23629 3.19869 2.21344 1.83862 2.19041C1.61619 2.1866 1.40245 2.17465 1.24536 2.15653C1.08833 2.13838 0.99976 2.11564 1 2.09219C1.00031 2.06874 1.08963 2.04593 1.24719 2.02785C1.40465 2.00984 1.61818 1.99817 1.84045 1.99447C3.20148 1.97206 4.56069 1.9499 5.92552 1.92793C6.76902 1.91435 7.61639 1.90065 8.45786 1.88724C8.97669 1.87896 9.4939 1.87083 10.0069 1.86262C10.9758 1.84719 11.9633 1.83177 12.9421 1.81656C13.3272 1.81055 13.7124 1.80454 14.0975 1.79853C14.9991 1.78444 15.9159 1.7705 16.8257 1.75661C16.8312 1.75653 16.8367 1.75645 16.8422 1.75637C17.2899 1.74953 17.7367 1.74268 18.1789 1.73589C19.5436 1.71522 20.8963 1.69473 22.2786 1.67448C22.9928 1.66355 23.7371 1.65287 24.4759 1.64207C24.8872 1.63605 25.2977 1.63001 25.7008 1.62403C25.9212 1.62085 26.1446 1.6177 26.3692 1.61453C31.5234 1.5396 36.6413 1.46751 41.8067 1.39836C46.9528 1.32921 52.1081 1.26291 57.248 1.19925C62.4003 1.13559 67.5435 1.07468 72.691 1.01623C104.041 0.66007 135.512 0.365448 167 0.173944L168.811 0.158855L168.826 2C168.834 3.32353 168.842 4.64708 168.85 5.97066C168.877 10.6509 168.902 15.4533 168.924 20.143C168.946 24.8839 168.965 29.5274 168.982 34.2805C168.987 35.7242 168.992 37.204 168.997 38.7226Z" fill="#FF3C3C"/>
<path d="M137.796 41.319C130.357 41.2314 123.149 40.8841 115.639 40.9624C113.101 40.9909 110.536 41.0544 107.981 41.1302C103.121 41.2674 98.5919 41.5618 93.5612 42.0507C91.5623 42.1362 89.5573 42.2183 87.5575 42.2749C83.0452 42.4046 78.5132 42.5009 73.9768 42.5466C69.1419 42.5885 64.3269 42.5267 59.5247 42.4654C54.565 42.4007 49.6027 42.3082 44.6716 42.2609C40.3782 42.2633 35.8273 42.1459 31.9671 42.8495C31.6857 42.8637 31.1772 43.2499 31.616 42.8288C31.3705 42.9915 31.3193 43.8084 31.3518 42.6759C30.6013 42.3064 32.7339 42.8729 34.041 42.4798C35.5298 42.2409 36.9277 41.8224 38.6738 41.5152C41.415 41.129 44.1937 40.7308 46.9617 40.3879C46.9875 40.3837 47.0649 40.3781 47.0911 40.3772C49.7075 40.379 52.3212 40.4195 54.9327 40.5053C57.8637 40.6004 60.7889 40.7521 63.7103 40.9115L63.6962 40.9112C67.091 41.0236 70.5091 41.1067 73.9129 41.1902C76.6876 41.2574 79.4611 41.3213 82.2363 41.3845C84.3095 41.4318 86.379 41.4784 88.4514 41.5249C88.7395 41.5315 89.015 41.5581 89.2186 41.6003C89.4221 41.6426 89.537 41.6968 89.5367 41.7527C89.5363 41.8088 89.4206 41.863 89.2164 41.9052C89.0122 41.9472 88.7362 41.9735 88.448 41.9798C86.3581 42.0248 84.2714 42.0698 82.1803 42.1141C79.8594 42.1632 77.5432 42.2117 75.2227 42.2577C74.8579 42.0274 74.3576 41.8524 73.4174 41.7734C72.9422 41.7332 72.241 41.7151 71.7243 41.7563C71.2668 41.7934 70.9118 41.8607 70.5839 41.9247C70.2337 41.9917 69.911 42.0552 69.4852 42.0764C68.7675 42.1123 68.0888 42.2066 67.3694 42.3049C67.1146 42.3408 66.8391 42.3771 66.5709 42.4113C65.6109 42.4253 64.6349 42.4376 63.6779 42.4464C63.6744 42.4463 63.6637 42.4462 63.6601 42.446C62.4085 42.4313 61.1591 42.4178 59.9107 42.4093C59.0582 42.3612 58.2749 42.3224 57.6096 42.3177C57.0129 42.3135 56.466 42.352 55.9218 42.404C55.58 42.4058 55.2383 42.4082 54.8976 42.4114C52.6942 42.4312 50.4924 42.4817 48.2894 42.5603C47.9119 42.5526 47.5288 42.546 47.1338 42.5407L47.2759 42.5289C45.8934 42.6856 44.406 42.8675 42.5973 43.1362C41.5969 43.2847 40.6062 43.415 39.6483 43.5369C39.4326 43.5643 39.2189 43.5912 39.0066 43.618C37.9801 43.7693 36.8325 44.0765 35.8677 44.3233C35.095 44.5257 34.2566 44.6716 33.3878 44.7524C32.2249 44.7658 31.0009 45.174 29.5737 43.9843C29.3669 43.762 29.2199 43.4889 29.1379 43.2172C29.0796 41.7998 29.5168 41.8313 29.6394 41.4258C29.7109 41.3153 29.7995 41.2164 29.8665 41.1497C31.139 40.1747 31.7502 40.2218 32.4935 40.0313C33.8223 39.8069 34.9103 39.6513 35.8936 39.5133C37.0603 39.3532 38.0525 39.2434 38.9146 39.2789C39.0435 39.2845 39.191 39.293 39.3608 39.3029C40.2525 39.3553 41.6639 39.4475 43.6965 39.3493C44.0169 39.3336 44.3311 39.3101 44.6473 39.2825C45.013 39.249 45.3953 39.2091 45.7515 39.1701C46.7148 39.0668 47.6508 38.9687 48.6541 39.0087C48.8016 39.0146 48.957 39.0408 49.0995 39.0648C49.2802 39.0952 49.4421 39.1218 49.5342 39.0983C49.8022 39.0293 50.248 38.9529 50.7142 38.87C51.0606 38.8091 51.4317 38.7447 51.7689 38.6771C54.361 38.6376 56.9521 38.6027 59.5423 38.5664C60.729 38.5498 61.9146 38.533 63.1017 38.5153C63.7095 38.6171 64.3294 38.7083 64.9855 38.7763C65.8437 38.8651 66.9516 38.8888 68.3836 38.9149C69.4345 38.934 70.6633 38.9548 72.0885 38.9984C72.6898 39.0169 73.3122 39.0258 73.9016 39.0265C75.9206 39.028 77.8399 38.9513 79.1735 38.8647C79.5446 38.8408 79.9098 38.8159 80.3065 38.7886C81.8048 38.6846 83.6718 38.5535 87.2248 38.3427C89.5515 38.2045 91.6431 38.0991 93.4272 38.0238C94.0986 37.9923 94.84 37.9076 95.504 37.8477C96.6192 37.7428 97.5409 37.6734 98.2553 37.6176C99.4708 37.5219 100.954 37.4352 102.441 37.3673C104.496 37.2726 106.555 37.2112 107.927 37.1608C108.104 37.1541 108.272 37.1474 108.428 37.1408C108.908 37.1206 109.387 37.0972 109.921 37.072C111.388 37.0023 113.172 36.918 115.622 36.8551C118.195 36.7894 119.793 36.8002 121.452 36.8417C122.126 36.8587 122.723 36.9421 123.335 37.0288C124.206 37.1519 125.114 37.281 126.34 37.237C126.627 37.2267 126.933 37.205 127.252 37.1824C127.841 37.141 128.472 37.0966 129.127 37.1158C129.354 37.1226 129.553 37.1465 129.748 37.17C129.964 37.1958 130.177 37.2212 130.416 37.2231C131.308 37.2301 132.183 37.228 132.956 37.2277C133.955 37.2273 134.796 37.2303 135.31 37.2571C136.243 37.3052 137.252 37.2872 138.281 37.2753C139.077 37.2665 139.86 37.2606 140.639 37.2912C141.02 37.3062 141.454 37.3221 141.879 37.3378C143.897 37.4147 146.369 37.4515 148.946 37.4971C150.212 37.6021 150.768 37.3595 152.977 38.1852C153.015 38.2049 153.054 38.2252 153.092 38.246C154.215 38.853 154.892 40.0303 154.89 39.9755C154.848 39.9527 154.797 39.91 155.064 40.0993C155.157 40.2091 155.271 40.1262 155.657 40.8498C155.905 41.2559 155.816 42.3339 155.376 42.7503C155.086 43.0796 154.871 43.1658 154.745 43.2304C154.327 43.4035 154.287 43.3689 154.198 43.3916C153.912 43.4281 153.836 43.4197 153.709 43.4241C152.984 43.4269 152.484 43.4698 151.976 43.5175C151.514 43.5599 151.091 43.5981 150.658 43.5767C150.274 43.5578 150.032 43.4763 149.8 43.3989C149.764 43.3868 149.727 43.3749 149.691 43.3633C149.479 43.292 149.243 43.2339 148.899 43.2475C148.677 43.2559 148.425 43.2967 148.112 43.3451C147.991 43.3642 147.859 43.3845 147.718 43.4045C147.725 43.388 147.727 43.3732 147.727 43.362C147.725 43.2829 147.317 43.2412 146.913 43.2003C146.753 43.184 146.588 43.1679 146.458 43.1495C145.973 43.0818 145.053 43.0703 144.35 43.0729C144.051 43.0739 143.784 43.0492 143.468 43.0203C143.188 42.9946 142.873 42.9656 142.473 42.9484C142.244 42.9386 142.067 42.9154 141.922 42.8961C141.817 42.8821 141.728 42.8701 141.645 42.8669C141.573 42.8641 141.515 42.8867 141.449 42.9121C141.402 42.9304 141.351 42.9502 141.288 42.9631C141.139 42.9939 140.946 43.0029 140.811 42.9927C140.748 42.988 140.699 42.9791 140.65 42.9702C140.593 42.9599 140.536 42.9495 140.458 42.9457C140.1 42.9285 139.75 42.9536 139.388 42.9796C138.989 43.0082 138.574 43.0378 138.111 43.0136C137.965 43.006 137.811 42.989 137.66 42.9725C137.503 42.9553 137.35 42.9386 137.22 42.9338C136.693 42.9146 136.196 42.9692 135.741 43.0193C135.435 43.0527 135.153 43.0839 134.885 43.0901C134.399 43.1014 134.134 43.1678 133.943 43.2169C133.844 43.2423 133.762 43.2632 133.676 43.2691C133.597 43.2668 133.517 43.2641 133.439 43.2612C133.368 43.2557 133.295 43.2501 133.226 43.2514C133.221 43.2515 133.216 43.2517 133.211 43.2518C132.772 43.2327 132.344 43.2064 131.922 43.1799C131.205 43.1351 130.491 43.0897 129.759 43.0765C129.508 43.072 129.273 43.0713 129.019 43.075C128.808 43.0784 128.58 43.1031 128.362 43.1281C128.084 43.1586 127.804 43.1895 127.521 43.1817C126.839 43.163 126.156 43.1017 125.483 43.0402C124.472 42.9477 123.484 42.8559 122.578 42.9091C122.275 42.9264 121.984 42.9605 121.692 42.995C121.532 43.0143 121.356 43.0335 121.198 43.0502C121.233 43.0138 121.252 42.9794 121.27 42.9472C121.305 42.881 121.339 42.8243 121.501 42.779C121.874 42.6716 122.309 42.5228 122.262 42.4062C122.25 42.3745 122.261 42.3399 122.273 42.3049C122.302 42.2174 122.337 42.1279 121.987 42.0796C121.75 42.0469 121.154 41.9714 120.761 42.0313C120.679 42.0444 120.628 42.0725 120.571 42.1038C120.471 42.1601 120.336 42.2263 119.98 42.2358C119.919 42.2374 119.852 42.2386 119.782 42.2396C119.501 42.2435 119.203 42.2483 119.081 42.293C118.944 42.3445 118.974 42.4067 119.005 42.4792C119.05 42.5737 119.092 42.6857 118.811 42.8152C118.755 42.8407 118.648 42.848 118.566 42.8536C118.508 42.8574 118.463 42.8606 118.458 42.8685C118.453 42.8776 118.471 42.897 118.495 42.9215C118.578 43.008 118.713 43.1589 118.119 43.1556C117.96 43.1547 117.774 43.1447 117.604 43.1357C117.366 43.1226 117.163 43.1118 117.135 43.1357C117.124 43.1448 117.117 43.1547 117.111 43.165C116.912 43.1591 116.72 43.1534 116.528 43.1477C116.279 43.1152 115.927 43.1127 115.492 43.1102C115.385 43.1095 115.27 43.1087 115.152 43.1076C114.785 43.0968 114.375 43.0857 114.006 43.0751C113.711 43.0592 113.363 43.035 113.037 42.9994C112.776 42.9718 112.523 42.9382 112.274 42.901C111.9 42.8421 111.534 42.7742 111.171 42.7073C110.931 42.6615 110.69 42.616 110.441 42.5742C110.538 42.5704 110.625 42.5656 110.692 42.5584C111.145 42.5093 111.33 42.4056 111.503 42.3102C111.617 42.2467 111.724 42.1869 111.899 42.1494C112.218 42.0807 112.185 41.9961 112.163 41.9335C112.152 41.901 112.143 41.8744 112.185 41.8591C112.205 41.8517 112.242 41.8469 112.286 41.8431C112.316 41.8407 112.348 41.8387 112.381 41.8366C112.455 41.8321 112.53 41.8273 112.578 41.8177C113.156 41.7008 112.982 41.6272 112.733 41.52C112.595 41.461 112.431 41.3916 112.355 41.2992C112.29 41.2015 112.315 41.1734 112.621 41.1382C112.513 41.1152 112.404 41.0922 112.294 41.0691C112.17 41.0417 112.045 41.0142 111.918 40.9868C111.827 40.9889 111.757 41.0181 111.658 41.0668C111.477 41.1537 110.912 41.1802 110.464 41.2011C110.257 41.2107 110.069 41.2191 109.973 41.2318C109.44 41.299 109.592 41.4014 109.729 41.4915C109.804 41.5411 109.873 41.587 109.818 41.6212C109.795 41.6359 109.828 41.651 109.861 41.6663C109.886 41.6782 109.912 41.6903 109.913 41.7025C109.919 41.791 109.605 41.8535 109.306 41.9115C109.135 41.9448 108.97 41.9767 108.879 42.0111C108.853 42.0215 108.831 42.0323 108.811 42.0428C108.782 42.058 108.753 42.0726 108.709 42.0848C108.607 42.1128 108.397 42.1303 108.163 42.1493C108.043 42.1591 107.918 42.1693 107.798 42.1816C107.643 42.1975 107.59 42.232 107.532 42.268C107.491 42.2934 107.448 42.3196 107.37 42.3408C107.228 42.3791 106.941 42.3909 106.671 42.4017C106.553 42.4065 106.437 42.4112 106.343 42.4177C106.305 42.4204 106.286 42.4263 106.282 42.4345C105.848 42.4583 105.425 42.4829 105.013 42.5071C102.966 42.6286 101.193 42.7348 98.5455 42.6279C98.0412 42.6076 97.5088 42.607 96.9638 42.6163C95.2267 42.5691 93.4873 42.5213 91.7499 42.473C91.407 42.391 90.9869 42.3213 90.4886 42.2656C89.5547 42.1609 88.5917 42.1336 87.4572 42.1016C86.6174 42.078 85.6834 42.0516 84.5957 41.9896C82.767 41.8854 80.8891 41.7956 78.7706 41.7426C76.6617 41.6899 74.2484 41.6468 72.5384 41.6271C71.6016 41.6164 70.6291 41.5401 69.7149 41.4692C68.9678 41.4108 68.2497 41.3559 67.6656 41.3442C67.234 41.3359 66.8683 41.3492 66.5826 41.3981C66.3582 41.4357 66.1348 41.5019 65.9247 41.5663C65.7744 41.6121 65.6275 41.6569 65.4849 41.6901C65.0936 41.6777 64.7058 41.6655 64.3243 41.6531C63.6271 41.5692 62.5696 41.4778 61.5358 41.5635C61.1263 41.5507 60.745 41.538 60.3483 41.5252C59.5143 41.4983 58.6818 41.4713 57.8528 41.4444C57.5851 41.4355 57.3072 41.4266 57.0339 41.4177C57.0313 41.4176 57.0287 41.4175 57.0262 41.4174C56.4751 41.3995 55.915 41.3816 55.3704 41.3637C55.1316 41.3561 54.9065 41.3485 54.6661 41.3409C54.0726 41.3217 53.4716 41.3027 52.8806 41.2836C52.5698 41.2735 52.2553 41.2635 51.9375 41.2535C51.4249 41.2371 50.9098 41.2209 50.3966 41.2047C49.5648 41.1786 48.7406 41.1527 47.9114 41.1268C47.7762 41.1225 47.6458 41.1091 47.5502 41.0887C47.4546 41.0683 47.4007 41.0427 47.4009 41.0163C47.4011 40.9899 47.4554 40.9643 47.5513 40.9439C47.6472 40.9237 47.7774 40.9105 47.9125 40.9064C48.7423 40.8812 49.5676 40.8564 50.4003 40.8324C50.9137 40.8176 51.4287 40.8028 51.9415 40.7885C52.2597 40.7797 52.574 40.7711 52.885 40.7624C53.476 40.7462 54.0786 40.7303 54.6722 40.7148C54.9129 40.7086 55.1378 40.7025 55.3769 40.6964C55.9228 40.6821 56.4853 40.6682 57.0376 40.6544C57.0409 40.6544 57.0442 40.6543 57.0475 40.6542C57.3194 40.6474 57.5951 40.6407 57.8613 40.634C58.6907 40.6137 59.5245 40.5938 60.3589 40.5744C60.8003 40.5639 61.2481 40.5537 61.6981 40.5435C61.945 40.5378 62.1984 40.5321 62.4472 40.5264C62.5786 40.5234 62.7131 40.5204 62.8496 40.5175C64.4576 40.4814 66.0656 40.4466 67.6702 40.4129C69.1962 40.3809 70.7211 40.3499 72.2552 40.32C75.3908 40.2587 78.5323 40.2015 81.6649 40.1483C84.8046 40.0951 87.9379 40.046 91.075 40.0009C98.1391 39.9001 105.233 39.8109 112.309 39.76C118.142 39.7011 124.013 39.7795 129.798 39.781C136.407 39.7488 143.056 39.6555 149.691 39.5849C150.108 39.5803 150.517 39.5759 150.925 39.5713C151.468 39.5652 152.003 39.5592 152.544 39.5508C152.811 39.5464 153.078 39.5417 153.326 39.5337C153.444 39.5298 153.576 39.5241 153.635 39.5185C153.565 39.5555 153.982 39.3806 153.101 39.6736C152.943 39.8374 152.383 39.7018 151.92 41.2069C151.81 42.694 152.426 42.8872 152.507 43.0607C152.764 43.2988 152.785 43.2831 152.811 43.3063C152.843 43.3258 152.77 43.2847 152.661 43.2107C151.317 42.0922 151.237 41.7736 151.246 41.8619C151.359 41.8441 149.911 41.7087 149.024 41.6796C146.603 41.571 144.172 41.4976 141.707 41.4086C141.31 41.3947 140.88 41.3817 140.473 41.3711C139.604 41.3485 138.711 41.3318 137.796 41.319Z" fill="#FF3C3C"/>
</svg>
