<svg width="777" height="144" viewBox="0 0 777 144" fill="none" xmlns="http://www.w3.org/2000/svg">
<path d="M74 128.8C61.7333 134.933 49.8 138 38.2 138C26.6 138 17.3333 133.2 10.4 123.6C3.46667 114 5.66244e-07 103.067 5.66244e-07 90.8C5.66244e-07 78.5333 1.73333 67.3333 5.2 57.2C8.8 46.9333 14.4667 38.3333 22.2 31.4C30.0667 24.3333 39.3333 20.8 50 20.8C54.2667 20.8 58.3333 21.8667 62.2 24C66.0667 26.1333 68 28.4 68 30.8C68 34.8 66 36.8 62 36.8C60.8 36.8 59 36.1333 56.6 34.8C54.3333 33.4667 52.1333 32.8 50 32.8C41.7333 32.8 34.6 35.8 28.6 41.8C17.5333 52.8667 12 68.9333 12 90C12 99.2 14.3333 107.533 19 115C23.6667 122.333 30 126 38 126C47.8667 126 58.2667 123.267 69.2 117.8C71.6 116.6 73.2 116 74 116C78 116 80 118 80 122C80 123.6 79.6 124.867 78.8 125.8C78 126.6 76.4 127.6 74 128.8ZM165 95.8C168.333 113.933 171.533 126.2 174.6 132.6C175.533 134.467 176 136.267 176 138C176 142 174 144 170 144C167.867 144 165.867 142 164 138C158.8 127.333 154.6 111.333 151.4 90C143 90 131.733 91.2667 117.6 93.8L108 132C107.467 134.133 106.733 135.667 105.8 136.6C105 137.533 103.733 138 102 138C98 138 96 136 96 132C96 130.933 96.1333 130.133 96.4 129.6L105 95H102C98 95 96 93 96 89C96 85 98 83 102 83C104.4 83 106.4 82.9333 108 82.8C111.2 71.0667 115.733 56.2 121.6 38.2C125.333 26.6 131.333 20.8 139.6 20.8C142 20.8 144.533 21.7333 147.2 23.6C150 25.3333 152 28.4 153.2 32.8C156.267 43.7333 159.333 59.4667 162.4 80C164.533 80.8 167.333 82.6 170.8 85.4C174.267 88.0667 176 90.2667 176 92C176 96 174 98 170 98C169.067 98 167.4 97.2667 165 95.8ZM149.6 78C145.2 47.8667 141.867 32.8 139.6 32.8C138.4 32.8 137.533 33.1333 137 33.8C136.467 34.3333 136.067 34.7333 135.8 35C135.533 35.2667 135.2 35.8 134.8 36.6C134.533 37.4 134.333 37.9333 134.2 38.2C133.4 39.8 133 41 133 41.8C126.867 60.2 122.8 73.2667 120.8 81C130.667 79.2667 140.267 78.2667 149.6 78ZM275.992 46C264.259 46 254.659 50.2667 247.192 58.8C239.726 67.3333 235.992 77.7333 235.992 90V132C235.992 136 233.992 138 229.992 138C225.992 138 223.992 136 223.992 132V90C223.992 78.1333 226.992 67.4667 232.992 58C238.992 48.5333 246.659 41.8667 255.992 38C235.992 34.5333 217.326 32.8 199.992 32.8C195.992 32.8 193.992 30.8 193.992 26.8C193.992 22.8 195.992 20.8 199.992 20.8C220.659 20.8 245.992 23.8667 275.992 30C277.592 30.2667 278.992 31.2 280.192 32.8C281.392 34.2667 281.992 36 281.992 38C281.992 40 281.326 41.8667 279.992 43.6C278.659 45.2 277.326 46 275.992 46ZM313.286 61C314.353 55.6667 316.553 51.8667 319.886 49.6C323.353 47.2 327.019 46 330.886 46C334.886 46 339.019 49.0667 343.286 55.2C351.286 66.4 357.219 80.6667 361.086 98H366.086C367.953 98 369.419 98.6 370.486 99.8C371.553 101 372.086 102.4 372.086 104C372.086 105.6 371.553 107 370.486 108.2C369.419 109.4 367.953 110 366.086 110H363.286C363.819 113.6 364.086 117.467 364.086 121.6C364.086 125.733 362.419 129.533 359.086 133C355.753 136.333 351.819 138 347.286 138C342.753 138 337.753 135.333 332.286 130C326.819 124.667 324.086 119.333 324.086 114C324.086 104.8 332.419 99.6667 349.086 98.6C346.953 89.9333 343.819 81 339.686 71.8C335.686 62.6 332.686 58 330.686 58C328.819 58 327.486 58.4667 326.686 59.4C325.886 60.3333 325.286 61.8667 324.886 64C318.886 93.7333 312.019 116.4 304.286 132C303.086 134.533 302.019 136.2 301.086 137C300.286 137.667 299.286 138 298.086 138C294.086 138 292.086 136 292.086 132C292.086 130.267 292.553 128.533 293.486 126.8C300.819 112 307.419 90.0667 313.286 61ZM351.286 110.4C341.153 111.067 336.086 112.267 336.086 114C336.086 116 337.553 118.533 340.486 121.6C343.553 124.533 346.086 126 348.086 126C350.753 126 352.086 124.2 352.086 120.6C352.086 116.867 351.819 113.467 351.286 110.4ZM342.086 34C338.086 34 336.086 32 336.086 28C336.086 26.2667 337.553 24.4 340.486 22.4C345.019 19.6 350.086 14 355.686 5.59999C357.953 2.13333 360.086 0.399995 362.086 0.399995C366.086 0.399995 368.086 2.39999 368.086 6.39999C368.086 7.73333 367.286 9.6 365.686 12C359.286 21.6 353.086 28.4 347.086 32.4C345.486 33.4667 343.819 34 342.086 34ZM518.58 47.2L514.78 46.6C512.38 46.2 509.446 46 505.98 46C502.513 46 499.18 47.7333 495.98 51.2C492.646 54.4 490.046 58.5333 488.18 63.6C484.18 74.1333 482.18 83.6 482.18 92C482.18 114.667 491.18 126 509.18 126C523.713 126 534.846 121.267 542.58 111.8C550.313 102.2 554.18 89.6 554.18 74C554.18 65.7333 552.513 58.3333 549.18 51.8C545.846 45.2667 540.846 42 534.18 42C532.846 42 529.713 42.3333 524.78 43C524.113 45.8 522.046 47.2 518.58 47.2ZM509.18 138C496.513 138 486.846 133.8 480.18 125.4C473.513 116.867 470.18 105.733 470.18 92C470.18 81.4667 472.913 69.6667 478.38 56.6C481.046 50.2 484.846 44.8667 489.78 40.6C494.846 36.2 500.446 34 506.58 34C508.98 34 511.513 34.1333 514.18 34.4C518.046 31.4667 524.846 30 534.58 30C544.446 30 552.18 34.4 557.78 43.2C563.38 51.8667 566.18 62.1333 566.18 74C566.18 92.8 561.113 108.2 550.98 120.2C540.846 132.067 526.913 138 509.18 138ZM404.98 38L402.18 108C402.18 116 417.513 120 448.18 120C452.18 120 454.18 122 454.18 126C454.18 130 452.18 132 448.18 132C409.513 132 390.18 124 390.18 108L392.98 38L392.18 27C392.18 22.8667 394.18 20.8 398.18 20.8C401.78 20.8 403.78 22.8 404.18 26.8C404.713 30 404.98 33.7333 404.98 38ZM728.572 47.2L724.772 46.6C722.372 46.2 719.439 46 715.972 46C712.505 46 709.172 47.7333 705.972 51.2C702.639 54.4 700.039 58.5333 698.172 63.6C694.172 74.1333 692.172 83.6 692.172 92C692.172 114.667 701.172 126 719.172 126C733.705 126 744.839 121.267 752.572 111.8C760.305 102.2 764.172 89.6 764.172 74C764.172 65.7333 762.505 58.3333 759.172 51.8C755.839 45.2667 750.839 42 744.172 42C742.839 42 739.705 42.3333 734.772 43C734.105 45.8 732.039 47.2 728.572 47.2ZM719.172 138C706.505 138 696.839 133.8 690.172 125.4C683.505 116.867 680.172 105.733 680.172 92C680.172 81.4667 682.905 69.6667 688.372 56.6C691.039 50.2 694.839 44.8667 699.772 40.6C704.839 36.2 710.439 34 716.572 34C718.972 34 721.505 34.1333 724.172 34.4C728.039 31.4667 734.839 30 744.572 30C754.439 30 762.172 34.4 767.772 43.2C773.372 51.8667 776.172 62.1333 776.172 74C776.172 92.8 771.105 108.2 760.972 120.2C750.839 132.067 736.905 138 719.172 138ZM626.172 92C626.172 87.3333 631.505 85 642.172 85C653.772 85 660.572 86 662.572 88C663.639 89.0667 664.172 90.4 664.172 92C664.172 96 662.172 98 658.172 98C657.905 98 656.039 97.8667 652.572 97.6C649.239 97.2 646.572 97 644.572 97C646.972 101.267 648.172 105.467 648.172 109.6C648.172 117.6 645.505 124.333 640.172 129.8C634.839 135.267 628.172 138 620.172 138C609.639 138 600.972 134.667 594.172 128C587.505 121.2 584.172 112.733 584.172 102.6C584.172 92.3333 585.505 82.4667 588.172 73C590.839 63.4 594.572 54.7333 599.372 47C604.305 39.1333 610.639 32.8 618.372 28C626.239 23.2 634.839 20.8 644.172 20.8C650.039 20.8 654.839 22.6667 658.572 26.4C662.305 30.1333 664.172 34.6 664.172 39.8C664.172 45 662.505 50.4 659.172 56C656.639 60 654.305 62 652.172 62C648.172 62 646.172 60 646.172 56C646.172 55.0667 647.172 52.9333 649.172 49.6C651.172 46.2667 652.172 43.3333 652.172 40.8C652.172 35.4667 649.505 32.8 644.172 32.8C634.039 32.8 625.172 36.4 617.572 43.6C610.105 50.8 604.639 59.5333 601.172 69.8C597.839 80.0667 596.172 90.8 596.172 102C596.172 109.2 598.372 115 602.772 119.4C607.172 123.8 612.372 126 618.372 126C624.372 126 628.839 124.467 631.772 121.4C634.705 118.333 636.172 114.733 636.172 110.6C636.172 106.467 634.505 102.867 631.172 99.8C627.839 96.7333 626.172 94.1333 626.172 92Z" fill="white"/>
</svg>
