<svg width="91" height="92" viewBox="0 0 91 92" fill="none" xmlns="http://www.w3.org/2000/svg">
<path d="M19.8044 16.3371C20.5051 16.7257 21.3771 17.8852 21.8479 18.5104C21.8568 18.522 21.866 18.5339 21.875 18.5457C21.9911 18.699 22.1074 18.8364 22.2427 18.9958C22.5625 19.3723 22.9988 19.8866 23.8022 21.0516C24.0776 21.3521 24.3494 21.6525 24.6236 21.9605C27.5535 25.2541 30.354 28.6784 33.1066 32.1805C33.1448 32.2215 33.1838 32.2632 33.2231 32.3053C33.9837 33.1191 34.9282 34.1378 35.4245 34.8546C36.058 35.7682 36.4613 36.4103 36.7916 36.9448C37.4603 37.8192 38.1219 38.6879 38.7948 39.568C40.2464 41.4718 41.7679 43.3736 43.3216 45.2128C44.0321 46.0534 44.7556 46.8875 45.4838 47.7037C46.1612 48.4629 46.8431 49.212 47.5292 49.9531C47.9681 50.3544 48.3943 50.7243 48.7904 51.0681C49.3491 51.5537 49.8417 51.9805 50.2224 52.3643C51.1362 53.2851 52.0459 54.4459 52.7217 55.3085C52.832 55.4493 52.9362 55.5823 53.0331 55.7049C53.6415 56.3257 54.2513 56.9444 54.8621 57.5633C54.8841 57.6215 54.9058 57.6806 54.9276 57.7409C55.1994 58.4928 55.8118 59.1683 56.773 60.2323C57.1928 60.697 57.676 61.2327 58.2292 61.8845C58.5848 62.3035 58.6827 62.5922 58.7646 62.8301C58.7886 62.8998 58.8111 62.9652 58.8379 63.0277C58.9298 63.242 59.1443 63.3625 59.3972 63.5046C59.724 63.6874 60.1215 63.9129 60.3968 64.4232C61.276 66.0522 62.0154 66.4582 62.5757 66.7656C62.7398 66.8556 62.8876 66.9364 63.0195 67.038C63.4524 67.3735 63.8666 68.0025 64.1402 68.5307C64.3554 68.9474 65.0324 69.5566 65.5905 69.9866C65.8003 70.1477 66.0303 70.4121 66.3042 70.7286C66.5869 71.0552 66.9057 71.4253 67.3008 71.7964C68.2848 72.7178 68.7996 73.2183 69.2202 73.6293C69.339 73.7453 69.4488 73.853 69.5583 73.9597C69.8931 74.2843 70.3169 74.7319 70.72 75.1592L70.5467 74.9681C70.5519 74.9725 70.5571 74.9768 70.5624 74.9812C71.0128 75.3598 71.5365 75.7375 71.9824 76.0139C72.5124 76.4973 73.1044 77.0053 73.7299 77.5964C74.28 78.1138 74.8811 78.7447 75.3822 79.42C75.9406 80.1656 76.1754 81.0218 76.1005 81.7313C76.0253 82.4444 75.67 82.971 75.1641 83.2446C74.6553 83.5172 74.0293 83.5178 73.4175 83.3201C72.8034 83.1188 72.2613 82.7578 71.8547 82.3408C71.483 81.9558 71.0867 81.6296 70.6009 81.2685C70.0114 80.8291 69.3392 80.3722 68.642 79.8498C68.1071 79.449 67.5564 79.0082 67.0193 78.5046C66.9873 78.4676 66.884 78.3644 66.8559 78.3244C66.0872 77.4537 65.303 76.5558 64.5471 75.6623C63.7364 74.704 62.9215 73.7326 62.1168 72.7648C62.0337 72.6649 61.9505 72.5646 61.867 72.4641C61.0651 71.7555 60.2702 71.0425 59.7437 70.512C59.3044 70.0689 59.0701 69.6881 58.8623 69.3543C58.7206 69.1261 58.592 68.9207 58.4321 68.7491C58.3456 68.6563 58.2241 68.532 58.0771 68.3817C57.4742 67.7645 56.4547 66.7257 55.6722 65.6405C55.3237 65.1574 54.9598 64.5681 54.6072 64.0006C54.1075 63.194 53.6366 62.438 53.3075 62.1421C52.7278 61.6205 52.1865 60.9125 51.7073 60.2862C51.2504 59.6891 50.8507 59.1671 50.5299 58.9541C50.1464 58.6995 49.9269 58.3856 49.6007 57.9197C49.3745 57.5965 49.0953 57.1987 48.6763 56.6977C48.1916 56.1185 47.8933 55.6667 47.6415 55.2846C47.2849 54.7442 47.0175 54.3386 46.44 53.8951C45.7959 53.3995 45.1724 52.8457 44.7682 52.3247C44.5841 52.0875 44.3559 51.8405 44.1122 51.5765C43.7911 51.2286 43.4584 50.8677 43.1962 50.4944C42.9792 50.1858 42.8577 49.8815 42.751 49.613C42.7177 49.5292 42.6857 49.449 42.6528 49.3732C42.4561 49.1545 42.2535 48.9302 42.0544 48.7112C42.009 48.6873 41.9606 48.6628 41.9102 48.6372C41.6569 48.5077 41.35 48.3529 41.0321 48.0896C40.5322 47.6764 40.2122 47.2201 39.8684 46.7298C39.6038 46.3516 39.3285 45.9572 38.9507 45.5557C38.6947 45.2838 38.3814 44.9953 38.0668 44.7036C37.6052 44.2769 37.1457 43.8483 36.8963 43.4954C36.8031 43.3634 36.7664 43.2134 36.7309 43.0652C36.7308 43.0645 36.7308 43.0638 36.7307 43.063C36.7283 43.0529 36.7259 43.043 36.7233 43.0328C36.4218 42.7167 36.1247 42.4057 35.8324 42.0999C35.3996 41.646 34.9793 41.2109 34.5466 40.765C34.4743 40.7087 34.4017 40.6518 34.3301 40.5957C33.9779 40.3184 33.6311 40.0451 33.3619 39.915C33.065 39.768 32.5132 39.2461 31.9244 38.692C31.5428 38.3337 31.1422 37.9577 30.7971 37.6732C30.594 37.5053 30.4861 37.2733 30.3757 37.0355C30.272 36.8127 30.1638 36.5824 29.9755 36.3963C29.8809 36.3028 29.7647 36.2169 29.6384 36.1228C29.5277 36.0404 29.4107 35.9537 29.298 35.8544C29.1933 35.762 29.0187 35.5061 28.7925 35.1765C28.6528 34.9731 28.4945 34.7429 28.3215 34.5057C27.7743 33.9603 27.2264 33.4131 26.6817 32.8658C26.5269 32.7881 26.3713 32.7381 26.219 32.7267C26.1097 32.7185 25.9972 32.7289 25.8819 32.7392C25.7249 32.7533 25.5626 32.7677 25.3951 32.7367C25.2641 32.7125 25.1567 32.6413 25.1258 32.5563C25.1114 32.5167 25.1133 32.4744 25.1152 32.4365C25.1175 32.393 25.1194 32.3542 25.0964 32.3297C25.0797 32.3121 25.0466 32.3078 25.0063 32.3023C24.9418 32.2934 24.8582 32.2816 24.7909 32.2095C24.54 31.9408 24.2736 31.6182 24.0133 31.3026C23.7201 30.9476 23.4415 30.6095 23.19 30.3535C22.9097 30.0685 22.5922 29.5936 22.2737 29.1174C22.0546 28.7888 21.8227 28.446 21.6183 28.183C21.4153 27.9225 21.1439 27.6859 20.8901 27.4672C20.5859 27.2051 20.2834 26.9419 20.1181 26.65C20.0849 26.5912 20.0957 26.4716 20.1087 26.3215C20.1179 26.2151 20.1279 26.0929 20.1247 25.9663C19.8423 25.6491 19.5683 25.3356 19.2942 25.0169C19.2754 25.0137 19.2562 25.0103 19.2368 25.007C19.2364 25.007 19.2361 25.007 19.2357 25.007C18.7938 24.929 18.2015 24.8358 17.9279 24.1838C17.8586 24.0183 17.8645 23.8639 17.875 23.7307C17.8845 23.599 17.8928 23.481 17.8254 23.3779C17.7488 23.2609 17.5965 23.1761 17.4296 23.0823C17.1956 22.9509 16.9299 22.7992 16.8164 22.5312C16.8085 22.5127 16.8 22.4927 16.791 22.4721C16.7058 22.2763 16.5779 21.9847 16.5217 21.6257C15.9733 20.9237 15.4229 20.204 14.8853 19.4886C13.9883 18.295 13.0952 17.0773 12.2181 15.8734C11.7853 15.2797 11.5337 14.5836 11.5199 13.9181C11.505 13.2505 11.725 12.6685 12.1533 12.2993C12.5811 11.9294 13.1883 11.7967 13.8458 11.9068C14.5016 12.0156 15.1526 12.3623 15.6774 12.8722C16.5163 13.6862 17.3736 14.5184 18.2198 15.3468C18.2689 15.3851 18.3178 15.4239 18.3659 15.4627C18.7213 15.7491 19.1346 15.9797 19.5308 16.1901C19.6223 16.2391 19.7138 16.2878 19.8044 16.3371Z" fill="#FF3C3C"/>
<path d="M69.0638 26.6786C68.3744 27.8074 66.6073 29.5989 65.6513 30.5418C65.6335 30.5595 65.6158 30.5772 65.5981 30.5949C65.3676 30.8234 65.1545 31.0461 64.903 31.3082C64.2877 31.948 63.5196 32.7498 61.7197 34.3973C61.2401 34.9002 60.7531 35.4042 60.2593 35.9081C54.9576 41.3145 49.3871 46.4265 43.7372 51.4269C43.6684 51.4933 43.5984 51.5607 43.5278 51.6288C42.1696 52.9393 40.4636 54.5698 39.336 55.4988C37.8743 56.7067 36.8946 57.4718 36.0543 58.1264C31.512 62.044 26.9608 65.9216 22.4259 69.8347C21.0549 71.0165 19.5558 72.3154 18.1835 73.5058C16.9519 74.5722 15.7054 75.6612 14.496 76.675C14.3775 76.7731 14.2783 76.855 14.1964 76.9223C14.1431 76.9692 14.1502 76.968 14.0513 77.0506C14.01 77.0853 13.9769 77.1133 13.937 77.1451C13.916 77.1616 13.8956 77.178 13.8532 77.2077C13.8165 77.2309 13.8521 77.2152 13.7054 77.2979C13.4839 77.2251 13.9129 77.8418 12.0636 77.2145C10.9936 76.3842 11.4401 75.4046 11.4756 75.2923C11.5716 75.0672 11.6262 75.0091 11.6654 74.95C12.2427 74.3143 11.9777 74.6171 12.178 74.4139C12.3352 74.258 12.5397 74.0624 12.7034 73.9023C13.0242 73.5878 13.3742 73.2489 13.6893 72.9417C14.5784 72.0756 15.3895 71.2901 16.0643 70.6825C17.7015 69.2091 19.6577 67.6473 21.1107 66.4848C21.3459 66.2967 21.5696 66.1177 21.7771 65.9508C22.8761 64.9655 23.9705 63.9796 25.0645 62.9908C25.1517 62.9411 25.24 62.8915 25.3298 62.8413C26.4488 62.2159 27.6201 61.2016 29.4479 59.6063C30.2556 58.901 31.1747 58.0969 32.269 57.1598C32.9821 56.5487 33.392 56.3217 33.7499 56.1158C33.8526 56.0575 33.948 56.0034 34.0406 55.9459C34.3499 55.7558 34.6104 55.4319 34.9024 55.0611C35.2619 54.5967 35.7157 54.0205 36.499 53.4481C36.9442 53.1317 37.4033 52.7627 37.6965 52.493C37.7393 52.4618 37.859 52.3232 37.8015 52.4077C37.8685 52.6302 37.5253 51.7375 37.7534 53.6611C38.5528 54.8229 39.3252 54.2556 39.1796 54.3609C39.239 54.3478 39.2778 54.3351 39.3069 54.3248C39.4163 54.2835 39.4034 54.279 39.3778 54.2933C39.271 54.3471 39.1371 54.4318 38.9475 54.5627C38.0225 55.2065 37.5238 55.7409 37.11 56.1874C36.9089 56.4052 36.7279 56.6036 36.5296 56.7895C35.8863 57.3903 34.8549 58.1001 34.0467 58.6152C33.404 59.0206 32.3152 60.0753 31.5391 60.9295C31.2447 61.252 30.8084 61.6444 30.2973 62.1118C29.7684 62.5954 29.1584 63.1605 28.5442 63.8068C26.9932 65.4421 26.1718 66.3257 25.507 67.0311C25.3186 67.2317 25.1402 67.4211 24.9646 67.6083C24.4071 68.2027 23.7015 68.9287 22.9786 69.6633C22.155 70.5008 21.3077 71.3471 20.6442 72.0225C20.6352 72.0314 20.6062 72.0558 20.5969 72.0644C20.5606 72.0991 20.525 72.1332 20.49 72.1666C19.1797 73.2311 17.906 74.0788 16.9901 74.952C16.4779 75.4384 15.821 76.1868 15.1257 76.8507C14.1399 77.804 13.019 78.473 12.0811 78.7729C11.1353 79.0767 10.4501 78.9981 10.1434 78.6123C9.84263 78.219 9.94188 77.5447 10.3815 76.7103C10.8175 75.8777 11.5377 74.9637 12.3189 74.1065C12.8829 73.4992 13.3652 72.8593 14.069 72.0902C15.3451 70.733 16.6719 69.7733 17.7609 68.7701L17.7203 68.8059C17.7483 68.7792 17.7763 68.7523 17.8044 68.7255C19.9895 66.6292 22.1487 64.4366 24.3964 62.2998C25.9682 60.8042 27.5723 59.322 29.2314 57.8842C29.4021 57.7363 29.5739 57.5886 29.7458 57.4416C31.0544 56.1344 32.4212 54.8697 33.4354 54.0309C34.2718 53.3374 34.9511 52.9159 35.5346 52.5619C35.937 52.3182 36.295 52.1069 36.6377 51.8633C36.7275 51.7994 36.8332 51.7236 36.9533 51.6378C37.1289 51.5142 37.3009 51.395 37.482 51.2801C37.5525 51.2449 37.7371 51.0843 38.2534 50.9136C38.3302 50.8906 38.4221 50.8661 38.5464 50.845C38.7392 50.8237 39.1104 50.7333 39.761 50.9721C40.4394 51.1662 41.1668 52.1714 41.1741 52.8022C40.9606 54.9809 40.7983 54.1142 40.7835 54.3907C40.6882 54.5352 40.6157 54.6253 40.5427 54.7144C40.2614 55.0456 40.1619 55.143 39.9337 55.3783C39.6022 55.7184 39.2002 56.1061 38.7822 56.4952C37.9902 57.2328 37.0397 58.0643 36.1768 58.7507C35.3662 59.3995 34.4267 60.0876 33.5255 60.7442C32.2245 61.6941 31.0174 62.5667 30.4726 63.0928C29.5222 64.0114 28.3367 64.9558 27.2879 65.7892C26.2883 66.5835 25.4128 67.2776 24.9855 67.7533C24.4817 68.316 23.9513 68.7185 23.1926 69.2913C22.6529 69.7001 22.0151 70.1808 21.1448 70.8997C20.1674 71.7063 19.4213 72.2543 18.7988 72.7101C17.9136 73.3594 17.2692 73.8292 16.4038 74.7212C15.9531 75.1911 15.4675 75.6758 14.9607 76.1536C14.7535 76.3527 14.4592 76.6207 14.2757 76.7867C14.2023 76.8523 14.1442 76.9044 14.104 76.9407C14.0812 76.9613 14.0778 76.9641 14.0507 76.989C14.0523 76.9868 14.0537 76.9884 14.1092 76.9283C14.1455 76.8741 14.1667 76.9121 14.3579 76.5553C14.3651 76.5221 15.0038 75.3535 13.6522 74.5041C12.5864 74.1326 12.5284 74.4576 12.3744 74.4509C11.9047 74.6852 12.1335 74.5858 12.0647 74.6206C12.0933 74.6005 12.2336 74.4922 12.3313 74.4191C12.3878 74.3764 12.4528 74.3261 12.5269 74.2677C12.8022 74.0567 13.2433 73.6811 13.6113 73.3634C14.2251 72.8345 14.8911 72.2533 15.4511 71.8296C15.9422 71.455 16.4402 71.1496 16.815 70.9361C16.9381 70.8641 17.0578 70.7935 17.1734 70.7222C17.5512 70.3915 17.9583 70.0335 18.31 69.7218C18.3596 69.6578 18.4115 69.5897 18.4662 69.5182C18.7318 69.1679 19.1206 68.6821 19.5718 68.2128C20.2968 67.4604 21.0919 66.829 21.8475 66.2349C22.4532 65.7568 23.1172 65.2283 23.7771 64.6173C24.2326 64.1958 24.7727 63.6604 25.2667 63.1656C25.9977 62.433 26.7651 61.6662 27.324 61.2109C27.5318 61.0416 27.7441 60.9312 27.9552 60.8213C27.9562 60.8209 27.9572 60.8205 27.9582 60.8201C27.9725 60.8126 27.9868 60.805 28.0012 60.7976C29.2961 59.5661 30.554 58.3554 31.844 57.1049C31.9454 56.9913 32.0483 56.8766 32.1506 56.7627C32.6503 56.2063 33.1421 55.6585 33.4272 55.2591C33.7458 54.8175 34.6348 53.9136 35.6004 52.9286C36.2376 52.2793 36.8706 51.6297 37.384 51.0688C37.6828 50.7421 38.0324 50.5011 38.3929 50.2522C38.7314 50.0178 39.0697 49.7855 39.3881 49.4666C39.5473 49.3071 39.7074 49.1219 39.8784 48.9238C40.0289 48.7494 40.1881 48.5648 40.3626 48.3792C40.524 48.2076 40.9337 47.8688 41.4514 47.4396C41.7711 47.1744 42.1347 46.8723 42.5118 46.5492C43.4381 45.6188 44.3626 44.6875 45.285 43.7564C45.4448 43.528 45.5672 43.3128 45.6399 43.1173C45.692 42.9771 45.7209 42.8416 45.7508 42.7026C45.7914 42.5136 45.8334 42.3181 45.9363 42.0954C46.0168 41.9213 46.1492 41.7552 46.271 41.6779C46.3278 41.6419 46.3819 41.6251 46.4309 41.6097C46.487 41.5922 46.5371 41.5764 46.5778 41.5361C46.6072 41.507 46.6252 41.4638 46.6476 41.4108C46.6833 41.3262 46.73 41.2164 46.8489 41.0991C47.2917 40.6625 47.8085 40.1822 48.3141 39.7107C48.8788 39.1839 49.4281 38.6689 49.8455 38.2401C50.3125 37.7603 51.0417 37.14 51.7733 36.5122C52.2825 36.0754 52.7893 35.6387 53.2066 35.2497C53.6159 34.8681 54.009 34.4198 54.3814 33.9919C54.8296 33.4771 55.256 32.9839 55.6851 32.6344C55.7723 32.5634 55.9257 32.5145 56.1163 32.4544C56.2516 32.4117 56.4068 32.3622 56.5714 32.2944C57.0699 31.7857 57.5653 31.2816 58.0566 30.7825C58.0665 30.7577 58.0767 30.7322 58.0868 30.7065C58.0869 30.7061 58.087 30.7056 58.0871 30.7052C58.3141 30.1272 58.6461 29.3132 59.5497 28.6475C59.7798 28.4778 59.9676 28.4129 60.1367 28.3544C60.3035 28.2961 60.4485 28.2483 60.6039 28.1062C60.7804 27.9446 60.937 27.7062 61.1059 27.4476C61.3432 27.0845 61.6044 26.6812 61.9823 26.3907C62.0081 26.3709 62.0359 26.3496 62.0647 26.3274C62.337 26.1167 62.7382 25.8055 63.2124 25.5361C64.268 24.4524 65.3116 23.3709 66.337 22.2859C68.0695 20.4481 69.7183 18.6515 71.3184 16.7221C72.0801 15.8057 72.9131 15.0242 73.6995 14.4955C74.4802 13.9764 75.1014 13.8419 75.5192 14.0903C75.9314 14.3424 76.1039 14.9769 75.8961 15.9521C75.6832 16.9341 75.166 18.0567 74.4481 19.0917C73.2517 20.8123 72.0184 22.4434 70.7613 24.0336C70.6985 24.1223 70.6348 24.2114 70.5707 24.2999C70.0763 24.978 69.7323 25.5777 69.3357 26.2319C69.2462 26.3802 69.1559 26.5293 69.0638 26.6786Z" fill="#FF3C3C"/>
<path d="M90.9971 62.8186C91.0362 71.7861 90.6671 80.4164 90.6664 89.4145C90.6664 89.6096 90.6665 89.8048 90.6667 90L90.6855 91.6474L89 91.6667C78.017 91.6777 66.8678 92.017 55.8652 91.9525C44.732 91.8868 33.5449 91.7925 22.3933 91.6761C15.5923 91.6053 8.79746 91.5263 2 91.4407L0.575927 91.457L0.559276 90C0.614158 85.6392 0.671734 81.2773 0.731583 76.912C0.884721 65.7661 1.05271 54.5961 1.22899 43.4414C1.34873 35.8648 1.47233 28.2798 1.59747 20.704C1.65232 17.3783 1.70741 14.0624 1.7627 10.7385C1.80405 8.2587 1.8454 5.77889 1.88675 3.29909C1.89258 2.95436 1.91623 2.62404 1.95377 2.38051C1.99137 2.13701 2.03951 1.99967 2.08927 2C2.13905 2.00045 2.1873 2.13884 2.22477 2.38319C2.26213 2.62743 2.28545 2.95835 2.29106 3.30309C2.3311 5.80382 2.37115 8.30452 2.4112 10.8052C2.45562 13.5829 2.50013 16.3556 2.54427 19.1325C2.34008 19.5696 2.1852 20.1698 2.11681 21.2941C2.08192 21.8679 2.06741 22.7047 2.10535 23.3208C2.13944 23.8741 2.20023 24.2909 2.25816 24.6867C2.31874 25.1006 2.37627 25.4935 2.39658 25.9991C2.43108 26.8572 2.51777 27.6728 2.60885 28.5292C2.642 28.8409 2.67578 29.1583 2.70779 29.4852C2.74931 32.1358 2.79051 34.7868 2.83135 37.4373C2.80961 38.4611 2.79203 39.4024 2.8004 40.201C2.80792 40.9173 2.85105 41.5733 2.90471 42.2264C2.91096 42.6367 2.91722 43.0471 2.92347 43.4574C2.96366 46.1056 3.00321 48.7549 3.0424 51.4041C2.98792 53.4713 2.93501 55.638 2.91177 58.455C2.90176 59.6691 2.8723 60.867 2.84402 62.0185C2.80226 63.7194 2.76301 65.3194 2.79236 66.7222C2.81198 67.6599 2.78312 68.6462 2.75434 69.6301C2.71574 70.9496 2.67721 72.2667 2.7558 73.4606C2.80522 74.2113 2.86531 74.9009 2.92103 75.5395C3.0097 76.5555 3.08726 77.4432 3.0926 78.2471C3.10263 79.7573 3.16722 81.0652 3.2242 82.2178C3.29274 83.6041 3.35024 84.7669 3.2883 85.788C3.27891 85.9427 3.26642 86.1199 3.25223 86.3194C3.19361 87.143 3.10747 88.3535 3.10457 90L2 88.8954C2.45472 88.8962 2.94271 88.8907 3.46499 88.8764C4.32421 88.853 5.13127 88.7921 5.92164 88.7324C7.07227 88.6455 8.18967 88.5611 9.38633 88.5986C9.5651 88.6042 9.75177 88.6278 9.92172 88.6493C10.1378 88.6767 10.3266 88.7005 10.4384 88.6798C10.7663 88.6189 11.2869 88.5515 11.8523 88.4782C12.2677 88.4244 12.7081 88.3673 13.114 88.3074C16.2144 88.2735 19.3154 88.2411 22.4173 88.2104C23.8383 88.1963 25.2598 88.1826 26.6817 88.1692C27.4089 88.2609 28.1527 88.3436 28.9381 88.4061C29.9649 88.4878 31.2959 88.5128 33.0116 88.5452C34.274 88.5691 35.7455 88.597 37.4576 88.6542C40.6271 88.76 43.8827 88.7363 45.9691 88.6795C46.4104 88.6675 46.8539 88.6547 47.3283 88.6408C49.1277 88.5879 51.3732 88.5217 55.6382 88.4487C59.6727 88.3797 63.1037 88.3618 65.6811 88.3483C66.9968 88.3415 68.0902 88.3359 68.9282 88.3252C70.3618 88.3068 72.1223 88.2904 73.8896 88.274C76.6553 88.2484 79.4383 88.2227 81.0139 88.1885C81.5747 88.1763 82.1634 88.1612 82.799 88.1451C84.4335 88.1036 86.3837 88.0543 89 88.0225L87.0225 90C87.02 89.7973 87.0177 89.5906 87.0154 89.3798C86.9828 86.3017 87.005 84.3937 87.0535 82.4117C87.0731 81.6062 87.151 80.8955 87.2314 80.1634C87.3455 79.1244 87.4645 78.0407 87.429 76.5745C87.4207 76.2323 87.4022 75.867 87.3827 75.485C87.3469 74.7834 87.3082 74.0245 87.3252 73.2473C87.3311 72.9764 87.3522 72.7377 87.3729 72.5037C87.3957 72.2463 87.418 71.9939 87.4193 71.7079C87.4239 70.64 87.4186 69.6007 87.4139 68.6772C87.4078 67.4863 87.4027 66.4876 87.4212 65.868C87.4542 64.7634 87.4247 63.5557 87.3946 62.3326C87.3717 61.3983 87.3484 60.4546 87.3527 59.5408C87.3651 56.9299 87.3089 53.3392 87.2153 49.6394C87.1799 48.2396 87.2282 47.0536 87.2903 45.5339C87.329 44.5886 87.3731 43.5143 87.4054 42.1787C87.4237 41.4215 87.3806 40.7803 87.3408 40.1866C87.3041 39.6397 87.2702 39.1327 87.2894 38.6125C87.3063 38.1533 87.3787 37.8629 87.4475 37.5871C87.5241 37.2803 87.5961 36.9915 87.582 36.5083C87.5746 36.2513 87.5383 35.9388 87.4953 35.5671C87.4783 35.4201 87.4603 35.2631 87.4424 35.0971C87.4571 35.1056 87.4702 35.1076 87.4802 35.1078C87.5505 35.1083 87.5875 34.6154 87.6237 34.1318C87.6382 33.9387 87.6525 33.7463 87.6688 33.5884C87.7289 33.007 87.7386 31.9061 87.7358 31.065C87.7347 30.7091 87.7565 30.3866 87.7819 30.0102C87.8045 29.6761 87.83 29.2995 87.8448 28.8193C87.8532 28.5454 87.8736 28.335 87.8906 28.161C87.9029 28.0351 87.9134 27.928 87.9162 27.8286C87.9185 27.7425 87.8984 27.673 87.8757 27.5949C87.8594 27.5387 87.8417 27.4777 87.8301 27.4027C87.8025 27.2234 87.7942 26.9929 87.8031 26.8312C87.8072 26.7566 87.815 26.6975 87.8228 26.639C87.8319 26.5707 87.8411 26.5029 87.8443 26.4093C87.8589 25.9801 87.836 25.5627 87.8121 25.1289C87.7859 24.6522 87.7586 24.155 87.779 23.6015C87.7854 23.4273 87.8 23.2418 87.8143 23.0621C87.8292 22.8741 87.8436 22.6914 87.8474 22.5361C87.863 21.9054 87.8128 21.3125 87.7665 20.767C87.7358 20.4043 87.7069 20.062 87.7002 19.7443C87.6881 19.162 87.6278 18.8493 87.5833 18.6188C87.5602 18.4994 87.5412 18.4019 87.5355 18.2997C87.5372 18.206 87.5392 18.111 87.5414 18.018C87.5458 17.9326 87.5504 17.8444 87.5489 17.7616C87.5488 17.7553 87.5485 17.7492 87.5484 17.7429C87.563 17.2222 87.5838 16.7105 87.6045 16.2022C87.6509 15.0604 87.6969 13.9326 87.671 12.7402C87.6654 12.4832 87.6405 12.2214 87.6152 11.9551C87.5842 11.6289 87.5525 11.2951 87.5548 10.9551C87.5602 10.1448 87.6013 9.32681 87.6418 8.52114C87.7026 7.3094 87.7621 6.12512 87.6968 5.03643C87.6753 4.67714 87.6394 4.32654 87.6032 3.97499C87.5831 3.77908 87.5628 3.58212 87.545 3.38353C87.578 3.42561 87.609 3.44806 87.6379 3.46898C87.6974 3.51209 87.7484 3.54924 87.7916 3.74001C87.8939 4.19092 88.0348 4.70192 88.1375 4.64523C88.1653 4.62981 88.1964 4.64229 88.2276 4.65592C88.306 4.69009 88.3861 4.72482 88.4223 4.30611C88.4468 4.02386 88.5028 3.29876 88.4428 2.83746C88.4298 2.73705 88.4038 2.67589 88.3751 2.60781C88.3274 2.49502 88.2716 2.36251 88.252 2L89 2.74798C88.9693 2.74964 88.937 2.75103 88.9029 2.75215C88.8293 2.75454 88.7492 2.75671 88.6665 2.75873C88.3367 2.76677 87.9675 2.77564 87.8294 2.81722C87.6704 2.86511 87.7044 2.91996 87.744 2.98391C87.7955 3.0672 87.8568 3.16614 87.5143 3.28537C87.4464 3.30895 87.317 3.31702 87.2192 3.32315C87.1504 3.32746 87.0977 3.33092 87.0924 3.33802C87.0866 3.34616 87.1085 3.36311 87.1365 3.38456C87.2353 3.46023 87.4068 3.59244 86.6905 3.59805C86.4968 3.59955 86.2751 3.59326 86.0764 3.58757C85.7835 3.57919 85.5402 3.57227 85.5076 3.59391C85.4954 3.60211 85.4867 3.61101 85.4796 3.62023C85.2464 3.61763 85.0132 3.61503 84.78 3.61243C84.4808 3.58664 84.061 3.58885 83.5369 3.59171C83.4097 3.59241 83.2757 3.59305 83.1364 3.59342C82.6763 3.58808 82.216 3.58277 81.7559 3.57733C81.3911 3.5664 81.0028 3.54858 80.593 3.52031C79.7718 3.46364 79.0573 3.37018 78.3593 3.27879C78.0651 3.24029 77.7736 3.20206 77.4781 3.16718C77.5932 3.16289 77.6971 3.15783 77.7771 3.15085C78.3246 3.10311 78.5444 3.00919 78.7465 2.92274C78.8808 2.86524 79.0077 2.81102 79.2178 2.77603C79.6024 2.71194 79.5638 2.63698 79.5355 2.58155C79.5209 2.5528 79.5097 2.52925 79.5609 2.51526C79.6022 2.50406 79.6975 2.49879 79.7959 2.49333C79.8816 2.48857 79.9702 2.4836 80.0269 2.47457C80.7146 2.36483 80.5078 2.30114 80.2071 2.20844C80.0413 2.15731 79.8474 2.09732 79.7585 2.01591C79.6821 1.92972 79.7078 1.90451 80.0682 1.87018C79.7874 1.82761 79.5066 1.78504 79.2258 1.74247C79.1156 1.74524 79.0321 1.77185 78.9147 1.81607C78.705 1.89504 78.0223 1.9239 77.4888 1.94646C77.2418 1.9569 77.0267 1.96603 76.9053 1.97814C76.2599 2.04253 76.4476 2.13221 76.6129 2.21112C76.7039 2.25455 76.7877 2.29475 76.7224 2.32566C76.6946 2.33888 76.7343 2.352 76.7745 2.36539C76.8055 2.37573 76.8373 2.38625 76.8385 2.39707C76.847 2.47565 76.4652 2.53397 76.1109 2.58813C75.908 2.61915 75.7145 2.64891 75.6075 2.68025C75.575 2.68981 75.5491 2.69955 75.5248 2.70901C75.4893 2.72282 75.4547 2.73599 75.4006 2.74727C75.2773 2.77297 75.0234 2.79029 74.745 2.80917C74.6023 2.81885 74.4534 2.82896 74.3125 2.84086C74.1299 2.85627 74.0641 2.88735 73.9947 2.91982C73.9456 2.94276 73.8942 2.96639 73.7998 2.98586C73.6287 3.02107 73.2832 3.03377 72.9626 3.04557C72.823 3.0507 72.688 3.05581 72.5741 3.06238C72.5278 3.06506 72.5056 3.07041 72.5007 3.07774C71.9744 3.10233 71.4718 3.12746 70.9826 3.15207C68.5303 3.27544 66.4075 3.38241 63.2375 3.30487C62.6382 3.29021 61.9945 3.29314 61.3443 3.30487C59.2638 3.27405 57.1822 3.24222 55.1025 3.20958C54.6908 3.13878 54.1873 3.07931 53.5911 3.03265C52.4715 2.94504 51.3198 2.92632 49.9609 2.90422C48.9561 2.88788 47.8379 2.86963 46.5349 2.82038C44.3457 2.73764 42.0978 2.66764 39.5615 2.63127C37.0361 2.59505 34.1449 2.56836 32.0994 2.55889C30.9843 2.55372 29.8131 2.49038 28.7215 2.43143C27.186 2.34851 25.8082 2.27419 24.9671 2.38196C24.6984 2.4164 24.4387 2.47619 24.186 2.53427C24.006 2.57564 23.8285 2.61604 23.6546 2.64613C23.1916 2.63679 22.7281 2.62755 22.2647 2.61811C21.4415 2.54629 20.1622 2.4693 18.9256 2.54938C18.4476 2.53949 17.9694 2.52964 17.5076 2.51965C16.5001 2.49876 15.5143 2.4776 14.5196 2.45629C14.1949 2.44924 13.867 2.44218 13.5383 2.43509C13.5352 2.435 13.532 2.43492 13.5289 2.43484C12.8672 2.42056 12.2006 2.40618 11.5449 2.39171C11.2641 2.38553 10.9833 2.37936 10.7024 2.37318C9.98879 2.35752 9.26997 2.34179 8.56354 2.32591C8.18964 2.31746 7.81215 2.30907 7.43402 2.30056C6.82056 2.28675 6.20246 2.27286 5.58752 2.25889C4.59303 2.23629 3.60321 2.21344 2.61149 2.19041C2.44931 2.1866 2.29345 2.17465 2.17891 2.15653C2.06441 2.13838 1.99982 2.11564 2 2.09219C2.00022 2.06874 2.06535 2.04593 2.18024 2.02785C2.29506 2.00984 2.45076 1.99817 2.61283 1.99447C3.60525 1.97206 4.59634 1.9499 5.59152 1.92793C6.20657 1.91435 6.82445 1.90065 7.43802 1.88724C7.81633 1.87896 8.19347 1.87083 8.56755 1.86262C9.27405 1.84719 9.99406 1.83177 10.7078 1.81656C10.9886 1.81055 11.2694 1.80454 11.5502 1.79853C12.2077 1.78444 12.8762 1.7705 13.5396 1.75661C13.5436 1.75653 13.5476 1.75645 13.5516 1.75637C13.878 1.74953 14.2039 1.74268 14.5263 1.73589C15.5214 1.71522 16.5077 1.69473 17.5156 1.67448C18.0364 1.66355 18.5791 1.65287 19.1178 1.64207C19.4177 1.63605 19.7171 1.63001 20.011 1.62403C20.1717 1.62085 20.3346 1.6177 20.4984 1.61453C24.2566 1.5396 27.9885 1.46751 31.7549 1.39836C35.5073 1.32921 39.2663 1.26291 43.0141 1.19925C46.771 1.13559 50.5213 1.07468 54.2747 1.01623C65.8306 0.836186 77.409 0.671867 89 0.528645L90.4543 0.512024L90.4714 2C90.6234 14.3019 90.7516 26.618 90.8497 38.9369C90.877 42.3496 90.9016 45.8514 90.9237 49.2709C90.9458 52.7278 90.9655 56.1137 90.9822 59.5795C90.9875 60.6322 90.9924 61.7113 90.9971 62.8186Z" fill="#FF3C3C"/>
</svg>
