<?xml version="1.0" standalone="no"?>
<!DOCTYPE svg PUBLIC "-//W3C//DTD SVG 20010904//EN"
 "http://www.w3.org/TR/2001/REC-SVG-20010904/DTD/svg10.dtd">
<svg version="1.0" xmlns="http://www.w3.org/2000/svg"
 width="1800.000000pt" height="1824.000000pt" viewBox="0 0 1800.000000 1824.000000"
 preserveAspectRatio="xMidYMid meet">
<g transform="translate(0.000000,1824.000000) scale(0.100000,-0.100000)"
fill="#ff0000" stroke="none">
<path d="M15502 18153 c-123 -3 -154 -6 -158 -18 -4 -8 -12 -15 -20 -15 -8 0
-11 6 -7 16 5 14 1 16 -33 10 -21 -4 -748 -11 -1614 -16 -866 -5 -1728 -13
-1915 -19 -187 -6 -763 -11 -1280 -11 -517 -1 -1102 -6 -1300 -11 -198 -6
-799 -12 -1335 -15 -536 -2 -1177 -9 -1425 -15 -247 -6 -814 -13 -1260 -15
-445 -2 -1028 -9 -1295 -15 -267 -6 -791 -13 -1165 -15 -374 -2 -786 -7 -915
-11 -226 -7 -231 -8 -130 -15 58 -5 650 -12 1315 -17 760 -5 1230 -13 1265
-19 84 -16 307 -14 355 3 22 8 72 15 110 15 39 0 111 7 160 15 102 17 283 18
365 3 32 -5 411 -13 895 -18 462 -4 860 -10 885 -13 25 -3 500 -9 1055 -12
634 -5 1070 -12 1170 -19 95 -8 408 -14 773 -15 427 -1 622 -6 640 -13 23 -10
1299 -27 2312 -30 351 -2 1404 22 1455 32 28 6 97 10 155 11 58 0 132 3 164 6
54 5 58 7 41 19 -17 13 -15 14 21 14 21 0 44 -4 51 -8 17 -11 245 4 290 19 49
17 48 16 34 33 -22 27 18 33 222 38 133 3 201 8 209 16 15 15 261 16 288 2 11
-6 17 -17 14 -25 -6 -15 5 -19 80 -29 51 -7 54 -12 25 -41 -24 -25 -115 -50
-143 -39 -8 3 -27 -1 -43 -9 -15 -8 -55 -17 -87 -20 -74 -7 -99 -27 -35 -28
24 0 143 -5 264 -10 121 -6 474 -13 783 -15 485 -5 566 -3 580 9 10 8 33 18
52 22 49 10 72 24 66 40 -8 22 52 38 134 36 48 -2 80 -8 89 -16 13 -13 17
-156 11 -427 0 -10 -12 -25 -26 -35 -25 -16 -27 -16 -45 8 -18 24 -18 20 -16
-211 1 -129 0 -764 -2 -1410 -3 -1213 1 -1542 20 -1688 8 -57 9 -149 4 -276
-4 -105 -6 -267 -4 -361 7 -309 3 -1022 -10 -1585 -10 -458 -15 -561 -27 -588
-9 -19 -13 -43 -10 -55 3 -12 10 -88 16 -169 9 -129 9 -158 -6 -225 -15 -69
-17 -169 -18 -873 -1 -542 -6 -860 -15 -1000 -14 -222 -9 -1006 9 -1360 8
-167 13 -5192 5 -5280 -2 -19 -8 -64 -14 -100 -6 -36 -11 -135 -11 -220 0 -85
-5 -250 -10 -367 -14 -277 -20 -1153 -9 -1174 6 -12 1 -23 -15 -38 -19 -17
-35 -22 -77 -21 -183 3 -2698 -21 -2949 -29 -168 -4 -1037 -9 -1932 -10 -894
-1 -1722 -3 -1840 -6 -117 -3 -409 -10 -648 -16 -559 -15 -2995 -15 -3545 0
-231 6 -568 14 -750 17 -181 3 -341 7 -355 10 -14 3 -52 10 -85 16 -149 26
-3136 -11 -3260 -42 -23 -5 -227 -10 -470 -10 -236 -1 -509 -6 -605 -11 -280
-16 -663 -21 -679 -10 -12 8 -15 42 -13 193 2 101 8 208 15 238 17 75 16 1032
-1 1143 -8 52 -12 242 -12 572 0 348 -3 502 -11 522 -13 31 -34 608 -31 868 0
88 4 826 7 1640 3 946 9 1525 16 1605 19 212 22 1541 5 1930 -10 244 -14 657
-15 1520 -1 652 -6 1318 -11 1480 -23 685 -29 807 -38 835 -6 17 -13 140 -15
275 -3 138 -10 260 -16 280 -7 23 -11 158 -11 390 0 366 12 537 47 658 13 47
14 106 3 525 -16 597 -15 457 -18 1686 -1 580 -4 1052 -7 1049 -6 -6 -23
-1332 -31 -2363 -3 -445 -10 -1143 -16 -1550 -6 -407 -12 -1251 -14 -1875 -2
-624 -9 -1283 -15 -1465 -7 -181 -16 -955 -21 -1720 -5 -764 -12 -1505 -16
-1645 -4 -140 -9 -838 -11 -1550 -2 -712 -4 -1315 -6 -1340 -1 -25 -5 -155 -9
-290 -4 -135 -9 -272 -11 -305 -8 -108 -8 -3562 0 -3575 4 -7 34 -11 84 -10
221 2 4217 -23 4511 -29 190 -3 1256 -8 2370 -9 1154 -1 2300 -7 2665 -14 728
-14 3118 -17 3360 -5 88 5 1098 12 2245 17 1147 5 2110 11 2140 14 30 3 134 6
230 6 238 0 244 0 252 8 9 10 17 662 29 2327 6 776 14 1480 18 1565 10 175 6
4699 -4 4745 -6 32 -12 1255 -19 3925 -3 923 -9 1766 -15 1920 -7 161 -12 961
-14 1930 l-2 1655 -1115 0 c-613 1 -1184 -1 -1268 -2z m1873 -173 c3 -5 -3
-10 -15 -10 -12 0 -18 5 -15 10 3 6 10 10 15 10 5 0 12 -4 15 -10z m-6367 -37
c-10 -2 -28 -2 -40 0 -13 2 -5 4 17 4 22 1 32 -1 23 -4z m2730 0 c-10 -2 -28
-2 -40 0 -13 2 -5 4 17 4 22 1 32 -1 23 -4z m3974 -485 c-9 -9 -12 -7 -12 12
0 19 3 21 12 12 9 -9 9 -15 0 -24z m-52 -5005 c0 -5 -5 -15 -10 -23 -8 -12
-10 -11 -10 8 0 12 5 22 10 22 6 0 10 -3 10 -7z m-17473 -195 c-2 -13 -4 -5
-4 17 -1 22 1 32 4 23 2 -10 2 -28 0 -40z m17520 -1230 c-2 -13 -4 -5 -4 17
-1 22 1 32 4 23 2 -10 2 -28 0 -40z m-16689 -10755 c-10 -2 -28 -2 -40 0 -13
2 -5 4 17 4 22 1 32 -1 23 -4z"/>
<path d="M15425 16402 c-37 -14 -67 -18 -109 -14 -33 3 -93 -2 -140 -11 -44
-9 -98 -19 -118 -22 -21 -3 -40 -11 -44 -17 -5 -8 4 -9 32 -3 21 5 82 9 134 9
89 1 95 0 95 -19 0 -17 -8 -20 -47 -23 -25 -2 -52 -10 -58 -18 -7 -7 -26 -14
-42 -14 -17 0 -42 -6 -56 -14 -49 -25 -136 -45 -224 -50 -47 -3 -108 -13 -133
-22 -53 -18 -74 -9 -56 24 14 26 6 32 -48 32 -55 0 -88 -16 -50 -24 13 -3 35
-4 48 -3 13 1 26 -4 28 -10 3 -9 -8 -13 -37 -13 -33 0 -43 -4 -47 -20 -4 -14
-14 -20 -33 -20 -15 0 -47 -7 -70 -15 -53 -19 -143 -19 -196 0 -23 7 -52 11
-65 7 -23 -6 -23 -6 5 -12 48 -8 36 -24 -31 -40 -34 -9 -65 -19 -69 -23 -11
-11 -114 -8 -114 3 0 6 -9 19 -20 30 -24 24 -113 27 -175 5 -22 -8 -52 -15
-66 -15 -15 0 -32 -7 -39 -15 -7 -8 -25 -15 -41 -15 -15 0 -34 -7 -43 -15 -8
-8 -20 -15 -27 -15 -11 0 -42 -13 -146 -63 -24 -11 -43 -24 -43 -28 0 -5 -13
-15 -30 -24 -16 -9 -30 -22 -30 -30 0 -8 -9 -19 -20 -25 -11 -6 -20 -16 -20
-23 0 -18 60 -80 102 -106 l37 -22 11 21 c12 23 23 25 42 7 7 -7 33 -21 58
-31 25 -11 50 -26 56 -33 6 -7 19 -13 28 -13 9 0 19 -7 22 -15 4 -8 14 -15 24
-15 10 0 23 -7 30 -15 7 -8 18 -15 25 -15 7 0 18 -7 25 -15 7 -8 20 -15 30
-15 10 0 20 -7 24 -15 3 -8 15 -15 26 -15 11 0 23 -7 26 -15 4 -8 12 -15 19
-15 7 0 15 -7 19 -15 3 -8 13 -15 23 -15 10 0 35 -14 56 -31 21 -17 41 -29 44
-25 3 3 12 -3 20 -14 8 -11 20 -20 26 -21 18 -1 75 -71 83 -103 6 -26 5 -28
-17 -21 -13 4 -31 14 -40 21 -8 8 -19 14 -23 14 -4 0 -21 14 -38 30 -16 17
-38 30 -48 30 -11 0 -23 6 -27 13 -10 14 -61 51 -85 60 -10 3 -18 11 -18 17 0
5 -5 10 -11 10 -6 0 -31 14 -56 30 -24 17 -47 30 -50 30 -3 0 -31 18 -63 39
-31 21 -74 48 -96 60 -21 12 -49 28 -61 37 -24 17 -33 3 -10 -16 6 -5 28 -24
47 -40 19 -17 47 -36 63 -42 15 -7 27 -16 27 -20 0 -11 160 -168 171 -168 4 0
16 -8 26 -18 32 -32 88 -45 129 -30 32 11 37 11 50 -7 20 -27 17 -51 -7 -74
l-21 -19 22 -22 c21 -21 50 -21 50 0 0 14 46 13 69 -2 15 -9 17 -17 10 -35
-11 -29 -2 -53 20 -53 28 0 44 -38 31 -71 -7 -16 -15 -29 -19 -29 -15 0 -86
-75 -83 -87 2 -8 -3 -13 -11 -11 -17 4 -337 -303 -337 -324 0 -5 -9 -12 -20
-16 -19 -7 -170 -150 -474 -447 -79 -77 -246 -239 -371 -360 -126 -121 -307
-298 -404 -393 -200 -196 -212 -202 -242 -122 -9 25 -30 72 -47 105 -17 33
-36 72 -43 88 -6 15 -15 27 -20 27 -5 0 -9 7 -9 15 0 19 -58 124 -80 145 -10
10 -31 46 -41 73 -6 15 -14 27 -18 27 -4 0 -18 21 -32 46 -13 25 -30 56 -37
70 -7 13 -17 24 -21 24 -5 0 -11 9 -14 20 -3 11 -12 20 -21 20 -9 0 -16 8 -16
20 0 12 -7 20 -16 20 -9 0 -14 6 -11 13 5 16 -35 69 -132 177 -28 30 -51 58
-51 61 -1 29 -466 499 -493 499 -5 0 -26 18 -92 81 -12 10 -24 19 -29 19 -4 0
-25 14 -46 30 -21 17 -45 30 -53 30 -8 0 -20 7 -27 15 -7 8 -18 15 -25 15 -7
0 -18 7 -25 15 -7 8 -19 15 -26 15 -8 0 -43 14 -77 30 -35 17 -73 30 -83 30
-10 0 -28 7 -38 15 -11 8 -35 15 -54 15 -18 0 -43 5 -55 12 -12 7 -47 15 -77
19 -30 4 -96 13 -147 20 -73 10 -108 10 -175 1 -45 -7 -120 -16 -166 -20 -45
-5 -88 -14 -94 -20 -7 -7 -27 -12 -46 -12 -18 0 -43 -5 -55 -12 -12 -6 -35
-15 -52 -19 -61 -16 -125 -42 -125 -50 0 -5 -12 -9 -27 -9 -16 0 -37 -7 -47
-15 -11 -8 -28 -15 -38 -15 -10 0 -21 -7 -24 -15 -4 -8 -16 -15 -29 -15 -12 0
-28 -6 -34 -14 -6 -8 -33 -24 -59 -36 -73 -34 -96 -47 -126 -75 -15 -14 -34
-25 -42 -25 -8 0 -17 -7 -20 -15 -4 -8 -12 -15 -19 -15 -6 0 -20 -10 -31 -21
-10 -12 -35 -32 -54 -44 -19 -12 -49 -35 -66 -51 -17 -16 -46 -40 -64 -54 -46
-35 -110 -99 -110 -110 0 -6 -5 -10 -11 -10 -6 0 -34 -26 -62 -57 -29 -31 -71
-76 -94 -100 -24 -24 -43 -45 -43 -48 0 -2 -11 -16 -25 -31 -14 -15 -25 -33
-25 -40 0 -7 -8 -19 -18 -26 -20 -15 -82 -104 -82 -119 0 -5 -4 -9 -8 -9 -5 0
-14 -10 -21 -22 -6 -13 -20 -36 -31 -53 -11 -16 -25 -40 -31 -52 -7 -13 -16
-23 -21 -23 -4 0 -8 -8 -8 -19 0 -10 -7 -24 -15 -31 -8 -7 -15 -20 -15 -30 0
-10 -7 -20 -15 -24 -8 -3 -15 -11 -15 -19 0 -11 -21 -57 -49 -107 -4 -8 -15
-32 -24 -53 -9 -20 -23 -52 -30 -70 -8 -17 -22 -52 -32 -77 -9 -25 -23 -60
-31 -78 -9 -22 -12 -47 -8 -70 4 -21 3 -34 -1 -30 -14 14 -35 -14 -35 -46 0
-17 -7 -40 -15 -50 -8 -11 -15 -38 -15 -60 0 -23 -7 -59 -15 -81 -8 -22 -14
-71 -15 -110 0 -38 -7 -88 -15 -110 -11 -31 -14 -99 -15 -291 0 -208 -2 -253
-14 -257 -17 -7 -76 48 -113 104 -15 23 -32 38 -39 35 -8 -3 -11 0 -8 8 3 7
-11 29 -31 49 -19 20 -35 40 -35 44 0 5 -10 20 -22 34 -29 32 -41 51 -73 116
-14 28 -30 55 -35 58 -6 3 -10 14 -10 23 0 10 -9 25 -20 35 -11 9 -20 26 -20
37 0 11 -4 20 -8 20 -5 0 -17 19 -27 43 -10 23 -33 63 -52 89 -18 26 -33 53
-33 58 0 6 -18 38 -40 71 -22 33 -40 64 -40 69 0 5 -6 15 -12 22 -17 18 -78
107 -78 114 0 10 -44 64 -52 64 -4 0 -8 -9 -8 -20 0 -11 -4 -20 -10 -20 -13 0
-13 16 2 39 10 16 0 33 -73 127 -82 107 -181 213 -287 306 -28 25 -52 51 -52
56 0 11 -60 108 -82 132 -7 8 -12 22 -10 31 1 9 -4 22 -13 29 -8 7 -15 21 -15
32 0 10 -7 21 -15 24 -8 3 -17 16 -21 27 -25 80 -138 203 -231 253 -25 13 -52
29 -59 35 -8 6 -27 9 -44 6 -23 -5 -28 -3 -24 8 6 15 -4 18 -91 31 -63 9 -82
9 -177 -1 -75 -8 -78 -7 -115 21 -44 34 -80 54 -97 54 -6 0 -19 9 -29 20 -9
11 -25 20 -36 20 -10 0 -21 7 -25 15 -3 8 -17 15 -31 15 -14 0 -25 4 -25 9 0
5 -10 12 -22 16 -13 3 -41 10 -63 16 -22 6 -57 19 -77 30 -20 10 -52 19 -71
19 -19 0 -50 6 -68 14 -74 31 -551 28 -582 -3 -6 -6 -27 -11 -48 -11 -21 0
-47 -8 -61 -19 -14 -11 -34 -19 -46 -18 -11 0 -35 -6 -54 -15 -133 -64 -178
-89 -241 -137 -100 -76 -284 -236 -322 -280 -30 -36 -105 -117 -197 -215 -34
-36 -45 -53 -37 -62 11 -13 -4 -29 -19 -20 -10 6 -52 -47 -52 -64 0 -5 -4 -10
-8 -10 -5 0 -26 -27 -48 -60 -21 -33 -42 -60 -46 -60 -3 0 -23 -26 -44 -57
-20 -32 -50 -74 -65 -94 -20 -26 -26 -42 -22 -60 6 -21 5 -23 -10 -10 -15 11
-18 10 -26 -10 -5 -13 -21 -41 -35 -62 -14 -21 -26 -42 -26 -46 0 -5 -7 -14
-15 -21 -8 -7 -15 -20 -15 -30 0 -10 -7 -20 -15 -24 -8 -3 -15 -15 -15 -26 0
-11 -4 -20 -8 -20 -4 0 -20 -27 -35 -60 -15 -32 -32 -62 -37 -65 -6 -3 -10
-14 -10 -24 0 -10 -7 -24 -15 -31 -8 -7 -15 -23 -15 -35 0 -12 -7 -28 -15 -35
-8 -7 -15 -23 -15 -35 0 -13 -7 -25 -15 -29 -8 -3 -15 -16 -15 -30 0 -13 -7
-37 -15 -52 -8 -16 -15 -36 -15 -45 0 -9 -7 -30 -15 -45 -8 -16 -15 -37 -15
-47 0 -10 -6 -39 -14 -65 -20 -67 -36 -198 -43 -342 -4 -80 -11 -132 -19 -145
-8 -11 -14 -29 -14 -40 0 -11 -7 -29 -15 -39 -8 -11 -15 -34 -15 -50 0 -17 -7
-40 -15 -50 -8 -11 -15 -37 -15 -58 0 -22 -6 -51 -14 -66 -8 -15 -14 -53 -15
-84 0 -31 -8 -99 -17 -150 -17 -100 -13 -230 8 -255 8 -10 11 -43 9 -92 -1
-47 3 -94 12 -121 8 -25 17 -69 21 -99 3 -30 10 -59 16 -65 5 -5 10 -25 10
-43 0 -19 7 -50 15 -70 8 -19 15 -45 15 -57 0 -12 7 -31 15 -42 8 -10 15 -30
15 -44 0 -14 7 -38 15 -53 8 -15 17 -43 21 -63 3 -19 10 -37 15 -40 5 -3 9
-16 9 -29 0 -13 7 -30 15 -39 8 -8 15 -24 15 -35 0 -11 20 -60 45 -108 25 -48
45 -93 45 -100 0 -6 6 -16 13 -20 6 -4 22 -29 35 -55 13 -26 27 -50 33 -53 5
-4 9 -15 9 -26 0 -10 5 -19 10 -19 6 0 13 -7 17 -16 8 -21 64 -105 103 -154
17 -21 30 -42 30 -48 0 -6 4 -12 8 -14 4 -1 36 -40 71 -86 35 -46 69 -86 77
-89 8 -3 14 -12 14 -20 0 -14 360 -383 374 -383 4 0 17 -11 29 -24 12 -13 58
-54 102 -92 45 -38 93 -81 109 -95 17 -17 35 -25 47 -22 14 4 18 1 13 -10 -4
-10 4 -21 23 -31 15 -8 42 -29 60 -45 18 -17 37 -31 44 -31 6 0 22 -10 34 -22
38 -39 83 -78 90 -78 3 0 51 -34 105 -75 54 -41 102 -75 105 -75 4 0 42 -27
84 -60 43 -33 81 -60 84 -60 4 0 15 -7 24 -15 77 -67 93 -76 115 -69 13 3 26
12 30 18 5 7 8 4 8 -6 0 -10 -7 -18 -15 -18 -22 0 -18 -16 9 -33 13 -9 36 -27
49 -40 27 -25 97 -124 97 -137 0 -4 7 -10 15 -14 8 -3 15 -10 15 -16 0 -7 20
-38 45 -70 25 -32 45 -63 45 -69 0 -5 6 -14 13 -18 15 -10 77 -100 77 -113 0
-6 4 -10 9 -10 4 0 27 -28 50 -62 69 -103 122 -177 206 -285 44 -56 109 -141
145 -189 36 -48 72 -94 80 -103 8 -9 38 -43 65 -76 28 -33 55 -64 61 -70 5 -5
26 -30 46 -55 20 -25 59 -69 87 -98 28 -29 51 -61 51 -72 0 -10 -12 -32 -28
-48 -15 -16 -43 -48 -62 -72 -19 -24 -46 -55 -60 -70 -14 -15 -68 -73 -120
-128 -52 -56 -95 -110 -95 -119 0 -11 -7 -17 -18 -15 -9 2 -17 -2 -17 -8 0 -6
-22 -33 -50 -60 -27 -27 -50 -52 -50 -55 0 -3 -8 -13 -17 -23 -34 -34 -189
-207 -288 -318 -33 -38 -67 -75 -75 -84 -85 -89 -161 -181 -155 -189 3 -6 0
-9 -8 -6 -8 4 -26 -12 -45 -37 -17 -24 -61 -74 -97 -113 -36 -38 -63 -76 -60
-82 2 -8 -4 -13 -15 -13 -11 0 -20 -4 -20 -10 0 -5 -7 -10 -16 -10 -11 0 -15
-6 -11 -20 3 -11 0 -20 -6 -20 -6 0 -35 -26 -64 -58 -41 -45 -52 -62 -48 -82
2 -14 2 -19 -1 -12 -6 13 -34 17 -34 4 0 -5 -20 -29 -45 -54 -25 -25 -45 -49
-45 -52 0 -3 -8 -14 -17 -25 -10 -10 -49 -53 -88 -96 -38 -43 -77 -85 -85 -94
-9 -9 -29 -34 -45 -56 -16 -22 -45 -56 -65 -76 -46 -47 -116 -125 -161 -180
-38 -45 -65 -75 -128 -144 -21 -22 -75 -85 -120 -140 -46 -55 -104 -123 -130
-150 -25 -28 -66 -75 -91 -105 -24 -30 -56 -68 -71 -85 -15 -16 -51 -57 -81
-89 -29 -33 -61 -68 -70 -78 -10 -10 -18 -20 -18 -23 0 -3 -8 -13 -17 -23 -10
-9 -34 -37 -55 -61 -31 -37 -39 -41 -56 -32 -12 6 -29 11 -40 11 -11 0 -22 7
-26 15 -3 8 -12 15 -20 15 -8 0 -16 5 -18 12 -4 10 -36 18 -149 34 -22 4 -39
1 -43 -5 -4 -6 -18 -11 -31 -11 -13 0 -50 -7 -82 -15 -31 -8 -83 -15 -116 -15
-76 0 -119 -28 -110 -71 4 -22 2 -29 -10 -29 -10 0 -13 6 -10 20 7 27 -23 27
-37 0 -6 -11 -19 -20 -30 -20 -10 0 -20 -3 -22 -8 -3 -8 -118 -97 -158 -124
-14 -9 -39 -29 -57 -44 -17 -16 -44 -38 -60 -49 -15 -11 -38 -30 -51 -42 -13
-13 -26 -23 -29 -23 -5 0 -43 -32 -114 -96 -14 -13 -65 -53 -113 -89 -109 -81
-112 -84 -149 -118 -17 -16 -47 -40 -68 -53 -53 -33 -54 -40 -6 -57 53 -18
108 -11 114 14 7 24 40 34 59 18 9 -7 55 -13 116 -15 85 -3 104 -6 122 -24 24
-22 51 -26 61 -9 4 6 13 8 20 5 7 -2 22 2 33 10 17 12 21 25 20 67 0 28 -5 57
-10 64 -6 7 -14 27 -18 45 -4 18 -11 40 -14 48 -6 15 26 60 42 60 10 0 62
-113 62 -133 0 -9 4 -18 9 -21 4 -3 11 -27 14 -53 3 -29 12 -52 23 -60 26 -19
37 -16 29 10 -4 12 -12 45 -19 72 -6 28 -15 55 -19 62 -5 7 0 16 12 22 34 19
49 12 62 -26 24 -73 55 -104 66 -64 6 22 29 35 38 21 11 -19 25 -10 25 15 0
18 7 28 24 35 13 5 27 14 31 19 9 16 61 13 75 -4 7 -8 18 -15 24 -15 29 0 35
-23 13 -50 -12 -15 -35 -45 -52 -65 -16 -21 -42 -50 -57 -66 -16 -15 -28 -32
-28 -38 0 -5 -6 -14 -13 -18 -25 -16 -56 -65 -50 -81 4 -13 3 -14 -5 -3 -19
26 -31 2 -25 -49 5 -44 4 -50 -13 -50 -14 0 -15 3 -6 12 14 14 16 58 4 58 -10
0 -53 -47 -101 -110 -19 -25 -44 -54 -55 -66 -43 -44 -66 -75 -66 -89 0 -8 -6
-15 -14 -15 -7 0 -20 -10 -29 -22 -8 -13 -49 -61 -91 -108 -41 -47 -76 -88
-76 -92 0 -4 -24 -32 -52 -62 -64 -65 -91 -97 -103 -116 -13 -22 18 3 78 62
27 27 52 48 56 48 4 0 27 21 52 46 24 25 52 53 62 62 9 9 17 22 17 29 0 7 6
13 13 13 8 0 33 18 58 40 24 22 47 40 52 40 4 0 7 6 8 13 0 6 34 41 75 77 41
36 83 78 92 93 17 27 122 117 139 117 22 1 53 50 53 84 0 20 4 36 10 36 5 0
12 10 16 23 7 25 121 127 159 141 20 8 29 5 50 -14 14 -13 25 -31 25 -41 0
-10 6 -22 14 -26 7 -4 17 -19 20 -33 6 -19 5 -22 -4 -10 -9 13 -13 12 -31 -9
-14 -17 -17 -27 -9 -35 5 -5 10 -16 10 -23 0 -7 9 -22 20 -33 26 -26 26 -61 0
-90 -11 -13 -20 -29 -20 -35 0 -7 -7 -15 -15 -19 -8 -3 -15 -14 -15 -25 0 -10
-7 -22 -16 -25 -14 -5 -15 -15 -9 -59 4 -28 7 -68 7 -88 -1 -35 26 -79 48 -79
6 0 10 -6 10 -14 0 -8 11 -17 25 -20 14 -4 25 -12 25 -19 0 -24 -31 -57 -55
-57 -31 0 -34 -7 -26 -55 5 -32 11 -41 29 -43 17 -3 25 2 29 17 3 11 11 22 19
25 8 3 14 14 14 24 0 11 7 25 15 32 8 7 15 20 15 30 0 10 7 20 15 24 8 3 15
14 15 24 0 11 7 25 15 32 8 7 15 18 15 25 0 7 7 18 16 26 9 7 13 21 10 35 -4
16 -1 23 15 27 18 5 20 11 15 34 -4 18 -3 23 3 14 10 -15 31 -7 31 12 0 7 13
27 30 45 16 18 30 37 30 43 0 5 5 9 10 9 6 0 10 7 10 15 0 8 16 38 35 65 19
27 35 52 35 56 0 3 7 12 15 20 8 9 15 24 15 35 0 10 5 19 10 19 6 0 10 7 10
16 0 9 6 28 14 42 29 58 56 123 56 138 0 8 7 26 16 39 9 14 14 36 11 50 -2 15
4 42 14 63 38 74 17 208 -51 319 l-19 33 43 45 c34 35 43 50 38 67 -5 20 -4
21 11 10 14 -12 21 -11 46 10 17 12 30 29 30 36 1 6 8 12 17 12 9 0 49 33 88
73 88 88 131 127 143 127 5 0 23 14 41 30 18 17 40 30 48 30 8 0 50 35 93 77
43 43 89 88 102 100 66 59 110 111 100 117 -16 10 -13 26 4 26 8 0 15 -5 15
-11 0 -14 151 137 197 197 18 22 31 49 29 60 -2 10 -1 13 1 7 3 -7 8 -13 12
-13 9 0 51 56 51 68 0 5 7 15 16 23 8 7 13 20 11 30 -3 12 0 16 9 12 8 -3 17
3 21 13 4 11 19 37 35 58 15 21 28 49 28 61 0 13 7 28 15 35 9 8 15 29 15 56
0 34 -5 46 -21 55 -27 14 -20 56 15 93 13 15 27 39 31 54 4 15 11 33 17 39 12
15 51 17 76 4 9 -5 30 -13 47 -17 28 -9 29 -12 32 -74 2 -36 4 -73 4 -82 0
-10 4 -18 8 -18 12 0 63 27 70 37 3 4 27 25 54 46 26 21 47 45 47 53 0 8 4 13
9 9 14 -8 53 37 46 53 -3 9 1 12 15 7 15 -5 22 0 29 18 6 14 22 36 37 50 27
25 26 47 -3 47 -13 0 -13 3 -3 15 10 12 9 18 -9 32 -11 10 -24 34 -27 53 -4
25 -3 31 4 21 8 -12 15 -9 36 15 14 16 26 40 26 53 0 40 47 81 92 81 34 0 40
-4 49 -30 6 -16 13 -30 16 -30 3 0 31 24 62 54 148 143 172 166 180 166 13 0
53 61 48 74 -3 8 1 13 11 12 9 0 17 6 17 14 0 8 5 17 11 20 14 6 144 123 195
175 23 22 39 49 39 62 0 13 4 23 8 23 5 0 19 14 32 32 18 25 21 35 12 49 -8
12 -8 20 -2 24 6 3 10 1 10 -4 0 -6 7 -11 15 -11 8 0 15 4 15 9 0 10 55 70
155 171 30 30 55 61 55 69 0 15 14 28 71 65 19 13 50 38 67 55 42 43 70 35
113 -31 18 -28 41 -58 51 -67 10 -8 18 -21 18 -28 0 -6 6 -16 13 -20 7 -4 21
-21 31 -38 11 -16 25 -34 33 -38 7 -4 13 -17 13 -28 0 -11 7 -22 15 -25 8 -4
15 -11 15 -16 0 -6 6 -16 14 -22 12 -10 78 -98 241 -323 25 -34 45 -65 45 -68
0 -12 40 -93 47 -97 5 -1 24 -34 43 -71 19 -38 41 -71 48 -74 6 -3 12 -16 12
-29 0 -13 5 -24 10 -24 6 0 15 -10 20 -22 6 -13 19 -36 30 -53 11 -16 24 -40
30 -52 5 -13 14 -23 20 -23 5 0 10 -7 10 -15 0 -9 7 -18 15 -21 8 -4 15 -14
15 -24 0 -10 7 -23 15 -30 8 -7 39 -47 69 -89 53 -77 70 -98 138 -174 21 -23
38 -45 38 -49 0 -5 26 -36 59 -70 32 -35 74 -81 92 -102 61 -71 151 -171 170
-188 11 -9 19 -23 19 -32 0 -9 7 -16 15 -16 8 0 15 -4 15 -10 0 -5 15 -24 33
-43 47 -49 87 -96 87 -103 0 -4 15 -22 32 -39 30 -30 58 -61 149 -170 73 -86
72 -85 87 -72 12 10 14 8 8 -9 -5 -17 7 -35 62 -90 80 -81 142 -157 142 -172
0 -6 6 -15 13 -19 13 -8 77 -104 105 -158 7 -14 17 -25 23 -25 5 0 9 -6 9 -13
0 -17 61 -88 140 -164 36 -35 78 -75 94 -90 15 -16 32 -37 37 -48 5 -11 13
-27 18 -35 5 -8 12 -23 15 -34 4 -12 12 -16 22 -12 13 5 15 1 10 -19 -7 -26
-4 -38 53 -217 17 -54 31 -103 31 -109 0 -15 43 -103 53 -107 4 -2 7 -10 7
-18 0 -8 15 -30 33 -49 38 -39 101 -53 165 -36 47 13 179 131 168 150 -4 6 -1
11 6 11 22 1 123 173 114 195 -3 9 0 12 8 9 14 -5 56 64 56 91 0 8 5 15 10 15
6 0 14 10 19 23 5 12 25 57 45 100 20 43 41 88 46 100 6 12 14 29 19 37 18 28
41 88 41 104 0 9 3 16 8 16 17 0 54 99 48 127 -4 19 -3 23 3 14 11 -18 31 -5
31 20 0 10 4 19 9 19 5 0 14 12 20 28 15 35 36 71 50 85 6 6 11 19 11 29 0 10
4 18 8 18 5 0 22 25 38 55 44 84 51 96 63 108 6 6 11 17 11 25 0 7 26 52 58
100 31 48 63 100 70 116 7 17 28 54 48 83 19 29 42 70 52 90 9 21 27 52 39 69
12 17 27 42 33 55 6 13 19 38 30 54 11 17 23 37 26 45 4 8 14 23 22 32 8 10
12 26 10 36 -4 13 0 19 10 18 9 0 18 8 21 19 3 11 18 39 34 62 15 24 27 47 27
52 0 5 7 14 16 22 9 7 14 22 11 35 -2 15 2 24 12 27 9 2 26 24 39 48 13 24 32
58 42 74 11 17 24 39 30 50 6 11 26 47 45 80 19 33 39 70 44 82 5 11 15 24 20
28 6 3 11 14 11 24 0 10 7 24 15 31 8 7 15 21 15 31 0 11 4 19 10 19 5 0 12
11 16 24 3 14 12 27 20 30 8 3 14 17 14 31 0 14 4 25 9 25 5 0 22 26 39 58 63
120 83 157 93 166 5 6 9 18 9 27 0 9 7 19 15 23 8 3 15 15 15 26 0 11 4 20 9
20 5 0 13 10 17 23 4 12 10 24 14 27 3 3 20 32 37 65 46 92 83 159 94 169 5 6
9 16 9 24 0 7 7 20 15 28 8 9 15 24 15 33 0 10 7 24 15 31 8 7 15 20 15 30 0
10 7 20 15 24 8 3 15 16 15 29 0 14 7 30 15 37 8 7 15 20 15 30 0 10 7 23 15
30 8 7 15 23 15 35 0 13 7 25 15 29 9 3 15 18 15 34 0 16 7 35 15 42 8 7 15
22 15 34 0 11 7 30 15 40 8 11 15 32 15 47 0 14 7 32 15 39 8 7 15 23 15 36 0
12 5 26 10 29 6 3 10 14 10 23 0 10 9 34 20 55 11 20 20 47 20 59 0 13 7 32
15 42 8 11 15 31 15 44 0 13 7 30 15 38 8 9 15 30 15 48 0 19 7 39 15 46 8 7
15 28 15 47 0 19 7 41 15 49 8 9 15 31 15 50 0 20 7 42 15 50 8 9 15 26 15 38
0 13 7 40 15 59 8 20 15 48 15 62 0 14 7 37 16 51 11 16 15 37 11 63 -3 26 0
44 9 53 8 7 18 34 23 58 14 64 31 128 47 180 8 25 14 59 14 75 1 17 7 39 15
49 8 11 15 39 15 62 0 23 7 58 15 77 8 20 15 53 15 72 0 20 7 43 15 51 9 10
15 35 15 67 1 29 7 63 15 77 8 14 14 44 15 66 0 23 7 55 15 70 8 16 15 52 15
80 0 27 5 55 11 61 6 6 15 37 19 69 16 114 33 199 46 237 8 20 14 57 14 81 0
24 7 60 15 79 8 20 15 56 15 80 0 24 5 48 11 54 6 6 13 39 16 74 3 35 11 78
19 96 8 17 14 49 14 71 0 22 7 56 15 75 8 20 15 54 15 75 0 21 5 43 11 49 5 5
13 37 16 69 2 32 11 73 19 91 8 17 14 52 14 77 0 26 7 63 15 83 8 19 15 58 15
85 0 27 5 59 12 71 7 12 15 65 19 117 10 125 37 360 44 385 5 17 18 238 30
510 4 101 -24 673 -35 715 -6 19 -10 58 -10 85 0 28 -5 66 -11 85 -6 19 -14
71 -19 114 -5 43 -14 84 -19 89 -6 6 -11 34 -11 62 0 30 -6 59 -15 71 -8 10
-15 37 -15 59 0 22 -7 50 -15 62 -9 12 -17 41 -20 63 -2 23 -8 47 -13 53 -6 7
-12 26 -13 43 -3 26 8 46 63 115 37 46 77 94 89 105 20 20 39 49 55 84 4 8 18
32 31 52 13 21 23 43 23 49 0 16 96 117 289 303 45 43 80 84 77 91 -2 7 2 12
10 11 7 0 53 37 101 84 49 47 123 118 166 159 42 40 77 77 77 82 0 5 5 9 10 9
6 0 18 8 28 18 10 9 41 38 68 63 27 25 90 90 139 144 50 54 98 106 109 116 10
10 16 25 13 33 -4 9 -1 13 6 10 7 -2 32 21 57 52 25 32 62 74 83 94 20 20 37
42 37 48 0 7 3 12 8 12 4 0 18 16 32 36 13 20 37 50 53 67 15 16 26 36 23 44
-3 8 2 13 13 13 21 0 171 154 214 218 35 53 64 56 101 8 14 -19 26 -38 26 -42
0 -16 134 -135 147 -130 7 3 13 -1 13 -9 0 -8 6 -15 13 -15 6 0 27 -16 44 -35
18 -19 36 -35 41 -35 17 0 148 -124 160 -151 6 -16 17 -29 22 -29 6 0 10 -6
10 -12 1 -17 48 -51 60 -43 6 3 10 0 10 -9 0 -16 67 -62 77 -52 3 3 12 -3 20
-14 8 -11 20 -20 27 -20 8 0 16 -7 20 -15 3 -8 13 -15 21 -15 9 0 23 -7 31
-15 16 -16 62 -20 79 -7 37 26 55 67 55 126 1 38 6 68 15 80 8 11 15 29 15 41
0 12 5 26 11 32 8 8 8 24 -1 60 -11 41 -10 54 4 87 9 21 16 48 16 60 0 11 7
30 15 40 8 11 15 32 15 47 0 14 7 32 15 39 13 11 15 41 13 189 -3 154 -1 179
15 201 18 26 22 87 8 135 -10 35 7 134 27 158 8 9 11 25 7 37 -4 14 -1 28 9
39 19 21 56 133 56 170 0 15 7 36 15 48 8 12 14 32 14 45 -1 12 3 36 10 51 6
16 11 38 11 49 0 17 -2 18 -15 8 -8 -7 -15 -20 -15 -29 0 -10 -7 -26 -15 -37
-8 -10 -15 -28 -15 -39 0 -11 -7 -29 -15 -39 -8 -11 -15 -29 -15 -40 0 -12 -7
-30 -15 -40 -8 -11 -15 -32 -15 -47 0 -15 -7 -29 -15 -33 -8 -3 -15 -17 -15
-32 0 -15 -9 -42 -21 -60 -11 -19 -18 -38 -15 -43 9 -14 -4 -41 -20 -41 -10 0
-14 -15 -14 -55 0 -42 -3 -55 -15 -55 -11 0 -15 12 -15 49 0 28 5 53 10 56 6
4 10 30 9 59 -1 36 3 61 15 77 9 13 16 42 16 64 0 22 7 49 15 59 8 11 15 33
15 48 0 32 21 78 44 97 9 8 16 26 16 42 0 16 4 29 9 29 5 0 13 26 16 58 4 31
13 67 21 79 8 12 14 28 14 34 0 19 41 99 50 99 4 0 8 18 8 40 1 50 5 57 48 75
46 19 43 35 -8 35 -24 0 -59 2 -78 5 -21 3 -55 -2 -85 -13z m0 -93 c7 -10 -21
-49 -36 -49 -11 0 -22 38 -14 50 8 13 42 13 50 -1z m-565 -139 c0 -13 -11 -13
-30 0 -12 8 -11 10 8 10 12 0 22 -4 22 -10z m59 -156 c-16 -20 -37 -17 -44 6
-10 32 3 42 31 24 19 -13 22 -20 13 -30z m-155 -10 c22 -8 20 -30 -3 -53 -16
-16 -26 -18 -52 -11 -54 16 -58 33 -14 58 23 13 46 15 69 6z m36 -220 c0 -2
-16 -4 -35 -4 -19 0 -35 4 -35 8 0 4 16 6 35 4 19 -2 35 -6 35 -8z m-1125 -4
c-3 -5 -13 -10 -21 -10 -8 0 -14 5 -14 10 0 6 9 10 21 10 11 0 17 -4 14 -10z
m394 -14 c10 -12 8 -17 -9 -26 -17 -9 -20 -17 -15 -38 5 -22 4 -24 -9 -13 -14
12 -17 9 -22 -17 -9 -43 -24 -45 -75 -10 -68 46 -80 59 -73 82 10 30 15 32
108 35 63 1 86 -2 95 -13z m784 -60 c3 -8 -3 -22 -13 -31 -10 -9 -16 -24 -13
-36 4 -15 2 -18 -11 -13 -10 4 -22 0 -30 -11 -17 -24 -47 -13 -69 26 -21 38
-7 64 29 55 14 -4 24 -1 28 9 7 20 72 20 79 1z m-175 -138 c-2 -37 -7 -70 -10
-74 -4 -3 -22 -4 -40 0 -42 8 -85 74 -68 106 15 28 37 38 82 36 l40 -1 -4 -67z
m-738 32 c0 -5 -7 -10 -15 -10 -8 0 -15 5 -15 10 0 6 7 10 15 10 8 0 15 -4 15
-10z m971 -163 c5 -103 3 -140 -8 -167 -8 -19 -17 -81 -20 -138 -6 -95 -8
-105 -30 -119 -23 -15 -25 -15 -54 16 -16 18 -29 41 -29 52 0 20 -34 57 -78
87 -13 8 -21 21 -18 29 3 8 -1 16 -9 19 -8 4 -15 11 -15 17 0 5 -16 30 -36 54
-27 33 -34 50 -30 68 4 14 1 25 -7 28 -6 2 -8 8 -4 13 4 5 11 4 15 -2 4 -6 15
-14 25 -17 11 -4 21 -16 24 -27 6 -22 28 -27 37 -7 3 6 3 0 0 -15 -4 -20 -1
-29 15 -38 12 -6 30 -28 41 -50 25 -48 38 -57 58 -37 14 14 14 20 -1 59 -10
24 -17 65 -17 90 0 28 -6 53 -15 62 -18 18 -4 66 19 66 7 0 20 10 28 23 30 45
81 88 92 77 6 -6 14 -70 17 -143z m159 131 c0 -16 -3 -19 -11 -11 -6 6 -8 16
-5 22 11 17 16 13 16 -11z m-788 -13 c56 0 67 -3 63 -15 -3 -9 9 -31 26 -49
17 -19 33 -49 36 -66 5 -31 4 -32 -28 -27 -19 3 -38 11 -42 18 -4 8 -17 14
-28 14 -18 0 -103 51 -141 84 -34 30 -10 65 32 47 8 -3 45 -6 82 -6z m695
-112 c-2 -16 -4 -3 -4 27 0 30 2 43 4 28 2 -16 2 -40 0 -55z m-802 17 c17 -7
15 -9 -12 -9 -18 -1 -33 4 -33 9 0 12 17 12 45 0z m475 -9 c0 -12 -29 -35 -36
-28 -11 10 5 37 21 37 8 0 15 -4 15 -9z m635 -156 c-4 -22 -7 -67 -8 -100 -1
-33 -3 -52 -5 -42 -2 10 -9 16 -15 14 -8 -2 -14 -39 -17 -98 -4 -60 -12 -104
-22 -123 -9 -16 -20 -46 -23 -68 -10 -56 -22 -46 -30 25 -5 41 -14 68 -26 80
-16 15 -18 26 -13 55 4 20 13 41 20 45 8 4 14 16 14 25 0 10 7 28 16 40 9 13
14 34 11 48 -3 18 0 24 14 24 13 0 19 7 19 24 0 14 8 32 17 41 9 10 17 34 17
54 1 20 5 43 10 51 15 22 29 -45 21 -95z m27 -97 c-9 -9 -12 -7 -12 12 0 19 3
21 12 12 9 -9 9 -15 0 -24z m-1086 -225 c-11 -11 -17 4 -9 23 7 18 8 18 11 1
2 -10 1 -21 -2 -24z m-4158 -33 c-10 -6 -25 -7 -40 -1 -20 9 -18 10 17 10 31
0 36 -2 23 -9z m4726 -90 c17 -6 26 -17 26 -32 0 -13 7 -32 15 -42 8 -11 15
-28 15 -38 0 -10 5 -18 10 -18 6 0 10 -9 10 -20 0 -27 -10 -25 -44 10 -16 17
-35 30 -43 30 -7 0 -13 5 -13 10 0 6 -9 10 -19 10 -23 0 -65 55 -58 75 3 7 18
15 34 18 15 2 31 5 35 6 4 0 18 -3 32 -9z m-159 -50 c4 -6 -5 -10 -20 -10 -15
0 -24 4 -20 10 3 6 12 10 20 10 8 0 17 -4 20 -10z m-3735 -40 c0 -5 -6 -10
-14 -10 -8 0 -18 5 -21 10 -3 6 3 10 14 10 12 0 21 -4 21 -10z m-1696 -76 c18
-7 12 -24 -10 -24 -8 0 -14 7 -14 15 0 17 2 18 24 9z m5531 -3 c3 -5 1 -13 -5
-16 -15 -9 -43 3 -35 15 8 13 32 13 40 1z m-4615 -32 c0 -5 -8 -13 -17 -16
-10 -4 -29 -15 -42 -25 -13 -10 -37 -18 -53 -18 -16 0 -31 -6 -34 -15 -4 -8
-14 -15 -24 -15 -11 0 -21 -4 -24 -9 -3 -5 -36 -27 -74 -49 -37 -22 -90 -62
-117 -89 -70 -68 -185 -195 -185 -204 0 -5 -15 -25 -34 -45 -19 -21 -32 -43
-29 -51 3 -7 -2 -13 -11 -13 -9 0 -20 -8 -23 -17 -4 -10 -25 -45 -47 -78 -57
-85 -65 -97 -76 -120 -6 -11 -19 -33 -30 -50 -11 -16 -31 -52 -45 -80 -14 -27
-30 -57 -34 -65 -29 -50 -101 -204 -101 -215 0 -7 -7 -18 -15 -25 -8 -7 -15
-21 -15 -31 0 -19 -47 -69 -66 -69 -12 0 -133 -115 -149 -143 -5 -9 -34 -51
-63 -93 -38 -55 -52 -84 -49 -101 2 -13 -1 -23 -7 -23 -14 0 -56 -116 -56
-155 0 -24 -15 -46 -73 -105 -81 -84 -167 -184 -167 -194 0 -4 -10 -20 -22
-36 -15 -21 -30 -30 -51 -30 -28 0 -29 2 -23 38 3 20 8 111 12 202 3 91 11
171 16 177 6 7 14 39 18 70 10 71 34 162 49 191 6 11 11 32 11 46 0 14 4 26
10 26 5 0 12 17 16 37 4 21 13 44 21 51 7 7 13 24 13 36 0 13 7 29 15 36 8 7
15 18 15 26 0 15 60 134 78 152 6 7 12 20 12 27 0 8 20 43 45 79 25 37 45 71
45 76 0 6 5 10 10 10 6 0 15 11 20 25 5 14 14 25 20 25 5 0 10 6 10 14 0 8 7
16 15 20 8 3 15 11 15 18 0 8 8 21 18 30 9 8 24 25 32 36 16 21 59 74 123 149
21 25 57 61 80 80 23 20 46 42 50 50 5 8 20 18 34 24 17 6 23 14 19 25 -3 9
-2 12 4 9 6 -4 23 5 38 18 80 72 110 97 120 97 6 0 26 14 44 30 18 17 38 30
45 30 6 0 16 6 20 13 4 7 19 18 33 25 14 6 32 16 40 21 8 6 34 18 58 27 23 10
42 21 42 26 0 4 13 8 29 8 37 0 48 16 21 30 -11 6 -20 18 -20 28 0 10 3 13 8
6 21 -32 82 -43 102 -19 7 8 25 15 39 15 15 0 36 7 47 15 10 8 34 15 52 15 19
0 48 7 65 15 57 26 147 23 147 -6z m4750 -114 c0 -8 -4 -15 -10 -15 -5 0 -10
7 -10 15 0 8 5 15 10 15 6 0 10 -7 10 -15z m229 -11 c16 -20 18 -31 10 -45
-11 -21 -49 -25 -67 -7 -13 13 -16 60 -5 71 14 15 42 6 62 -19z m-3872 -71
c-3 -3 -11 -2 -17 2 -9 6 -9 10 1 16 14 8 27 -7 16 -18z m3993 -104 c0 -5 -9
-9 -20 -9 -11 0 -20 6 -20 14 0 9 7 12 20 9 11 -3 20 -9 20 -14z m-3780 -9 c0
-5 -7 -10 -15 -10 -8 0 -15 5 -15 10 0 6 7 10 15 10 8 0 15 -4 15 -10z m-5304
-15 c4 -9 20 -15 43 -15 20 0 45 -7 55 -15 11 -8 27 -15 37 -15 9 0 19 -7 23
-15 3 -8 12 -15 21 -15 18 0 23 -4 104 -80 32 -30 61 -63 64 -72 4 -10 11 -18
17 -18 5 0 10 -9 10 -20 0 -11 7 -23 15 -26 8 -4 15 -16 15 -29 0 -13 6 -25
13 -28 15 -6 43 -84 33 -94 -6 -6 -32 6 -94 41 -13 7 -35 24 -50 38 -15 13
-51 42 -79 63 -29 22 -53 43 -53 47 0 4 -6 8 -13 8 -8 0 -45 26 -83 58 -106
88 -151 122 -162 122 -15 0 -44 50 -38 66 8 20 114 20 122 -1z m-1096 -241 c0
-23 -31 -64 -47 -64 -13 0 -37 -11 -93 -41 -8 -4 -48 -25 -88 -46 -40 -20 -78
-43 -84 -50 -6 -7 -18 -13 -27 -13 -9 0 -22 -5 -28 -11 -12 -12 -31 -23 -93
-56 -105 -56 -156 -86 -165 -97 -16 -19 -81 -56 -99 -56 -10 0 -16 8 -16 24 0
29 160 192 255 261 33 24 68 51 78 60 9 8 24 15 32 15 7 0 18 6 22 13 20 30
134 64 263 76 74 7 90 5 90 -15z m255 -30 c22 -9 53 -22 68 -30 16 -8 33 -14
39 -14 5 0 30 -14 55 -31 25 -16 52 -28 59 -25 8 3 14 0 14 -7 0 -7 12 -18 28
-25 51 -23 82 -43 82 -53 0 -5 5 -9 12 -9 6 0 36 -19 67 -42 31 -24 64 -41 74
-40 13 3 17 -2 15 -15 -2 -14 3 -18 23 -18 20 0 25 -4 21 -17 -3 -12 1 -18 12
-18 9 0 16 -4 16 -8 0 -4 24 -25 53 -47 28 -21 57 -45 64 -53 10 -12 15 -13
28 -2 8 7 16 9 16 4 1 -5 2 -14 3 -21 1 -13 77 -73 124 -97 17 -9 32 -21 32
-27 0 -5 8 -13 18 -16 9 -4 22 -11 27 -15 34 -28 105 -78 110 -78 3 0 41 -27
83 -59 145 -111 294 -284 267 -309 -4 -4 -10 -1 -12 6 -3 6 -10 12 -17 12 -20
0 -80 32 -89 47 -4 7 -17 13 -27 13 -10 0 -21 4 -24 9 -9 15 -85 51 -106 51
-11 0 -20 4 -20 10 0 5 -11 12 -25 16 -14 3 -25 10 -25 15 0 5 -11 14 -25 19
-14 5 -25 14 -25 20 0 5 -4 10 -9 10 -6 0 -30 14 -54 30 -25 17 -49 30 -55 30
-5 0 -15 7 -22 15 -7 8 -21 15 -30 15 -10 0 -20 4 -22 8 -4 10 -151 82 -168
82 -6 0 -18 7 -26 15 -9 8 -29 15 -45 15 -17 0 -37 7 -45 15 -9 8 -27 15 -42
15 -15 0 -45 7 -67 15 -22 8 -63 14 -91 15 -28 0 -76 5 -107 11 -43 9 -71 9
-118 0 -34 -7 -111 -12 -170 -12 -59 1 -119 -3 -133 -9 -14 -5 -65 -14 -113
-20 -49 -6 -92 -15 -98 -21 -5 -5 -26 -9 -47 -9 -20 0 -52 -6 -70 -14 -18 -8
-64 -24 -103 -36 -38 -13 -79 -27 -90 -33 -11 -6 -29 -10 -41 -8 -11 1 -27 -5
-34 -13 -7 -9 -20 -16 -30 -16 -22 0 -107 -37 -115 -50 -3 -6 -14 -10 -24 -10
-10 0 -24 -7 -31 -15 -7 -8 -19 -15 -27 -15 -8 0 -30 -12 -49 -27 -26 -20 -32
-28 -22 -35 9 -6 6 -7 -9 -3 -25 7 -83 -30 -83 -52 0 -7 -8 -13 -18 -13 -10 0
-32 -15 -50 -33 -25 -26 -29 -36 -20 -45 9 -9 9 -12 0 -12 -7 0 -12 5 -12 10
0 22 -30 8 -50 -24 -11 -19 -24 -36 -28 -38 -16 -7 -132 -183 -132 -201 0 -8
-7 -17 -15 -21 -8 -3 -15 -17 -15 -31 0 -15 -7 -33 -15 -41 -8 -9 -15 -26 -15
-38 0 -13 -7 -40 -15 -59 -21 -51 -21 -362 -1 -412 8 -19 18 -55 21 -80 4 -25
11 -48 16 -51 5 -3 9 -15 9 -28 0 -12 7 -31 15 -42 8 -10 15 -31 15 -45 0 -15
7 -32 15 -39 19 -16 19 -106 0 -140 -8 -14 -14 -42 -15 -63 0 -21 -7 -53 -15
-73 -8 -19 -14 -49 -13 -67 1 -40 -12 -99 -20 -95 -4 2 -19 10 -34 17 -18 9
-28 24 -33 48 -7 36 -9 43 -38 101 -9 19 -17 46 -17 62 0 15 -7 33 -15 40 -8
7 -15 27 -15 44 0 18 -7 41 -15 52 -8 10 -15 37 -15 59 0 22 -8 58 -18 80 -16
35 -18 70 -17 286 1 212 4 249 18 270 9 13 17 39 17 59 0 19 7 44 15 54 8 11
15 30 15 42 0 12 7 27 15 34 8 7 15 20 15 29 0 31 110 252 175 351 38 58 53
82 61 100 4 8 18 29 31 46 13 17 23 35 23 40 1 16 43 58 110 108 36 27 70 54
75 60 6 6 27 20 48 31 21 11 53 35 70 52 18 18 35 33 39 33 8 0 109 60 118 69
8 9 43 30 68 41 12 5 22 14 22 20 0 5 6 10 14 10 8 0 21 6 28 13 7 7 20 16 28
20 8 4 29 16 45 27 17 10 49 29 73 42 51 26 60 37 41 49 -9 6 0 9 27 9 28 0
44 5 48 15 3 8 15 15 26 15 11 0 20 6 20 14 0 8 11 14 27 14 15 0 29 5 31 11
2 6 10 11 19 11 8 0 26 9 40 20 14 11 31 20 39 20 7 0 14 3 16 8 2 4 38 25 81
46 42 21 80 42 83 47 3 5 13 9 22 9 9 0 24 5 32 10 13 9 13 11 0 21 -19 13 16
5 75 -17z m1025 -64 c0 -12 -28 -25 -36 -17 -9 9 6 27 22 27 8 0 14 -5 14 -10z
m-2490 -28 c0 -13 -12 -22 -22 -16 -10 6 -1 24 13 24 5 0 9 -4 9 -8z m9291
-15 c-13 -13 -26 -3 -16 12 3 6 11 8 17 5 6 -4 6 -10 -1 -17z m-4440 -74 c-9
-16 -10 -14 -11 12 0 21 3 26 11 18 8 -8 8 -16 0 -30z m144 27 c3 -5 -3 -10
-15 -10 -12 0 -18 5 -15 10 3 6 10 10 15 10 5 0 12 -4 15 -10z m4424 -47 c-7
-10 -15 -20 -16 -22 -2 -2 -3 5 -3 17 0 14 6 22 16 22 14 0 15 -3 3 -17z
m-2888 -159 c32 -34 153 -124 168 -124 6 0 11 -6 11 -14 0 -7 12 -22 27 -32
15 -9 49 -38 75 -62 38 -35 46 -48 37 -58 -15 -19 -83 -18 -99 1 -7 8 -27 15
-44 15 -17 1 -42 7 -56 15 -14 8 -40 14 -58 15 -18 0 -44 7 -57 16 -18 12 -40
15 -80 12 -41 -4 -55 -1 -55 9 0 7 -7 13 -15 13 -9 0 -18 7 -21 15 -6 16 16
75 28 75 5 0 8 7 8 16 0 8 18 33 40 54 22 21 40 43 40 49 0 19 26 12 51 -15z
m-6193 -106 c7 -7 12 -16 12 -20 0 -15 -15 -8 -28 12 -13 22 -3 27 16 8z m102
2 c0 -13 -11 -13 -30 0 -12 8 -11 10 8 10 12 0 22 -4 22 -10z m6450 -25 c0 -3
-9 -5 -20 -5 -11 0 -20 7 -20 15 0 13 4 14 20 5 11 -6 20 -13 20 -15z m-4490
-61 c0 -17 -22 -14 -28 4 -2 7 3 12 12 12 9 0 16 -7 16 -16z m-2290 -154 c0
-11 -4 -20 -9 -20 -14 0 -23 18 -16 30 10 17 25 11 25 -10z m4510 -25 c0 -8
-4 -15 -10 -15 -5 0 -10 7 -10 15 0 8 5 15 10 15 6 0 10 -7 10 -15z m-4140
-180 c0 -8 -4 -15 -10 -15 -5 0 -10 7 -10 15 0 8 5 15 10 15 6 0 10 -7 10 -15z
m2170 -155 c-19 -13 -30 -13 -30 0 0 6 10 10 23 10 18 0 19 -2 7 -10z m-2480
-100 c0 -11 -4 -20 -10 -20 -5 0 -10 2 -10 4 0 2 -3 11 -6 20 -4 11 -1 16 10
16 9 0 16 -8 16 -20z m600 -111 c13 -24 13 -29 -4 -29 -17 0 -178 -127 -248
-196 -20 -20 -48 -12 -48 14 0 27 23 72 37 72 7 0 16 6 20 14 9 17 107 96 119
96 4 0 16 7 26 17 46 42 80 46 98 12z m5351 -10 c12 -6 48 -11 82 -12 38 -1
66 -7 72 -15 6 -7 31 -16 55 -19 25 -3 54 -12 65 -19 11 -8 34 -14 52 -14 17
0 34 -4 37 -9 3 -5 23 -12 43 -15 21 -4 57 -14 80 -23 23 -8 55 -13 72 -11 21
3 28 1 24 -9 -3 -7 0 -20 7 -29 22 -26 -2 -36 -107 -44 -55 -4 -109 -13 -121
-19 -11 -6 -29 -11 -40 -11 -11 0 -25 -7 -32 -15 -7 -8 -21 -15 -32 -15 -10 0
-21 -7 -24 -15 -4 -8 -10 -15 -15 -15 -8 0 -44 -25 -132 -91 -27 -21 -116
-112 -195 -199 -54 -61 -106 -134 -137 -195 -14 -27 -37 -68 -50 -90 -13 -22
-24 -46 -25 -54 0 -8 -20 -34 -45 -58 -25 -23 -45 -45 -45 -49 0 -3 -13 -23
-30 -44 -16 -21 -30 -41 -30 -44 0 -4 -13 -34 -30 -68 -16 -33 -30 -68 -30
-77 0 -9 -7 -27 -16 -39 -9 -14 -14 -36 -12 -52 3 -16 0 -26 -5 -23 -13 8 -27
-16 -27 -47 0 -14 -7 -34 -15 -44 -8 -11 -15 -35 -15 -53 0 -18 -4 -33 -10
-33 -5 0 -12 -16 -16 -37 -4 -20 -13 -48 -20 -62 -8 -14 -14 -36 -14 -48 0
-12 -4 -24 -9 -27 -5 -3 -12 -22 -16 -43 -4 -20 -13 -46 -21 -57 -8 -11 -14
-30 -14 -41 0 -11 -7 -29 -15 -39 -8 -11 -15 -30 -15 -42 0 -12 -7 -35 -15
-50 -8 -16 -15 -36 -15 -45 0 -9 -7 -30 -15 -45 -8 -16 -15 -40 -15 -54 0 -14
-7 -34 -15 -44 -8 -11 -15 -34 -15 -50 0 -17 -7 -40 -15 -50 -8 -11 -15 -35
-15 -53 0 -18 -4 -41 -9 -51 -17 -31 -43 -116 -48 -157 -3 -22 -12 -49 -19
-60 -8 -11 -14 -35 -14 -55 -1 -19 -7 -46 -15 -60 -8 -14 -14 -39 -15 -56 0
-17 -7 -37 -16 -45 -11 -9 -15 -27 -12 -65 2 -35 -1 -50 -8 -47 -12 4 -24 -27
-24 -64 0 -12 -11 -39 -25 -59 -14 -20 -25 -43 -25 -50 0 -10 -7 -11 -30 -3
-29 11 -30 13 -30 74 0 34 7 79 15 98 10 25 15 71 15 145 0 63 4 112 11 119 5
5 14 73 19 149 9 140 27 246 45 274 19 29 97 179 109 210 3 8 10 22 15 30 26
46 41 80 41 94 0 9 4 16 10 16 5 0 13 12 16 28 4 15 13 35 22 44 8 10 12 28
10 43 -4 17 -1 25 9 25 7 0 16 8 19 18 8 23 22 59 44 107 43 95 51 117 46 131
-3 7 3 18 14 24 13 7 20 21 20 39 0 16 7 34 15 41 8 7 15 22 15 34 0 12 5 27
12 34 11 11 34 65 45 107 5 20 24 65 48 115 7 14 15 37 19 53 3 15 11 27 16
27 6 0 10 15 10 34 0 18 7 39 15 46 8 7 15 21 15 30 0 10 6 31 14 47 8 15 22
55 32 88 21 73 22 76 32 95 25 44 36 69 58 139 14 42 29 80 35 85 5 6 9 20 9
32 0 12 7 27 15 34 8 7 15 25 15 40 0 15 7 33 15 40 8 7 15 22 15 34 0 11 7
30 15 40 8 11 15 32 15 47 0 15 7 29 15 33 8 3 15 16 15 29 0 13 7 38 16 56 9
17 13 38 10 46 -3 9 0 12 8 9 9 -3 15 6 19 25 6 30 8 31 62 31 31 0 65 -5 76
-11z m-2501 -64 c0 -8 -4 -15 -10 -15 -5 0 -10 7 -10 15 0 8 5 15 10 15 6 0
10 -7 10 -15z m-4383 -87 c-2 -13 -4 -5 -4 17 -1 22 1 32 4 23 2 -10 2 -28 0
-40z m5527 -7 c3 -5 -5 -16 -19 -25 -14 -9 -25 -12 -25 -6 0 5 5 10 10 10 6 0
10 7 10 15 0 16 16 20 24 6z m-54 -66 c0 -8 -7 -15 -15 -15 -16 0 -20 12 -8
23 11 12 23 8 23 -8z m1130 -25 c0 -5 -7 -10 -15 -10 -8 0 -15 5 -15 10 0 6 7
10 15 10 8 0 15 -4 15 -10z m-3590 -120 c0 -5 -12 -10 -27 -10 -22 0 -25 2
-13 10 20 13 40 13 40 0z m35 -166 c73 -58 165 -153 246 -254 20 -25 53 -63
73 -85 21 -22 58 -64 84 -93 82 -93 105 -117 182 -183 100 -87 155 -129 169
-129 7 0 14 -7 17 -15 4 -8 12 -15 18 -15 15 0 56 -54 56 -75 0 -8 3 -15 8
-15 4 0 20 -25 37 -55 16 -30 33 -55 37 -55 4 0 8 -7 8 -16 0 -9 14 -39 30
-66 17 -26 30 -54 30 -61 0 -7 5 -18 11 -24 14 -14 35 -50 50 -85 6 -16 15
-28 19 -28 5 0 10 -12 12 -27 2 -20 8 -28 21 -27 13 2 16 -3 12 -17 -4 -10 1
-31 9 -46 13 -24 23 -46 50 -113 3 -8 17 -33 31 -55 13 -22 24 -48 25 -59 0
-13 5 -17 20 -13 16 4 18 1 14 -22 -5 -22 1 -35 25 -62 17 -18 31 -43 31 -56
0 -12 4 -33 10 -47 10 -28 2 -34 -18 -14 -9 9 -15 9 -24 0 -18 -18 -30 -14
-23 7 3 10 -1 24 -10 31 -8 7 -15 19 -15 27 0 11 -7 13 -25 9 -24 -6 -35 7
-15 19 12 7 -59 105 -77 105 -7 0 -10 6 -7 13 3 8 -38 57 -96 116 -55 56 -100
104 -100 107 0 5 -30 39 -93 106 -24 25 -57 71 -92 127 -5 9 -31 44 -57 78
-27 35 -48 65 -48 68 0 12 -142 200 -161 214 -10 7 -19 22 -19 32 0 11 -4 19
-8 19 -4 0 -16 15 -27 33 -20 34 -30 47 -57 78 -10 10 -18 23 -18 27 0 5 -13
22 -30 38 -16 16 -30 34 -30 39 0 9 -38 58 -75 96 -8 9 -15 20 -15 26 0 6 -22
34 -50 62 -27 28 -50 58 -50 66 0 9 -6 12 -15 9 -10 -4 -15 0 -15 13 0 11 -8
28 -18 39 -9 10 -25 32 -35 47 -10 16 -36 47 -57 70 -89 96 -103 120 -79 144
15 15 68 -8 124 -53z m1695 6 c5 0 31 -27 59 -61 47 -56 51 -65 51 -114 0 -61
-7 -69 -42 -53 -22 11 -50 57 -71 121 -4 9 -12 17 -19 17 -9 0 -14 18 -15 51
-3 43 0 50 13 45 9 -3 19 -6 24 -6z m-1380 -130 c0 -5 -4 -10 -9 -10 -13 0
-41 41 -35 51 6 10 44 -26 44 -41z m1345 -48 c-6 -7 -35 18 -35 31 0 5 9 2 20
-8 11 -10 18 -20 15 -23z m37 -64 c-9 -9 -12 -7 -12 12 0 19 3 21 12 12 9 -9
9 -15 0 -24z m-1562 -129 c0 -11 -4 -17 -10 -14 -5 3 -10 13 -10 21 0 8 5 14
10 14 6 0 10 -9 10 -21z m3150 -131 c0 -16 -3 -19 -11 -11 -6 6 -8 16 -5 22
11 17 16 13 16 -11z m-6399 -61 c3 -21 11 -43 18 -50 6 -6 11 -30 11 -53 0
-25 6 -47 15 -54 8 -7 15 -27 15 -44 0 -18 7 -41 15 -52 8 -10 15 -29 15 -41
0 -12 7 -28 15 -37 8 -8 15 -26 15 -41 0 -14 7 -28 15 -31 8 -4 15 -13 15 -22
0 -30 147 -316 171 -332 4 -3 11 -18 14 -33 4 -15 11 -30 16 -33 5 -3 9 -23 9
-44 0 -21 7 -45 15 -54 8 -8 15 -21 15 -29 0 -13 33 -82 60 -127 5 -8 17 -34
26 -57 10 -24 21 -43 24 -43 4 0 15 -19 26 -42 10 -24 24 -47 31 -51 7 -4 13
-16 13 -25 1 -20 44 -72 60 -72 6 0 10 -8 9 -17 -4 -25 143 -243 163 -243 4 0
8 -6 8 -13 0 -7 14 -27 30 -45 17 -18 30 -37 30 -43 0 -5 8 -17 18 -28 33 -35
72 -83 72 -90 0 -3 14 -19 31 -36 17 -16 47 -52 67 -78 31 -40 38 -45 48 -32
17 23 24 18 18 -12 -4 -23 5 -41 53 -100 32 -39 69 -86 83 -105 14 -18 35 -42
48 -54 12 -12 22 -27 22 -33 0 -7 8 -11 18 -9 11 2 16 -3 14 -13 -1 -9 9 -28
23 -43 14 -15 25 -30 25 -34 0 -4 8 -15 18 -24 9 -9 22 -23 27 -30 6 -7 30
-40 55 -73 25 -33 68 -90 97 -126 29 -36 53 -69 53 -74 0 -4 10 -15 23 -25 22
-19 22 -19 2 -34 -26 -20 -65 -21 -65 -2 0 8 -8 17 -17 20 -10 3 -29 16 -43
28 -38 34 -88 68 -100 68 -5 0 -10 5 -10 10 0 6 -7 13 -16 17 -9 3 -30 19 -47
35 -24 21 -38 27 -56 23 -20 -5 -23 -4 -13 8 10 12 8 18 -12 31 -14 9 -33 24
-43 34 -10 10 -38 33 -63 52 -25 19 -47 37 -50 41 -3 3 -12 10 -22 15 -50 28
-380 350 -492 481 -109 126 -116 135 -116 144 0 13 -14 11 -29 -3 -11 -11 -13
-9 -8 11 3 14 1 31 -6 39 -6 8 -16 22 -22 31 -5 10 -32 51 -60 92 -27 41 -53
81 -58 89 -4 8 -16 29 -27 45 -11 17 -22 36 -25 43 -3 6 -7 18 -10 25 -3 6
-14 26 -25 42 -22 34 -40 72 -40 86 0 5 -4 9 -10 9 -5 0 -10 9 -10 19 0 11 -7
26 -15 35 -8 8 -15 22 -15 31 0 9 -6 29 -14 43 -24 47 -43 96 -50 129 -4 18
-12 35 -17 38 -5 4 -9 19 -9 34 0 15 -7 36 -15 47 -8 10 -15 30 -15 44 0 14
-6 37 -14 51 -7 14 -17 51 -20 82 -4 31 -12 59 -17 62 -5 4 -9 24 -9 45 0 22
-6 59 -14 82 -23 74 -39 349 -26 453 15 113 16 117 37 113 12 -2 20 -16 24
-41z m3917 -98 c-2 -6 -8 -10 -13 -10 -5 0 -11 4 -13 10 -2 6 4 11 13 11 9 0
15 -5 13 -11z m-508 -20 c0 -5 -7 -9 -15 -9 -15 0 -20 12 -9 23 8 8 24 -1 24
-14z m3090 -34 c0 -8 -7 -15 -15 -15 -8 0 -15 7 -15 15 0 8 7 15 15 15 8 0 15
-7 15 -15z m-6153 -311 c-9 -9 -28 6 -21 18 4 6 10 6 17 -1 6 -6 8 -13 4 -17z
m-61 -60 c-3 -9 -6 -18 -6 -20 0 -2 -4 -4 -9 -4 -5 0 -7 9 -4 20 3 11 10 20
15 20 6 0 7 -7 4 -16z m7754 -86 c0 -13 7 -36 15 -52 8 -15 15 -36 15 -45 0
-9 7 -29 15 -45 8 -15 15 -37 15 -48 0 -10 6 -31 14 -47 8 -15 17 -56 20 -92
3 -35 3 -58 0 -51 -3 6 -14 12 -24 12 -26 0 -64 57 -62 92 2 18 -3 31 -13 34
-8 4 -15 14 -15 24 0 10 -7 23 -15 30 -8 7 -15 18 -15 25 0 7 -7 18 -15 25
-23 19 -20 101 6 134 26 33 59 35 59 4z m82 -53 c0 -5 -5 -11 -11 -13 -6 -2
-11 4 -11 13 0 9 5 15 11 13 6 -2 11 -8 11 -13z m48 -67 c0 -13 -23 -5 -28 10
-2 7 2 10 12 6 9 -3 16 -11 16 -16z m-245 -107 c7 -12 -12 -24 -25 -16 -11 7
-4 25 10 25 5 0 11 -4 15 -9z m-1679 -128 c-11 -11 -19 6 -11 24 8 17 8 17 12
0 3 -10 2 -21 -1 -24z m-5686 2 c0 -8 -4 -15 -10 -15 -5 0 -10 7 -10 15 0 8 5
15 10 15 6 0 10 -7 10 -15z m-549 -32 c-9 -16 -10 -14 -11 12 0 21 3 26 11 18
8 -8 8 -16 0 -30z m467 -13 c9 0 30 -18 47 -40 16 -23 35 -38 42 -36 7 3 10
-1 7 -9 -6 -16 127 -149 295 -296 67 -58 121 -136 121 -174 0 -6 8 -22 17 -35
10 -14 16 -32 15 -41 -2 -9 4 -22 13 -29 8 -7 15 -19 15 -26 0 -16 39 -92 51
-100 5 -3 9 -13 9 -23 0 -10 7 -24 15 -31 17 -14 19 -38 6 -59 -7 -12 -14 -10
-37 8 -15 12 -38 36 -50 54 -74 101 -144 187 -154 187 -6 0 -10 5 -10 10 0 13
-72 110 -81 110 -4 0 -6 -6 -5 -14 0 -8 -3 -14 -9 -13 -5 1 -8 7 -6 12 10 26
5 50 -10 49 -10 -1 -15 5 -12 15 2 9 -22 48 -57 90 -33 41 -60 80 -60 88 0 7
-7 16 -15 19 -8 4 -15 11 -15 16 0 5 -19 35 -43 66 -24 31 -52 73 -63 92 -10
19 -24 42 -30 50 -6 8 -14 33 -17 55 -3 22 -3 32 -1 23 3 -10 13 -18 22 -18z
m5580 -582 c-6 -18 -28 -21 -28 -4 0 9 7 16 16 16 9 0 14 -5 12 -12z m-5635
-185 c-7 -2 -13 -11 -13 -19 0 -8 -4 -14 -10 -14 -5 0 -10 4 -10 8 0 12 22 32
35 31 5 0 4 -3 -2 -6z m5048 -606 c-6 -6 -11 -19 -11 -29 0 -14 -8 -18 -35
-18 -30 0 -35 3 -35 23 0 31 1 32 50 34 31 1 39 -2 31 -10z m-4343 -108 c-2
-6 -8 -10 -13 -10 -5 0 -11 4 -13 10 -2 6 4 11 13 11 9 0 15 -5 13 -11z m555
-145 c11 -11 -3 -24 -18 -18 -8 4 -12 10 -9 15 6 11 18 12 27 3z m-284 -81
c-8 -9 -16 -10 -22 -4 -13 13 0 31 19 24 11 -4 12 -8 3 -20z m340 -162 c8 -5
9 -11 3 -15 -14 -8 -43 4 -36 15 7 11 15 11 33 0z m7 -128 c-11 -11 -17 4 -9
23 7 18 8 18 11 1 2 -10 1 -21 -2 -24z m464 -332 c0 -11 -4 -22 -9 -25 -11 -7
-23 22 -15 35 9 16 24 10 24 -10z m240 -201 c0 -5 -7 -10 -15 -10 -8 0 -15 5
-15 10 0 6 7 10 15 10 8 0 15 -4 15 -10z m225 0 c3 -5 -3 -10 -15 -10 -12 0
-18 5 -15 10 3 6 10 10 15 10 5 0 12 -4 15 -10z m-242 -48 c30 -16 45 -27 82
-59 7 -7 21 -13 29 -13 9 0 16 -7 16 -15 0 -9 8 -19 18 -22 9 -4 19 -10 22
-13 12 -16 121 -100 130 -100 5 0 14 -9 20 -20 6 -11 15 -20 21 -20 6 0 13 9
16 20 3 11 10 20 15 20 6 0 7 -8 3 -17 -20 -48 -19 -56 4 -50 17 4 21 2 17 -9
-3 -8 1 -17 9 -20 8 -4 15 -10 15 -15 0 -5 8 -17 18 -27 18 -19 63 -73 99
-119 12 -15 38 -46 57 -68 20 -22 36 -46 36 -52 0 -7 9 -13 19 -13 13 0 18 -5
15 -18 -3 -10 7 -29 25 -46 17 -17 31 -35 31 -41 0 -7 13 -25 30 -41 16 -16
30 -33 30 -37 0 -5 15 -27 33 -50 19 -23 41 -59 51 -79 9 -21 23 -38 31 -38
20 0 7 -80 -18 -107 -30 -33 -77 -30 -102 6 -11 16 -47 58 -80 93 -33 36 -78
87 -100 113 -22 27 -47 56 -55 65 -8 8 -33 38 -55 65 -22 28 -42 52 -45 55 -3
3 -34 43 -70 90 -35 47 -75 93 -87 103 -13 10 -23 25 -23 33 0 8 -8 22 -17 32
-33 32 -83 100 -83 110 0 18 -22 25 -32 11 -6 -10 -7 -7 -3 9 5 17 -1 30 -24
54 -17 18 -31 37 -31 42 0 10 -29 48 -74 99 -9 9 -16 24 -16 32 0 7 -6 18 -14
22 -7 4 -18 18 -25 31 -10 19 -9 22 9 22 11 0 35 -8 53 -18z m484 -268 c-10
-10 -37 16 -37 34 0 13 4 12 22 -5 12 -13 19 -25 15 -29z m204 -275 c9 -18 9
-19 -10 -7 -12 7 -21 19 -21 26 0 17 17 7 31 -19z m-207 -243 c15 -5 17 -9 7
-19 -10 -9 -15 -8 -27 7 -8 11 -14 25 -14 30 0 8 3 8 8 0 4 -6 16 -14 26 -18z
m5856 -101 c0 -8 -4 -15 -10 -15 -5 0 -10 7 -10 15 0 8 5 15 10 15 6 0 10 -7
10 -15z m-5360 -113 c0 -13 -12 -22 -22 -16 -10 6 -1 24 13 24 5 0 9 -4 9 -8z
m260 -463 c0 -11 -4 -17 -10 -14 -5 3 -10 13 -10 21 0 8 5 14 10 14 6 0 10 -9
10 -21z m-330 -49 c0 -5 -9 -14 -20 -20 -15 -8 -20 -8 -20 3 0 8 3 17 7 20 10
10 33 8 33 -3z m1280 -178 c30 -32 71 -77 90 -101 19 -23 45 -54 58 -69 13
-15 33 -40 45 -55 12 -16 43 -55 70 -88 26 -33 47 -65 47 -70 0 -5 6 -9 13 -9
19 0 14 -88 -7 -128 -9 -17 -16 -40 -16 -51 0 -25 -14 -34 -40 -26 -25 8 -89
96 -101 140 -6 19 -14 35 -19 35 -6 0 -10 9 -10 20 0 17 -30 76 -71 140 -5 8
-15 27 -22 43 -6 15 -17 25 -23 23 -18 -7 -25 5 -13 21 9 10 8 18 -5 31 -9 10
-16 24 -16 31 0 7 -14 30 -30 51 -36 45 -50 98 -29 111 21 13 20 13 79 -49z
m3610 22 c-18 -5 -40 -49 -40 -81 0 -13 -5 -23 -10 -23 -6 0 -15 -10 -20 -22
-6 -13 -19 -36 -29 -53 -11 -16 -20 -39 -20 -50 -1 -11 -10 -28 -21 -38 -11
-9 -20 -24 -20 -32 0 -8 -4 -15 -10 -15 -12 0 -84 -149 -76 -157 3 -4 -3 -12
-14 -20 -11 -8 -20 -19 -20 -24 0 -6 -7 -17 -15 -25 -8 -9 -15 -24 -15 -35 0
-10 -4 -19 -9 -19 -4 0 -20 -28 -35 -62 -31 -71 -30 -70 -71 -129 -17 -24 -41
-64 -53 -89 -13 -25 -27 -52 -32 -60 -5 -8 -11 -22 -14 -30 -4 -8 -15 -28 -26
-45 -10 -16 -31 -52 -45 -80 -14 -27 -48 -90 -75 -140 -27 -49 -59 -110 -72
-135 -13 -25 -25 -47 -28 -50 -3 -3 -11 -16 -18 -30 -20 -39 -37 -66 -51 -84
-8 -9 -11 -26 -7 -41 5 -21 3 -25 -11 -23 -12 2 -19 -4 -21 -19 -2 -12 -10
-27 -18 -33 -8 -7 -14 -20 -14 -30 0 -10 -7 -20 -15 -24 -8 -3 -15 -14 -15
-24 0 -11 -7 -25 -15 -32 -8 -7 -15 -18 -15 -25 0 -7 -7 -18 -15 -25 -8 -7
-15 -21 -15 -31 0 -11 -4 -19 -9 -19 -5 0 -12 -13 -16 -29 -3 -16 -13 -32 -21
-35 -8 -3 -14 -12 -14 -19 0 -8 -7 -20 -15 -27 -8 -7 -15 -23 -15 -35 0 -18
-7 -24 -31 -27 l-31 -5 7 164 c4 101 11 179 20 204 8 23 15 52 15 64 0 12 7
28 15 35 8 7 15 22 15 34 0 11 7 30 15 40 8 11 15 30 15 42 0 12 7 27 15 34 8
7 15 27 15 45 0 20 6 35 15 39 8 3 15 14 15 25 0 11 7 32 14 48 8 15 17 35 20
43 3 8 10 22 15 30 17 27 41 88 41 103 0 8 7 20 16 28 11 9 14 25 11 53 -2 23
-2 33 0 23 7 -27 33 -2 33 31 0 14 11 40 25 58 14 18 25 37 25 43 0 5 8 9 18
8 41 -3 252 161 252 197 0 7 9 21 20 31 11 10 20 24 20 32 0 7 4 13 10 13 5 0
13 12 16 28 4 15 13 36 20 47 8 11 14 45 14 78 0 59 12 97 31 97 16 0 139 112
139 127 0 7 9 13 20 13 13 0 18 5 14 15 -4 8 -1 15 6 15 14 0 90 75 90 89 0
20 78 59 120 59 13 0 13 -1 0 -4z m-5540 -218 c0 -8 -4 -18 -10 -21 -5 -3 -10
3 -10 14 0 12 5 21 10 21 6 0 10 -6 10 -14z m5446 -173 c-11 -11 -19 6 -11 24
8 17 8 17 12 0 3 -10 2 -21 -1 -24z m-5900 -404 c8 -14 -11 -33 -25 -25 -11 7
-4 36 9 36 5 0 12 -5 16 -11z m-26 -123 c0 -17 -14 -29 -23 -20 -8 8 3 34 14
34 5 0 9 -6 9 -14z m2055 -7 c4 -6 5 -12 2 -15 -7 -7 -37 7 -37 17 0 13 27 11
35 -2z m-2265 -70 c0 -5 -7 -9 -15 -9 -15 0 -20 12 -9 23 8 8 24 -1 24 -14z
m-330 -324 c0 -8 -7 -15 -15 -15 -8 0 -15 7 -15 15 0 8 7 15 15 15 8 0 15 -7
15 -15z m4724 -14 c12 -13 14 -21 6 -26 -7 -4 -9 -19 -5 -36 5 -23 4 -28 -8
-23 -10 4 -16 -5 -21 -30 -4 -19 -13 -48 -21 -63 -8 -15 -15 -43 -15 -60 0
-18 -4 -33 -10 -33 -5 0 -12 -17 -15 -37 -4 -21 -13 -55 -21 -76 -8 -20 -14
-52 -14 -71 0 -18 -6 -46 -14 -62 -9 -18 -14 -56 -13 -97 2 -46 -2 -67 -10
-67 -13 0 -28 -60 -21 -82 3 -8 12 -1 23 17 24 38 55 64 78 65 20 0 21 -9 18
-210 -1 -74 3 -157 9 -185 6 -27 14 -62 17 -77 7 -34 124 -158 150 -158 11 0
33 -6 49 -14 45 -23 178 -11 196 18 13 21 17 -1 9 -51 -4 -28 -15 -59 -24 -68
-10 -9 -17 -25 -17 -35 0 -10 -7 -31 -15 -47 -8 -15 -26 -55 -40 -88 -14 -33
-34 -77 -45 -97 -11 -20 -20 -43 -20 -49 0 -14 -49 -69 -62 -69 -4 0 -8 7 -8
15 0 8 -9 24 -20 35 -11 11 -20 28 -20 38 0 10 -14 33 -32 52 -18 19 -31 42
-29 49 1 8 -4 20 -13 27 -9 6 -14 18 -10 27 6 18 71 28 97 15 32 -16 18 10
-25 50 -24 22 -61 56 -83 76 -22 20 -52 42 -67 49 -16 6 -28 17 -28 24 0 6 -9
14 -19 18 -11 3 -22 12 -25 21 -4 10 -13 13 -33 8 -26 -7 -27 -6 -13 10 12 16
12 20 -1 30 -21 16 -79 92 -79 104 0 6 -4 12 -9 14 -14 5 -58 67 -81 114 -10
22 -28 49 -40 59 -31 28 -26 71 14 115 44 49 89 138 83 167 -3 14 1 23 8 23
15 0 25 31 25 76 0 18 7 45 15 60 8 16 15 50 15 75 0 26 7 60 15 75 8 16 15
43 15 60 0 18 7 45 15 60 8 16 15 41 15 57 0 15 4 27 10 27 5 0 13 12 16 28 8
31 58 116 87 150 25 27 39 28 61 3z m-114 -10 c0 -11 -31 -24 -39 -16 -3 3 1
10 9 15 19 12 30 12 30 1z m-1410 -101 c0 -13 -11 -13 -30 0 -12 8 -11 10 8
10 12 0 22 -4 22 -10z m1094 -91 c-8 -14 -24 -10 -24 6 0 9 6 12 15 9 8 -4 12
-10 9 -15z m60 -45 c11 -28 6 -101 -9 -144 -8 -23 -15 -66 -15 -96 0 -29 -4
-55 -9 -58 -5 -4 -12 -29 -16 -56 -4 -28 -11 -50 -15 -50 -5 0 -12 -15 -16
-34 -3 -19 -12 -37 -20 -40 -8 -3 -14 -12 -14 -21 0 -32 -67 -14 -81 22 -6 15
-15 23 -23 20 -10 -4 -12 0 -9 14 3 11 -1 21 -11 25 -9 3 -16 12 -16 20 0 7
-9 18 -20 24 -11 6 -20 14 -20 19 0 5 -20 45 -45 90 -54 97 -56 118 -15 132
17 6 30 17 30 25 0 10 8 12 30 8 19 -4 38 -1 55 10 13 9 31 16 40 16 18 0 77
27 140 64 49 29 51 30 59 10z m-4754 -205 c0 -11 -4 -17 -10 -14 -5 3 -10 13
-10 21 0 8 5 14 10 14 6 0 10 -9 10 -21z m4800 -179 c0 -11 -7 -20 -15 -20
-15 0 -21 21 -8 33 12 13 23 7 23 -13z m1308 -24 c3 -12 -1 -17 -10 -14 -7 3
-15 13 -16 22 -3 12 1 17 10 14 7 -3 15 -13 16 -22z m-142 -33 c-11 -11 -19 6
-11 24 8 17 8 17 12 0 3 -10 2 -21 -1 -24z m-194 -67 c19 -28 -11 -156 -36
-156 -5 0 -18 -7 -28 -16 -16 -16 -18 -15 -24 0 -4 9 -1 43 6 76 7 32 9 63 5
70 -11 18 25 51 49 44 12 -4 24 -12 28 -18z m148 16 c0 -13 -12 -22 -22 -16
-10 6 -1 24 13 24 5 0 9 -4 9 -8z m-6340 -327 c0 -8 -4 -15 -9 -15 -13 0 -22
16 -14 24 11 11 23 6 23 -9z m135 5 c3 -5 -3 -10 -15 -10 -12 0 -18 5 -15 10
3 6 10 10 15 10 5 0 12 -4 15 -10z m-57 -37 c2 -8 -6 -13 -22 -13 -25 0 -33
10 -19 24 10 10 36 3 41 -11z m-398 -238 c0 -8 -7 -15 -15 -15 -8 0 -15 7 -15
15 0 8 7 15 15 15 8 0 15 -7 15 -15z m-592 -122 c-10 -2 -26 -2 -35 0 -10 3
-2 5 17 5 19 0 27 -2 18 -5z m6952 -51 c0 -13 -12 -22 -22 -16 -10 6 -1 24 13
24 5 0 9 -4 9 -8z m-475 -211 c7 -12 -12 -24 -25 -16 -11 7 -4 25 10 25 5 0
11 -4 15 -9z m232 -17 c-9 -9 -28 6 -21 18 4 6 10 6 17 -1 6 -6 8 -13 4 -17z
m143 -30 c0 -12 -4 -12 -20 -2 -13 8 -16 15 -8 19 15 10 28 2 28 -17z m-7482
-5 c12 -19 11 -20 -10 -17 -12 2 -24 11 -26 21 -5 24 20 21 36 -4z m582 -25
c0 -8 14 -20 30 -25 33 -12 34 -16 20 -53 -11 -31 -27 -32 -57 -7 -24 20 -31
55 -13 66 5 3 7 12 3 20 -3 8 0 15 6 15 6 0 11 -7 11 -16z m265 -106 c33 -15
30 -50 -5 -58 -55 -14 -78 14 -43 52 19 21 16 21 48 6z m-587 -89 c-2 -6 -8
-10 -13 -10 -5 0 -11 4 -13 10 -2 6 4 11 13 11 9 0 15 -5 13 -11z m6751 -38
c6 -10 24 -23 39 -29 41 -14 51 -56 21 -88 -32 -35 -51 -30 -77 20 -19 34 -21
48 -13 64 14 26 6 32 -43 33 l-41 2 35 7 c58 12 69 11 79 -9z m-7444 -91 c-5
-8 -11 -8 -17 -2 -6 6 -7 16 -3 22 5 8 11 8 17 2 6 -6 7 -16 3 -22z m7405 -45
c0 -8 -4 -15 -10 -15 -5 0 -10 7 -10 15 0 8 5 15 10 15 6 0 10 -7 10 -15z
m237 -21 c-9 -9 -28 6 -21 18 4 6 10 6 17 -1 6 -6 8 -13 4 -17z m-85 -106 c-9
-9 -12 -7 -12 12 0 19 3 21 12 12 9 -9 9 -15 0 -24z m-92 -58 c0 -5 -9 -10
-21 -10 -11 0 -17 5 -14 10 3 6 13 10 21 10 8 0 14 -4 14 -10z"/>
<path d="M14943 16323 c9 -2 25 -2 35 0 9 3 1 5 -18 5 -19 0 -27 -2 -17 -5z"/>
<path d="M14695 16260 c-4 -6 6 -7 27 -3 44 8 48 13 10 13 -17 0 -34 -4 -37
-10z"/>
<path d="M14433 16203 c9 -2 25 -2 35 0 9 3 1 5 -18 5 -19 0 -27 -2 -17 -5z"/>
<path d="M14280 16170 c-11 -7 -7 -10 17 -10 17 0 35 5 38 10 8 13 -35 13 -55
0z"/>
<path d="M13432 15701 c4 -13 18 -16 19 -4 0 4 -5 9 -11 12 -7 2 -11 -2 -8 -8z"/>
</g>
</svg>
