<svg width="347" height="351" viewBox="0 0 347 351" fill="none" xmlns="http://www.w3.org/2000/svg">
<path d="M146.625 196.437C153.025 201.403 159.61 206.106 166.301 210.324C171.251 213.718 172.906 215.738 175.4 217.888C176.518 218.898 177.66 219.888 178.279 220.347C178.345 220.52 179.383 220.713 176.596 219.686C175.749 219.523 174.456 218.85 170.881 219.618C169.241 220.004 167.1 221.093 165.628 222.604C164.207 224.024 163.445 225.516 163.03 226.622C161.819 230.729 162.502 230.717 162.425 231.289C161.576 222.958 153.829 211.934 151.151 195.931C149.863 187.117 148.289 178.609 145.82 170.907C143.484 163.316 139.525 156.237 136.207 154.255C128.932 149.493 124.268 143.431 120.383 138.193C116.517 132.898 113.304 128.059 109.983 124.391C108.825 123.11 107.773 121.851 106.719 120.487C106.189 119.798 105.674 119.109 105.084 118.246C104.766 117.77 104.497 117.399 103.935 116.397C103.777 116.1 103.624 115.843 103.298 115.082C103.17 114.736 102.911 114.273 102.586 112.766C102.512 112.389 102.44 111.944 102.397 111.382C102.357 110.743 102.224 108.983 103.003 106.729C103.622 104.496 106.323 101.202 108.945 100.146C111.55 98.9428 113.789 98.9858 115.21 99.1557C118.333 99.7091 118.207 100.014 118.883 100.256C119.397 100.51 119.757 100.727 120.053 100.915C120.618 101.284 120.726 101.377 120.978 101.567C121.447 101.934 121.598 102.075 121.81 102.262C124.047 104.391 124.56 105.155 125.664 106.407C126.649 107.566 127.574 108.689 128.503 109.83C143.601 128.412 158.113 148.115 169.503 170.108C173.183 177.496 174.269 183.615 176.092 187.755C176.926 189.799 177.83 191.001 178.111 191.213C178.373 191.401 178.288 191.536 179.647 191.603C184.49 191.638 189.084 191.296 192.806 190.298C196.573 189.269 198.973 187.845 201.057 185.4C205.345 180.447 207.975 170.048 210.104 159.934C211.495 154.419 212.55 151.165 213.716 146.865C214.845 142.787 215.935 138.697 216.92 134.65C217.9 130.607 218.799 126.574 219.403 122.77C219.698 120.915 219.908 119.011 219.909 117.861C219.991 117.448 219.581 116.657 220.29 118.658C220.409 119.297 222.928 123.286 227.284 123.632C230.805 123.823 231.573 122.862 232.036 122.7C230.493 123.33 227.128 128.812 225.364 134.378C223.422 140.07 222.047 146.416 221.01 152.849C219.838 160.193 219.069 167.822 218.754 175.199C218.298 186.454 218.785 198.142 218.813 210.244C218.756 219 219.584 228.398 217.746 239.253C216.798 244.636 214.894 250.414 211.682 255.535C208.498 260.677 204.207 264.926 199.708 268.208C195.283 271.22 191.966 273.144 185.821 274.617C184.223 274.922 182.387 275.223 179.716 274.9C177.201 274.658 172.877 273.022 170.426 269.51C168.004 266.076 167.798 263.095 167.719 261.03C167.696 258.901 167.952 257.415 168.255 255.95C170.4 245.733 174.617 235.688 180.536 226.996C186.43 218.266 193.782 210.936 201.437 204.646C211.728 196.259 221.625 188.832 229.475 180.299C237.342 171.838 242.635 162.504 243.039 152.951C243.277 148.053 242.307 142.061 240.514 137.11C238.8 132.111 235.701 128.051 233.762 127.261C233.864 127.421 235.36 127.67 235.849 127.457C236.356 127.296 235.85 127.429 235.118 128.131C233.619 129.489 231.608 132.274 229.891 135.277C226.374 141.412 223.396 148.634 220.709 155.992C215.343 170.806 211.176 186.292 207.195 202.195C204.447 212.772 201.993 224.865 196.585 236.653C195.495 239.035 194.492 241.247 193.573 243.429C193.123 244.498 192.684 245.586 192.399 246.395C192.272 246.716 192.136 247.322 192.313 246.552C192.342 246.247 192.486 246.16 192.467 244.345C192.256 243.587 192.971 241.764 189.751 237.462C187.894 234.864 182.9 233.157 180.979 233.407C178.789 233.423 177.381 233.947 176.424 234.351C173.99 235.532 173.947 235.916 173.573 236.179C173.315 236.418 173.258 236.486 173.208 236.538C186.292 222.167 198.309 206.997 206.692 190.667C215.073 174.432 219.233 156.819 214.674 141.42C214.483 140.752 214.276 140.085 214.053 139.417C213.63 137.845 212.441 136.181 213.463 137.483C213.751 137.773 214.533 138.543 216.018 139.153C217.559 139.829 219.881 139.985 221.453 139.553C224.554 138.599 224.505 137.851 224.54 137.97C223.792 138.674 221.537 143.158 220.155 146.967C217.199 154.847 214.526 164.57 212.999 172.249C212.895 173.019 212.671 176.624 212.57 179.02C212.452 181.64 212.361 184.282 212.289 186.948C212.145 192.282 212.076 197.601 212.095 202.906C212.117 208.199 212.221 213.506 212.516 218.57C212.668 221.111 212.872 223.625 213.173 225.806C213.312 226.835 213.519 227.935 213.643 228.38C213.682 228.592 213.811 228.723 213.38 227.878C213.107 227.477 212.817 226.544 210.745 224.917C209.567 224.027 207.634 223.091 205.425 222.907C203.211 222.692 201.09 223.287 199.759 223.979C203.65 222.106 208.294 216.943 211.837 211.099C215.457 205.199 218.41 198.454 220.708 191.497C222.999 184.536 224.661 177.289 225.489 170.15C226.31 163.086 226.265 155.769 224.769 150.448C224.484 149.41 224.151 148.697 224.094 148.61C224.024 148.435 224.527 149.619 226.814 150.388C229.094 151.052 230.364 150.321 230.206 150.402C230.147 150.41 229.432 150.845 228.687 151.493C225.472 154.255 221.728 159.222 218.452 164.171C215.141 169.177 212.003 174.562 209.073 180.004C207.598 182.747 206.172 185.515 204.82 188.279C203.534 190.897 201.959 194.318 201.433 195.764C201.594 195.148 201.106 197.309 200.914 198.424C200.668 199.743 200.423 201.111 200.173 202.496C199.673 205.277 199.163 208.092 198.601 210.954C198.035 213.822 197.439 216.7 196.661 219.776C196.264 221.322 195.842 222.884 195.214 224.709C194.9 225.603 194.537 226.606 193.908 227.897C193.551 228.603 193.239 229.248 192.398 230.426C191.535 231.285 190.846 233.534 185.388 235.237C180.329 236.308 177.36 235.279 174.93 234.606C172.512 233.835 170.608 232.935 168.831 232.018C165.311 230.171 162.372 228.209 159.538 226.203C153.964 222.248 148.708 217.787 144.19 214.087C139.235 210.163 134.649 204.952 131.61 198.908C128.529 192.882 127.129 186.507 126.377 180.874C124.993 169.531 124.967 160.457 122.012 153.304C119.611 147.197 117.279 141.604 114.547 137.938C114.057 137.242 111.513 134.77 109.434 132.851C108.331 131.82 107.205 130.786 105.932 129.545C105.276 128.892 104.663 128.319 103.646 127.124C103.345 126.757 103.088 126.462 102.56 125.669C102.343 125.327 101.966 124.763 101.528 123.728C101.362 123.312 100.95 122.342 100.762 120.829C100.679 120.015 100.61 119.326 100.814 117.893C101.036 116.406 101.711 114.584 102.881 113.086C105.56 109.897 107.607 109.58 109.246 109.156C110.974 108.866 111.188 108.96 111.908 108.966C113.195 109.05 113.558 109.17 114.048 109.272C115.049 109.52 115.288 109.624 115.796 109.802C123.102 112.601 128.083 116.58 132.765 120.493C137.388 124.454 141.48 128.586 145.396 132.747C153.178 140.995 160.332 149.82 167.296 156.998C176.623 167.644 183.557 175.534 191.92 187.624C192.229 188.129 192.597 188.73 193.033 189.614C193.334 190.299 193.466 190.338 193.994 192.19C194.045 193.338 194.991 193.225 193.745 198.293C193.07 200.607 190.457 203.485 187.992 204.357C185.493 205.35 183.64 205.169 182.447 205.002C175.125 203.724 170.238 200.311 166.049 197.128C161.888 193.86 158.44 190.394 155.206 186.92C148.815 180.061 143.155 172.587 137.873 167.117C128.439 157.539 121.221 147.299 113.434 138.758C112.998 138.279 112.752 138.009 112.368 137.602C112.211 137.436 112.078 137.299 112.009 137.229C112.039 137.251 111.848 137.095 112.29 137.473C112.412 137.572 112.575 137.706 112.896 137.927C113.058 138.038 113.261 138.172 113.557 138.341C113.705 138.425 113.878 138.519 114.089 138.622C114.184 138.666 115.035 139.101 116.179 139.356C117.337 139.585 119.458 140.003 122.424 138.674C125.465 137.378 127.475 133.906 127.767 131.965C128.172 129.922 127.932 128.843 127.81 128.084C127.432 126.448 127.404 126.694 127.357 126.501C127.26 126.248 127.179 126.065 127.11 125.915C126.972 125.62 126.88 125.457 126.813 125.336C126.333 124.559 126.926 125.482 127.154 125.77C127.433 126.153 127.774 126.609 128.099 127.039C129.442 128.814 130.847 130.625 132.249 132.43C135.068 136.053 137.925 139.7 140.773 143.354C146.48 150.714 152.151 157.882 157.807 165.866C166.661 178.599 174.968 191.575 183.143 204.511C183.877 205.665 184.99 207.289 186.038 209.013C186.582 209.919 187.122 210.806 187.792 212.231C188.12 213.069 188.545 213.525 188.989 216.174C189.066 216.906 189.205 217.899 188.846 219.655C188.601 221.391 186.718 224.801 183.975 226.109C178.537 228.338 177.561 226.868 176.387 226.813C166.229 223.307 161.119 217.867 155.458 212.702C150.054 207.465 145.223 201.976 140.605 196.413C135.991 190.839 131.643 185.201 127.361 179.453C125.234 176.6 123.135 173.723 121.082 170.925C120.62 170.295 120.028 169.492 119.589 168.907C119.314 168.541 119.077 168.229 118.892 167.99C118.679 167.703 118.317 167.303 118.672 167.682C118.742 167.754 118.843 167.854 119.017 168.009C119.182 168.146 118.955 167.982 119.586 168.469C119.962 168.731 120.439 169.115 121.665 169.6C122.777 169.985 125.515 170.941 129.11 169.063C132.701 167.045 133.508 163.635 133.641 162.334C133.746 161.191 133.696 161.283 133.691 160.866C133.659 160.249 133.586 159.859 133.526 159.557C133.4 158.965 133.303 158.711 133.241 158.528C133.028 157.971 133.129 158.256 133.148 158.283C133.271 158.544 133.393 158.786 133.577 159.143C134.001 159.958 134.273 160.466 134.76 161.361C136.519 164.475 140.291 169.024 143.681 172.839C145.426 174.795 147.229 176.731 149.026 178.535C149.908 179.418 150.846 180.323 151.552 180.933C151.702 181.064 151.878 181.206 151.879 181.206C151.854 181.193 151.889 181.202 151.556 181.001C151.36 180.893 151.249 180.807 150.609 180.539C150.197 180.379 149.636 180.16 148.618 180.016C148.076 179.952 147.575 179.894 146.574 179.989C145.2 180.113 143.106 180.787 141.507 182.343C139.9 183.795 139.112 186.103 139.001 186.877C138.844 187.654 138.819 188.283 138.831 188.794C138.864 189.813 139.02 190.396 139.134 190.821C139.309 191.414 139.387 191.561 139.47 191.757C139.632 192.111 139.625 192.069 139.636 192.093C139.623 192.066 139.539 191.925 139.396 191.707C126.956 172.798 111.598 155.028 98.3275 134.867C95.8222 130.898 94.0257 127.667 91.9785 124.078C90.9795 122.309 89.9951 120.546 89.0065 118.73C88.5119 117.82 88.0237 116.913 87.5213 115.946C87.2656 115.452 87.0272 114.988 86.7356 114.385C86.604 114.11 86.4588 113.813 86.24 113.297C86.1347 113.02 86.0104 112.829 85.7236 111.794C85.7423 111.66 85.3168 111.01 85.4972 108.67C85.5726 108.043 85.7134 107.223 86.186 106.16C86.4231 105.462 88.047 102.839 90.5836 101.879C93.0835 100.855 95.1475 101.262 96.254 101.592C97.4111 101.956 97.9956 102.335 98.4421 102.618C99.7183 103.511 99.8255 103.766 100.153 104.088C119.366 125.281 136.409 147.871 153.751 169.827C156.178 172.618 159.691 176.658 162.56 180.404C164.046 182.344 165.502 184.325 166.944 186.627C167.663 187.79 168.376 189 169.086 190.566C169.434 191.352 169.794 192.213 170.117 193.455C170.361 194.729 170.948 196.232 170.034 199.492C169.742 200.687 167.95 204.022 164.437 204.95C161.186 205.727 159.838 204.912 158.937 204.644C157.248 203.923 156.796 203.463 156.241 203.069C155.291 202.327 154.634 201.676 154.476 201.543C146.249 193.954 140.263 186.556 133.736 179.12C130.977 175.952 128.21 172.791 125.432 169.615C121.168 164.743 116.906 159.877 112.642 154.999C110.51 152.559 108.363 150.101 106.25 147.671C105.175 146.434 104.103 145.2 103.029 143.948C102.767 143.642 102.502 143.333 102.183 142.952C102.005 142.732 101.978 142.733 101.472 142.06C101.462 142.033 101.494 142.14 101.044 141.403C100.928 141.192 100.777 140.957 100.52 140.299C100.51 139.564 99.0326 138.738 100.955 134.083C102.096 131.709 105.307 130.216 106.939 130.244C108.701 130.155 109.492 130.503 110.079 130.695C111.167 131.126 111.44 131.377 111.718 131.552C112.643 132.24 112.365 132.071 112.437 132.117C112.453 132.132 112.468 132.145 112.483 132.158C112.54 132.21 112.584 132.251 112.623 132.288C112.7 132.36 112.754 132.414 112.803 132.463C112.899 132.558 112.975 132.637 113.052 132.717C113.127 132.795 113.203 132.876 113.285 132.964C113.927 133.652 114.407 134.184 115.029 134.868C135.834 157.831 154.375 182.223 174.187 205.109C179.306 210.983 184.552 217.039 189.654 223.136C192.225 226.224 194.743 229.242 197.314 232.654C197.94 233.511 198.578 234.32 199.445 235.785C199.695 236.364 199.931 236.176 200.543 238.655C200.598 239.104 200.661 238.991 200.644 240.246C200.62 241.407 200.05 243.749 198.052 245.309C196.111 246.875 193.869 246.803 193.664 246.798C193.037 246.788 192.565 246.706 192.18 246.619C190.697 246.242 190.225 245.853 190.011 245.758C188.841 245.061 188.535 244.766 187.945 244.314C186.039 242.769 184.731 241.542 183.114 240.049C160.78 219.238 139.484 197.166 120.249 173.254C118.753 171.39 117.434 169.751 115.97 167.881C115.795 167.657 115.636 167.453 115.398 167.14C115.247 166.934 115.36 167.106 114.939 166.502C114.829 166.314 114.754 166.305 114.344 165.416C114.235 165.123 114.102 164.934 113.92 163.951C113.871 163.255 113.462 161.89 114.86 159.544C116.372 157.029 119.793 156.505 120.88 156.788C123.299 157.279 123.304 157.725 123.71 157.913C124.003 158.126 124.127 158.24 124.234 158.333C124.946 159.011 124.644 158.739 124.799 158.894C125.38 159.532 125.692 159.906 126.057 160.329C126.835 161.238 127.526 162.058 128.276 162.948C131.169 166.386 134.046 169.84 136.925 173.298C142.642 180.162 148.459 187.2 154.07 193.915C160.124 200.974 166.531 208.078 172.865 215.122C176.04 218.645 179.23 222.17 182.418 225.679C184.008 227.429 185.597 229.175 187.211 230.942C187.967 231.768 188.835 232.719 189.582 233.523C189.606 233.549 189.625 233.57 189.636 233.581C189.641 233.587 189.644 233.59 189.644 233.59C189.644 233.59 189.643 233.589 189.641 233.587C189.64 233.586 189.639 233.585 189.637 233.583C189.589 233.542 189.813 233.736 189.312 233.279C189.192 233.186 189.139 233.1 188.554 232.729C188.134 232.589 188.105 232.078 185.541 231.901C184.338 231.807 181.563 232.743 180.504 235.043C179.609 237.003 179.919 238.052 180.014 238.74C180.611 240.834 180.762 240.494 180.885 240.804C180.999 240.969 181.05 241.034 181.092 241.089C181.236 241.271 181.251 241.282 181.25 241.282C181.288 241.325 181.253 241.284 181.205 241.23C181.077 241.086 181.047 241.052 180.937 240.93C180.7 240.666 180.564 240.515 180.354 240.281C179.883 239.761 179.616 239.464 179.137 238.936C166.804 225.315 155.19 211.274 143.185 197.761C138.312 191.75 134.144 186.443 129.537 180.947C127.265 178.232 124.978 175.552 122.64 172.975C121.477 171.696 120.311 170.451 119.154 169.316C118.557 168.732 117.995 168.212 117.498 167.803C117.267 167.611 117.021 167.436 116.992 167.418C116.988 167.409 117.006 167.446 117.368 167.577C117.587 167.65 117.929 167.757 118.5 167.786C119.109 167.843 120.602 167.641 121.687 166.712C123.828 164.878 123.592 162.635 123.489 161.994C123.347 161.198 123.178 160.933 123.167 160.884C123.078 160.683 123.025 160.595 122.997 160.546C122.943 160.457 122.982 160.524 123.014 160.57C123.097 160.693 123.248 160.897 123.391 161.083C123.736 161.53 124.041 161.904 124.434 162.378C125.145 163.235 125.958 164.178 126.721 165.051C128.295 166.85 129.918 168.658 131.547 170.457C134.786 174.032 138.101 177.623 141.411 181.187C148.052 188.342 154.699 195.371 161.437 202.563C162.407 203.62 163.21 204.487 164.218 205.672C164.361 205.842 164.456 205.958 164.615 206.158C164.713 206.282 164.807 206.405 164.911 206.55C165.015 206.799 165.074 206.429 165.753 208.254C165.829 208.533 165.918 208.893 165.935 209.451C165.926 209.806 165.982 209.807 165.81 210.68C165.641 211.461 165.117 212.521 164.251 213.246C162.384 214.736 160.835 214.404 160.218 214.323C159.528 214.185 159.233 214.031 158.99 213.922C158.5 213.676 158.514 213.661 158.347 213.56C158.106 213.402 157.906 213.248 157.837 213.195C157.653 213.053 157.427 212.868 157.299 212.759C156.691 212.245 156.192 211.792 155.697 211.342C153.697 209.513 151.804 207.707 149.897 205.884C146.117 202.267 142.29 198.537 138.644 194.995C137.088 193.513 135.548 192.018 134.021 190.512C122.181 178.83 111.172 166.503 100.154 154.332C97.098 150.996 94.0752 147.475 91.2055 145.832C88.4806 144.176 84.379 143.928 79.9445 143.895C80.0884 143.873 80.0941 143.959 80.9209 143.71C81.4101 143.482 81.9548 143.453 82.9287 142.107C83.8172 140.723 83.5434 139.277 83.3943 138.832C82.5955 136.994 82.6903 137.688 82.6968 137.562C82.7879 137.654 83.1698 137.952 83.5005 138.185C84.2232 138.697 85.0646 139.233 85.9176 139.761C87.6298 140.818 89.4186 141.856 91.2223 142.895C94.9231 145.079 98.1981 146.661 102.535 149.673C117.077 161.425 129.504 175.394 139.633 191.023C145.535 199.872 152.343 208.735 159.901 216.193C163.655 219.822 167.944 223.428 171.984 224.685C174.055 225.256 175.206 225.058 176.328 223.994C177.497 222.875 178.452 220.655 179.045 218.225C185.844 190.818 190.153 162.369 200.192 135.233C201.62 131.355 202.732 127.083 204.873 122.767C205.46 121.671 206.022 120.564 207.285 119.333C207.911 118.76 208.944 117.95 210.536 117.888C212.142 117.843 213.327 118.695 213.965 119.312C216.338 121.927 216.73 124.002 217.544 126.24C223.237 144.111 225.724 162.617 227.778 180.919C229.463 195.973 230.818 210.991 233.292 225.777C234.138 231.976 236.305 237.614 235.91 244.891C235.604 248.746 232.618 251.999 229.877 253.743C227.068 255.621 224.18 256.948 221.254 258.251C216.031 260.698 210.016 261.64 205.483 263.643C201.009 265.561 199.536 271.021 198.594 276.326C198.262 278.193 197.869 280.05 197.028 281.955C196.286 283.769 194.407 286.098 191.802 286.323C186.939 286.495 183.971 284.016 180.787 282.153C171.366 276.039 163.948 267.642 157.151 259.086C148.318 247.949 140.56 236.057 130.955 225.863C118.543 212.663 108.695 197.547 98.3155 182.967C92.3251 174.564 85.2123 166.942 78.7576 158.751C75.0754 154.111 71.9159 149.345 70.0103 145.609C68.0918 141.875 67.4556 139.582 67.7178 139.474C68.0057 139.351 69.1677 141.393 71.4358 144.826C73.692 148.264 77.0044 152.751 80.6958 157.291C87.1509 165.291 94.3442 172.818 100.575 181.342C111.146 195.849 121.154 210.786 133.406 223.508C143.704 234.21 151.777 246.426 160.899 257.536C167.473 265.557 174.574 273.198 183.075 278.562C185.903 280.357 189.457 282.238 191.244 281.977C192.328 282.233 193.716 278.884 194.149 275.586C194.63 272.687 195.224 269.783 196.511 266.823C197.711 263.883 200.339 260.84 203.396 259.435C209.418 256.78 214.421 256.14 219.259 253.788C224.668 251.271 230.774 248.38 230.844 244.29C231.15 239.488 229.039 232.856 228.054 226.686C226.96 220.583 226.061 214.46 225.252 208.343C225.479 200.728 225.446 190.395 223.443 171.263C222.411 161.505 220.171 147.332 217.235 137.217C216.206 133.576 215.138 130.338 214.047 127.378C213.245 125.235 212.258 123.004 211.076 122.104C210.619 121.42 209.49 123.012 208.752 124.752C207.164 128.482 206.327 132.502 204.912 136.961C204.004 139.747 203.083 142.694 202.104 145.94C197.916 159.889 195.408 173.574 192.882 187.997C191.965 193.25 191.05 198.615 190.052 204.146C188.938 209.439 187.787 214.741 186.537 220.036C185.746 223.148 184.777 226.443 181.827 229.526C178.875 232.842 173.165 233.451 169.816 232.275C162.9 230.053 158.606 225.948 154.301 222.015C145.931 213.905 139.034 205.1 132.546 195.621C122.989 181.198 111.069 168.066 97.5979 157.304C97.3749 157.123 97.1523 156.943 96.9299 156.764C94.4368 155.03 90.0025 152.627 86.488 150.578C84.651 149.517 82.821 148.451 81.0052 147.326C80.0812 146.75 79.1709 146.173 78.1868 145.473C77.688 145.109 77.1945 144.764 76.479 144.096C76.267 143.889 76.1459 143.781 75.8047 143.372C75.5346 142.946 75.0825 142.754 74.621 140.873C74.3874 140.26 74.6055 137.735 75.8352 136.586C76.8148 135.558 77.5584 135.329 78.1687 135.121C79.1804 134.846 79.4723 134.891 79.9445 134.873C83.8998 134.93 87.997 134.947 92.4388 136.47C96.9528 138.042 100.137 141.098 102.551 143.506C104.122 145.092 105.531 146.619 106.937 148.124C113.703 155.378 120.118 162.1 126.637 168.612C131.454 173.657 136.327 178.617 141.315 183.424C142.754 184.811 144.203 186.186 145.662 187.546C149.516 191.208 153.248 194.769 157.049 198.329C158.943 200.1 160.854 201.883 162.72 203.551C163.167 203.95 163.648 204.373 164.029 204.687C164.107 204.751 164.218 204.839 164.227 204.844C164.233 204.849 164.235 204.844 164.075 204.738C163.954 204.667 164.002 204.67 163.514 204.425C163.262 204.314 162.944 204.143 162.149 203.983C161.441 203.891 159.622 203.493 157.414 205.251C156.388 206.107 155.767 207.36 155.568 208.281C155.364 209.314 155.43 209.31 155.419 209.727C155.44 210.38 155.542 210.796 155.629 211.112C156.398 213.153 156.302 212.481 156.363 212.687C156.395 212.733 156.393 212.728 156.37 212.701C156.329 212.65 156.273 212.583 156.185 212.482C155.471 211.658 154.622 210.751 153.701 209.77C147.053 202.827 140.202 195.734 133.475 188.641C130.107 185.091 126.732 181.512 123.402 177.917C121.727 176.105 120.053 174.28 118.387 172.416C117.577 171.51 116.708 170.523 115.887 169.557C115.43 169.016 115.074 168.592 114.571 167.954C114.354 167.677 114.112 167.366 113.827 166.959C113.688 166.756 113.573 166.603 113.305 166.149C113.184 165.939 113.053 165.702 112.899 165.352C112.874 165.268 112.61 164.795 112.433 163.776C112.297 162.931 112.034 160.236 114.588 158.049C115.952 156.9 117.75 156.542 118.839 156.588C119.688 156.608 120.32 156.761 120.835 156.921C121.844 157.26 122.136 157.454 122.633 157.727C123.377 158.16 123.935 158.584 124.359 158.914C125.299 159.656 125.981 160.283 126.678 160.936C128.046 162.232 129.264 163.497 130.47 164.782C132.846 167.322 135.104 169.893 137.321 172.467C141.751 177.62 146.025 182.833 150.262 188.037C150.805 188.722 151.6 189.719 151.827 190C163.413 203.122 174.722 216.915 187.59 231.199C188.421 232.12 188.986 232.74 189.891 233.762C189.907 233.78 189.923 233.8 189.944 233.824C189.975 233.862 190 233.883 190.178 234.114C190.231 234.185 190.291 234.259 190.432 234.476C190.507 234.594 190.601 234.738 190.757 235.048C190.875 235.442 191.276 235.607 191.351 237.752C191.335 238.75 190.953 240.929 188.771 242.401C186.833 243.622 185.292 243.373 184.554 243.26C182.994 242.903 182.829 242.615 182.52 242.465C182.032 242.146 181.956 242.054 181.844 241.965C181.34 241.509 181.476 241.612 181.45 241.594C181.445 241.589 181.44 241.584 181.436 241.579C181.427 241.57 181.419 241.562 181.41 241.553C181.378 241.52 181.35 241.49 181.32 241.457C181.267 241.401 181.167 241.294 181.135 241.259C181.054 241.172 180.96 241.07 180.851 240.952C180.627 240.709 180.495 240.565 180.278 240.328C179.914 239.931 179.489 239.465 179.15 239.094C177.648 237.448 176.131 235.779 174.599 234.092C171.529 230.709 168.431 227.286 165.249 223.76C158.893 216.695 152.278 209.402 145.374 201.397C143.966 199.734 142.687 198.193 141.305 196.541C136.137 190.351 131.047 184.216 125.975 178.115C123.445 175.074 120.912 172.024 118.415 169.057C117.796 168.322 117.16 167.568 116.594 166.92C116.512 166.826 116.433 166.738 116.407 166.709C116.418 166.718 116.31 166.611 116.487 166.785C116.561 166.851 116.613 166.923 117 167.211C117.246 167.357 117.404 167.598 118.603 167.994C119.208 168.136 120.376 168.523 122.261 167.719C124.229 166.898 125.235 164.596 125.268 163.592C125.348 161.349 125.064 161.628 125.005 161.209C124.908 160.938 124.834 160.785 124.776 160.664C124.66 160.43 124.597 160.332 124.55 160.254C124.25 159.802 124.551 160.246 124.669 160.391C124.893 160.686 125.269 161.166 125.514 161.48C126.739 163.04 127.825 164.404 129.132 166.039C131.944 169.562 134.785 173.022 137.644 176.416C155.409 197.499 173.817 216.06 190.884 231.621C191.78 232.436 192.388 232.98 193.262 233.74C193.857 234.255 194.563 234.853 195.101 235.27C195.414 235.516 195.685 235.704 195.726 235.726C195.693 235.709 195.759 235.732 195.49 235.604C195.346 235.541 195.132 235.444 194.702 235.348C194.486 235.302 194.211 235.256 193.843 235.249C193.667 235.259 192.565 235.169 191.273 235.974C189.971 236.756 189.261 238.299 189.161 239.164C189.033 240.184 189.13 240.265 189.14 240.496C189.197 240.902 189.271 241.123 189.323 241.277C189.435 241.586 189.447 241.575 189.453 241.595C189.102 240.976 187.798 239.248 186.766 237.948C184.607 235.221 182.253 232.396 179.911 229.604C175.206 224.004 170.354 218.352 165.489 212.714C164.229 211.243 162.975 209.768 161.727 208.289C147.086 190.917 133.202 173.135 119.563 158.03C114.853 152.803 110.278 147.898 105.816 143.301C105.3 142.765 104.891 142.348 104.448 141.9C104.273 141.724 103.905 141.356 103.986 141.449C103.999 141.461 104.015 141.477 104.037 141.497C104.048 141.507 104.06 141.518 104.074 141.531C104.081 141.538 104.089 141.544 104.097 141.552C104.133 141.583 104.223 141.665 104.418 141.811C104.755 141.945 104.5 142.256 106.783 142.77C107.406 142.844 108.465 142.923 109.818 142.254C111.19 141.608 112.209 140.065 112.442 139.038C112.898 136.886 112.415 136.388 112.331 135.935C112.034 135.163 111.921 135.074 111.834 134.914C111.657 134.644 111.681 134.691 111.674 134.678C111.665 134.666 111.658 134.656 111.651 134.647C111.638 134.628 111.628 134.615 111.62 134.604C111.59 134.561 111.588 134.559 111.597 134.567C111.622 134.594 111.671 134.65 111.705 134.687C111.777 134.766 111.916 134.922 112.005 135.019C112.814 135.905 113.751 136.917 114.579 137.805C116.331 139.689 118.025 141.497 119.714 143.299C128.733 152.918 136.955 161.636 144.353 169.791C146.723 172.417 148.947 174.921 151.139 177.372C155.481 182.2 159.926 187.101 163.918 190.575C164.673 191.236 164.961 191.498 165.081 191.578C165.073 191.594 165.169 191.541 164.261 191.145C163.759 191.02 162.883 190.402 160.392 191.007C157.694 191.745 156.381 194.289 156.213 195.027C155.728 196.888 156.089 197.04 156.025 197.076C156.019 197.066 155.921 196.8 155.767 196.491C155.458 195.856 154.969 195.032 154.429 194.213C153.337 192.554 152.031 190.837 150.691 189.169C147.922 185.722 145.361 182.938 142.016 179.182C138.126 174.458 134.409 169.913 130.833 165.548C115.814 147.162 103.163 132.045 91.9458 118.978C90.8641 117.715 89.6803 116.338 88.389 114.855C88.468 114.939 88.5791 115.059 88.801 115.261C88.9135 115.362 89.0547 115.485 89.259 115.641C89.4969 115.699 89.4043 116.194 92.2273 117.005C93.5414 117.361 96.584 117.269 98.7254 115.366C100.967 113.183 100.785 112.448 101.151 111.485C101.546 109.754 101.354 109.07 101.309 108.555C101.116 107.484 101.139 107.78 101.074 107.518C100.887 106.963 100.92 107.118 100.918 107.106C100.938 107.169 101.029 107.381 101.129 107.596C101.321 108.017 101.582 108.549 101.83 109.05C104.235 113.801 107.617 120.162 111.247 126.294C120.008 140.5 134.26 157.504 150.959 181.115C151.417 181.777 151.872 182.439 152.324 183.101C152.634 183.566 152.797 183.8 153.179 184.457C153.347 184.759 153.489 184.985 153.78 185.661C153.925 186.07 154.002 186.019 154.284 187.363C154.378 187.975 154.505 188.816 154.212 190.161C154.016 191.162 153.204 192.936 151.766 194.025C150.386 195.155 148.576 195.485 147.849 195.497C145.43 195.536 144.575 194.834 144.284 194.756C143.9 194.57 143.624 194.407 143.377 194.253C142.978 194.001 142.736 193.826 142.457 193.619C142.032 193.302 141.624 192.968 141.303 192.698C139.957 191.557 138.882 190.534 137.798 189.49C135.651 187.412 133.64 185.339 131.673 183.235C127.736 178.903 124.087 175.141 120.436 169.228C119.791 168.11 119.295 167.262 118.689 166.139C118.584 165.95 118.351 165.501 118.18 165.146C118.086 164.949 118.016 164.806 117.895 164.521C117.792 164.27 117.681 163.999 117.544 163.544C117.451 162.907 117.092 163.011 117.284 160.236C117.409 159.41 117.668 158.17 118.721 156.732C119.728 155.286 121.795 154.036 123.484 153.796C126.952 153.383 127.993 154.448 128.726 154.762C130.214 155.751 129.702 155.477 129.971 155.673C130.221 155.893 130.388 156.059 130.534 156.208C130.805 156.484 131.081 156.803 131.155 156.885C131.392 157.155 131.617 157.423 131.857 157.716C144.305 173.513 155.66 188.485 169.486 201.751C171.542 203.674 173.646 205.601 175.584 207.113C178.038 209.053 180.105 210.133 181.067 210.278C181.112 210.285 181.155 210.292 181.198 210.299C180.71 210.227 180.382 209.789 177.833 210.179C176.717 210.342 174.376 211.446 173.204 213.224C172.005 214.957 171.884 216.355 171.817 217.08C171.844 219.877 172.124 219.355 172.072 219.567C172.039 219.586 171.701 219.023 171.316 218.48C170.507 217.303 169.498 216.01 168.129 214.084C165.747 210.721 163.087 206.951 160.304 203.05C156.195 197.287 151.804 191.234 147.658 185.759C145.687 182.876 143.699 180.012 141.689 177.17C136.672 170.194 130.798 162.842 125.125 155.649C122.265 152.037 119.387 148.421 116.504 144.772C115.063 142.946 113.631 141.131 112.14 139.191C111.776 138.716 111.383 138.199 111.008 137.695C110.525 137.008 110.438 137.045 109.307 135.182C109.195 134.983 109.066 134.747 108.894 134.379C108.808 134.194 108.711 133.974 108.598 133.682C108.546 133.467 108.507 133.714 108.091 131.912C107.957 131.08 107.699 129.908 108.137 127.706C108.453 125.613 110.616 121.884 113.884 120.493C117.071 119.067 119.355 119.515 120.611 119.764C121.848 120.039 122.788 120.518 122.894 120.568C123.129 120.682 123.323 120.787 123.492 120.883C123.828 121.075 124.067 121.232 124.265 121.367C124.655 121.636 124.887 121.824 125.083 121.984C125.933 122.713 125.753 122.581 126.037 122.845C126.474 123.274 126.641 123.45 126.907 123.725C127.485 124.33 127.76 124.627 128.269 125.179C137.188 134.894 144.365 144.842 152.318 152.729C159.431 160.061 164.492 166.822 170.247 172.87C173.065 175.863 175.932 178.639 178.733 180.796C181.484 182.964 184.356 184.355 185.65 184.476C184.381 184.305 181.953 184.039 178.866 185.741C175.706 187.365 173.767 191.44 173.65 193.436C173.417 195.838 173.641 195.947 173.709 196.635C173.809 197.187 173.919 197.561 174.011 197.847C174.305 198.71 174.388 198.778 174.409 198.84C174.448 198.912 174.306 198.665 174.125 198.39C168.363 190.204 159.2 179.536 152.376 171.852C143.127 162.378 135.788 153.24 127.622 144.973C121.723 138.327 114.74 131.404 108.863 128.839C108.927 128.852 108.924 128.863 109.435 128.984C109.714 129.035 109.9 129.112 110.897 129.177C111.466 129.18 111.644 129.258 113.108 129.016C114.53 128.653 116.39 128.377 118.838 125.517C119.925 124.157 120.566 122.484 120.78 121.124C120.982 119.769 120.914 119.18 120.845 118.446C120.68 117.1 120.326 116.285 120.197 115.961C119.844 115.138 119.598 114.797 119.48 114.613C119.195 114.198 119.152 114.181 119.12 114.146C119.085 114.152 119.554 114.681 119.979 115.121C120.884 116.065 121.976 117.128 123.091 118.22C125.242 120.402 127.242 122.008 130.42 126.051C134.972 132.399 137.586 139.294 140.206 146.018C145.803 159.616 143.749 175.318 147.433 186.584C149.002 191.307 151.711 195.309 156.217 198.95C161.013 202.899 165.319 206.605 170.119 210.104C172.484 211.828 174.933 213.483 177.277 214.77C178.438 215.408 179.593 215.951 180.488 216.262C181.333 216.625 182.089 216.446 180.874 216.647C177.186 217.865 177.246 219.004 176.913 219.207C176.681 219.549 176.722 219.534 176.748 219.477C176.833 219.324 177.022 218.872 177.197 218.374C177.559 217.349 177.922 216.077 178.262 214.766C178.946 212.122 179.562 209.253 180.158 206.312C180.665 203.803 181.148 201.247 181.631 198.672C181.875 197.37 182.118 196.068 182.379 194.728C182.695 193.241 182.736 192.49 183.508 189.857C186.53 182.155 189.529 176.753 192.839 170.537C196.134 164.5 199.591 158.624 203.425 152.912C207.343 147.228 211.181 141.67 217.371 136.503C219.024 135.205 220.756 133.952 223.423 132.896C225.873 131.89 230.092 131.246 233.785 132.972C237.441 134.66 239.276 137.306 240.482 139.383C241.666 141.512 242.29 143.3 242.87 145.271C245.97 156.906 245.044 167.115 243.813 176.445C242.456 185.75 240.203 194.097 237.626 201.435C234.922 209.028 231.622 216.509 226.702 224.098C222.589 230.182 217.682 236.811 208.676 241.661C206.705 242.806 202.921 243.068 200.52 241.781C197.943 240.437 197.366 239.37 196.641 238.447C195.482 236.725 195.172 235.65 194.868 234.828C194.246 232.952 194.004 231.659 193.748 230.301C193.268 227.608 193 225.107 192.77 222.527C192.333 217.478 192.114 212.248 191.982 206.766C191.855 201.271 191.827 195.53 191.896 189.386C191.932 186.319 191.991 183.177 192.091 179.904C192.234 176.452 192.19 173.832 192.741 168.977C194.434 159.907 196.566 151.812 199.754 142.308C201.444 137.586 203.061 132.821 206.619 127.128C207.553 125.726 208.654 124.12 210.656 122.337C211.754 121.405 212.988 120.437 215.195 119.606C217.194 118.806 220.514 118.551 223.026 119.425C228.137 121.263 229.717 124.289 230.88 125.932C232.105 127.906 232.814 129.607 233.403 131.119C233.6 131.632 233.79 132.159 233.975 132.699C238.35 145.289 238.575 158.695 236.271 170.604C233.98 182.586 229.518 193.303 224.41 202.951C214.057 222.234 201.219 237.621 189.059 251.046C188.774 251.355 188.561 251.586 188.084 252.027C187.458 252.478 187.446 252.981 184.459 254.271C183.385 254.644 181.931 255.092 179.596 254.801C176.664 254.613 173.214 251.716 172.492 250.158C171.51 248.542 171.247 247.215 171.112 246.403C171.014 245.762 170.991 245.259 170.987 244.833C171.007 243.278 171.162 242.817 171.243 242.331C171.631 240.568 171.907 239.926 172.193 239.083C172.755 237.521 173.291 236.226 173.834 234.938C174.907 232.401 176.028 229.944 177.05 227.713C181.329 218.389 183.478 208.327 186.056 198.303C186.187 197.789 186.317 197.283 186.45 196.77C191.729 175.615 197.115 157.554 202.427 143.915C205.004 137.344 207.926 130.364 212.311 123.061C214.579 119.417 217.045 115.621 221.429 111.75C223.641 109.874 226.494 107.838 230.647 106.767C234.829 105.623 239.99 106.374 243.564 108.321C253.216 113.544 257.489 121.93 260.387 129.453C263.166 137.2 264.555 144.907 264.295 153.508C264.285 153.736 264.274 153.964 264.262 154.191C263.42 171.351 253.665 185.747 243.932 195.865C234.046 206.2 223.45 213.917 214.802 221.043C202.228 231.197 194.912 242.158 191.63 251.323C190.554 254.211 189.68 257.248 189.019 260.451C188.776 260.976 189.424 261.525 188.52 258.605C188.06 257.154 185.996 254.919 184.325 254.319C182.67 253.638 181.929 253.766 181.687 253.747C181.133 253.898 184.098 252.959 185.896 251.766C186.378 251.475 186.863 251.149 187.133 250.942C192.055 247.218 194.956 243.242 196.334 236.71C197.767 230.152 197.268 220.998 197.162 210.244C197.112 199.577 196.505 187.732 196.962 174.303C197.288 166.063 198.068 157.679 199.482 148.752C200.768 140.827 202.416 133.291 205.057 125.856C207.963 118.573 210.591 110.582 220.596 103.852C221.539 103.283 222.648 102.714 224.085 102.263C226.029 101.712 228.194 101.217 231.712 102.098C235.126 103.01 237.64 105.268 238.967 107.139C240.283 109.011 240.681 110.179 241.095 111.413C242.211 115.459 241.937 116.974 241.96 118.876C241.841 122.251 241.438 124.84 241.026 127.379C240.182 132.364 239.14 136.849 238.081 141.169C237.015 145.484 235.911 149.587 234.797 153.594C234.248 155.565 233.682 157.562 233.135 159.482C232.63 161.249 231.903 163.828 231.759 164.384C229.684 173.606 227.967 182.87 222.339 193.206C218.194 201.099 209.552 208.088 201.532 210.391C193.47 212.934 186.42 213.026 179.647 212.845C179.218 212.835 178.791 212.815 178.365 212.786C173.964 212.565 168.384 210.708 164.532 207.173C160.645 203.695 158.662 199.74 157.249 196.369C154.546 189.633 153.451 183.54 151.469 179.59C148.026 172.752 143.845 165.555 138.651 157.863C135.473 153.154 131.883 148.241 127.982 143.186C123.065 136.812 117.649 130.209 111.996 123.428C110.726 121.906 109.447 120.388 108.273 119.081C107.976 118.751 107.705 118.46 107.529 118.281C107.468 118.215 107.353 118.121 107.633 118.362C107.707 118.424 107.869 118.561 108.144 118.756C108.249 118.828 108.535 119.036 109.022 119.305C109.269 119.44 109.573 119.597 109.991 119.77C110.19 119.824 111.385 120.469 113.679 120.523C114.834 120.537 116.417 120.351 118.102 119.549C119.701 118.865 121.726 117.006 122.557 115.367C124.328 112.052 123.721 109.59 123.76 109.418C123.605 108.149 123.377 107.586 123.236 107.17C123.042 106.644 122.901 106.374 122.835 106.241C122.31 105.342 123.173 106.72 123.579 107.209C124.294 108.15 125.061 109.088 125.789 109.924C128.073 112.509 129.887 114.977 131.553 117.34C134.244 121.165 136.549 124.8 139.276 128.279C142.058 131.835 144.832 134.695 147.631 136.479C155.723 141.858 159.641 149.057 162.637 155.433C165.567 161.929 167.386 168.194 168.836 174.146C170.432 180.772 171.493 187.041 172.357 192.741C173.869 202.043 179.362 211.552 181.657 219.632C182.47 222.302 183.191 225.191 183.616 228.305C183.661 229.497 184.201 230.181 183.143 233.913C182.849 234.788 182.167 236.202 181.115 237.352C179.969 238.672 178.162 239.766 176.691 240.199C173.464 241.105 171.836 240.492 170.835 240.286C167.035 239.015 166.763 238.297 165.609 237.576C163.753 236.181 162.487 235.021 161.183 233.86C158.778 231.683 155.899 229.047 154.898 228.435C145.172 222.339 135.755 215.493 126.639 208.115C116.958 200.251 107.623 191.799 99.091 182.552C96.1033 179.299 93.4561 175.885 91.0657 172.374C85.4613 164.005 80.2622 154.29 77.8053 142.102C76.6411 136.023 76.2783 129.176 77.9893 122.077C79.6406 114.994 83.7252 108.037 89.1792 102.984C95.6357 96.9942 103.035 91.9913 112.382 88.8757C117.054 87.3754 122.343 86.3997 128.133 86.9584C133.887 87.4644 140.054 89.9516 144.621 93.8811C148.383 97.1098 150.769 100.111 153.092 102.687C155.297 105.221 157.626 107.488 158.533 107.929C167.29 113.091 171.511 121.405 174.589 127.125C177.656 133.12 180.314 137.195 182.685 138.396C182.688 138.398 182.691 138.4 182.694 138.401C179.989 136.634 176.204 136.813 174.645 137.429C172.914 138.035 172.501 138.464 172.058 138.771C171.421 139.286 171.457 139.33 171.509 139.243C171.657 139.057 172.119 138.378 172.519 137.7C173.372 136.272 174.28 134.526 175.152 132.757C176.902 129.196 178.568 125.449 180.199 121.671C183.486 114.055 186.483 106.489 189.983 97.9025C192.197 92.629 194.606 86.6739 197.703 80.4578C200.039 75.8567 202.556 71.0583 206.74 65.8693C208.909 63.3168 211.396 60.4569 216.048 58.0605C218.377 56.8957 221.524 55.9631 224.889 56.128C228.257 56.2628 231.387 57.4915 233.704 58.9769C241.557 64.0753 248.774 70.4602 255.377 79.0064C260.217 85.38 264.03 92.1321 266.103 99.6049C267.635 105.167 268.551 110.426 269.156 115.46C270.336 125.583 270.323 134.827 269.522 144.129C268.775 152.336 267.636 157.383 266.543 162.144C265.298 167.436 264.065 172.365 262.515 180.666C261.685 185.079 260.767 190.46 259.555 196.809C259.074 199.327 258.544 202.011 257.965 204.82C257.914 204.655 257.847 204.6 257.789 204.584C257.387 204.497 255.18 212.505 252.886 220.378C252.847 220.512 252.809 220.646 252.77 220.779C251.629 224.726 249.752 228.564 247.851 231.36C243.158 239.308 231.245 246.445 228.302 253.034C226.382 256.968 224.593 260.945 223.07 264.603C221.248 269 219.59 273.081 218.188 277.395C217.922 278.203 217.667 279.161 217.432 280.191C216.972 282.208 216.592 284.459 216.216 287.067C216.167 287.402 216.117 287.751 216.059 288.13C216.026 288.352 215.998 288.536 215.94 288.871C215.878 289.121 215.987 288.934 215.612 290.205C215.529 290.445 215.43 290.745 215.155 291.279C215.012 291.548 214.824 291.882 214.48 292.331C214.367 292.433 214.038 293.075 212.648 294C211.405 294.907 208.484 295.548 206.37 294.653C202.268 292.652 202.593 290.988 202.162 290.406C201.994 289.923 202.033 290.012 201.983 289.843C201.919 289.608 201.883 289.436 201.855 289.292C201.752 288.726 201.751 288.537 201.739 288.431C201.657 286.903 201.706 286.547 201.705 285.731C201.722 284.22 201.748 282.754 201.77 281.158C201.79 279.665 201.849 278.135 201.96 276.545C202.328 271.378 203.178 267.475 204.006 264.315C204.612 262.031 205.224 260.122 205.793 258.369C206.289 256.852 206.596 255.601 206.967 254.201C207.235 253.197 207.541 252.109 207.997 250.813C209.081 247.706 210.801 243.924 212.118 241.395C212.726 240.222 213.234 239.322 213.74 238.43C214.328 237.395 214.916 236.373 215.674 234.95C218.542 229.574 221.139 224.413 223.387 219.076C223.905 217.853 224.422 216.654 224.959 215.431C228.316 207.768 232.16 200.044 236.344 191.735C237.657 189.118 239.054 186.361 240.331 183.683C241.67 180.883 242.879 178.151 243.785 175.799C247.504 166.249 249.162 156.939 249.374 148.317C249.423 146.52 249.417 144.745 249.364 142.986C249.251 139.263 248.892 135.699 248.395 132.373C246.991 123.447 244.745 119.24 243.183 116.355C242.34 114.865 241.591 113.721 240.839 112.55C240.182 111.454 239.469 110.403 238.726 109.445C238.056 108.554 237.322 107.697 236.575 106.983C236.519 106.929 236.462 106.876 236.406 106.823C234.1 104.559 231.52 102.954 228.621 101.989C224.604 100.664 220.748 99.5521 217.005 98.8492C213.387 98.1578 209.731 97.9071 207.358 98.3664C206.172 98.5823 205.517 98.9427 205.321 99.0982C205.132 99.2586 204.976 99.3306 204.76 100.178C203.694 106.051 199.021 110.277 197.319 111.982C195.419 114.057 195.784 113.58 195.607 115.023C195.598 120.304 195.056 125.41 194.369 130.385C193.739 134.933 193.066 139.435 192.472 143.876C192.158 146.233 191.865 148.576 191.62 150.888C191.28 154.04 190.976 157.152 190.624 160.395C190.451 161.896 190.335 163.279 190.008 165.328C189.88 165.971 189.879 166.381 189.35 167.951C189.201 168.341 189.033 168.839 188.495 169.745C188.07 170.382 186.983 172.329 183.986 173.526C182.379 174.161 180.454 174.238 179.033 173.925C177.748 173.648 177.007 173.274 176.338 172.901C174.962 172.056 174.8 171.786 174.321 171.345C172.211 168.978 172.408 168.785 171.833 167.967C170.25 165.345 168.949 163.298 167.345 161.135C161.979 153.684 158.424 146.63 154.696 139.439C154.26 138.582 153.828 137.726 153.399 136.871C149.285 128.723 144.085 120.796 138.41 114.005C132.774 107.28 126.148 101.316 120.035 99.1447C118.311 98.5338 116.727 98.2884 115.409 98.3695C112.675 98.4876 109.494 98.9831 106.594 99.6908C103.797 100.373 101.092 101.29 98.8208 102.414C99.2304 102.016 99.4391 101.733 99.6365 101.468C100.059 100.936 100.366 100.41 102.973 99.3889C107.617 97.5737 113.457 96.5023 115.409 96.0262C115.948 95.8517 116.23 95.7104 116.065 95.5432C115.888 95.367 116.045 95.187 116.23 95.0111C116.536 94.7296 116.891 94.3883 115.409 94.1101C114.583 93.9913 113.144 93.9154 110.916 94.0712C106.556 94.1908 93.885 96.5849 90.1532 101.9C89.3568 102.949 89.1467 103.685 88.9955 104.461C88.911 105.834 88.2715 106.982 90.128 111.686C90.3092 112.11 90.4948 112.551 90.6854 113.011C91.1758 114.194 91.6966 115.48 92.225 116.805C94.3276 122.114 96.604 127.928 97.7253 129.963C99.0024 132.314 99.0931 131.651 99.193 130.9C99.3343 129.9 99.4627 128.813 102.343 133.658C102.918 134.613 103.832 136.493 104.556 137.885C105.064 138.869 105.466 139.607 105.543 139.665C105.629 139.727 105.559 139.367 105.474 138.91C105.24 137.239 104.478 134.684 109.964 144.505C110.45 145.33 110.963 146.185 111.502 147.06C112.679 148.974 113.97 150.971 115.212 152.824C117.883 156.806 120.296 160.133 120.72 160.502C120.881 160.638 121.01 160.725 121.126 160.79C123.438 163.974 125.813 167.183 128.194 170.457C131.121 174.751 135.538 180.646 140.555 188.765C141.766 190.74 143.01 192.864 144.242 195.133C144.726 196.037 145.203 196.952 145.668 197.874C148.514 203.536 151.967 209.066 155.742 214.548C159.11 219.515 162.946 224.783 167.05 230.486C175.183 241.769 182.291 252.292 187.761 263.627C187.813 263.737 187.867 263.85 187.922 263.966C189.995 268.236 192.379 272.659 194.778 277.077C193.747 275.408 192.812 273.898 192.091 272.763C189.643 268.905 187.864 266.216 186.552 264.276C185.034 261.974 183.828 260.458 182.666 259.026C181.14 257.157 179.684 255.423 177.472 252.472C173.385 247.108 173.359 247.98 173.379 248.558C173.384 248.866 173.379 249.104 172.801 248.427C172.334 247.881 171.354 246.553 170.33 245.196C169.438 244.014 168.508 242.8 167.884 242.049C160.276 232.968 162.098 236.067 164.753 240.516C166.215 242.977 167.892 245.873 168.385 247.396C168.723 248.765 168.375 248.47 164.547 243.637C167.204 247.645 169.799 251.685 172.235 255.796C173.286 257.346 174.192 258.446 175.477 259.998C176.531 261.276 178.431 264.057 180.444 267.558C182.814 271.655 185.811 276.496 188.403 280.688C190.634 284.286 192.589 287.407 193.728 289.153C199.777 298.434 198.559 295.388 197.512 292.72C196.939 291.263 196.388 289.883 197.133 290.759C197.451 291.133 197.156 290.491 196.876 289.872C196.656 289.388 196.427 288.886 196.471 288.834C196.798 288.476 200.488 293.85 203.877 298.994C204.849 300.477 205.78 301.909 206.619 303.3C206.818 303.628 207.042 304.015 207.238 304.377C207.318 304.521 207.464 304.812 207.573 305.056C207.627 305.399 207.969 305.182 207.98 307.349C207.947 307.986 207.461 309.771 205.671 310.585C203.96 311.326 202.766 310.719 202.76 310.756C202.228 310.581 201.957 310.411 201.737 310.276C201.32 310.009 201.099 309.798 201.027 309.744C200.816 309.567 200.645 309.408 200.474 309.243C200.208 308.992 200.021 308.812 199.804 308.594C199.38 308.177 199.097 307.911 198.754 307.567C198.734 307.551 198.715 307.534 198.695 307.517C198.357 307.237 198.01 306.962 197.422 306.48C196.163 305.239 192.702 303.435 188.469 298.688C187.999 298.109 187.535 297.467 187.108 296.747C186.204 295.259 185.17 293.742 184.128 292.32C182.365 289.938 181.537 289.19 180.699 288.397C180.101 287.838 179.475 287.253 178.412 286.099C176.501 284.005 172.741 279.628 169.092 275.572C167.508 273.802 165.957 272.084 164.637 270.63C164.096 270.034 163.822 269.767 163.733 269.732C163.497 269.468 163.263 269.207 163.032 268.949C156.729 261.85 152.251 254.224 148.301 246.976C141.303 234.01 135.764 221.733 127.611 212.151C111.026 192.942 99.4487 169.616 77.4465 150.742C74.5124 148.308 71.9629 145.532 69.7156 142.52C62.6717 132.904 57.7242 120.602 58.6686 106.847C58.8688 104.586 59.2554 102.314 59.8514 100.073C63.1464 89.5841 68.1954 82.7817 73.7549 75.4736C76.5847 71.9195 79.6099 68.5199 83.1274 65.297C86.772 62.155 90.2665 58.8112 97.0703 56.8933C105.899 54.4496 116.728 56.7849 123.829 61.3685C131.133 65.7838 136.494 70.8497 142.023 74.2933C144.396 75.7917 146.465 77.4923 148.336 79.2681C154.047 85.2456 158.977 93.083 163.895 102.415C169.193 112.437 173.658 122.944 178.914 133.213C178.565 132.729 177.671 130.435 173.886 130.265C170.245 130.543 169.443 132.751 169.259 132.863C168.996 133.287 168.888 133.552 168.806 133.754C168.653 134.149 168.623 134.309 168.594 134.421C168.565 134.549 168.564 134.573 168.562 134.582C168.564 134.577 168.576 134.511 168.588 134.418C168.616 134.219 168.641 134 168.667 133.748C168.717 133.268 168.765 132.727 168.809 132.196C168.898 131.115 168.975 130.02 169.05 128.905C169.198 126.663 169.328 124.393 169.451 122.076C169.695 117.442 169.912 112.676 170.086 107.755C170.155 105.745 170.225 103.645 170.242 101.681C170.308 92.6923 173.195 83.7937 177.986 75.6385C182.824 67.5065 189.58 59.8676 198.78 54.1353C205.21 50.1778 212.798 47.3466 220.934 47.3448C229.062 47.2648 237.22 50.5983 243.228 55.9177C252.857 64.2535 261.412 74.5559 267.165 86.8256C272.966 99.0566 275.707 112.966 275.778 127.117C275.865 138.524 274.331 150.198 271.863 161.648C265.844 190.102 261.05 220.298 248.497 242.6C246.761 245.678 245.076 248.657 243.451 251.523C235.351 265.82 226.598 280.561 218.152 294.589C217.069 296.511 215.913 299.153 214.785 301.479C213.092 305.007 211.381 308.489 209.311 311.824C208.243 313.487 207.198 315.128 205.448 316.705C204.576 317.391 203.281 318.592 200.966 318.119C198.78 317.429 198.238 315.962 197.731 314.967C195.036 308.699 194.233 302.616 192.488 297.513C189.566 288.781 185.725 281.626 182.365 276.338C179.923 272.511 177.265 269 174.585 265.668C172.675 263.294 170.743 260.998 168.857 258.746C164.265 252.431 159.354 246.302 154.265 240.306C148.714 233.413 140.812 224.393 131.894 214.935C126.901 209.605 120.914 204.743 114.624 200.373C108.148 195.565 101.326 191.065 94.8169 186.449C80.7093 176.578 66.65 164.541 60.0196 147.762C58.3669 143.699 57.1276 139.45 56.2778 135.106C55.992 133.643 55.7851 132.256 55.6366 130.777C55.631 130.72 55.6255 130.663 55.6202 130.607C54.2543 118.529 59.1472 106.247 66.6883 97.4455C69.8828 93.602 73.4929 90.1778 77.3108 87.0659C87.0461 79.1675 98.0679 73.1828 109.068 67.9534C110.223 67.4056 111.43 66.8418 112.582 66.3108C117.322 64.1707 122.374 62.0124 128.136 61.9392C133.362 61.6785 138.787 65.1927 140.982 69.7962C143.728 74.8904 146.851 79.8111 150.163 84.593C159.82 98.4906 170.988 111.26 181.855 124.33C183.635 126.47 185.288 128.561 186.46 130.152C187.627 131.736 188.217 132.683 188.106 132.768C187.995 132.855 187.187 132.074 185.85 130.626C184.51 129.172 182.753 127.178 180.942 125.071C169.872 112.181 158.47 99.5631 148.501 85.6809C145.096 80.9233 141.868 76.0101 139 70.8845C136.883 66.7932 132.63 64.1773 128.083 64.4196C123.094 64.5599 118.297 66.6108 113.74 68.7707C112.583 69.3264 111.376 69.9131 110.218 70.4852C99.3993 75.8341 88.6446 81.9169 79.3699 89.697C75.7341 92.7586 72.3388 96.0931 69.386 99.7689C62.3865 108.261 58.2541 119.423 59.6868 130.367C59.6944 130.433 59.7022 130.5 59.7101 130.566C59.8616 131.823 60.062 133.024 60.327 134.282C61.1976 138.41 62.4353 142.41 64.0548 146.208C70.487 161.71 83.7314 172.801 97.8307 182.369C105.142 187.39 113.021 192.382 120.507 197.963C124.673 201.069 128.722 204.368 132.458 207.907C133.593 208.982 134.706 210.084 135.806 211.23C136.655 212.115 137.535 213.033 138.392 213.928C150.012 226.057 161.488 238.418 171.82 251.799C182.093 265.18 191.492 279.59 197.211 295.912C199.269 301.918 200.248 307.83 202.561 312.756C202.718 313.12 202.933 313.312 202.767 313.15C202.641 312.924 201.576 312.792 201.509 312.911C201.376 313.03 202.319 312.262 202.887 311.451C204.163 309.76 205.347 307.6 206.442 305.446C208.716 301.015 210.335 296.688 212.902 291.559C220.136 278.83 227.333 266.06 234.487 253.232C237.105 248.536 239.716 243.836 242.319 239.131C255 215.377 258.52 187.326 264.16 160.021C267.2 145.136 268.648 129.891 266.629 115.206C264.679 100.522 258.819 86.6555 249.452 75.341C245.798 70.8793 241.667 66.7792 237.19 63.0232C231.984 58.6002 225.574 56.4663 218.994 57.155C212.415 57.7938 205.896 60.9764 200.343 65.3977C189.304 74.2523 181.118 88.1981 181.09 101.681C181.07 107.631 180.863 113.287 180.662 119.051C180.556 121.925 180.438 124.806 180.299 127.682C180.228 129.126 180.152 130.579 180.061 132.044C180.015 132.78 179.965 133.527 179.904 134.284C179.872 134.68 179.838 135.075 179.793 135.495C179.772 135.695 179.738 135.982 179.702 136.225C179.677 136.398 179.646 136.592 179.597 136.827C179.576 136.917 179.539 137.137 179.399 137.572C179.323 137.794 179.234 138.066 178.989 138.529C178.927 138.645 178.852 138.775 178.758 138.922C178.542 139.221 178.063 140.088 176.626 140.878C175.235 141.788 172.254 141.656 170.967 140.661C169.604 139.754 169.255 138.987 168.975 138.52C161.631 124.637 155.697 110.759 147.494 98.7789C143.814 93.44 139.597 88.4391 134.974 85.5834C128.093 81.3161 122.547 76.2679 116.967 73.0525C111.39 69.769 106.157 68.7983 100.323 70.2918C98.4992 70.7161 95.2057 73.0253 92.5616 75.5358C89.8184 78.099 87.2251 81.0504 84.8092 84.1564C80.1036 90.2659 75.4341 97.6456 73.7079 103.697C70.6165 115.799 76.8757 131.231 86.7444 139.395C109.292 157.804 122.346 182.87 139.02 202.753C154.646 221.952 160.288 244.745 173.623 259.793C181.787 269.226 190.733 278.344 198.041 290.493C198.29 290.993 199.636 292.362 201.473 293.839C203.305 295.385 205.648 297.051 208.131 300.058C208.468 300.473 208.664 300.709 208.928 301.01C209.025 301.121 209.131 301.229 209.07 301.165C208.949 301.066 209.206 301.229 208.411 300.614C208.207 300.469 207.938 300.282 207.475 300.043C207.241 299.925 206.957 299.793 206.582 299.659C206.149 299.574 206.075 299.253 203.695 299.22C201.592 299.107 198.18 301.091 197.236 303.205C196.168 305.154 196.292 306.79 196.272 306.918C196.275 307.543 196.337 307.934 196.388 308.233C196.632 309.377 196.679 309.266 196.703 309.38C196.73 309.446 196.721 309.424 196.702 309.386C196.671 309.32 196.588 309.153 196.499 308.983C196.341 308.678 196.106 308.246 195.892 307.863C194.978 306.23 193.952 304.5 192.93 302.789C190.868 299.346 188.745 295.876 186.624 292.402C182.376 285.405 178.104 278.584 173.932 271.057C162.276 249.417 142.78 231.046 129.696 205.996C121.159 189.357 107.531 174.679 96.0285 156.691C87.7259 143.787 82.937 129.246 77.7904 116.704C75.7868 112.056 74.6919 104.966 77.7215 98.7537C80.6829 92.6325 85.5571 89.3734 89.7622 87.1786C98.4693 82.97 106.377 81.6003 115.409 81.3318C123.791 81.4042 130.235 84.9038 135.467 88.4374C140.722 92.0786 145.046 96.2297 149.007 100.552C156.861 109.26 163.284 118.541 168.805 128.813C172.838 136.385 177.164 144.339 181.596 150.266C183.196 152.345 184.696 154.525 186.034 156.636C186.671 157.637 187.436 158.886 187.667 159.206C187.649 159.216 187.821 159.287 186.941 158.402C186.287 158.144 186.143 156.416 180.552 156.027C177.611 156.099 175.341 157.636 174.265 158.776C173.163 159.962 173.023 160.382 172.717 160.925C171.989 162.518 172.189 162.391 172.132 162.476C172.13 162.486 172.157 162.327 172.181 162.153C172.63 158.378 173.114 153.104 173.74 148.481C175.387 136.202 178.093 125.061 178.034 115.023C178.008 112.292 178.578 109.019 179.981 106.141C181.358 103.253 183.268 101.137 184.609 99.7412C187.556 96.8178 187.349 96.6715 187.355 96.6374C188.119 91.0811 193.315 84.4034 198.728 82.3735C204.046 80.0944 208.563 80.0147 212.622 80.1209C220.682 80.5015 227.609 82.4162 234.11 84.4058C247.274 88.3229 256.217 99.5982 260.636 110.138C265.225 120.909 266.926 131.952 267.015 142.986C267.194 158.512 263.28 174.211 257.417 187.877C251.602 201.634 244.697 213.82 239.315 226.157C234.76 236.528 229.275 245.832 225.372 254.695C221.416 263.564 219.273 272.089 219.343 281.158C219.349 282.798 219.352 284.482 219.368 286.014C219.373 286.392 219.38 286.79 219.388 287.008C219.39 287.067 219.392 287.098 219.391 287.074C219.347 286.831 219.526 287.584 219.184 285.646C219.152 285.503 219.112 285.337 219.056 285.136C218.902 284.711 219.269 285.472 218.437 283.467C217.986 282.632 217.485 281.26 215.075 279.408C212.861 277.373 206.887 276.729 204.106 278.509C202.654 279.244 201.773 280.053 201.156 280.695C200.503 281.413 200.641 281.287 200.421 281.56C200.124 281.95 199.912 282.28 199.742 282.565C198.584 284.691 198.725 285.018 198.596 285.331C198.51 285.679 198.49 285.81 198.474 285.894C198.454 286.008 198.459 285.982 198.464 285.942C198.528 285.466 198.642 284.49 198.746 283.66C199.201 280.156 199.664 276.598 200.878 272.303C203.864 262.371 207.668 253.763 211.804 245.039C216.192 236.075 223.078 231.189 227.01 227.18C231.164 223.136 233.226 219.966 234.381 215.538C241.161 189.331 247.279 163.097 248.548 137.274C249.049 126.051 248.551 114.82 245.933 104.88C243.233 94.7794 233.07 83.5618 222.502 76.9195C222.45 77.0072 224.172 77.5438 225.089 77.2389C225.985 76.991 225.581 76.9727 224.917 77.6308C223.503 78.9162 221.491 81.7782 219.797 84.8331C216.293 91.104 213.428 98.361 210.315 106.174C207.693 112.878 204.844 120.365 201.883 127.499C198.801 134.771 196.059 141.676 191.323 149.69C190.582 150.872 189.833 152.055 188.537 153.619C187.867 154.395 187.081 155.339 185.445 156.572C184.356 157.311 183.65 157.948 180.978 158.775C178.741 159.515 174.293 159.483 171.141 157.435C161.662 151.561 158.003 142.922 154.994 137.431C152.037 131.595 149.573 128.096 147.256 126.852C141.707 123.371 139.187 120.023 136.593 117.201C134.138 114.39 131.947 111.852 130.425 110.588C127.988 108.53 124.685 107.985 119.318 109.578C114.166 111.159 108.5 114.69 104.056 118.87C99.2822 123.371 97.7245 129.069 98.9554 136.942C100.214 144.668 104.21 153.135 109.38 160.575C111.161 163.133 113.136 165.636 115.163 167.842C124.433 177.897 135.156 187.505 146.625 196.437Z" fill="#FF3C3C"/>
<path d="M346.492 239.847C346.6 274.538 345.585 307.925 345.583 342.735C345.583 343.49 345.583 344.245 345.583 345L345.62 349.546L341 349.583C298.512 349.614 255.38 350.547 212.816 350.369C169.746 350.189 126.468 349.929 83.3271 349.609C56.8723 349.413 30.4414 349.195 4 348.958L0.0743103 348.99L0.0418952 345C0.191652 328.275 0.348681 311.545 0.511854 294.802C0.932983 251.684 1.39494 208.472 1.87971 165.319C2.20899 136.008 2.54892 106.665 2.89304 77.3576C3.04387 64.4919 3.19537 51.6644 3.34743 38.8055C3.46114 29.2122 3.57485 19.6189 3.68856 10.0256C3.70459 8.69197 3.76962 7.4141 3.87286 6.47205C3.97627 5.53003 4.10866 4.99871 4.24549 5C4.38239 5.00174 4.51507 5.53708 4.61811 6.48239C4.72086 7.42731 4.78499 8.70737 4.8004 10.0411C4.91054 19.7153 5.02067 29.3896 5.13081 39.0637C5.25297 49.8092 5.37536 60.5357 5.49673 71.2783C4.93521 72.9695 4.50931 75.2911 4.32122 79.6406C4.22528 81.8605 4.18538 85.0974 4.28972 87.4812C4.38347 89.6215 4.55062 91.2341 4.70993 92.765C4.87654 94.3664 5.03474 95.8862 5.0906 97.8423C5.18547 101.162 5.42387 104.317 5.67433 107.63C5.76549 108.836 5.85838 110.064 5.94643 111.328C6.06061 121.583 6.1739 131.838 6.28622 142.092C6.22642 146.052 6.17807 149.694 6.2011 152.783C6.22177 155.554 6.34039 158.092 6.48794 160.619C6.50514 162.206 6.52235 163.794 6.53955 165.381C6.65007 175.626 6.75882 185.874 6.8666 196.123C6.71679 204.121 6.57126 212.502 6.50738 223.4C6.47984 228.097 6.39882 232.731 6.32107 237.186C6.20622 243.766 6.09828 249.956 6.17898 255.382C6.23294 259.01 6.15358 262.826 6.07444 266.632C5.96829 271.737 5.86234 276.832 6.07846 281.451C6.21436 284.355 6.3796 287.022 6.53285 289.493C6.77668 293.423 6.98996 296.857 7.00466 299.967C7.03223 305.81 7.20986 310.869 7.36656 315.328C7.55503 320.691 7.71317 325.19 7.54282 329.14C7.517 329.739 7.48266 330.424 7.44363 331.195C7.28613 334.309 7.05633 338.851 7.03847 345L4 341.962C5.88173 341.967 7.91399 341.953 10.1017 341.91C13.4257 341.846 16.5478 341.678 19.6055 341.514C24.0567 341.275 28.3794 341.043 33.0088 341.146C33.7004 341.162 34.4226 341.226 35.0801 341.286C35.9159 341.361 36.6465 341.427 37.0789 341.369C38.3474 341.202 40.3616 341.017 42.5487 340.815C44.1557 340.667 45.8592 340.51 47.4298 340.345C59.4239 340.252 71.4202 340.163 83.42 340.079C88.9173 340.04 94.4166 340.002 99.9173 339.965C102.73 340.218 105.608 340.445 108.646 340.617C112.619 340.841 117.768 340.91 124.405 340.999C129.288 341.065 134.981 341.142 141.605 341.299C153.866 341.59 166.461 341.525 174.532 341.369C176.239 341.336 177.955 341.3 179.79 341.262C186.751 341.117 195.438 340.935 211.938 340.734C227.545 340.544 240.818 340.495 250.789 340.458C255.879 340.439 260.109 340.424 263.351 340.394C268.897 340.344 275.708 340.299 282.544 340.254C293.244 340.183 304.01 340.112 310.105 340.018C312.275 339.985 314.552 339.943 317.011 339.899C323.334 339.785 330.879 339.649 341 339.562L335.562 345C335.555 344.216 335.549 343.416 335.542 342.601C335.453 330.693 335.514 323.311 335.647 315.644C335.701 312.528 335.915 309.779 336.136 306.946C336.45 302.927 336.777 298.735 336.68 293.063C336.657 291.739 336.606 290.326 336.552 288.848C336.454 286.133 336.348 283.198 336.394 280.191C336.411 279.143 336.469 278.219 336.526 277.314C336.588 276.318 336.65 275.342 336.653 274.236C336.666 270.104 336.651 266.084 336.638 262.511C336.621 257.904 336.608 254.041 336.658 251.644C336.749 247.371 336.668 242.698 336.585 237.967C336.522 234.352 336.458 230.701 336.47 227.166C336.504 217.066 336.35 203.175 336.092 188.862C335.995 183.447 336.128 178.859 336.298 172.98C336.405 169.323 336.526 165.167 336.615 160C336.665 157.071 336.547 154.59 336.437 152.293C336.336 150.177 336.243 148.216 336.296 146.204C336.342 144.427 336.541 143.304 336.731 142.237C336.941 141.05 337.139 139.933 337.101 138.064C337.08 137.069 336.98 135.86 336.862 134.422C336.815 133.854 336.766 133.246 336.717 132.604C336.757 132.637 336.793 132.645 336.82 132.645C337.014 132.648 337.116 130.741 337.215 128.87C337.255 128.123 337.294 127.379 337.339 126.768C337.504 124.519 337.531 120.26 337.524 117.006C337.52 115.629 337.58 114.381 337.65 112.925C337.712 111.633 337.782 110.176 337.823 108.318C337.846 107.258 337.902 106.444 337.949 105.772C337.983 105.284 338.012 104.87 338.019 104.485C338.026 104.153 337.971 103.884 337.908 103.582C337.863 103.364 337.815 103.128 337.783 102.838C337.707 102.144 337.684 101.253 337.708 100.627C337.72 100.338 337.741 100.11 337.763 99.8834C337.788 99.6193 337.813 99.3569 337.822 98.995C337.862 97.3344 337.799 95.7196 337.733 94.0417C337.661 92.1975 337.586 90.274 337.642 88.1328C337.66 87.4589 337.7 86.7411 337.739 86.0461C337.78 85.3187 337.82 84.6119 337.83 84.0111C337.873 81.571 337.735 79.2774 337.608 77.1673C337.523 75.7641 337.444 74.4399 337.426 73.2109C337.392 70.958 337.226 69.7485 337.104 68.8567C337.041 68.3947 336.988 68.0175 336.973 67.6223C336.977 67.2597 336.983 66.8922 336.989 66.5324C337.001 66.2022 337.014 65.8608 337.009 65.5407C337.009 65.5164 337.008 65.4925 337.008 65.4684C337.048 63.4537 337.105 61.4745 337.162 59.5079C337.29 55.0908 337.417 50.728 337.345 46.1149C337.33 45.1208 337.261 44.108 337.192 43.0778C337.107 41.8157 337.019 40.5244 337.026 39.2092C337.041 36.0744 337.154 32.91 337.265 29.7932C337.432 25.1055 337.596 20.524 337.416 16.3124C337.357 14.9224 337.258 13.5661 337.159 12.2061C337.104 11.4482 337.048 10.6863 336.999 9.91799C337.089 10.0808 337.175 10.1677 337.254 10.2486C337.418 10.4153 337.558 10.5591 337.677 11.2971C337.958 13.0415 338.346 15.0183 338.628 14.799C338.705 14.7393 338.79 14.7876 338.876 14.8403C339.092 14.9725 339.312 15.1069 339.411 13.4871C339.479 12.3952 339.633 9.59005 339.468 7.80547C339.432 7.41704 339.361 7.18046 339.281 6.91708C339.165 6.52907 339.031 6.08072 338.964 5L341 7.03554C340.763 7.05009 340.495 7.06134 340.19 7.0684C339.905 7.075 339.596 7.08095 339.276 7.0865C338 7.10861 336.571 7.13302 336.037 7.24734C335.422 7.37904 335.554 7.52988 335.707 7.70575C335.906 7.93481 336.143 8.20687 334.818 8.53478C334.555 8.59961 334.055 8.62181 333.677 8.63866C333.41 8.65053 333.207 8.66004 333.186 8.67954C333.163 8.70195 333.248 8.74857 333.357 8.80755C333.739 9.01564 334.402 9.37922 331.631 9.39463C330.882 9.39877 330.024 9.38146 329.255 9.36582C328.122 9.34277 327.181 9.32375 327.055 9.38324C327.008 9.40581 326.974 9.43027 326.947 9.45562C326.044 9.44847 325.142 9.44132 324.24 9.43418C323.083 9.36326 321.459 9.36933 319.431 9.37721C318.939 9.37912 318.421 9.38088 317.882 9.3819C316.102 9.36722 314.321 9.35263 312.541 9.33767C311.13 9.30759 309.628 9.2586 308.042 9.18084C304.866 9.02501 302.102 8.768 299.401 8.51669C298.263 8.41079 297.136 8.30568 295.992 8.20974C296.438 8.19794 296.84 8.18402 297.149 8.16484C299.267 8.03356 300.118 7.77528 300.899 7.53754C301.419 7.3794 301.91 7.23029 302.722 7.13408C304.21 6.95782 304.061 6.75169 303.952 6.59927C303.895 6.52021 303.852 6.45544 304.05 6.41698C304.21 6.38616 304.578 6.37168 304.959 6.35666C305.291 6.34358 305.633 6.32989 305.852 6.30506C308.513 6.0033 307.713 5.82814 306.55 5.57321C305.908 5.43261 305.158 5.26762 304.814 5.04376C304.519 4.80673 304.618 4.7374 306.013 4.64298C304.926 4.52592 303.84 4.40886 302.753 4.2918C302.327 4.29941 302.004 4.3726 301.55 4.4942C300.739 4.71137 298.098 4.79073 296.034 4.85275C295.078 4.88147 294.246 4.90658 293.777 4.93988C291.28 5.11696 292.006 5.36358 292.645 5.58058C292.997 5.70002 293.322 5.81057 293.069 5.89557C292.961 5.93193 293.115 5.96801 293.27 6.00481C293.39 6.03326 293.513 6.06218 293.518 6.09194C293.551 6.30803 292.074 6.46843 290.703 6.61737C289.918 6.70266 289.17 6.78449 288.756 6.8707C288.63 6.89697 288.53 6.92376 288.436 6.94978C288.299 6.98777 288.165 7.02397 287.955 7.055C287.478 7.12566 286.496 7.1733 285.419 7.22523C284.867 7.25185 284.291 7.27964 283.746 7.31235C283.04 7.35475 282.785 7.44021 282.517 7.52949C282.327 7.59259 282.128 7.65758 281.763 7.71112C281.101 7.80793 279.764 7.84288 278.524 7.87531C277.984 7.88944 277.461 7.90347 277.021 7.92156C276.842 7.92892 276.756 7.94362 276.737 7.96378C274.701 8.03142 272.757 8.10051 270.864 8.16819C261.377 8.50746 253.165 8.80162 240.902 8.5884C238.583 8.54808 236.093 8.55613 233.578 8.5884C225.529 8.50363 217.476 8.41611 209.431 8.32635C207.838 8.13164 205.89 7.96811 203.584 7.83979C199.253 7.59887 194.797 7.54739 189.54 7.4866C185.653 7.44166 181.327 7.39148 176.286 7.25606C167.817 7.02851 159.121 6.83602 149.309 6.73599C139.54 6.6364 128.355 6.56299 120.442 6.53694C116.128 6.52272 111.597 6.34854 107.374 6.18643C101.434 5.95841 96.1038 5.75403 92.8497 6.05038C91.8105 6.14509 90.8059 6.30951 89.8281 6.46925C89.1318 6.58302 88.445 6.69412 87.7724 6.77687C85.9813 6.75117 84.1882 6.72575 82.3956 6.6998C79.2108 6.50231 74.2618 6.29057 69.4777 6.5108C67.6287 6.48359 65.7786 6.45651 63.9924 6.42904C60.0947 6.37159 56.2811 6.3134 52.433 6.25479C51.1769 6.23541 49.9083 6.216 48.6366 6.19649C48.6246 6.19626 48.6125 6.19604 48.6005 6.19582C46.0407 6.15653 43.4616 6.11699 40.9252 6.07719C39.8388 6.06021 38.7524 6.04324 37.666 6.02626C34.9052 5.98317 32.1244 5.93993 29.3915 5.89624C27.9451 5.87301 26.4847 5.84995 25.0219 5.82654C22.6487 5.78856 20.2575 5.75037 17.8786 5.71194C14.0313 5.6498 10.2021 5.58695 6.36561 5.52361C5.73818 5.51314 5.13524 5.48028 4.69212 5.43046C4.24917 5.38055 3.99932 5.318 4 5.25353C4.00087 5.18903 4.25283 5.12632 4.69729 5.0766C5.14145 5.02706 5.74378 4.99498 6.37077 4.98478C10.21 4.92317 14.0441 4.86223 17.8941 4.80182C20.2734 4.76447 22.6637 4.72679 25.0374 4.6899C26.5009 4.66715 27.9599 4.64479 29.407 4.62221C32.1402 4.57977 34.9256 4.53737 37.6867 4.49554C38.773 4.47901 39.8594 4.46248 40.9458 4.44595C43.4891 4.40722 46.0753 4.36888 48.6418 4.33068C48.6573 4.33045 48.6728 4.33023 48.6883 4.33C49.9509 4.31121 51.2116 4.29238 52.4588 4.27371C56.3085 4.21685 60.1241 4.16051 64.0234 4.10482C66.038 4.07477 68.1375 4.04539 70.2215 4.01569C71.3818 3.99915 72.5399 3.98253 73.6769 3.96609C74.2986 3.95734 74.9287 3.94867 75.5622 3.93995C90.1014 3.7339 104.538 3.53565 119.109 3.34549C133.625 3.15533 148.167 2.97301 162.666 2.79795C177.2 2.62288 191.708 2.45536 206.228 2.29464C251.078 1.79791 296.014 1.34472 341 0.949961L345.017 0.917328L345.05 5C345.466 52.4462 345.818 99.9473 346.087 147.459C346.162 160.661 346.23 174.208 346.29 187.437C346.351 200.81 346.405 213.908 346.451 227.316C346.466 231.389 346.479 235.563 346.492 239.847Z" fill="#FF3C3C"/>
</svg>
