<svg width="372" height="249" viewBox="0 0 372 249" fill="none" xmlns="http://www.w3.org/2000/svg">
<path d="M115.163 102.123C112.204 104.736 107.684 103.966 104.9 101.627C101.394 104.269 99.5997 107 99.5997 112.045C99.5997 118.245 106.182 122.033 106.674 127.552C107.623 138.203 110.918 150.459 110.918 161.065C110.918 176.033 123.652 205.627 123.652 220.595C123.652 232.71 107.529 224.839 93.8392 213.319C88.8969 209.16 75.3401 211.745 67.7664 213.319C60.4365 214.842 62.2064 226.474 51.496 226.474C47.716 226.474 45.353 226.784 42.2997 224.563C40.2595 223.08 37.9585 221.183 35.2256 221.183C24.2122 221.183 28.4583 229.809 20.9203 232.942C10.2688 237.368 11.8812 227.031 11.8812 220.889C11.8812 215.428 12.8042 208.371 9.05157 203.985C2.00533 195.75 5.58215 172.485 9.05157 163.564C14.1701 150.403 38.0772 137.926 26.8154 121.379C20.6274 112.287 32.9952 106.731 37.3479 100.507C41.8164 94.1164 36.6282 83.8127 40.4919 76.9887C43.846 71.065 53.3525 71.1372 57.7841 66.9936C63.8674 61.3057 54.3256 51.6804 54.3256 46.5625C54.3256 39.3102 57.3966 37.3509 61.3997 32.6723C62.621 31.2448 65.9707 32.0311 67.7664 30.6879C69.2824 29.554 70.4051 27.6192 72.0894 26.7193C82.2428 21.2944 94.0032 24.376 104.473 18.782C110.606 15.505 116.124 10.2628 123.652 9.52185C130.769 8.82136 141.926 2.82092 149.118 5.84719C153.098 7.52154 155.667 11.5274 160.515 12.0941C164.636 12.5758 169.097 12.1676 173.249 12.1676C182.449 12.1676 191.4 10.8447 200.759 10.8447C208.582 10.8447 217.119 14.8904 224.418 17.1652C231.066 19.2373 237.835 16.1363 244.225 16.1363C252.968 16.1363 255.911 18.9173 260.889 24.735C265 29.5405 265.001 38.201 273.622 38.6252C278.743 38.8772 289.993 43.2076 293.429 47.2239C295.882 50.0908 296.359 53.7456 297.752 57.219C299.885 62.5372 304.486 69.2096 308.206 73.6815C316.275 83.3811 334.459 77.8645 334.459 94.7741C334.459 106.356 333.956 121.002 342.948 129.904C349.092 135.987 351.437 140.643 351.437 149.012C351.437 155.453 353.162 165.589 348.607 170.913C346.697 173.146 341.858 185.194 343.734 187.449C345.866 190.012 349.712 191.315 351.437 194.137C353.81 198.02 361.103 197.809 364.091 202.001C366.497 205.374 367 208.6 367 212.584L367 212.832C367.003 215.904 367.007 220.677 363.541 222.212C359.765 223.884 355.681 222.98 355.681 227.797C355.681 232.099 357.309 247.232 348.607 243.378C340.126 239.621 314.393 239.304 308.206 232.942C305.232 229.882 309.789 215.293 304.119 220.595C302.394 222.208 304.809 227.647 301.918 227.797C298.282 227.986 290.623 245.124 287.447 243.378C280.671 239.651 282.039 223.583 275.666 228.459C269.321 233.312 232.306 244.187 232.306 232.942C232.306 224.122 271.259 213.319 263.404 208.36C256.265 208.36 252.925 179.429 267.066 183.901C269.861 183.901 264.879 164.912 263.404 155.774C261.799 145.835 266.675 128.847 258.609 121.305C252.376 115.477 242.799 111.476 238.252 104.034C235.916 100.213 231.282 100.801 227.247 100.801C222.486 100.801 222.478 99.4768 219.859 95.803C219.206 94.8878 211.39 85.192 210.034 89.6296C209.609 91.0196 210.978 96.2752 209.169 96.7584C205.759 97.6694 190.773 87.8956 190.148 92.8633C188.958 102.323 180.576 104.769 172.07 104.769C166.255 104.769 164.271 101.702 161.773 97.4199C159.074 92.7939 155.883 98.6347 151.948 100.066C141.778 103.764 134.561 100.592 128.682 93.5247C122.083 85.5917 118.722 98.9806 115.163 102.123Z" fill="white"/>
<path d="M102.429 96.8319C102.429 102.187 110.629 106.127 115.163 102.123C118.722 98.9806 122.083 85.5917 128.682 93.5247C134.561 100.592 141.778 103.764 151.948 100.066C155.883 98.6347 159.074 92.7939 161.773 97.4199C164.271 101.702 166.255 104.769 172.07 104.769C180.576 104.769 188.958 102.323 190.148 92.8633C190.773 87.8956 205.759 97.6694 209.169 96.7584C210.978 96.2752 209.609 91.0196 210.034 89.6296C211.39 85.192 219.206 94.8878 219.859 95.803C222.478 99.4768 222.486 100.801 227.247 100.801C231.282 100.801 235.916 100.213 238.252 104.034C242.799 111.476 252.376 115.477 258.609 121.305C266.675 128.847 261.799 145.835 263.404 155.774C264.879 164.912 269.861 183.901 267.066 183.901C252.925 179.429 256.265 208.36 263.404 208.36C271.259 213.319 232.306 224.122 232.306 232.942C232.306 244.187 269.321 233.312 275.666 228.459C282.039 223.583 280.671 239.651 287.447 243.378C290.623 245.124 298.282 227.986 301.918 227.797C304.809 227.647 302.394 222.208 304.119 220.595C309.789 215.293 305.232 229.882 308.206 232.942C314.393 239.304 340.126 239.621 348.607 243.378C357.309 247.232 355.681 232.099 355.681 227.797C355.681 222.98 359.765 223.884 363.541 222.212C367.102 220.635 367 215.64 367 212.584C367 208.6 366.497 205.374 364.091 202.001C361.103 197.809 353.81 198.02 351.437 194.137C349.712 191.315 345.866 190.012 343.734 187.449C341.858 185.194 346.697 173.146 348.607 170.913C353.162 165.589 351.437 155.453 351.437 149.012C351.437 140.643 349.092 135.987 342.948 129.904C333.956 121.002 334.459 106.356 334.459 94.7741C334.459 77.8645 316.275 83.3811 308.206 73.6815C304.486 69.2096 299.885 62.5372 297.752 57.219C296.359 53.7456 295.882 50.0908 293.429 47.2239C289.993 43.2076 278.743 38.8772 273.622 38.6252C265.001 38.201 265 29.5405 260.889 24.735C255.911 18.9173 252.968 16.1363 244.225 16.1363C237.835 16.1363 231.066 19.2373 224.418 17.1652C217.119 14.8904 208.582 10.8447 200.759 10.8447C191.4 10.8447 182.449 12.1676 173.249 12.1676C169.097 12.1676 164.636 12.5758 160.515 12.0941C155.667 11.5274 153.098 7.52154 149.118 5.84719C141.926 2.82092 130.769 8.82136 123.652 9.52185C116.124 10.2628 110.606 15.505 104.473 18.782C94.0032 24.376 82.2428 21.2944 72.0894 26.7193C70.4051 27.6192 69.2824 29.554 67.7664 30.6879C65.9707 32.0311 62.621 31.2448 61.3997 32.6723C57.3966 37.3509 54.3256 39.3102 54.3256 46.5625C54.3256 51.6804 63.8674 61.3057 57.7841 66.9936C53.3525 71.1372 43.846 71.065 40.4919 76.9887C36.6282 83.8126 41.8164 94.1164 37.3479 100.507C32.9952 106.731 20.6274 112.287 26.8154 121.379C38.0772 137.926 14.1701 150.403 9.05157 163.564C5.58215 172.485 2.00533 195.75 9.05157 203.985C12.8042 208.371 11.8812 215.428 11.8812 220.889C11.8812 227.031 10.2688 237.368 20.9203 232.942C28.4583 229.809 24.2122 221.183 35.2256 221.183C37.9585 221.183 40.2595 223.08 42.2997 224.563C45.353 226.784 47.7161 226.474 51.496 226.474C62.2064 226.474 60.4365 214.842 67.7664 213.319C75.3401 211.745 88.8969 209.16 93.8392 213.319C107.529 224.839 123.652 232.71 123.652 220.595C123.652 205.627 110.918 176.033 110.918 161.065C110.918 150.459 107.623 138.203 106.674 127.552C106.182 122.033 99.5997 118.245 99.5997 112.045C99.5997 105.647 102.486 102.97 108.089 99.4777" stroke="black" stroke-width="10" stroke-linecap="round"/>
<path d="M177.103 129.3C165.831 124.378 145.728 121.58 125.985 120.577C106.227 119.574 86.6207 120.36 76.2939 122.708C73.6705 123.304 71.8374 124.259 70.8816 125.652C69.8854 127.105 69.9876 128.803 70.7026 130.492C71.4109 132.166 72.7645 133.956 74.5081 135.785C76.2614 137.623 78.4552 139.548 80.9007 141.488C89.9141 148.638 102.565 156.155 109.838 160.476C110.445 160.837 111.015 161.176 111.543 161.49C118.637 165.719 129.615 166.939 140.337 164.853C151.076 162.763 161.74 157.321 168.141 148.007C174.181 139.216 181.788 137.334 185.296 136.466L185.322 136.459C185.759 136.351 186.157 136.252 186.478 136.157C186.768 136.07 187.116 135.952 187.373 135.766C187.509 135.667 187.711 135.484 187.804 135.187C187.907 134.855 187.823 134.554 187.701 134.344C187.592 134.155 187.441 134.014 187.317 133.915C187.186 133.81 187.034 133.71 186.871 133.615C186.243 133.245 185.156 132.762 183.593 132.09C183.127 131.89 182.614 131.671 182.053 131.432C180.701 130.855 179.065 130.156 177.103 129.3Z" fill="black" stroke="black" stroke-width="1.7"/>
<path d="M178.904 128.091C190.173 123.282 210.273 120.547 230.016 119.567C249.773 118.587 269.378 119.355 279.702 121.649C282.321 122.231 284.155 123.163 285.113 124.528C286.117 125.959 286.012 127.634 285.295 129.291C284.584 130.93 283.229 132.682 281.485 134.469C279.731 136.266 277.537 138.148 275.092 140.044C266.078 147.031 253.427 154.377 246.155 158.6C245.547 158.952 244.977 159.284 244.45 159.591C237.358 163.722 226.385 164.914 215.667 162.876C204.933 160.834 194.268 155.518 187.865 146.412C181.825 137.822 174.218 135.983 170.707 135.134L170.683 135.128C170.245 135.022 169.847 134.926 169.527 134.832C169.237 134.747 168.891 134.633 168.635 134.451C168.5 134.356 168.293 134.175 168.198 133.876C168.09 133.539 168.179 133.234 168.303 133.024C168.415 132.836 168.567 132.697 168.69 132.601C168.821 132.498 168.974 132.4 169.136 132.307C169.764 131.946 170.85 131.474 172.414 130.818C172.88 130.622 173.392 130.408 173.954 130.174C175.305 129.61 176.942 128.928 178.904 128.091Z" fill="black" stroke="black" stroke-width="1.7"/>
</svg>
