<?xml version="1.0" encoding="utf-8"?>
<!-- Svg Vector Icons : http://www.onlinewebfonts.com/icon -->
<!DOCTYPE svg PUBLIC "-//W3C//DTD SVG 1.1//EN" "http://www.w3.org/Graphics/SVG/1.1/DTD/svg11.dtd">
<svg version="1.1" xmlns="http://www.w3.org/2000/svg" xmlns:xlink="http://www.w3.org/1999/xlink" x="0px" y="0px" viewBox="0 0 256 256" enable-background="new 0 0 256 256" xml:space="preserve">
<metadata> Svg Vector Icons : http://www.onlinewebfonts.com/icon </metadata>
<g><g><path fill="#000000" d="M217.4,42.4h-46.6V18.6c0-4.7-3.8-8.6-8.6-8.6H93.7c-4.7,0-8.6,3.8-8.6,8.6v23.8H38.5c-6.3,0-11.4,5.1-11.4,11.4c0,6.3,5.1,11.4,11.4,11.4H50v166.5c0,7.9,6.4,14.3,14.3,14.3h127.5c7.9,0,14.3-6.4,14.3-14.3V65.2h11.4c6.3,0,11.4-5.1,11.4-11.4C228.9,47.5,223.7,42.4,217.4,42.4z M90.9,213.7c0,4.7-3.8,8.6-8.6,8.6c-4.7,0-8.6-3.8-8.6-8.6V93.8c0-4.7,3.8-8.6,8.6-8.6c4.7,0,8.6,3.8,8.6,8.6V213.7z M136.6,213.7c0,4.7-3.8,8.6-8.6,8.6c-4.7,0-8.6-3.8-8.6-8.6V93.8c0-4.7,3.8-8.6,8.6-8.6c4.7,0,8.6,3.8,8.6,8.6V213.7z M153.7,42.4h-51.4V27.1h51.4V42.4L153.7,42.4z M182.2,213.7c0,4.7-3.8,8.6-8.6,8.6c-4.7,0-8.6-3.8-8.6-8.6V93.8c0-4.7,3.8-8.6,8.6-8.6c4.7,0,8.6,3.8,8.6,8.6V213.7z"/></g></g>
</svg>