<svg width="522" height="188" viewBox="0 0 522 188" fill="none" xmlns="http://www.w3.org/2000/svg">
<path d="M182.798 56.1233L182.062 53.7768C181.624 51.7708 181.864 50.1473 182.783 48.9062C183.849 47.6532 185.112 46.9674 186.574 46.8489C190.229 46.5525 193.11 48.5062 195.219 52.7099C200.167 63.0997 203.628 72.8081 205.6 81.8351C207.573 90.8621 208.533 100.7 208.479 111.35C208.395 121.856 207.25 131.938 205.046 141.595C202.81 151.109 198.753 159.094 192.874 165.55C186.994 172.005 180.034 175.559 171.994 176.211C164.1 176.851 157.334 175.504 151.695 172.17C146.203 168.824 141.667 163.723 138.086 156.868C132.104 145.833 127.375 132.363 123.9 116.459C120.393 100.411 118.489 84.8889 118.188 69.8933C118.188 67.8518 118.721 66.2045 119.786 64.9515C120.851 63.6986 122.042 63.0187 123.357 62.912C127.743 62.5564 130.406 64.5279 131.345 68.8264L131.579 72.9634C131.724 85.2009 132.924 96.478 135.178 106.795C137.401 116.968 139.024 124.055 140.047 128.055C141.039 131.912 142.463 136.389 144.322 141.488C146.295 146.432 148.299 150.499 150.335 153.688C152.339 156.733 154.908 159.296 158.04 161.375C161.141 163.311 164.519 164.13 168.174 163.834C176.214 163.182 182.542 158.44 187.158 149.608C191.743 140.632 194.344 130.068 194.962 117.914C195.725 105.749 195.042 94.7947 192.913 85.0513C190.753 75.1645 187.381 65.5219 182.798 56.1233ZM7.89038 75.7752C6.63797 70.0438 14.5637 66.4846 31.6675 65.0976C48.9176 63.6988 65.5883 60.67 81.6796 56.0111C83.7785 55.4034 85.1934 55.07 85.9243 55.0107C90.3099 54.6551 92.9724 56.6265 93.9117 60.9251C94.6632 64.364 92.94 66.6911 88.7423 67.9064C72.4525 73.0188 54.5862 76.3633 35.1433 77.94C27.103 78.592 22.211 79.3532 20.4671 80.2238C18.8694 81.0825 17.3396 81.5711 15.8778 81.6896C11.4922 82.0453 8.8297 80.0738 7.89038 75.7752ZM66.4677 88.5241C66.6869 89.5271 66.7546 91.1986 66.6708 93.5385C66.6181 98.0634 66.8001 104.684 67.2169 113.399C67.7798 122.103 71.2863 141.213 77.7362 170.73C78.6755 175.029 76.9524 177.356 72.5668 177.712C68.1812 178.067 65.5187 176.096 64.5794 171.797C57.7224 140.418 54.0908 119.713 53.6847 109.684C53.2472 99.5122 53.1226 92.8144 53.3109 89.591C53.3949 85.2094 55.118 82.8823 58.4803 82.6097C62.8659 82.254 65.5284 84.2255 66.4677 88.5241ZM313.306 64.1328C300.442 65.176 290.918 70.6147 284.736 80.4488C278.553 90.2829 276.902 101.791 279.783 114.973L289.646 160.108C290.585 164.407 288.862 166.734 284.476 167.09C280.091 167.445 277.428 165.474 276.489 161.175L266.626 116.04C263.839 103.288 264.624 91.5583 268.979 80.8516C273.334 70.1449 280.175 62.299 289.5 57.3139C266.758 55.3666 245.885 55.1635 226.88 56.7046C222.495 57.0602 219.832 55.0888 218.893 50.7902C217.954 46.4916 219.677 44.1645 224.062 43.8089C246.721 41.9715 275.217 43.0147 309.549 46.9385C311.366 47.0829 313.12 47.9614 314.812 49.5741C316.472 51.0436 317.537 52.8529 318.006 55.0022C318.476 57.1515 318.183 59.2168 317.128 61.198C316.042 63.036 314.768 64.0143 313.306 64.1328ZM383.051 15.1672C383.207 15.8837 383.155 17.3461 382.894 19.5547C380.71 36.7933 376.114 50.1444 369.106 59.6079C367.958 61.1593 366.36 62.018 364.313 62.184C359.928 62.5396 357.265 60.5681 356.326 56.2696C355.982 54.6934 356.441 53.0521 357.705 51.3455C363.449 43.5885 367.366 31.8966 369.456 16.2697C369.832 11.8644 371.701 9.52548 375.064 9.25283C379.449 8.8972 382.112 10.8687 383.051 15.1672ZM388.424 152.098C389.364 156.397 387.641 158.724 383.255 159.08C380.039 159.34 377.376 157.369 375.268 153.165C370.048 142.214 366.932 135.103 365.919 131.831C360.095 111.304 355.382 92.8023 351.782 76.3244C350.842 72.0258 352.565 69.6987 356.951 69.3431C361.337 68.9875 363.999 70.9589 364.938 75.2575C368.289 90.5891 372.876 108.518 378.7 129.045C379.629 132.615 381.451 137.206 384.165 142.819C386.879 148.432 388.299 151.525 388.424 152.098ZM437.96 45.4937C439.475 32.6841 444.838 25.9059 454.048 25.1591C461.357 24.5663 467.413 28.45 472.215 36.81C476.506 44.1908 484.012 62.5393 494.733 91.8557C499.139 90.9151 501.635 90.421 502.22 90.3736C506.605 90.018 509.268 91.9895 510.207 96.288C510.583 98.0074 510.238 99.4936 509.173 100.747C508.108 102 506.729 102.841 505.037 103.269L499.477 104.376C503.538 116.151 506.21 124.975 507.494 130.85C508.777 136.724 508.213 141.291 505.801 144.549C503.388 147.807 500.135 149.602 496.042 149.934C492.095 150.254 487.934 148.914 483.559 145.915C479.331 142.904 475.723 139.332 472.738 135.199C466.317 126.241 462.605 119.47 461.603 114.885C459.694 106.144 466.492 99.4684 481.998 94.857C470.829 64.8479 464.075 47.8966 461.736 44.0032C459.513 39.9546 457.889 37.9718 456.866 38.0548C453.942 38.2918 452.088 41.7232 451.304 48.3489C448.901 68.6676 447.542 83.2145 447.227 91.9894C446.913 100.764 446.625 110.339 446.363 120.714C446.101 131.089 445.844 138.765 445.593 143.744C445.457 148.567 444.987 151.522 444.183 152.608C443.525 153.682 442.245 154.296 440.345 154.45C435.959 154.806 433.297 152.834 432.358 148.536L432.233 145.921C432.505 138.316 432.772 129.326 433.034 118.951C433.443 108.565 433.699 100.888 433.804 95.9215C434.369 82.1682 435.755 65.3589 437.96 45.4937ZM486.79 107.593C478.426 110.167 474.494 112.6 474.995 114.892C475.559 117.472 478.226 121.849 482.997 128.024C487.915 134.187 491.324 137.192 493.224 137.038C494.686 136.919 494.9 134.496 493.867 129.767C492.803 124.896 490.444 117.504 486.79 107.593Z" fill="black"/>
</svg>
