<svg width="461" height="158" viewBox="0 0 461 158" fill="none" xmlns="http://www.w3.org/2000/svg">
<mask id="path-1-outside-1_50_153" maskUnits="userSpaceOnUse" x="-7.51813" y="-8.98891" width="479.839" height="175.179" fill="black">
<rect fill="white" x="-7.51813" y="-8.98891" width="479.839" height="175.179"/>
<path d="M161.168 44.6067L160.499 42.4736C160.1 40.6499 160.319 39.174 161.154 38.0457C162.123 36.9066 163.271 36.2832 164.6 36.1754C167.923 35.906 170.542 37.6821 172.459 41.5037C176.958 50.9489 180.104 59.7747 181.897 67.9811C183.69 76.1874 184.563 85.1313 184.514 94.8127C184.437 104.364 183.397 113.529 181.393 122.308C179.361 130.958 175.672 138.217 170.327 144.085C164.982 149.954 158.655 153.185 151.346 153.777C144.169 154.359 138.018 153.135 132.893 150.104C127.9 147.062 123.776 142.425 120.52 136.193C115.082 126.161 110.783 113.916 107.624 99.457C104.436 84.8679 102.705 70.7572 102.431 57.1249C102.431 55.269 102.916 53.7715 103.884 52.6324C104.852 51.4933 105.935 50.8753 107.131 50.7783C111.118 50.455 113.538 52.2472 114.392 56.155L114.605 59.9159C114.737 71.041 115.827 81.2928 117.877 90.6715C119.898 99.9199 121.373 106.362 122.303 109.999C123.204 113.505 124.5 117.576 126.189 122.211C127.983 126.706 129.805 130.403 131.656 133.302C133.478 136.07 135.813 138.4 138.66 140.29C141.479 142.05 144.55 142.795 147.873 142.526C155.182 141.933 160.935 137.622 165.131 129.593C169.3 121.433 171.664 111.829 172.225 100.78C172.92 89.7211 172.299 79.7625 170.363 70.9049C168.399 61.9169 165.334 53.1509 161.168 44.6067ZM2.1606 62.4721C1.02204 57.2617 8.22724 54.0261 23.7762 52.7652C39.4581 51.4935 54.6132 48.7401 69.2417 44.5047C71.1498 43.9523 72.4361 43.6492 73.1006 43.5953C77.0875 43.272 79.5079 45.0642 80.3618 48.972C81.0449 52.0982 79.4784 54.2138 75.6623 55.3186C60.8534 59.9663 44.6113 63.0068 26.936 64.4401C19.6267 65.0328 15.1793 65.7249 13.594 66.5162C12.1415 67.2969 10.7508 67.7411 9.42185 67.8488C5.43493 68.1721 3.01452 66.3799 2.1606 62.4721ZM55.4127 74.062C55.6119 74.9738 55.6735 76.4933 55.5973 78.6206C55.5494 82.7341 55.7149 88.7525 56.0938 96.6758C56.6055 104.588 59.7932 121.961 65.6568 148.795C66.5107 152.703 64.9442 154.818 60.9573 155.142C56.9704 155.465 54.55 153.673 53.6961 149.765C47.4624 121.238 44.161 102.416 43.7918 93.2987C43.394 84.0512 43.2808 77.9622 43.4519 75.0319C43.5283 71.0486 45.0948 68.9331 48.1514 68.6852C52.1384 68.3619 54.5588 70.1542 55.4127 74.062ZM279.812 51.8881C268.117 52.8365 259.459 57.7807 253.838 66.7208C248.218 75.6609 246.717 86.123 249.336 98.1068L258.302 139.139C259.156 143.046 257.589 145.162 253.602 145.485C249.615 145.809 247.195 144.016 246.341 140.109L237.375 99.0768C234.842 87.4836 235.555 76.8204 239.514 67.087C243.473 57.3536 249.692 50.221 258.169 45.6891C237.495 43.9188 218.519 43.7342 201.242 45.1352C197.255 45.4585 194.835 43.6662 193.981 39.7584C193.127 35.8507 194.694 33.7351 198.681 33.4118C219.28 31.7414 245.185 32.6898 276.396 36.2569C278.048 36.3881 279.642 37.1868 281.18 38.6529C282.689 39.9888 283.657 41.6337 284.084 43.5876C284.511 45.5415 284.245 47.419 283.286 49.2201C282.299 50.891 281.141 51.7803 279.812 51.8881ZM343.216 7.37393C343.358 8.02523 343.31 9.35477 343.073 11.3626C341.087 27.034 336.909 39.1713 330.539 47.7746C329.494 49.1849 328.042 49.9656 326.181 50.1164C322.195 50.4397 319.774 48.6475 318.92 44.7397C318.607 43.3068 319.025 41.8147 320.174 40.2633C325.395 33.2115 328.956 22.5824 330.856 8.37617C331.198 4.37139 332.898 2.24507 335.954 1.99721C339.941 1.6739 342.362 3.46614 343.216 7.37393ZM348.101 131.857C348.955 135.765 347.388 137.88 343.401 138.203C340.477 138.44 338.057 136.648 336.14 132.827C331.395 122.871 328.562 116.406 327.641 113.432C322.346 94.7714 318.062 77.9512 314.789 62.9714C313.935 59.0636 315.502 56.948 319.489 56.6247C323.475 56.3014 325.896 58.0937 326.75 62.0015C329.795 75.9392 333.966 92.2383 339.261 110.899C340.105 114.144 341.761 118.319 344.229 123.421C346.696 128.524 347.987 131.336 348.101 131.857ZM393.133 34.9435C394.511 23.2984 399.386 17.1363 407.758 16.4574C414.403 15.9186 419.908 19.4492 424.274 27.0492C428.175 33.759 434.998 50.4395 444.744 77.0907C448.75 76.2356 451.019 75.7865 451.551 75.7434C455.538 75.4201 457.958 77.2123 458.812 81.1201C459.154 82.6832 458.84 84.0343 457.872 85.1734C456.903 86.3125 455.65 87.0769 454.112 87.4667L449.058 88.4732C452.749 99.177 455.178 107.199 456.345 112.54C457.512 117.881 456.999 122.032 454.806 124.993C452.613 127.955 449.656 129.587 445.935 129.889C442.347 130.18 438.564 128.962 434.587 126.235C430.743 123.498 427.463 120.251 424.749 116.494C418.912 108.35 415.538 102.195 414.627 98.0262C412.891 90.0804 419.071 84.0113 433.168 79.8191C423.014 52.5382 416.874 37.1279 414.748 33.5884C412.726 29.9079 411.25 28.1053 410.32 28.1808C407.662 28.3963 405.977 31.5158 405.264 37.5391C403.079 56.0107 401.844 69.2351 401.558 77.2123C401.272 85.1895 401.01 93.894 400.772 103.326C400.534 112.757 400.3 119.736 400.072 124.262C399.948 128.647 399.521 131.333 398.79 132.32C398.192 133.296 397.029 133.855 395.301 133.995C391.314 134.318 388.894 132.526 388.04 128.618L387.926 126.241C388.174 119.327 388.417 111.155 388.655 101.723C389.026 92.2807 389.259 85.302 389.355 80.7869C389.869 68.2839 391.128 53.0027 393.133 34.9435ZM437.524 91.397C429.92 93.737 426.346 95.9491 426.801 98.0332C427.314 100.378 429.739 104.357 434.076 109.971C438.546 115.574 441.646 118.305 443.373 118.165C444.702 118.058 444.897 115.854 443.958 111.556C442.99 107.127 440.845 100.407 437.524 91.397Z"/>
</mask>
<path d="M161.168 44.6067L160.499 42.4736C160.1 40.6499 160.319 39.174 161.154 38.0457C162.123 36.9066 163.271 36.2832 164.6 36.1754C167.923 35.906 170.542 37.6821 172.459 41.5037C176.958 50.9489 180.104 59.7747 181.897 67.9811C183.69 76.1874 184.563 85.1313 184.514 94.8127C184.437 104.364 183.397 113.529 181.393 122.308C179.361 130.958 175.672 138.217 170.327 144.085C164.982 149.954 158.655 153.185 151.346 153.777C144.169 154.359 138.018 153.135 132.893 150.104C127.9 147.062 123.776 142.425 120.52 136.193C115.082 126.161 110.783 113.916 107.624 99.457C104.436 84.8679 102.705 70.7572 102.431 57.1249C102.431 55.269 102.916 53.7715 103.884 52.6324C104.852 51.4933 105.935 50.8753 107.131 50.7783C111.118 50.455 113.538 52.2472 114.392 56.155L114.605 59.9159C114.737 71.041 115.827 81.2928 117.877 90.6715C119.898 99.9199 121.373 106.362 122.303 109.999C123.204 113.505 124.5 117.576 126.189 122.211C127.983 126.706 129.805 130.403 131.656 133.302C133.478 136.07 135.813 138.4 138.66 140.29C141.479 142.05 144.55 142.795 147.873 142.526C155.182 141.933 160.935 137.622 165.131 129.593C169.3 121.433 171.664 111.829 172.225 100.78C172.92 89.7211 172.299 79.7625 170.363 70.9049C168.399 61.9169 165.334 53.1509 161.168 44.6067ZM2.1606 62.4721C1.02204 57.2617 8.22724 54.0261 23.7762 52.7652C39.4581 51.4935 54.6132 48.7401 69.2417 44.5047C71.1498 43.9523 72.4361 43.6492 73.1006 43.5953C77.0875 43.272 79.5079 45.0642 80.3618 48.972C81.0449 52.0982 79.4784 54.2138 75.6623 55.3186C60.8534 59.9663 44.6113 63.0068 26.936 64.4401C19.6267 65.0328 15.1793 65.7249 13.594 66.5162C12.1415 67.2969 10.7508 67.7411 9.42185 67.8488C5.43493 68.1721 3.01452 66.3799 2.1606 62.4721ZM55.4127 74.062C55.6119 74.9738 55.6735 76.4933 55.5973 78.6206C55.5494 82.7341 55.7149 88.7525 56.0938 96.6758C56.6055 104.588 59.7932 121.961 65.6568 148.795C66.5107 152.703 64.9442 154.818 60.9573 155.142C56.9704 155.465 54.55 153.673 53.6961 149.765C47.4624 121.238 44.161 102.416 43.7918 93.2987C43.394 84.0512 43.2808 77.9622 43.4519 75.0319C43.5283 71.0486 45.0948 68.9331 48.1514 68.6852C52.1384 68.3619 54.5588 70.1542 55.4127 74.062ZM279.812 51.8881C268.117 52.8365 259.459 57.7807 253.838 66.7208C248.218 75.6609 246.717 86.123 249.336 98.1068L258.302 139.139C259.156 143.046 257.589 145.162 253.602 145.485C249.615 145.809 247.195 144.016 246.341 140.109L237.375 99.0768C234.842 87.4836 235.555 76.8204 239.514 67.087C243.473 57.3536 249.692 50.221 258.169 45.6891C237.495 43.9188 218.519 43.7342 201.242 45.1352C197.255 45.4585 194.835 43.6662 193.981 39.7584C193.127 35.8507 194.694 33.7351 198.681 33.4118C219.28 31.7414 245.185 32.6898 276.396 36.2569C278.048 36.3881 279.642 37.1868 281.18 38.6529C282.689 39.9888 283.657 41.6337 284.084 43.5876C284.511 45.5415 284.245 47.419 283.286 49.2201C282.299 50.891 281.141 51.7803 279.812 51.8881ZM343.216 7.37393C343.358 8.02523 343.31 9.35477 343.073 11.3626C341.087 27.034 336.909 39.1713 330.539 47.7746C329.494 49.1849 328.042 49.9656 326.181 50.1164C322.195 50.4397 319.774 48.6475 318.92 44.7397C318.607 43.3068 319.025 41.8147 320.174 40.2633C325.395 33.2115 328.956 22.5824 330.856 8.37617C331.198 4.37139 332.898 2.24507 335.954 1.99721C339.941 1.6739 342.362 3.46614 343.216 7.37393ZM348.101 131.857C348.955 135.765 347.388 137.88 343.401 138.203C340.477 138.44 338.057 136.648 336.14 132.827C331.395 122.871 328.562 116.406 327.641 113.432C322.346 94.7714 318.062 77.9512 314.789 62.9714C313.935 59.0636 315.502 56.948 319.489 56.6247C323.475 56.3014 325.896 58.0937 326.75 62.0015C329.795 75.9392 333.966 92.2383 339.261 110.899C340.105 114.144 341.761 118.319 344.229 123.421C346.696 128.524 347.987 131.336 348.101 131.857ZM393.133 34.9435C394.511 23.2984 399.386 17.1363 407.758 16.4574C414.403 15.9186 419.908 19.4492 424.274 27.0492C428.175 33.759 434.998 50.4395 444.744 77.0907C448.75 76.2356 451.019 75.7865 451.551 75.7434C455.538 75.4201 457.958 77.2123 458.812 81.1201C459.154 82.6832 458.84 84.0343 457.872 85.1734C456.903 86.3125 455.65 87.0769 454.112 87.4667L449.058 88.4732C452.749 99.177 455.178 107.199 456.345 112.54C457.512 117.881 456.999 122.032 454.806 124.993C452.613 127.955 449.656 129.587 445.935 129.889C442.347 130.18 438.564 128.962 434.587 126.235C430.743 123.498 427.463 120.251 424.749 116.494C418.912 108.35 415.538 102.195 414.627 98.0262C412.891 90.0804 419.071 84.0113 433.168 79.8191C423.014 52.5382 416.874 37.1279 414.748 33.5884C412.726 29.9079 411.25 28.1053 410.32 28.1808C407.662 28.3963 405.977 31.5158 405.264 37.5391C403.079 56.0107 401.844 69.2351 401.558 77.2123C401.272 85.1895 401.01 93.894 400.772 103.326C400.534 112.757 400.3 119.736 400.072 124.262C399.948 128.647 399.521 131.333 398.79 132.32C398.192 133.296 397.029 133.855 395.301 133.995C391.314 134.318 388.894 132.526 388.04 128.618L387.926 126.241C388.174 119.327 388.417 111.155 388.655 101.723C389.026 92.2807 389.259 85.302 389.355 80.7869C389.869 68.2839 391.128 53.0027 393.133 34.9435ZM437.524 91.397C429.92 93.737 426.346 95.9491 426.801 98.0332C427.314 100.378 429.739 104.357 434.076 109.971C438.546 115.574 441.646 118.305 443.373 118.165C444.702 118.058 444.897 115.854 443.958 111.556C442.99 107.127 440.845 100.407 437.524 91.397Z" fill="black"/>
<path d="M161.168 44.6067L159.221 44.9446L159.269 45.0973L159.341 45.2439L161.168 44.6067ZM160.499 42.4736L158.505 42.6352L158.525 42.7239L158.552 42.8115L160.499 42.4736ZM161.154 38.0457L159.511 36.6927L159.475 36.7344L159.443 36.7784L161.154 38.0457ZM172.459 41.5037L174.296 40.8848L174.286 40.8643L174.276 40.844L172.459 41.5037ZM184.514 94.8127L186.553 95.0787L186.553 95.0731L184.514 94.8127ZM181.393 122.308L183.385 122.968L183.387 122.957L181.393 122.308ZM170.327 144.085L168.72 142.69L170.327 144.085ZM132.893 150.104L131.967 151.722L131.98 151.73L131.994 151.738L132.893 150.104ZM120.52 136.193L122.32 135.501L122.312 135.486L122.304 135.47L120.52 136.193ZM102.431 57.1249L100.392 56.8736L100.392 56.8924L100.393 56.9112L102.431 57.1249ZM103.884 52.6324L105.527 53.9854L105.528 53.9854L103.884 52.6324ZM114.392 56.155L116.428 56.3001L116.419 56.1467L116.385 55.9934L114.392 56.155ZM114.605 59.9159L116.644 60.1451L116.643 60.1031L116.641 60.061L114.605 59.9159ZM122.303 109.999L120.326 110.23L120.327 110.233L122.303 109.999ZM126.189 122.211L124.273 122.64L124.284 122.671L124.296 122.701L126.189 122.211ZM131.656 133.302L129.955 134.164L129.963 134.178L129.972 134.191L131.656 133.302ZM138.66 140.29L137.655 141.858L137.683 141.876L137.712 141.894L138.66 140.29ZM165.131 129.593L166.978 130.645L166.981 130.638L166.985 130.631L165.131 129.593ZM172.225 100.78L170.19 100.414L170.19 100.425L170.189 100.436L172.225 100.78ZM69.2417 44.5047L70.0513 46.389L69.2417 44.5047ZM75.6623 55.3186L74.8527 53.4344L74.8328 53.4402L74.8131 53.4463L75.6623 55.3186ZM13.594 66.5162L12.4799 64.7506L12.4563 64.7624L12.4331 64.7748L13.594 66.5162ZM55.5973 78.6206L53.5598 78.3035L53.559 78.3257L53.5588 78.3479L55.5973 78.6206ZM56.0938 96.6758L54.0572 96.5141L54.058 96.53L54.059 96.5459L56.0938 96.6758ZM43.7918 93.2987L45.8289 93.4742L45.8287 93.4695L43.7918 93.2987ZM43.4519 75.0319L45.4875 75.39L45.4896 75.3543L45.4903 75.3184L43.4519 75.0319ZM161.168 44.6067L163.114 44.2688L162.445 42.1357L160.499 42.4736L158.552 42.8115L159.221 44.9446L161.168 44.6067ZM160.499 42.4736L162.492 42.3119C162.178 40.8761 162.39 39.9548 162.866 39.313L161.154 38.0457L159.443 36.7784C158.247 38.3932 158.022 40.4238 158.505 42.6352L160.499 42.4736ZM161.154 38.0457L162.798 39.3987C163.534 38.5326 164.282 38.1898 165.027 38.1293L164.6 36.1754L164.173 34.2215C162.261 34.3766 160.711 35.2807 159.511 36.6927L161.154 38.0457ZM164.6 36.1754L165.027 38.1293C166.257 38.0296 167.214 38.3057 168.032 38.8599C168.895 39.445 169.796 40.4734 170.643 42.1633L172.459 41.5037L174.276 40.844C173.206 38.7124 171.839 36.942 170.082 35.7509C168.28 34.5291 166.266 34.0519 164.173 34.2215L164.6 36.1754ZM172.459 41.5037L170.623 42.1225C175.065 51.4493 178.151 60.1203 179.904 68.1427L181.897 67.9811L183.891 67.8194C182.057 59.4291 178.85 50.4485 174.296 40.8848L172.459 41.5037ZM181.897 67.9811L179.904 68.1427C181.661 76.1853 182.523 84.9857 182.476 94.5522L184.514 94.8127L186.553 95.0731C186.602 85.2769 185.72 76.1896 183.891 67.8194L181.897 67.9811ZM184.514 94.8127L182.476 94.5466C182.4 103.972 181.373 113.009 179.399 121.66L181.393 122.308L183.387 122.957C185.421 114.049 186.475 104.755 186.553 95.0787L184.514 94.8127ZM181.393 122.308L179.401 121.649C177.427 130.049 173.859 137.049 168.72 142.69L170.327 144.085L171.934 145.48C177.485 139.384 181.294 131.866 183.385 122.968L181.393 122.308ZM170.327 144.085L168.72 142.69C163.62 148.291 157.686 151.275 150.919 151.824L151.346 153.777L151.773 155.731C159.624 155.095 166.345 151.617 171.934 145.48L170.327 144.085ZM151.346 153.777L150.919 151.824C144.061 152.38 138.401 151.195 133.791 148.469L132.893 150.104L131.994 151.738C137.635 155.074 144.278 156.339 151.773 155.731L151.346 153.777ZM132.893 150.104L133.818 148.485C129.278 145.719 125.426 141.446 122.32 135.501L120.52 136.193L118.721 136.885C122.126 143.403 126.522 148.405 131.967 151.722L132.893 150.104ZM120.52 136.193L122.304 135.47C116.99 125.668 112.748 113.623 109.617 99.2953L107.624 99.457L105.63 99.6186C108.819 114.208 113.175 126.655 118.737 136.916L120.52 136.193ZM107.624 99.457L109.617 99.2953C106.455 84.8229 104.741 70.8382 104.469 57.3387L102.431 57.1249L100.393 56.9112C100.669 70.6762 102.417 84.9129 105.63 99.6186L107.624 99.457ZM102.431 57.1249L104.47 57.3763C104.47 55.8536 104.862 54.7686 105.527 53.9854L103.884 52.6324L102.241 51.2794C100.97 52.7743 100.393 54.6843 100.392 56.8736L102.431 57.1249ZM103.884 52.6324L105.528 53.9854C106.302 53.0747 106.995 52.7779 107.558 52.7322L107.131 50.7783L106.704 48.8244C104.875 48.9727 103.403 49.9119 102.241 51.2794L103.884 52.6324ZM107.131 50.7783L107.558 52.7322C109.244 52.5955 110.232 52.9345 110.828 53.3759C111.425 53.8174 112.037 54.664 112.398 56.3167L114.392 56.155L116.385 55.9934C115.893 53.7383 114.868 51.7349 113.044 50.3841C111.22 49.0333 109.004 48.6378 106.704 48.8244L107.131 50.7783ZM114.392 56.155L112.356 56.01L112.569 59.7709L114.605 59.9159L116.641 60.061L116.428 56.3001L114.392 56.155ZM114.605 59.9159L112.567 59.6868C112.7 70.9178 113.801 81.3025 115.883 90.8332L117.877 90.6715L119.87 90.5099C117.854 81.2831 116.774 71.1641 116.644 60.1451L114.605 59.9159ZM117.877 90.6715L115.883 90.8332C117.904 100.08 119.386 106.555 120.326 110.23L122.303 109.999L124.28 109.768C123.36 106.17 121.891 99.7596 119.87 90.5099L117.877 90.6715ZM122.303 109.999L120.327 110.233C121.25 113.822 122.568 117.961 124.273 122.64L126.189 122.211L128.105 121.783C126.432 117.191 125.159 113.188 124.279 109.765L122.303 109.999ZM126.189 122.211L124.296 122.701C126.121 127.273 128.003 131.106 129.955 134.164L131.656 133.302L133.356 132.439C131.607 129.699 129.844 126.138 128.082 121.722L126.189 122.211ZM131.656 133.302L129.972 134.191C131.972 137.23 134.54 139.79 137.655 141.858L138.66 140.29L139.666 138.722C137.085 137.009 134.983 134.911 133.339 132.412L131.656 133.302ZM138.66 140.29L137.712 141.894C140.983 143.936 144.544 144.784 148.3 144.48L147.873 142.526L147.446 140.572C144.556 140.806 141.976 140.163 139.608 138.685L138.66 140.29ZM147.873 142.526L148.3 144.48C156.423 143.821 162.606 139.01 166.978 130.645L165.131 129.593L163.285 128.541C159.264 136.234 153.941 140.045 147.446 140.572L147.873 142.526ZM165.131 129.593L166.985 130.631C171.278 122.227 173.69 112.379 174.262 101.125L172.225 100.78L170.189 100.436C169.638 111.279 167.321 120.639 163.278 128.554L165.131 129.593ZM172.225 100.78L174.261 101.146C174.963 89.9571 174.339 79.8168 172.357 70.7432L170.363 70.9049L168.37 71.0665C170.258 79.7083 170.876 89.485 170.19 100.414L172.225 100.78ZM170.363 70.9049L172.357 70.7432C170.357 61.593 167.236 52.6672 162.995 43.9695L161.168 44.6067L159.341 45.2439C163.432 53.6346 166.441 62.2409 168.37 71.0665L170.363 70.9049ZM2.1606 62.4721L4.15405 62.3104C3.86205 60.9742 4.42413 59.4319 7.75946 57.9341C11.0673 56.4487 16.4888 55.3447 24.2032 54.7191L23.7762 52.7652L23.3492 50.8113C15.5146 51.4466 9.55906 52.5909 5.6617 54.341C1.79182 56.0789 -0.679415 58.7597 0.167141 62.6338L2.1606 62.4721ZM23.7762 52.7652L24.2032 54.7191C40.0155 53.4369 55.2989 50.6602 70.0513 46.389L69.2417 44.5047L68.4321 42.6205C53.9276 46.8199 38.9006 49.5502 23.3492 50.8113L23.7762 52.7652ZM69.2417 44.5047L70.0513 46.389C71.9939 45.8266 73.0943 45.5843 73.5275 45.5492L73.1006 43.5953L72.6736 41.6414C71.7778 41.714 70.3057 42.078 68.4321 42.6205L69.2417 44.5047ZM73.1006 43.5953L73.5275 45.5492C75.2137 45.4124 76.2022 45.7514 76.7984 46.1929C77.3946 46.6344 78.0072 47.4809 78.3683 49.1336L80.3618 48.972L82.3553 48.8103C81.8625 46.5553 80.8379 44.5518 79.0137 43.2011C77.1895 41.8503 74.9743 41.4548 72.6736 41.6414L73.1006 43.5953ZM80.3618 48.972L78.3683 49.1336C78.6129 50.2527 78.4377 51.0284 77.9878 51.636C77.5001 52.2947 76.547 52.9439 74.8527 53.4344L75.6623 55.3186L76.4719 57.2029C78.5938 56.5886 80.332 55.6275 81.4108 54.1706C82.5273 52.6627 82.7939 50.8175 82.3553 48.8103L80.3618 48.972ZM75.6623 55.3186L74.8131 53.4463C60.1532 58.0472 44.0546 61.0634 26.509 62.4862L26.936 64.4401L27.363 66.394C45.1681 64.9501 61.5536 61.8854 76.5115 57.1909L75.6623 55.3186ZM26.936 64.4401L26.509 62.4862C22.8312 62.7844 19.8379 63.1103 17.5465 63.4669C15.3287 63.812 13.5528 64.215 12.4799 64.7506L13.594 66.5162L14.7081 68.2819C15.2205 68.0261 16.4609 67.6874 18.6905 67.3404C20.8464 67.005 23.7315 66.6885 27.363 66.394L26.936 64.4401ZM13.594 66.5162L12.4331 64.7748C11.1387 65.4706 9.99459 65.8139 8.99489 65.8949L9.42185 67.8488L9.84881 69.8027C11.507 69.6683 13.1444 69.1232 14.7548 68.2577L13.594 66.5162ZM9.42185 67.8488L8.99489 65.8949C7.30871 66.0317 6.32023 65.6927 5.72403 65.2512C5.12783 64.8097 4.5152 63.9632 4.15405 62.3104L2.1606 62.4721L0.167141 62.6338C0.659914 64.8888 1.68445 66.8923 3.50867 68.243C5.33289 69.5938 7.54807 69.9893 9.84881 69.8027L9.42185 67.8488ZM55.4127 74.062L53.4192 74.2236C53.5608 74.8716 53.6359 76.1792 53.5598 78.3035L55.5973 78.6206L57.6348 78.9376C57.7111 76.8074 57.663 75.076 57.4061 73.9003L55.4127 74.062ZM55.5973 78.6206L53.5588 78.3479C53.5102 82.5177 53.6779 88.5806 54.0572 96.5141L56.0938 96.6758L58.1303 96.8376C57.7519 88.9244 57.5886 82.9504 57.6359 78.8933L55.5973 78.6206ZM56.0938 96.6758L54.059 96.5459C54.5821 104.633 57.8081 122.161 63.6633 148.957L65.6568 148.795L67.6502 148.633C61.7784 121.762 58.629 104.544 58.1285 96.8058L56.0938 96.6758ZM65.6568 148.795L63.6633 148.957C64.0245 150.609 63.7967 151.524 63.4109 152.045C63.025 152.566 62.2165 153.051 60.5303 153.188L60.9573 155.142L61.3843 157.095C63.685 156.909 65.6532 156.174 66.8339 154.58C68.0145 152.985 68.143 150.888 67.6502 148.633L65.6568 148.795ZM60.9573 155.142L60.5303 153.188C58.8442 153.324 57.8557 152.985 57.2595 152.544C56.6633 152.102 56.0507 151.256 55.6895 149.603L53.6961 149.765L51.7026 149.926C52.1954 152.182 53.2199 154.185 55.0441 155.536C56.8683 156.887 59.0835 157.282 61.3843 157.095L60.9573 155.142ZM53.6961 149.765L55.6895 149.603C49.4485 121.042 46.1901 102.393 45.8289 93.4742L43.7918 93.2987L41.7546 93.1232C42.1319 102.439 45.4764 121.434 51.7026 149.926L53.6961 149.765ZM43.7918 93.2987L45.8287 93.4695C45.4302 84.2035 45.3227 78.211 45.4875 75.39L43.4519 75.0319L41.4164 74.6737C41.2388 77.7135 41.3579 83.8988 41.7548 93.1279L43.7918 93.2987ZM43.4519 75.0319L45.4903 75.3184C45.5245 73.5343 45.8923 72.4047 46.3956 71.7251C46.8588 71.0995 47.5297 70.7242 48.5784 70.6391L48.1514 68.6852L47.7245 66.7313C45.7166 66.8942 44.0758 67.7006 42.9726 69.1905C41.9094 70.6264 41.4558 72.5462 41.4136 74.7453L43.4519 75.0319ZM48.1514 68.6852L48.5784 70.6391C50.2646 70.5024 51.2531 70.8414 51.8493 71.2829C52.4455 71.7243 53.0581 72.5709 53.4192 74.2236L55.4127 74.062L57.4061 73.9003C56.9134 71.6452 55.8888 69.6418 54.0646 68.291C52.2404 66.9402 50.0252 66.5448 47.7245 66.7313L48.1514 68.6852ZM253.838 66.7208L255.62 67.8858L253.838 66.7208ZM239.514 67.087L241.426 67.9965L239.514 67.087ZM258.169 45.6891L259.327 47.4323L265.115 44.3379L258.089 43.7363L258.169 45.6891ZM276.396 36.2569L276.415 38.2036L276.452 38.2079L276.489 38.2108L276.396 36.2569ZM281.18 38.6529L279.841 39.9546L279.874 39.9856L279.907 40.0153L281.18 38.6529ZM283.286 49.2201L285.091 50.3468L285.109 50.3155L285.127 50.2833L283.286 49.2201ZM279.812 51.8881L279.385 49.9342C267.138 50.9273 257.975 56.1432 252.057 65.5558L253.838 66.7208L255.62 67.8858C260.943 59.4182 269.096 54.7456 280.239 53.842L279.812 51.8881ZM253.838 66.7208L252.057 65.5558C246.176 74.9104 244.629 85.8532 247.342 98.2685L249.336 98.1068L251.329 97.9452C248.805 86.3927 250.26 76.4115 255.62 67.8858L253.838 66.7208ZM249.336 98.1068L247.342 98.2685L256.308 139.3L258.302 139.139L260.295 138.977L251.329 97.9452L249.336 98.1068ZM258.302 139.139L256.308 139.3C256.669 140.953 256.442 141.868 256.056 142.389C255.67 142.91 254.861 143.395 253.175 143.531L253.602 145.485L254.029 147.439C256.33 147.253 258.298 146.518 259.479 144.923C260.659 143.329 260.788 141.232 260.295 138.977L258.302 139.139ZM253.602 145.485L253.175 143.531C251.489 143.668 250.501 143.329 249.904 142.888C249.308 142.446 248.696 141.6 248.334 139.947L246.341 140.109L244.347 140.27C244.84 142.525 245.865 144.529 247.689 145.879C249.513 147.23 251.728 147.626 254.029 147.439L253.602 145.485ZM246.341 140.109L248.334 139.947L239.368 98.9151L237.375 99.0768L235.381 99.2384L244.347 140.27L246.341 140.109ZM237.375 99.0768L239.368 98.9151C236.911 87.6696 237.609 77.3809 241.426 67.9965L239.514 67.087L237.602 66.1776C233.5 76.2599 232.772 87.2977 235.381 99.2384L237.375 99.0768ZM239.514 67.087L241.426 67.9965C245.257 58.5799 251.232 51.7593 259.327 47.4323L258.169 45.6891L257.012 43.9458C248.151 48.6826 241.69 56.1273 237.602 66.1776L239.514 67.087ZM258.169 45.6891L258.089 43.7363C237.317 41.9577 218.223 41.7696 200.815 43.1813L201.242 45.1352L201.669 47.0891C218.814 45.6988 237.672 45.88 258.249 47.6419L258.169 45.6891ZM201.242 45.1352L200.815 43.1813C199.129 43.318 198.141 42.979 197.544 42.5376C196.948 42.0961 196.336 41.2495 195.974 39.5968L193.981 39.7584L191.988 39.9201C192.48 42.1752 193.505 44.1786 195.329 45.5294C197.153 46.8802 199.368 47.2756 201.669 47.0891L201.242 45.1352ZM193.981 39.7584L195.974 39.5968C195.613 37.9441 195.841 37.0294 196.227 36.5083C196.613 35.9872 197.421 35.5024 199.107 35.3657L198.681 33.4118L198.254 31.4579C195.953 31.6445 193.985 32.3792 192.804 33.9736C191.623 35.5681 191.495 37.665 191.988 39.9201L193.981 39.7584ZM198.681 33.4118L199.107 35.3657C219.525 33.71 245.282 34.6454 276.415 38.2036L276.396 36.2569L276.377 34.3103C245.087 30.7342 219.034 29.7728 198.254 31.4579L198.681 33.4118ZM276.396 36.2569L276.489 38.2108C277.501 38.2912 278.602 38.773 279.841 39.9546L281.18 38.6529L282.518 37.3513C280.682 35.6007 278.594 34.4851 276.302 34.3031L276.396 36.2569ZM281.18 38.6529L279.907 40.0153C281.027 41.0068 281.756 42.2194 282.091 43.7492L284.084 43.5876L286.078 43.4259C285.558 41.048 284.351 38.9708 282.452 37.2905L281.18 38.6529ZM284.084 43.5876L282.091 43.7492C282.414 45.2314 282.23 46.6831 281.446 48.1569L283.286 49.2201L285.127 50.2833C286.26 48.1549 286.608 45.8516 286.078 43.4259L284.084 43.5876ZM283.286 49.2201L281.481 48.0935C280.617 49.556 279.855 49.8961 279.385 49.9342L279.812 51.8881L280.239 53.842C282.426 53.6646 283.98 52.226 285.091 50.3468L283.286 49.2201ZM343.073 11.3626L345.097 11.8417L345.098 11.8344L345.099 11.8271L343.073 11.3626ZM330.539 47.7746L332.25 49.0419L330.539 47.7746ZM320.174 40.2633L318.462 38.996L320.174 40.2633ZM330.856 8.37617L332.879 8.86747L332.885 8.82535L332.888 8.78278L330.856 8.37617ZM336.14 132.827L334.304 133.446L334.314 133.466L334.324 133.486L336.14 132.827ZM327.641 113.432L325.678 113.715L325.685 113.739L325.692 113.762L327.641 113.432ZM339.261 110.899L341.235 110.659L341.23 110.637L341.223 110.616L339.261 110.899ZM344.229 123.421L342.398 124.052L344.229 123.421ZM343.216 7.37393L341.222 7.53558C341.222 7.5359 341.222 7.53528 341.222 7.5356C341.222 7.53594 341.222 7.53533 341.222 7.53567C341.222 7.53573 341.222 7.53582 341.222 7.53594C341.222 7.53617 341.222 7.53652 341.222 7.53699C341.223 7.53792 341.223 7.53929 341.223 7.54111C341.224 7.54478 341.225 7.55005 341.226 7.55702C341.228 7.57111 341.231 7.59072 341.234 7.61639C341.24 7.66844 341.246 7.73814 341.25 7.82781C341.259 8.00888 341.26 8.24486 341.249 8.54249C341.228 9.13906 341.162 9.92016 341.047 10.898L343.073 11.3626L345.099 11.8271C345.221 10.7972 345.298 9.9096 345.324 9.17662C345.349 8.48371 345.335 7.79022 345.209 7.21228L343.216 7.37393ZM343.073 11.3626L341.048 10.8834C339.085 26.3817 334.972 38.2094 328.827 46.5073L330.539 47.7746L332.25 49.0419C338.847 40.1333 343.09 27.6863 345.097 11.8417L343.073 11.3626ZM330.539 47.7746L328.827 46.5073C328.073 47.5254 327.08 48.055 325.754 48.1625L326.181 50.1164L326.608 52.0703C329.004 51.8761 330.916 50.8445 332.25 49.0419L330.539 47.7746ZM326.181 50.1164L325.754 48.1625C324.068 48.2993 323.08 47.9603 322.484 47.5188C321.887 47.0773 321.275 46.2308 320.914 44.5781L318.92 44.7397L316.927 44.9014C317.42 47.1564 318.444 49.1599 320.268 50.5106C322.092 51.8614 324.308 52.2569 326.608 52.0703L326.181 50.1164ZM318.92 44.7397L320.914 44.5781C320.754 43.8462 320.907 42.8514 321.885 41.5306L320.174 40.2633L318.462 38.996C317.143 40.778 316.46 42.7675 316.927 44.9014L318.92 44.7397ZM320.174 40.2633L321.885 41.5306C327.343 34.1596 330.961 23.2094 332.879 8.86747L330.856 8.37617L328.833 7.88487C326.952 21.9554 323.448 32.2634 318.462 38.996L320.174 40.2633ZM330.856 8.37617L332.888 8.78278C333.042 6.98205 333.487 5.81247 334.062 5.09273C334.601 4.41841 335.332 4.03617 336.381 3.9511L335.954 1.9972L335.527 0.0433094C333.52 0.206106 331.873 1.01096 330.712 2.46297C329.588 3.86955 329.012 5.76551 328.824 7.96956L330.856 8.37617ZM335.954 1.9972L336.381 3.9511C338.068 3.81436 339.056 4.15336 339.652 4.59483C340.248 5.03629 340.861 5.88287 341.222 7.53558L343.216 7.37393L345.209 7.21228C344.716 4.9572 343.692 2.95377 341.868 1.60299C340.043 0.252212 337.828 -0.143261 335.527 0.0433094L335.954 1.9972ZM348.101 131.857L346.107 132.018C346.468 133.671 346.241 134.586 345.855 135.107C345.469 135.628 344.66 136.113 342.974 136.249L343.401 138.203L343.828 140.157C346.129 139.971 348.097 139.236 349.278 137.642C350.458 136.047 350.587 133.95 350.094 131.695L348.101 131.857ZM343.401 138.203L342.974 136.249C342.019 136.327 341.239 136.087 340.501 135.541C339.7 134.948 338.822 133.894 337.956 132.167L336.14 132.827L334.324 133.486C335.375 135.581 336.666 137.334 338.285 138.533C339.968 139.779 341.859 140.317 343.828 140.157L343.401 138.203ZM336.14 132.827L337.976 132.207C333.212 122.212 330.456 115.899 329.59 113.101L327.641 113.432L325.692 113.762C326.668 116.913 329.578 123.53 334.304 133.446L336.14 132.827ZM327.641 113.432L329.604 113.149C324.318 94.5189 320.045 77.7402 316.782 62.8097L314.789 62.9714L312.796 63.133C316.08 78.1622 320.375 95.0239 325.678 113.715L327.641 113.432ZM314.789 62.9714L316.782 62.8097C316.421 61.157 316.649 60.2423 317.035 59.7212C317.421 59.2001 318.229 58.7154 319.915 58.5786L319.489 56.6247L319.062 54.6708C316.761 54.8574 314.793 55.5921 313.612 57.1866C312.431 58.781 312.303 60.8779 312.796 63.133L314.789 62.9714ZM319.489 56.6247L319.915 58.5786C321.602 58.4419 322.59 58.7809 323.186 59.2223C323.783 59.6638 324.395 60.5104 324.756 62.1631L326.75 62.0015L328.743 61.8398C328.25 59.5847 327.226 57.5813 325.402 56.2305C323.577 54.8797 321.362 54.4843 319.062 54.6708L319.489 56.6247ZM326.75 62.0015L324.756 62.1631C327.813 76.1527 331.995 92.4941 337.298 111.182L339.261 110.899L341.223 110.616C335.936 91.9826 331.778 75.7258 328.743 61.8398L326.75 62.0015ZM339.261 110.899L337.286 111.138C338.18 114.575 339.903 118.893 342.398 124.052L344.229 123.421L346.059 122.791C343.619 117.745 342.03 113.714 341.235 110.659L339.261 110.899ZM344.229 123.421L342.398 124.052C343.63 126.599 344.562 128.562 345.198 129.948C345.517 130.642 345.755 131.178 345.918 131.564C346.112 132.025 346.127 132.11 346.107 132.018L348.101 131.857L350.094 131.695C350.017 131.343 349.829 130.881 349.672 130.509C349.483 130.061 349.223 129.478 348.897 128.766C348.242 127.34 347.295 125.346 346.059 122.791L344.229 123.421ZM393.133 34.9435L391.107 34.479L391.105 34.4917L393.133 34.9435ZM424.274 27.0492L422.518 27.8205L422.524 27.8306L424.274 27.0492ZM444.744 77.0907L442.829 77.5219L443.521 79.4138L445.423 79.0079L444.744 77.0907ZM454.112 87.4668L454.765 89.3892L454.814 89.3796L454.861 89.3675L454.112 87.4668ZM449.058 88.4732L448.405 86.5507L446.464 86.9372L447.13 88.8674L449.058 88.4732ZM434.587 126.235L433.516 127.758L433.534 127.77L433.551 127.783L434.587 126.235ZM424.749 116.494L423.118 117.46L423.123 117.467L424.749 116.494ZM433.168 79.8191L433.99 81.6996L435.749 81.1767L435.079 79.3765L433.168 79.8191ZM414.748 33.5884L412.97 34.322L412.991 34.3602L413.014 34.3978L414.748 33.5884ZM405.264 37.5391L403.238 37.0746L405.264 37.5391ZM401.558 77.2123L399.52 76.8952L401.558 77.2123ZM400.772 103.326L402.81 103.623L400.772 103.326ZM400.072 124.262L398.036 123.918L398.035 123.938L398.034 123.959L400.072 124.262ZM398.79 132.32L397.078 131.053L397.036 131.11L396.998 131.171L398.79 132.32ZM388.04 128.618L386.003 128.456L386.011 128.618L386.046 128.78L388.04 128.618ZM387.926 126.241L385.889 125.924L385.886 126.001L385.89 126.079L387.926 126.241ZM388.655 101.723L386.618 101.4L386.617 101.412L386.617 101.425L388.655 101.723ZM389.355 80.7869L387.318 80.4602L387.317 80.4784L387.317 80.4968L389.355 80.7869ZM437.524 91.397L439.437 90.9607L438.68 88.9075L436.684 89.5217L437.524 91.397ZM434.076 109.971L432.495 111.004L432.507 111.019L432.518 111.033L434.076 109.971ZM393.133 34.9435L395.159 35.408C395.826 29.768 397.321 25.6536 399.502 22.8967C401.646 20.1867 404.511 18.7092 408.185 18.4113L407.758 16.4574L407.331 14.5035C402.633 14.8845 398.874 16.8275 396.143 20.2796C393.449 23.6847 391.817 28.4739 391.107 34.479L393.133 34.9435ZM407.758 16.4574L408.185 18.4113C411.075 18.177 413.61 18.8229 415.898 20.2899C418.227 21.7834 420.456 24.2304 422.518 27.8204L424.274 27.0492L426.03 26.278C423.727 22.268 421.021 19.1496 417.844 17.1125C414.626 15.0489 411.086 14.199 407.331 14.5035L407.758 16.4574ZM424.274 27.0492L422.524 27.8306C426.305 34.3343 433.062 50.8111 442.829 77.5219L444.744 77.0907L446.659 76.6595C436.935 50.0679 430.045 33.1837 426.024 26.2678L424.274 27.0492ZM444.744 77.0907L445.423 79.0079C447.423 78.581 448.98 78.2573 450.101 78.0355C450.662 77.9244 451.105 77.8405 451.436 77.7824C451.602 77.7533 451.732 77.7319 451.831 77.7171C451.938 77.7011 451.979 77.6972 451.978 77.6973L451.551 75.7434L451.124 73.7895C450.717 73.8225 449.886 73.9747 448.8 74.1896C447.652 74.4169 446.072 74.7453 444.066 75.1736L444.744 77.0907ZM451.551 75.7434L451.978 77.6973C453.664 77.5605 454.652 77.8995 455.249 78.341C455.845 78.7825 456.457 79.629 456.819 81.2818L458.812 81.1201L460.805 80.9585C460.313 78.7034 459.288 76.6999 457.464 75.3492C455.64 73.9984 453.425 73.6029 451.124 73.7895L451.551 75.7434ZM458.812 81.1201L456.819 81.2818C457.038 82.2846 456.853 83.085 456.228 83.8204L457.872 85.1734L459.515 86.5263C460.827 84.9836 461.269 83.0819 460.805 80.9585L458.812 81.1201ZM457.872 85.1734L456.228 83.8204C455.49 84.6893 454.548 85.2657 453.364 85.566L454.112 87.4668L454.861 89.3675C456.753 88.8881 458.317 87.9356 459.515 86.5263L457.872 85.1734ZM454.112 87.4668L453.46 85.5443L448.405 86.5507L449.058 88.4732L449.71 90.3957L454.765 89.3892L454.112 87.4668ZM449.058 88.4732L447.13 88.8674C450.816 99.5561 453.212 107.483 454.352 112.702L456.345 112.54L458.339 112.378C457.145 106.915 454.682 98.7979 450.986 88.079L449.058 88.4732ZM456.345 112.54L454.352 112.702C455.45 117.725 454.897 121.292 453.095 123.726L454.806 124.993L456.518 126.261C459.102 122.771 459.575 118.036 458.339 112.378L456.345 112.54ZM454.806 124.993L453.095 123.726C451.176 126.318 448.666 127.679 445.508 127.935L445.935 129.889L446.362 131.843C450.646 131.495 454.051 129.593 456.518 126.261L454.806 124.993ZM445.935 129.889L445.508 127.935C442.54 128.176 439.277 127.194 435.622 124.688L434.587 126.235L433.551 127.783C437.851 130.73 442.154 132.184 446.362 131.843L445.935 129.889ZM434.587 126.235L435.658 124.713C432.027 122.128 428.936 119.067 426.375 115.521L424.749 116.494L423.123 117.467C425.99 121.435 429.458 124.868 433.516 127.758L434.587 126.235ZM424.749 116.494L426.38 115.528C420.554 107.4 417.43 101.57 416.62 97.8645L414.627 98.0262L412.634 98.1878C413.646 102.819 417.27 109.301 423.118 117.46L424.749 116.494ZM414.627 98.0262L416.62 97.8645C415.906 94.5958 416.763 91.6662 419.503 88.9756C422.31 86.2199 427.065 83.759 433.99 81.6996L433.168 79.8191L432.345 77.9387C425.174 80.0714 419.791 82.7411 416.417 86.0546C412.976 89.4329 411.612 93.5108 412.634 98.1878L414.627 98.0262ZM433.168 79.8191L435.079 79.3765C429.999 65.7303 425.919 55.0399 422.84 47.3124C419.796 39.6722 417.659 34.7403 416.481 32.779L414.748 33.5884L413.014 34.3978C413.962 35.9761 415.958 40.519 419.054 48.2891C422.115 55.9718 426.182 66.627 431.257 80.2618L433.168 79.8191ZM414.748 33.5884L416.525 32.8549C415.493 30.9752 414.538 29.4586 413.664 28.3907C413.23 27.861 412.742 27.3493 412.199 26.9591C411.666 26.5768 410.848 26.1495 409.893 26.2269L410.32 28.1808L410.747 30.1347C410.257 30.1744 409.973 29.944 410.042 29.9935C410.1 30.0351 410.281 30.1899 410.585 30.5615C411.187 31.2961 411.981 32.5212 412.97 34.322L414.748 33.5884ZM410.32 28.1808L409.893 26.2269C407.718 26.4032 406.221 27.7701 405.227 29.61C404.239 31.4388 403.605 33.9706 403.238 37.0746L405.264 37.5391L407.29 38.0036C407.636 35.0843 408.201 33.0447 408.898 31.754C409.59 30.4744 410.264 30.1739 410.747 30.1347L410.32 28.1808ZM405.264 37.5391L403.238 37.0746C401.053 55.5476 399.809 68.8366 399.52 76.8952L401.558 77.2123L403.595 77.5293C403.878 69.6336 405.105 56.4737 407.29 38.0036L405.264 37.5391ZM401.558 77.2123L399.52 76.8952C399.235 84.8799 398.972 93.5909 398.734 103.028L400.772 103.326L402.81 103.623C403.048 94.197 403.31 85.4991 403.595 77.5293L401.558 77.2123ZM400.772 103.326L398.734 103.028C398.496 112.457 398.263 119.416 398.036 123.918L400.072 124.262L402.108 124.606C402.338 120.056 402.572 113.058 402.81 103.623L400.772 103.326ZM400.072 124.262L398.034 123.959C397.973 126.113 397.839 127.794 397.642 129.03C397.433 130.345 397.188 130.904 397.078 131.053L398.79 132.32L400.501 133.587C401.123 132.748 401.457 131.471 401.675 130.1C401.906 128.65 402.047 126.796 402.11 124.565L400.072 124.262ZM398.79 132.32L396.998 131.171C396.786 131.517 396.268 131.928 394.874 132.041L395.301 133.995L395.728 135.949C397.79 135.781 399.597 135.075 400.581 133.469L398.79 132.32ZM395.301 133.995L394.874 132.041C393.188 132.178 392.2 131.839 391.603 131.397C391.007 130.956 390.394 130.109 390.033 128.456L388.04 128.618L386.046 128.78C386.539 131.035 387.564 133.038 389.388 134.389C391.212 135.74 393.427 136.135 395.728 135.949L395.301 133.995ZM388.04 128.618L390.076 128.78L389.963 126.403L387.926 126.241L385.89 126.079L386.003 128.456L388.04 128.618ZM387.926 126.241L389.964 126.558C390.212 119.636 390.455 111.457 390.693 102.021L388.655 101.723L386.617 101.425C386.379 110.853 386.136 119.019 385.889 125.924L387.926 126.241ZM388.655 101.723L390.692 102.047C391.064 92.6023 391.297 85.6097 391.393 81.0771L389.355 80.7869L387.317 80.4968C387.222 84.9942 386.989 91.9591 386.618 101.4L388.655 101.723ZM389.355 80.7869L391.392 81.1137C391.904 68.6669 393.159 53.4302 395.161 35.3953L393.133 34.9435L391.105 34.4917C389.098 52.5753 387.834 67.9009 387.318 80.4602L389.355 80.7869ZM437.524 91.397L436.684 89.5217C432.837 90.7058 429.868 91.8973 427.888 93.1222C426.901 93.733 426.06 94.4127 425.495 95.1912C424.917 95.9864 424.548 97.0073 424.808 98.1949L426.801 98.0332L428.795 97.8716C428.826 98.0171 428.733 97.9799 428.936 97.701C429.15 97.4055 429.592 96.9951 430.392 96.4999C431.987 95.5127 434.607 94.4282 438.363 93.2724L437.524 91.397ZM426.801 98.0332L424.808 98.1949C425.14 99.7154 426.029 101.548 427.278 103.598C428.551 105.687 430.297 108.16 432.495 111.004L434.076 109.971L435.657 108.938C433.517 106.169 431.882 103.845 430.73 101.954C429.555 100.025 428.975 98.6957 428.795 97.8716L426.801 98.0332ZM434.076 109.971L432.518 111.033C434.786 113.875 436.779 116.085 438.485 117.588C439.336 118.338 440.182 118.972 441.009 119.416C441.822 119.852 442.795 120.201 443.8 120.119L443.373 118.165L442.946 116.211C443.088 116.2 443.026 116.26 442.632 116.048C442.252 115.844 441.72 115.471 441.022 114.856C439.628 113.627 437.837 111.669 435.634 108.909L434.076 109.971ZM443.373 118.165L443.8 120.119C445.899 119.949 446.437 118.093 446.548 116.844C446.671 115.453 446.432 113.594 445.951 111.394L443.958 111.556L441.964 111.718C442.423 113.816 442.556 115.208 442.484 116.02C442.4 116.974 442.176 116.274 442.946 116.211L443.373 118.165ZM443.958 111.556L445.951 111.394C444.951 106.819 442.764 99.9867 439.437 90.9607L437.524 91.397L435.611 91.8334C438.926 100.828 441.028 107.435 441.964 111.718L443.958 111.556Z" fill="black" mask="url(#path-1-outside-1_50_153)"/>
</svg>
