<svg width="916" height="361" viewBox="0 0 916 361" fill="none" xmlns="http://www.w3.org/2000/svg">
<path d="M326.039 112.072L325.217 107.731C324.856 104.015 325.635 100.992 327.553 98.6631C329.735 96.3081 332.154 95.002 334.808 94.7447C341.444 94.1013 346.209 97.6581 349.105 105.415C355.786 124.593 359.938 142.543 361.559 159.264C363.18 175.986 362.807 194.241 360.438 214.028C358.044 233.55 353.835 252.311 347.81 270.309C341.76 288.043 332.759 302.981 320.809 315.124C308.858 327.267 295.584 334.046 280.985 335.462C266.653 336.851 254.772 334.52 245.344 328.468C236.182 322.391 229.112 313.029 224.135 300.384C215.732 280.033 210.103 255.127 207.246 225.665C204.364 195.938 204.252 167.147 206.91 139.294C207.346 135.501 208.656 132.427 210.839 130.072C213.022 127.717 215.308 126.424 217.696 126.192C225.659 125.42 230.026 129.016 230.798 136.978L230.337 144.659C227.987 167.392 227.738 188.313 229.59 207.424C231.417 226.269 232.824 239.394 233.81 246.8C234.77 253.941 236.377 262.224 238.63 271.651C241.123 280.786 243.86 288.291 246.841 294.164C249.796 299.771 253.868 304.467 259.057 308.251C264.221 311.769 270.12 313.206 276.756 312.563C291.354 311.148 303.746 302.177 313.932 285.65C324.093 268.858 331.025 249.164 334.728 226.568C338.697 203.946 339.807 183.61 338.057 165.562C336.281 147.248 332.276 129.418 326.039 112.072ZM7.30323 153.02C6.27394 142.403 21.2865 135.589 52.3409 132.578C83.6607 129.542 114.286 123.492 144.218 114.428C148.122 113.245 150.738 112.59 152.065 112.461C160.028 111.689 164.395 115.285 165.167 123.247C165.785 129.617 162.189 133.985 154.381 136.349C123.996 146.261 91.1524 152.928 55.8512 156.35C41.253 157.766 32.293 159.304 28.9711 160.966C25.9147 162.602 23.0594 163.548 20.4052 163.806C12.4425 164.578 8.0752 160.982 7.30323 153.02ZM109.924 175.221C110.105 177.079 109.87 180.182 109.22 184.532C108.159 192.94 107.074 205.236 105.964 221.418C105.119 237.575 107.347 272.992 112.648 327.669C113.42 335.632 109.824 339.999 101.862 340.771C93.8991 341.543 89.5318 337.948 88.7598 329.985C83.1245 271.858 81.0116 233.482 82.4211 214.86C83.8049 195.971 85.01 183.53 86.0364 177.536C87.1224 169.394 90.7178 165.026 96.8225 164.435C104.785 163.663 109.152 167.258 109.924 175.221ZM559.028 123.643C535.67 125.908 517.383 136.254 504.167 154.682C490.95 173.11 485.525 194.533 487.893 218.952L495.998 302.56C496.77 310.523 493.175 314.89 485.212 315.662C477.25 316.434 472.882 312.839 472.11 304.876L464.005 221.268C461.714 197.646 465.628 175.833 475.745 155.83C485.862 135.827 499.837 121.076 517.67 111.578C477.188 108.537 439.694 108.689 405.189 112.034C397.227 112.806 392.859 109.21 392.087 101.248C391.316 93.2851 394.911 88.9178 402.874 88.1458C444.014 84.1573 495.036 85.3729 555.94 91.7926C559.176 92.0146 562.143 93.6024 564.841 96.5559C567.513 99.2439 569.042 102.579 569.428 106.56C569.814 110.541 568.847 114.386 566.527 118.094C564.182 121.536 561.682 123.386 559.028 123.643ZM694.9 30.8993C695.028 32.2264 694.622 34.945 693.681 39.055C686.075 71.1387 674.961 96.0607 660.34 113.821C657.943 116.733 654.887 118.369 651.171 118.729C643.208 119.501 638.841 115.905 638.069 107.943C637.786 105.023 638.963 101.962 641.599 98.7593C653.584 84.2016 663.122 62.3793 670.215 33.2924C671.832 25.0982 675.693 20.7051 681.798 20.1133C689.76 19.3413 694.128 22.9367 694.9 30.8993ZM675.345 285.173C676.117 293.136 672.521 297.503 664.559 298.275C658.72 298.841 654.352 295.246 651.457 287.489C644.407 267.275 640.32 254.141 639.198 248.088C633.103 210.099 628.577 175.842 625.617 145.319C624.845 137.356 628.441 132.989 636.404 132.217C644.366 131.445 648.733 135.04 649.505 143.003C652.259 171.403 656.683 204.598 662.777 242.587C663.686 249.197 665.982 257.681 669.665 268.041C673.349 278.401 675.242 284.111 675.345 285.173ZM787.174 85.8517C792.632 62.0138 803.722 49.2842 820.444 47.6631C833.715 46.3765 843.777 53.4385 850.629 68.8492C856.771 82.4534 866.353 116.354 879.377 170.55C887.502 168.69 892.096 167.709 893.157 167.606C901.12 166.834 905.487 170.43 906.259 178.392C906.568 181.577 905.631 184.347 903.448 186.702C901.265 189.057 898.607 190.655 895.473 191.494L885.237 193.692C890.027 215.465 892.95 231.792 894.005 242.675C895.06 253.557 893.071 262.055 888.037 268.17C883.004 274.284 876.771 277.701 869.339 278.422C862.173 279.116 854.976 276.733 847.749 271.272C840.787 265.785 835.062 259.24 830.574 251.637C820.939 235.157 815.709 222.67 814.886 214.176C813.316 197.986 826.966 185.41 855.836 176.449C842.153 120.977 833.624 89.6539 830.249 82.4794C827.114 75.0137 824.618 71.3709 822.76 71.5511C817.451 72.0657 813.385 78.488 810.562 90.818C801.904 128.63 796.356 155.692 793.918 172.003C791.481 188.314 788.92 206.111 786.235 225.394C783.549 244.676 781.45 258.945 779.936 268.201C778.662 277.166 777.186 282.667 775.508 284.705C774.095 286.718 771.664 287.891 768.213 288.226C760.251 288.998 755.883 285.402 755.112 277.44L755.445 272.585C757.557 258.448 759.956 241.739 762.641 222.457C765.592 203.148 767.691 188.879 768.94 179.649C772.891 154.082 778.969 122.816 787.174 85.8517ZM861.735 199.989C846.145 204.984 838.555 209.604 838.967 213.851C839.43 218.629 843.293 226.694 850.556 238.046C858.084 249.372 863.573 254.868 867.023 254.534C869.678 254.276 870.58 249.768 869.731 241.009C868.856 231.985 866.191 218.312 861.735 199.989Z" fill="white"/>
</svg>
