<svg width="1045" height="1004" viewBox="0 0 1045 1004" fill="none" xmlns="http://www.w3.org/2000/svg">
<path d="M349.039 618.072L348.217 613.731C347.856 610.015 348.635 606.992 350.553 604.663C352.735 602.308 355.154 601.002 357.808 600.745C364.444 600.101 369.209 603.658 372.105 611.415C378.786 630.593 382.938 648.543 384.559 665.264C386.18 681.986 385.807 700.241 383.438 720.028C381.044 739.55 376.835 758.311 370.81 776.309C364.76 794.043 355.759 808.981 343.809 821.124C331.858 833.267 318.584 840.046 303.985 841.462C289.653 842.851 277.772 840.52 268.344 834.468C259.182 828.391 252.112 819.029 247.135 806.384C238.732 786.033 233.103 761.127 230.246 731.665C227.364 701.938 227.252 673.147 229.91 645.294C230.346 641.501 231.656 638.427 233.839 636.072C236.022 633.717 238.308 632.424 240.696 632.192C248.659 631.42 253.026 635.016 253.798 642.978L253.337 650.659C250.987 673.392 250.738 694.313 252.59 713.424C254.417 732.269 255.824 745.394 256.81 752.8C257.77 759.941 259.377 768.224 261.63 777.651C264.123 786.786 266.86 794.291 269.841 800.164C272.796 805.771 276.868 810.467 282.057 814.251C287.221 817.769 293.12 819.206 299.756 818.563C314.354 817.148 326.746 808.177 336.932 791.65C347.093 774.858 354.025 755.164 357.728 732.568C361.697 709.946 362.807 689.61 361.057 671.562C359.281 653.248 355.276 635.418 349.039 618.072ZM30.3032 659.02C29.2739 648.403 44.2865 641.589 75.3409 638.578C106.661 635.542 137.286 629.492 167.218 620.428C171.122 619.245 173.738 618.59 175.065 618.461C183.028 617.689 187.395 621.285 188.167 629.247C188.785 635.617 185.189 639.985 177.381 642.349C146.996 652.261 114.152 658.928 78.8512 662.35C64.253 663.766 55.293 665.304 51.9711 666.966C48.9147 668.602 46.0594 669.548 43.4052 669.806C35.4425 670.578 31.0752 666.982 30.3032 659.02ZM132.924 681.221C133.105 683.079 132.87 686.182 132.22 690.532C131.159 698.94 130.074 711.236 128.964 727.418C128.119 743.575 130.347 778.992 135.648 833.669C136.42 841.632 132.824 845.999 124.862 846.771C116.899 847.543 112.532 843.948 111.76 835.985C106.124 777.858 104.012 739.482 105.421 720.86C106.805 701.971 108.01 689.53 109.036 683.536C110.122 675.394 113.718 671.026 119.822 670.435C127.785 669.663 132.152 673.258 132.924 681.221ZM582.028 629.643C558.67 631.908 540.383 642.254 527.167 660.682C513.95 679.11 508.525 700.533 510.893 724.952L518.998 808.56C519.77 816.523 516.175 820.89 508.212 821.662C500.25 822.434 495.882 818.839 495.11 810.876L487.005 727.268C484.714 703.646 488.628 681.833 498.745 661.83C508.862 641.827 522.837 627.076 540.67 617.578C500.188 614.537 462.694 614.689 428.189 618.034C420.227 618.806 415.859 615.21 415.087 607.248C414.316 599.285 417.911 594.918 425.874 594.146C467.014 590.157 518.036 591.373 578.94 597.793C582.176 598.015 585.143 599.602 587.841 602.556C590.513 605.244 592.042 608.579 592.428 612.56C592.814 616.541 591.847 620.386 589.527 624.094C587.182 627.536 584.682 629.386 582.028 629.643ZM717.9 536.899C718.028 538.226 717.622 540.945 716.681 545.055C709.075 577.139 697.961 602.061 683.34 619.821C680.943 622.733 677.887 624.369 674.171 624.729C666.208 625.501 661.841 621.905 661.069 613.943C660.786 611.023 661.963 607.962 664.599 604.759C676.584 590.202 686.122 568.379 693.215 539.292C694.832 531.098 698.693 526.705 704.798 526.113C712.76 525.341 717.128 528.937 717.9 536.899ZM698.345 791.173C699.117 799.136 695.521 803.503 687.559 804.275C681.72 804.841 677.352 801.246 674.457 793.489C667.407 773.275 663.32 760.141 662.198 754.088C656.103 716.099 651.577 681.842 648.617 651.319C647.845 643.356 651.441 638.989 659.404 638.217C667.366 637.445 671.733 641.04 672.505 649.003C675.259 677.403 679.683 710.598 685.777 748.587C686.686 755.197 688.982 763.681 692.665 774.041C696.349 784.401 698.242 790.111 698.345 791.173ZM810.174 591.852C815.632 568.014 826.722 555.284 843.444 553.663C856.715 552.376 866.777 559.438 873.629 574.849C879.771 588.453 889.353 622.354 902.377 676.55C910.502 674.69 915.096 673.709 916.157 673.606C924.12 672.834 928.487 676.43 929.259 684.392C929.568 687.577 928.631 690.347 926.448 692.702C924.265 695.057 921.607 696.655 918.473 697.494L908.237 699.692C913.027 721.465 915.95 737.792 917.005 748.675C918.06 759.557 916.071 768.055 911.037 774.17C906.004 780.284 899.771 783.701 892.339 784.422C885.173 785.116 877.976 782.733 870.749 777.272C863.787 771.785 858.062 765.24 853.574 757.637C843.939 741.157 838.709 728.67 837.886 720.176C836.316 703.986 849.966 691.41 878.836 682.449C865.153 626.977 856.624 595.654 853.249 588.479C850.114 581.014 847.618 577.371 845.76 577.551C840.451 578.066 836.385 584.488 833.562 596.818C824.904 634.63 819.356 661.692 816.918 678.003C814.481 694.314 811.92 712.111 809.235 731.394C806.549 750.676 804.45 764.945 802.936 774.201C801.662 783.166 800.186 788.667 798.508 790.705C797.095 792.718 794.664 793.891 791.213 794.226C783.251 794.998 778.883 791.402 778.112 783.44L778.445 778.585C780.557 764.448 782.956 747.739 785.641 728.457C788.592 709.148 790.691 694.879 791.94 685.649C795.891 660.082 801.969 628.816 810.174 591.852ZM884.735 705.989C869.145 710.984 861.555 715.604 861.967 719.851C862.43 724.629 866.293 732.694 873.556 744.046C881.084 755.372 886.573 760.868 890.023 760.534C892.678 760.276 893.58 755.768 892.731 747.009C891.856 737.985 889.191 724.312 884.735 705.989Z" fill="white"/>
<path d="M474.682 205.295C478.136 198.028 497.743 240.43 506.838 231.273C513.977 224.086 519.963 194.228 534.199 211.365C546.882 226.631 562.052 233.188 582.836 224.344C590.877 220.922 597.059 207.785 602.982 217.852C608.464 227.171 612.794 233.833 624.831 233.457C642.439 232.908 659.613 226.952 661.389 205.933C662.322 194.895 694.054 215.565 701.046 213.328C704.756 212.142 701.541 200.595 702.319 197.49C704.804 187.578 721.688 208.539 723.106 210.523C728.794 218.487 728.907 221.418 738.763 221.111C747.115 220.851 756.665 219.25 761.778 227.558C771.731 243.74 791.847 251.98 805.173 264.48C822.417 280.656 813.557 318.58 817.601 340.48C821.318 360.615 833.01 402.333 827.224 402.513C797.627 393.525 815.298 461.991 830.076 461.531C846.697 472.002 816.552 493.654 817.193 513.18C818.009 538.075 835.479 511.757 848.262 500.603C861.1 489.397 859.435 525.058 873.732 532.872C880.433 536.532 895.044 498.096 902.557 497.443C908.53 496.925 903.136 485.039 906.59 481.357C917.942 469.253 909.568 501.845 915.947 508.428C929.216 522.113 982.508 521.154 1000.34 528.924C1018.63 536.894 1014.16 503.497 1013.85 493.973C1013.5 483.309 1022.02 485.047 1029.71 481.101C1036.97 477.38 1036.4 466.329 1036.18 459.563C1035.89 450.743 1034.61 443.633 1029.39 436.321C1022.9 427.234 1007.81 428.172 1002.62 419.728C998.844 413.592 990.788 410.956 986.189 405.419C982.142 400.548 991.284 373.563 995.076 368.496C1004.12 356.416 999.811 334.087 999.344 319.828C998.736 301.3 993.544 291.143 980.384 278.073C961.123 258.946 961.101 226.489 960.26 200.848C959.033 163.413 921.791 176.799 904.384 155.847C896.358 146.187 886.349 131.712 881.548 120.076C878.412 112.476 877.159 104.415 871.873 98.2268C864.469 89.5571 840.866 80.6963 830.247 80.469C812.371 80.0863 811.74 60.9132 802.881 50.5398C792.154 37.9815 785.859 32.0147 767.761 32.5791C754.533 32.9915 740.746 40.2937 726.834 36.1354C711.559 31.5705 693.593 23.1649 677.399 23.6698C658.026 24.2739 639.593 27.7804 620.548 28.3742C611.953 28.6422 602.748 29.8339 594.183 29.0335C584.106 28.0918 578.497 19.3892 570.137 15.9393C555.029 9.70378 532.369 23.7081 517.687 25.7183C502.158 27.8445 491.116 39.8062 478.658 47.457C457.391 60.5171 432.822 54.454 412.198 67.1193C408.777 69.2203 406.593 73.5762 403.537 76.1843C399.918 79.2739 392.927 77.7494 390.502 80.9885C382.555 91.6046 376.34 96.1405 376.867 112.196C377.238 123.526 397.689 144.22 385.51 157.205C376.637 166.664 356.952 167.118 350.439 180.449C342.937 195.805 354.425 218.281 345.639 232.718C337.08 246.778 311.882 259.876 325.351 279.605C349.865 315.511 301.282 344.677 291.642 374.144C285.108 394.118 279.393 445.854 294.577 463.631C302.663 473.098 301.265 488.781 301.661 500.871C302.107 514.469 299.52 537.457 321.248 526.971C336.625 519.549 327.209 500.726 350.007 500.015C355.664 499.839 360.565 503.89 364.896 507.041C371.378 511.761 376.247 510.922 384.072 510.678C406.243 509.987 401.735 484.35 416.798 480.505C432.361 476.531 460.237 469.933 470.77 478.822C499.945 503.442 533.892 519.827 533.012 493.006C531.926 459.869 503.417 395.173 502.33 362.036C501.56 338.556 493.849 311.636 491.111 288.117C489.692 275.93 475.791 267.969 475.341 254.243C474.877 240.079 463.337 213.388 474.682 205.295Z" stroke="white" stroke-width="17" stroke-linecap="round"/>
<path d="M466.94 209.034C470.394 201.768 490.001 244.169 499.096 235.012C506.235 227.825 512.22 197.967 526.457 215.104C539.14 230.37 554.31 236.927 575.094 228.084C583.135 224.661 589.317 211.524 595.24 221.591C600.722 230.91 605.051 237.572 617.089 237.197C634.697 236.648 651.87 230.691 653.647 209.672C654.58 198.634 686.312 219.304 693.304 217.068C697.014 215.881 693.798 204.334 694.577 201.23C697.062 191.318 713.946 212.278 715.364 214.262C721.052 222.227 721.165 225.158 731.02 224.85C739.373 224.59 748.923 222.989 754.036 231.297C763.989 247.48 784.105 255.719 797.43 268.219C814.675 284.395 805.815 322.319 809.859 344.219C813.576 364.354 825.267 406.072 819.482 406.252C789.884 397.265 807.556 465.731 822.334 465.27C838.954 475.741 808.81 497.393 809.45 516.92C810.267 541.814 827.737 515.496 840.519 504.343C853.358 493.136 851.693 528.797 865.99 536.611C872.691 540.271 887.302 501.836 894.814 501.183C900.788 500.664 895.394 488.779 898.848 485.096C910.2 472.992 901.826 505.585 908.205 512.167C921.474 525.852 974.766 524.893 992.595 532.663C1010.89 540.634 1006.42 507.236 1006.11 497.712C1005.76 487.048 1014.28 488.786 1021.97 484.841C1029.23 481.119 1028.66 470.068 1028.43 463.302C1028.14 454.482 1026.87 447.373 1021.64 440.061C1015.15 430.973 1000.07 431.911 994.878 423.468C991.102 417.331 983.046 414.695 978.447 409.158C974.399 404.287 983.542 377.302 987.333 372.235C996.376 360.155 992.069 337.826 991.602 323.567C990.994 305.039 985.801 294.883 972.641 281.812C953.381 262.685 953.359 230.228 952.518 204.587C951.29 167.152 914.049 180.539 896.641 159.586C888.616 149.926 878.607 135.451 873.806 123.815C870.67 116.215 869.417 108.155 864.131 101.966C856.727 93.2963 833.124 84.4356 822.505 84.2082C804.628 83.8256 803.997 64.6525 795.139 54.2791C784.411 41.7208 778.117 35.754 760.019 36.3183C746.791 36.7308 733.004 44.0329 719.092 39.8747C703.817 35.3097 685.851 26.9041 669.657 27.4091C650.284 28.0132 631.85 31.5197 612.806 32.1135C604.211 32.3815 595.006 33.5731 586.44 32.7727C576.364 31.8311 570.755 23.1284 562.394 19.6786C547.287 13.443 524.627 27.4474 509.945 29.4575C494.416 31.5838 483.373 43.5455 470.916 51.1962C449.649 64.2564 425.08 58.1932 404.456 70.8586C401.035 72.9596 398.851 77.3154 395.795 79.9236C392.176 83.0132 385.184 81.4886 382.76 84.7277C374.813 95.3439 368.598 99.8798 369.125 115.935C369.496 127.266 389.947 147.959 377.767 160.944C368.895 170.403 349.21 170.857 342.697 184.188C335.195 199.544 346.682 222.021 337.896 236.457C329.338 250.517 304.139 263.616 317.609 283.345C342.123 319.251 293.54 348.416 283.9 377.883C277.365 397.857 271.65 449.593 286.834 467.37C294.921 476.838 293.523 492.52 293.919 504.61C294.365 518.208 291.778 541.197 313.506 530.711C328.882 523.288 319.467 504.465 342.265 503.754C347.922 503.578 352.823 507.629 357.154 510.781C363.636 515.501 368.505 514.662 376.33 514.418C398.501 513.726 393.993 488.089 409.055 484.244C424.619 480.271 452.495 473.673 463.028 482.561C492.203 507.181 526.15 523.566 525.27 496.745C524.183 463.608 495.675 398.913 494.588 365.776C493.818 342.295 486.107 315.375 483.369 291.856C481.95 279.67 468.049 271.708 467.599 257.982C467.135 243.818 455.595 217.127 466.94 209.034Z" stroke="white" stroke-width="17" stroke-linecap="round"/>
<path d="M430.769 259.381C452.464 253.873 491.742 251.081 531.431 251.998C572.375 252.944 614.193 257.841 637.884 268.01L642.005 269.767C645.88 271.411 649.016 272.711 651.521 273.768C654.805 275.152 657.09 276.154 658.417 276.93C658.76 277.132 659.084 277.344 659.362 277.568C659.626 277.779 659.949 278.081 660.188 278.493C660.456 278.95 660.652 279.613 660.463 280.354C660.292 281.016 659.887 281.434 659.613 281.662C659.094 282.09 658.382 282.372 657.788 282.583C657.459 282.7 657.092 282.822 656.692 282.945L653.975 283.763C646.3 286.108 631.842 291.346 620.69 310.003C608.118 331.036 586.436 343.772 564.357 349.093C543.002 354.237 520.925 352.53 505.935 344.321L504.508 343.506C490.055 334.921 460.403 317.723 439.623 301.202C434.421 297.067 429.739 292.945 425.976 288.987C422.235 285.052 419.302 281.175 417.714 277.517C416.112 273.824 415.778 270.069 417.735 266.79C419.612 263.644 423.337 261.412 428.724 259.923L430.769 259.381Z" fill="white"/>
<path d="M849.717 244.448C828.179 240.036 787.539 239.601 746.714 243.046C705.916 246.49 664.505 253.843 641.526 265.216L633.999 268.902C631.802 269.97 629.907 270.882 628.287 271.67C625.1 273.226 622.884 274.341 621.612 275.181C621.284 275.397 620.976 275.624 620.71 275.86C620.465 276.081 620.156 276.398 619.94 276.819C619.696 277.292 619.538 277.976 619.784 278.715C620.005 279.37 620.444 279.758 620.731 279.959C621.274 280.346 621.998 280.576 622.605 280.745C623.274 280.933 624.105 281.12 625.019 281.326C632.326 282.973 648.249 286.528 661.404 305.196C675.32 324.942 697.785 336.025 720.154 339.853C741.79 343.555 763.702 340.529 778.124 331.605L779.498 330.722C793.365 321.461 821.841 302.862 841.509 285.47C846.433 281.115 850.84 276.807 854.338 272.715C857.819 268.646 860.499 264.682 861.849 261.006C863.215 257.291 863.309 253.576 861.127 250.473C859.044 247.513 855.18 245.568 849.717 244.448Z" fill="white"/>
</svg>
