<svg width="999" height="111" viewBox="0 0 999 111" fill="none" xmlns="http://www.w3.org/2000/svg">
<path d="M97.53 31.32L96 72.8C96 82.5467 96.2833 88.5533 96.85 90.82C97.4167 93.0867 97.7 94.4467 97.7 94.9C97.7 98.3 96 100 92.6 100C90.1067 100 88.35 98.0167 87.33 94.05C86.31 90.0833 85.8 83 85.8 72.8C85.8 72.12 85.9133 68.6067 86.14 62.26C87.0467 42.9933 87.5 27.8067 87.5 16.7C87.5 13.3 89.2 11.6 92.6 11.6C94.4133 11.6 96.7367 13.3 99.57 16.7C104.33 23.0467 108.127 28.43 110.96 32.85C121.047 48.83 129.037 63.11 134.93 75.69C136.177 60.9567 136.8 37.5533 136.8 5.47999C136.8 2.07999 138.5 0.379996 141.9 0.379996C145.3 0.379996 147 2.07999 147 5.47999C147 55.3467 145.413 83.4533 142.24 89.8C140.54 93.2 138.5 94.9 136.12 94.9C133.853 94.9 131.927 93.37 130.34 90.31C128.867 87.25 127.79 84.87 127.11 83.17C121.67 70.4767 113.51 55.6867 102.63 38.8L97.53 31.32ZM55.71 7.35L55.54 5.47999C55.54 3.89332 55.9933 2.64666 56.9 1.74C57.92 0.83333 58.9967 0.379996 60.13 0.379996C62.9633 0.379996 64.8333 2.07999 65.74 5.47999C67.78 13.8667 68.8 21.63 68.8 28.77C68.8 35.91 67.8933 43.6167 66.08 51.89C64.2667 60.05 61.7167 67.8133 58.43 75.18C55.1433 82.4333 50.7233 88.3833 45.17 93.03C39.6167 97.6767 33.7233 100 27.49 100C21.37 100 16.44 98.5267 12.7 95.58C9.07333 92.6333 6.46667 88.3833 4.88 82.83C2.16 73.8767 0.8 63.11 0.8 50.53C0.8 37.8367 1.93333 25.6533 4.2 13.98C4.54 12.3933 5.22 11.1467 6.24 10.24C7.26 9.33333 8.28 8.88 9.3 8.88C12.7 8.88 14.4 10.58 14.4 13.98L13.89 17.21C11.9633 26.73 11 35.57 11 43.73C11 51.7767 11.0567 57.3867 11.17 60.56C11.2833 63.62 11.6233 67.19 12.19 71.27C12.87 75.2367 13.72 78.5233 14.74 81.13C15.76 83.6233 17.29 85.7767 19.33 87.59C21.37 89.29 23.8067 90.14 26.64 90.14C32.8733 90.14 38.4833 86.8533 43.47 80.28C48.4567 73.5933 52.1967 65.5467 54.69 56.14C57.2967 46.7333 58.6 38.1767 58.6 30.47C58.6 22.65 57.6367 14.9433 55.71 7.35ZM213.293 11.6C213.293 7.06666 219.923 4.8 233.183 4.8C246.557 4.8 259.76 3.49667 272.793 0.889999C274.493 0.549997 275.627 0.379996 276.193 0.379996C279.593 0.379996 281.293 2.07999 281.293 5.47999C281.293 8.2 279.593 9.9 276.193 10.58C262.933 13.5267 248.767 15 233.693 15C227.46 15 223.607 15.2833 222.133 15.85C220.773 16.4167 219.527 16.7 218.393 16.7C214.993 16.7 213.293 15 213.293 11.6ZM255.793 25.2C255.793 25.9933 255.567 27.2967 255.113 29.11C254.32 32.6233 253.357 37.78 252.223 44.58C251.203 51.38 250.693 66.4533 250.693 89.8C250.693 93.2 248.993 94.9 245.593 94.9C242.193 94.9 240.493 93.2 240.493 89.8C240.493 64.98 241.173 48.66 242.533 40.84C243.893 32.9067 244.913 27.6933 245.593 25.2C246.387 21.8 248.087 20.1 250.693 20.1C254.093 20.1 255.793 21.8 255.793 25.2ZM187.793 13.3L186.093 60.9C186.093 66.7933 186.377 72.97 186.943 79.43C187.623 85.7767 188.19 89.6867 188.643 91.16C189.21 92.6333 189.493 93.88 189.493 94.9C189.493 98.3 187.793 100 184.393 100C182.127 100 180.427 98.3 179.293 94.9C177.027 88.1 175.893 76.7667 175.893 60.9L177.593 13.3C177.593 9.89999 179.293 8.2 182.693 8.2C186.093 8.2 187.793 9.89999 187.793 13.3ZM344.154 11.6L339.054 10.58C334.974 10.58 329.42 11.4867 322.394 13.3C315.367 15 311.854 16.7 311.854 18.4C311.854 21.8 315.537 25.7667 322.904 30.3C325.624 31.8867 328.117 34.0967 330.384 36.93C332.764 39.65 333.954 42.37 333.954 45.09C333.954 47.81 333.16 50.2467 331.574 52.4C330.1 54.5533 328.627 56.1967 327.154 57.33C325.794 58.35 324.15 59.4833 322.224 60.73C320.297 61.9767 319.107 62.77 318.654 63.11C318.314 63.3367 317.69 63.7333 316.784 64.3L314.744 65.66C314.29 65.8867 313.667 66.2833 312.874 66.85C312.194 67.3033 311.627 67.7 311.174 68.04C310.72 68.2667 310.21 68.6067 309.644 69.06C309.19 69.5133 308.794 69.8533 308.454 70.08C308 70.42 307.66 70.76 307.434 71.1C306.98 71.6667 306.754 72.2333 306.754 72.8C306.754 76.54 309.474 80.3367 314.914 84.19C320.467 87.93 326.814 89.8 333.954 89.8C348.574 89.8 359.794 88.4967 367.614 85.89C369.994 85.0967 371.354 84.7 371.694 84.7C375.094 84.7 376.794 86.4 376.794 89.8C376.794 92.2933 375.094 94.1067 371.694 95.24C362.174 98.4133 349.594 100 333.954 100C324.094 100 315.367 97.1667 307.774 91.5C300.294 85.72 296.554 79.4867 296.554 72.8C296.554 67.8133 300.407 62.8267 308.114 57.84C308.794 57.3867 309.814 56.7067 311.174 55.8C312.647 54.8933 315.027 53.3067 318.314 51.04C321.6 48.7733 323.414 46.96 323.754 45.6C323.754 44.58 322.564 43.1633 320.184 41.35C317.917 39.4233 315.424 37.4967 312.704 35.57C309.984 33.6433 307.434 31.15 305.054 28.09C302.787 24.9167 301.654 21.63 301.654 18.23C301.654 14.7167 303.24 11.7133 306.414 9.21999C309.587 6.61333 314.574 4.51666 321.374 2.92999C328.174 1.22999 333.387 0.379996 337.014 0.379996C340.754 0.379996 343.7 0.946662 345.854 2.07999C348.12 3.21333 349.254 4.68666 349.254 6.5C349.254 9.89999 347.554 11.6 344.154 11.6ZM557.493 15L555.113 74.5C555.113 81.3 568.146 84.7 594.213 84.7C597.613 84.7 599.313 86.4 599.313 89.8C599.313 93.2 597.613 94.9 594.213 94.9C561.346 94.9 544.913 88.1 544.913 74.5L547.293 15L546.613 5.65C546.613 2.13666 548.313 0.379996 551.713 0.379996C554.773 0.379996 556.473 2.07999 556.813 5.47999C557.266 8.2 557.493 11.3733 557.493 15ZM521.963 64.13C524.796 79.5433 527.516 89.97 530.123 95.41C530.916 96.9967 531.313 98.5267 531.313 100C531.313 103.4 529.613 105.1 526.213 105.1C524.4 105.1 522.7 103.4 521.113 100C516.693 90.9333 513.123 77.3333 510.403 59.2C503.263 59.2 493.686 60.2767 481.673 62.43L473.513 94.9C473.06 96.7133 472.436 98.0167 471.643 98.81C470.963 99.6033 469.886 100 468.413 100C465.013 100 463.313 98.3 463.313 94.9C463.313 93.9933 463.426 93.3133 463.653 92.86L470.963 63.45H468.413C465.013 63.45 463.313 61.75 463.313 58.35C463.313 54.95 465.013 53.25 468.413 53.25C470.453 53.25 472.153 53.1933 473.513 53.08C476.233 43.1067 480.086 30.47 485.073 15.17C488.246 5.31 493.346 0.379996 500.373 0.379996C502.413 0.379996 504.566 1.17333 506.833 2.76C509.213 4.23333 510.913 6.84 511.933 10.58C514.54 19.8733 517.146 33.2467 519.753 50.7C521.566 51.38 523.946 52.91 526.893 55.29C529.84 57.5567 531.313 59.4267 531.313 60.9C531.313 64.3 529.613 66 526.213 66C525.42 66 524.003 65.3767 521.963 64.13ZM508.873 49C505.133 23.3867 502.3 10.58 500.373 10.58C499.353 10.58 498.616 10.8633 498.163 11.43C497.71 11.8833 497.37 12.2233 497.143 12.45C496.916 12.6767 496.633 13.13 496.293 13.81C496.066 14.49 495.896 14.9433 495.783 15.17C495.103 16.53 494.763 17.55 494.763 18.23C489.55 33.87 486.093 44.9767 484.393 51.55C492.78 50.0767 500.94 49.2267 508.873 49ZM792.153 15L789.773 74.5C789.773 81.3 802.806 84.7 828.873 84.7C832.273 84.7 833.973 86.4 833.973 89.8C833.973 93.2 832.273 94.9 828.873 94.9C796.006 94.9 779.573 88.1 779.573 74.5L781.953 15L781.273 5.65C781.273 2.13666 782.973 0.379996 786.373 0.379996C789.433 0.379996 791.133 2.07999 791.473 5.47999C791.926 8.2 792.153 11.3733 792.153 15ZM760.873 92.18C750.446 97.3933 740.303 100 730.443 100C720.583 100 712.706 95.92 706.813 87.76C700.919 79.6 697.973 70.3067 697.973 59.88C697.973 49.4533 699.446 39.9333 702.393 31.32C705.453 22.5933 710.269 15.2833 716.843 9.38999C723.529 3.38333 731.406 0.379996 740.473 0.379996C744.099 0.379996 747.556 1.28666 750.843 3.09999C754.129 4.91333 755.773 6.84 755.773 8.88C755.773 12.28 754.073 13.98 750.673 13.98C749.653 13.98 748.123 13.4133 746.083 12.28C744.156 11.1467 742.286 10.58 740.473 10.58C733.446 10.58 727.383 13.13 722.283 18.23C712.876 27.6367 708.173 41.2933 708.173 59.2C708.173 67.02 710.156 74.1033 714.123 80.45C718.089 86.6833 723.473 89.8 730.273 89.8C738.659 89.8 747.499 87.4767 756.793 82.83C758.833 81.81 760.193 81.3 760.873 81.3C764.273 81.3 765.973 83 765.973 86.4C765.973 87.76 765.633 88.8367 764.953 89.63C764.273 90.31 762.913 91.16 760.873 92.18ZM930.853 20.1C930.853 16.7 932.553 15 935.953 15C938.559 15 940.259 16.7 941.053 20.1C941.733 22.5933 942.753 27.8067 944.113 35.74C945.473 43.56 946.153 61.58 946.153 89.8C946.153 93.2 944.453 94.9 941.053 94.9C937.653 94.9 935.953 93.2 935.953 89.8C935.953 63.0533 935.386 46.0533 934.253 38.8C933.233 32.4533 932.496 28.2033 932.043 26.05C931.249 22.8767 930.853 20.8933 930.853 20.1ZM951.253 10.58L935.953 11.6C932.553 11.6 930.853 9.89999 930.853 6.5C930.853 3.44 932.553 1.74 935.953 1.39999C942.753 0.719995 947.853 0.379996 951.253 0.379996C962.133 0.379996 970.803 3.38333 977.263 9.38999C983.723 15.3967 986.953 22.3667 986.953 30.3C986.953 38.2333 983.949 44.92 977.943 50.36C984.063 52.4 989.049 55.29 992.903 59.03C996.869 62.6567 998.853 66.5667 998.853 70.76C998.853 74.9533 998.116 78.6933 996.643 81.98C995.169 85.1533 993.469 87.76 991.543 89.8C989.616 91.84 986.726 93.9367 982.873 96.09C979.019 98.2433 975.733 99.83 973.013 100.85C970.293 101.87 966.326 103.343 961.113 105.27C955.899 107.197 952.216 108.557 950.063 109.35C947.909 110.257 945.869 110.71 943.943 110.71C940.543 110.71 938.843 108.953 938.843 105.44C938.843 103.853 940.656 102.323 944.283 100.85C948.023 99.3767 952.216 97.79 956.863 96.09C961.509 94.39 965.023 93.0867 967.403 92.18C969.896 91.2733 972.729 90.0267 975.903 88.44C978.963 86.8533 981.286 85.3233 982.873 83.85C986.726 80.2233 988.653 75.9733 988.653 71.1C988.653 67.8133 985.423 64.7533 978.963 61.92C972.503 58.9733 966.099 57.5 959.753 57.5C956.353 57.5 954.653 55.8 954.653 52.4C954.653 49 956.353 47.3 959.753 47.3C964.286 47.3 968.253 45.6 971.653 42.2C975.053 38.8 976.753 34.72 976.753 29.96C976.753 25.0867 974.486 20.6667 969.953 16.7C965.419 12.62 959.186 10.58 951.253 10.58ZM904.163 7.35L903.993 5.47999C903.993 3.89332 904.446 2.64666 905.353 1.74C906.373 0.83333 907.449 0.379996 908.583 0.379996C911.416 0.379996 913.286 2.07999 914.193 5.47999C916.233 13.8667 917.253 21.63 917.253 28.77C917.253 35.91 916.346 43.6167 914.533 51.89C912.719 60.05 910.169 67.8133 906.883 75.18C903.596 82.4333 899.176 88.3833 893.623 93.03C888.069 97.6767 882.176 100 875.943 100C869.823 100 864.893 98.5267 861.153 95.58C857.526 92.6333 854.919 88.3833 853.333 82.83C850.613 73.8767 849.253 63.11 849.253 50.53C849.253 37.8367 850.386 25.6533 852.653 13.98C852.993 12.3933 853.673 11.1467 854.693 10.24C855.713 9.33333 856.733 8.88 857.753 8.88C861.153 8.88 862.853 10.58 862.853 13.98L862.343 17.21C860.416 26.73 859.453 35.57 859.453 43.73C859.453 51.7767 859.509 57.3867 859.623 60.56C859.736 63.62 860.076 67.19 860.643 71.27C861.323 75.2367 862.173 78.5233 863.193 81.13C864.213 83.6233 865.743 85.7767 867.783 87.59C869.823 89.29 872.259 90.14 875.093 90.14C881.326 90.14 886.936 86.8533 891.923 80.28C896.909 73.5933 900.649 65.5467 903.143 56.14C905.749 46.7333 907.053 38.1767 907.053 30.47C907.053 22.65 906.089 14.9433 904.163 7.35Z" fill="white"/>
</svg>
